<svg xmlns="http://www.w3.org/2000/svg" width="247" height="86" viewBox="0 0 247 86">
  <g id="logoweb_en" transform="translate(-850 2218)">
    <circle id="Ellipse_1321" data-name="Ellipse 1321" cx="43" cy="43" r="43" transform="translate(850 -2218)" fill="#f85f33"/>
    <path id="Path_12025" data-name="Path 12025" d="M-1751.442,4625.941c-12.683,0-22.967,8.533-22.967,19.064,0,6.83,4.326,12.823,10.828,16.186,0,0,.338,2.557-3.22,5.653,0,0,2.415.781,8.227-3.1l5.786.3q.667.026,1.346.026c12.686,0,22.969-8.533,22.969-19.064S-1738.756,4625.941-1751.442,4625.941Zm-10.79,12.911a2.528,2.528,0,0,1,2.531-2.524,2.528,2.528,0,0,1,2.531,2.524,2.529,2.529,0,0,1-2.531,2.528A2.529,2.529,0,0,1-1762.231,4638.853Zm17.054,12.835c-1.211,1.366-3.352,2.036-6.354,1.975s-5.113-.8-6.266-2.2a3.825,3.825,0,0,1-.877-2.811l.01-.543c.022-1,.836-1.065,1.831-.9l.6.1c1,.167,1.8.509,1.782,1.508l-.011.6c-.013.435-.649,1.772,2.978,1.838s3.048-1.288,3.056-1.73l.012-.6c.021-1,.842-1.314,1.843-1.443l.6-.074c1-.134,1.813-.034,1.791.963l-.009.547A3.853,3.853,0,0,1-1745.177,4651.688Zm2-10.307a2.529,2.529,0,0,1-2.532-2.528,2.527,2.527,0,0,1,2.532-2.524,2.527,2.527,0,0,1,2.531,2.524A2.529,2.529,0,0,1-1743.181,4641.381Z" transform="translate(2644.5 -6821.576)" fill="#fff"/>
    <text id="VBot" transform="translate(952 -2179.5)" fill="#f85f33" stroke="rgba(0,0,0,0)" stroke-miterlimit="10" stroke-width="1" font-size="34" font-family="Roboto-Bold, Roboto" font-weight="700"><tspan x="0" y="0">VBot</tspan></text>
    <text id="Help_you_succeed_" data-name="Help you succeed!" transform="translate(952 -2146.203)" fill="#f85f33" stroke="rgba(0,0,0,0)" stroke-miterlimit="10" stroke-width="1" font-size="18" font-family="Roboto-Italic, Roboto" font-style="italic"><tspan x="0" y="0">Help you succeed!</tspan></text>
  </g>
</svg>
