<svg xmlns="http://www.w3.org/2000/svg" width="240" height="240" viewBox="0 0 240 240">
  <g id="intern" transform="translate(-14646 -8141)">
    <rect id="Rectangle_3922" data-name="Rectangle 3922" width="240" height="240" transform="translate(14646 8141)" fill="none"/>
    <g id="Group_3060" data-name="Group 3060" transform="translate(-11)">
      <path id="Path_12314" data-name="Path 12314" d="M66.522,30.4c-.068,5.4,4.815,8.415,8.492,10.208,3.778,1.839,5.048,3.018,5.035,4.663-.029,2.517-3.015,3.629-5.81,3.671a20.271,20.271,0,0,1-9.963-2.369l-1.755,8.218a29.233,29.233,0,0,0,10.79,1.991c10.189,0,16.858-5.031,16.894-12.829.039-9.9-13.692-10.447-13.6-14.871.032-1.341,1.312-2.773,4.117-3.138a18.265,18.265,0,0,1,9.565,1.677L92,19.667A25.96,25.96,0,0,0,82.915,18c-9.591,0-16.338,5.1-16.393,12.4m41.86-11.711a4.426,4.426,0,0,0-4.13,2.75L89.7,56.192H99.88l2.026-5.6H114.35l1.176,5.6H124.5l-7.833-37.507h-8.285m1.425,10.134L112.744,42.9h-8.05l5.112-14.086M54.178,18.685,46.151,56.192h9.7l8.024-37.507h-9.7m-14.357,0-10.1,25.528L25.634,22.508a4.522,4.522,0,0,0-4.476-3.823H4.646L4.42,19.774a40.425,40.425,0,0,1,9.575,3.193c1.428.776,1.835,1.454,2.3,3.3L24.038,56.2H34.295L50.016,18.688l-10.2,0" transform="translate(14712.58 8219.861)" fill="#1565c0"/>
      <g id="Group_3056" data-name="Group 3056" transform="translate(14717 8283.636)">
        <path id="Path_12316" data-name="Path 12316" d="M19.9,13C12.556,13,7,17.656,7,25.719V90.365H29.8c5.736,0,12.368-5.384,12.368-12.368V13Z" transform="translate(-7 -13)" fill="#3f51b5"/>
        <path id="Path_12317" data-name="Path 12317" d="M31.9,13C24.556,13,19,17.656,19,25.719V90.365H41.8c5.736,0,12.368-5.384,12.368-12.368V13Z" transform="translate(23.198 -13)" fill="#e53935"/>
        <path id="Path_12318" data-name="Path 12318" d="M43.9,13C36.556,13,31,17.656,31,25.719V90.365H53.8c5.736,0,12.368-5.384,12.368-12.368V13Z" transform="translate(53.396 -13)" fill="#388e3c"/>
        <path id="Path_12319" data-name="Path 12319" d="M36.006,32.9c0,6.453-8.331,9.857-14.421,9.857-6.625,0-12.544-3.939-13.806-8.95h4.48c.535,3.045,3.59,5.187,6.987,5.187A6.13,6.13,0,0,0,25.7,32.9V21.259H36V32.9Zm80.178-1.459c2.68,0,4.554-2.669,4.554-5.342a5.119,5.119,0,0,0-5.011-5H93.706V41.676h22.478a5.478,5.478,0,0,0,5.356-5.342A5.113,5.113,0,0,0,116.184,31.439Zm-13.908-8.2h6.959a3.386,3.386,0,0,1,0,6.773h-6.959Zm7.132,16.3H102.28v-6.78h7.128a3.39,3.39,0,1,1,0,6.78ZM78.223,24.891a53.512,53.512,0,0,0-10-1.5,7.832,7.832,0,0,0-7.67,8.1,7.843,7.843,0,0,0,7.67,8.127,49.546,49.546,0,0,0,10-1.336v3.59H61.08c-5.352,0-9.811-4.719-9.811-10.381s4.459-10.367,9.811-10.367H78.223Z" transform="translate(-5.041 7.378)" fill="#fafafa"/>
      </g>
      <g id="Group_3057" data-name="Group 3057" transform="translate(14717 8161)">
        <path id="Path_12322" data-name="Path 12322" d="M30,26.435H79.232V76.581H30Z" transform="translate(5.167 -16.342)" fill="#ff6f00"/>
        <path id="Path_12323" data-name="Path 12323" d="M58.116,25A35.016,35.016,0,0,0,33.5,35.093a35.07,35.07,0,0,1,0,50.146A35.154,35.154,0,1,0,58.116,25Z" transform="translate(26.282 -25)" fill="#ffb300"/>
        <path id="Path_12324" data-name="Path 12324" d="M74.232,60.166a35.029,35.029,0,0,1,10.55-25.073,35.166,35.166,0,1,0,0,50.146A35.029,35.029,0,0,1,74.232,60.166Z" transform="translate(-25 -25)" fill="#d50000"/>
      </g>
    </g>
  </g>
</svg>
