<svg xmlns="http://www.w3.org/2000/svg" width="225" height="201.201" viewBox="0 0 225 201.201">
  <g id="paysuccess" transform="translate(-861 -341.799)">
    <g id="icons8_cash_receipt" transform="translate(860 340.799)">
      <path id="Path_12335" data-name="Path 12335" d="M44,4V169.168l78.651-7.865a15.776,15.776,0,0,0,15.73-15.73V4l-15.73,15.73L106.921,4,91.191,19.73,75.461,4,59.73,19.73Z" transform="translate(24.64 1.719)" fill="#fff"/>
      <path id="Path_12336" data-name="Path 12336" d="M112.91,26.168a4.527,4.527,0,0,1-3.3-1.416L97.18,12.326,84.753,24.753a4.561,4.561,0,0,1-6.607,0L62.416,9.022a4.561,4.561,0,0,1,0-6.607,4.561,4.561,0,0,1,6.607,0L81.449,14.843,93.876,2.416a4.561,4.561,0,0,1,6.607,0L112.91,14.843,125.337,2.416a4.561,4.561,0,0,1,6.607,0,4.561,4.561,0,0,1,0,6.607l-15.73,15.73A4.527,4.527,0,0,1,112.91,26.168Z" transform="translate(34.382 0)" fill="#444b54"/>
      <path id="Path_12337" data-name="Path 12337" d="M91.191,24H44V149.842h78.651V55.461A31.553,31.553,0,0,0,91.191,24Z" transform="translate(24.64 13.18)" fill="#cadbea"/>
      <path id="Path_12338" data-name="Path 12338" d="M45.719,56.056A4.635,4.635,0,0,1,41,51.337V5.719a4.719,4.719,0,1,1,9.438,0V51.337A4.635,4.635,0,0,1,45.719,56.056Z" transform="translate(22.921)" fill="#444b54"/>
      <path id="Path_12339" data-name="Path 12339" d="M64,144.112V49.73A15.776,15.776,0,0,1,79.73,34h0a15.776,15.776,0,0,1,15.73,15.73v78.651a15.776,15.776,0,0,0,15.73,15.73H64Z" transform="translate(36.101 18.91)" fill="#cadbea"/>
      <path id="Path_12340" data-name="Path 12340" d="M95.719,167.741a4.719,4.719,0,0,1,0-9.438,10.943,10.943,0,0,0,11.011-11.011V5.719a4.719,4.719,0,0,1,9.438,0V147.291A20.409,20.409,0,0,1,95.719,167.741Z" transform="translate(51.572)" fill="#444b54"/>
      <path id="Path_12341" data-name="Path 12341" d="M107.18,150.55H75.719a4.719,4.719,0,1,1,0-9.438H89.876A20.05,20.05,0,0,1,86.73,130.1V51.449A10.943,10.943,0,0,0,75.719,40.438a4.719,4.719,0,1,1,0-9.438A20.409,20.409,0,0,1,96.168,51.449V130.1a10.943,10.943,0,0,0,11.011,11.011,4.719,4.719,0,1,1,0,9.438Z" transform="translate(40.112 17.191)" fill="#444b54"/>
      <path id="Path_12342" data-name="Path 12342" d="M86.921,50h78.651A15.776,15.776,0,0,1,181.3,65.73v69.213a15.776,15.776,0,0,1-15.73,15.73H39.73A15.776,15.776,0,0,1,24,134.943L86.921,50" transform="translate(13.18 28.078)" fill="#6ec6af"/>
      <path id="Path_12343" data-name="Path 12343" d="M96.921,118.2a23.6,23.6,0,1,1,23.6-23.6,23.6,23.6,0,0,1-23.6,23.6M159.842,60h-90.3L34,107.977v21.236H159.842V60" transform="translate(18.91 33.808)" fill="#c5e8df"/>
      <path id="Path_12344" data-name="Path 12344" d="M82.6,67a23.6,23.6,0,1,0,23.6,23.6A23.6,23.6,0,0,0,82.6,67" transform="translate(33.235 37.82)" fill="#eef8f5"/>
      <path id="Path_12345" data-name="Path 12345" d="M167.291,157.112H41.449A20.409,20.409,0,0,1,21,136.662a4.719,4.719,0,1,1,9.438,0,10.943,10.943,0,0,0,11.011,11.011H167.291A10.943,10.943,0,0,0,178.3,136.662V67.449a10.943,10.943,0,0,0-11.011-11.011H104.37a4.719,4.719,0,0,1,0-9.438h62.921a20.409,20.409,0,0,1,20.449,20.449v69.213A20.409,20.409,0,0,1,167.291,157.112Z" transform="translate(11.46 26.359)" fill="#444b54"/>
      <path id="Path_12346" data-name="Path 12346" d="M4,159.842V49.73A15.776,15.776,0,0,1,19.73,34h94.382a15.776,15.776,0,0,0-15.73,15.73V159.842l-15.73,15.73-15.73-15.73-15.73,15.73-15.73-15.73-15.73,15.73Z" transform="translate(1.719 18.91)" fill="#fff"/>
      <path id="Path_12347" data-name="Path 12347" d="M84.37,182.01a4.527,4.527,0,0,1-3.3-1.416L68.64,168.168,56.213,180.595a4.561,4.561,0,0,1-6.607,0L37.18,168.168,24.753,180.595a4.672,4.672,0,0,1-6.607-6.607l15.73-15.73a4.561,4.561,0,0,1,6.607,0L52.91,170.685l12.427-12.427a4.561,4.561,0,0,1,6.607,0L84.37,170.685l11.011-11.011V51.449a21.45,21.45,0,0,1,3.146-11.011H21.449A10.943,10.943,0,0,0,10.438,51.449V161.561a4.635,4.635,0,0,1-4.719,4.719A4.635,4.635,0,0,1,1,161.561V51.449A20.409,20.409,0,0,1,21.449,31h94.382a4.719,4.719,0,0,1,0,9.438A10.943,10.943,0,0,0,104.82,51.449V161.561a4.284,4.284,0,0,1-1.416,3.3l-15.73,15.73A4.527,4.527,0,0,1,84.37,182.01Z" transform="translate(0 17.191)" fill="#444b54"/>
      <path id="Path_12348" data-name="Path 12348" d="M67.91,60.438H20.719a4.719,4.719,0,1,1,0-9.438H67.91a4.719,4.719,0,0,1,0,9.438Zm-47.191,23.6a4.284,4.284,0,0,1-3.3-1.416,4.562,4.562,0,0,1,0-6.607,4.853,4.853,0,0,1,6.607,0,4.527,4.527,0,0,1,1.416,3.3,4.284,4.284,0,0,1-1.416,3.3l-.629.629c-.315.157-.472.315-.787.472s-.629.157-.944.315Zm47.191,0H52.18a4.719,4.719,0,1,1,0-9.438H67.91a4.719,4.719,0,0,1,0,9.438Zm0,23.6H20.719a4.719,4.719,0,1,1,0-9.438H67.91a4.719,4.719,0,0,1,0,9.438Zm0,23.6a4.284,4.284,0,0,1-3.3-1.416,4.527,4.527,0,0,1-1.416-3.3,2,2,0,0,1,.157-.944,2.236,2.236,0,0,1,.315-.944c.157-.315.315-.472.472-.787a2.762,2.762,0,0,1,.629-.787,4.853,4.853,0,0,1,6.607,0,4.527,4.527,0,0,1,1.416,3.3,4.284,4.284,0,0,1-1.416,3.3l-.629.629c-.315.157-.472.315-.787.472s-.629.157-.944.315A3.071,3.071,0,0,1,67.91,131.224Z" transform="translate(8.595 28.651)" fill="#9eb9d3"/>
    </g>
    <circle id="Ellipse_1383" data-name="Ellipse 1383" cx="34.5" cy="34.5" r="34.5" transform="translate(1017 474)" fill="#1cab4e"/>
    <path id="Path_12349" data-name="Path 12349" d="M17694.258,6259.5s14.434,15.128,14.98,14.981,23.012-23.01,23.012-23.01" transform="translate(-16662 -5754)" fill="none" stroke="#fff" stroke-linecap="round" stroke-width="5"/>
  </g>
</svg>
