<svg xmlns="http://www.w3.org/2000/svg" xmlns:xlink="http://www.w3.org/1999/xlink" width="1604" height="1604" viewBox="0 0 1604 1604">
  <defs>
    <linearGradient id="linear-gradient" x1="0.5" y1="0.103" x2="0.5" y2="1.202" gradientUnits="objectBoundingBox">
      <stop offset="0" stop-color="#9ec8ff"/>
      <stop offset="1" stop-color="#e7f3fe"/>
    </linearGradient>
    <clipPath id="clip-path">
      <path id="Path_11695" data-name="Path 11695" d="M434.921,868.038a64.12,64.12,0,1,0,64.12,64.12A64.12,64.12,0,0,0,434.921,868.038Zm0,98.087a33.967,33.967,0,1,1,33.967-33.967A33.967,33.967,0,0,1,434.921,966.125Z" transform="translate(-370.801 -868.038)" fill="none"/>
    </clipPath>
  </defs>
  <g id="Group_2735" data-name="Group 2735" transform="translate(11938 -10303)">
    <rect id="Rectangle_3487" data-name="Rectangle 3487" width="1604" height="1604" transform="translate(-11938 10303)" fill="none"/>
    <g id="_5" data-name="5" transform="translate(-11938 10622)">
      <path id="Path_11600" data-name="Path 11600" d="M2131.249,506.717c65.316-67.906-254.893-304.219-519.321-325.763-243.45-19.835-565.086,76.191-238.54,218.157C1684.531,534.381,2097.119,542.2,2131.249,506.717Z" transform="translate(-791.317 -178.362)" fill="#eef7ff"/>
      <path id="Path_11601" data-name="Path 11601" d="M312.813,701.8c152.5-192.933,472.753,10.848,746.774,60.35S1779.322,733,1778.206,950.113c-1.189,231.477-100.033,361.707-642.182,423.9S345.66,1244.534,274.774,1040.47C219.593,881.615,272.054,753.364,312.813,701.8Z" transform="translate(-250.934 -421.091)" fill="#eef7ff"/>
      <g id="Group_2179" data-name="Group 2179" transform="translate(985.277 527.139)">
        <path id="Path_11602" data-name="Path 11602" d="M2558.809,1347.706c-22.382,45.435-50.444,169.591-58.1,176.395s-51.874,33.165-59.527,45.921-4.252,8.5-.85,9.354,195.588,1.7,195.588,1.7-22.11-131.81-24.661-132.661S2558.809,1347.706,2558.809,1347.706Z" transform="translate(-2436.56 -1347.706)" fill="#a2dff2"/>
        <path id="Path_11603" data-name="Path 11603" d="M2637.15,1580.461c35.3.246,72.542.44,93.047.541l-28.072-167.89c-14.974-29.03-33.151-65.406-33.151-65.406-2.821,5.728-5.733,12.708-8.684,20.546-2.912,126.1,15.25,161.443,1.608,183.912C2651.253,1569.7,2641.536,1577.54,2637.15,1580.461Z" transform="translate(-2546.725 -1347.706)" fill="#96cfe0"/>
      </g>
      <g id="Group_2180" data-name="Group 2180" transform="translate(878.632 350.685)">
        <path id="Path_11604" data-name="Path 11604" d="M2825.259,1226.059c31.921,29.466,102.974,57.407,102.974,57.407s10.795,99.742,3.429,156.218-3.273,67.934-3.273,67.934l-153.433,1.306s-12.738-28.593-48.733-113.439c-22.917-54.02-18.825-114.588-18.825-114.588l89.214-40.106Z" transform="translate(-2478.503 -1104.443)" fill="#a2dff2"/>
        <path id="Path_11605" data-name="Path 11605" d="M2851.388,1581.009H2997.9s-4.093-11.459,3.274-67.934c6.066-46.5-.183-122.34-2.579-147.673l-13.325-5.71c-33.448,9.638-52.725,59.53-58.4,108.288-3.792,32.624-57.841,64.739-93.2,82.422C2845.29,1572.543,2851.388,1581.009,2851.388,1581.009Z" transform="translate(-2548.011 -1177.836)" fill="#96cfe0"/>
        <path id="Path_11606" data-name="Path 11606" d="M2914.477,1286.243s1.374,42.121,8.557,41.671,48.939-53.407,48.939-53.407l-7.1-3.394Z" transform="translate(-2592.387 -1129.187)" fill="#96cfe0"/>
        <path id="Path_11607" data-name="Path 11607" d="M2861.07,1296.339s-9.076,38.748-13.58,37.846-10.588-40.295-10.588-40.295Z" transform="translate(-2549.783 -1141.697)" fill="#96cfe0"/>
        <path id="Path_11608" data-name="Path 11608" d="M2865.447,1288.613l12.488,1.352,4.807,14.876s-10.983,12.855-11.208,18.036,2.417,24.565,2.561,42.146-6.315,87.564-3.383,130.437l2.932,42.873-25.1.978s-1.353-47.162,0-97.652,15.722-118.781,15.722-118.781l-5.67-17.36Z" transform="translate(-2555.845 -1138.799)" fill="#f37168"/>
        <path id="Path_11609" data-name="Path 11609" d="M2784.711,998.959c-17.662,39.334,3.535,75.772,2.893,74.235s26.731-66.411,26.731-66.411Z" transform="translate(-2517.251 -979.72)" fill="#2e5b9a"/>
        <path id="Path_11610" data-name="Path 11610" d="M2895.9,1063.48l22.4,81.868a7.415,7.415,0,0,1-1.417,6.631c-5.253,6.471-12.734,19.783-27.823,24.053a37.408,37.408,0,0,1-9.475,1.063,6.393,6.393,0,0,1-6.31-5.175l-15.007-77.649Z" transform="translate(-2561.517 -1015.155)" fill="#f09959"/>
        <path id="Path_11611" data-name="Path 11611" d="M2891.624,1078.659l-8.188,3.355-25.169,20.593,9.659,49.218,3.852,19.624C2894.688,1157.166,2903.092,1133.861,2891.624,1078.659Z" transform="translate(-2561.517 -1023.491)" fill="#e38540"/>
        <path id="Path_11612" data-name="Path 11612" d="M2838.413,1071.4c.018,27.384-16.49,48.957-36.872,48.183s-32.886-16.188-36.937-50.982c-3.178-27.3,4.7-59.059,25.085-58.286S2838.4,1044.02,2838.413,1071.4Z" transform="translate(-2509.704 -985.951)" fill="#f09959"/>
        <path id="Path_11613" data-name="Path 11613" d="M3012.024,1352.569c29.643,6.694,35.152,66.9,44.789,130.4,1.108,7.308,6.8,69.168,6.8,69.168a18.934,18.934,0,0,1-10.771,17.008c-9.688,4.844-13.607,8.5-69.736,9.072-53.905.545-123.406-1.7-123.406-1.7s-.616-20.058,4.913-29.86c8.315-14.74,93.549-35.907,101.486-37.041,1.133-15.874-7.829-73.312,4.534-112.257,8.506-26.789,17.647-40.821,29.1-44.488A23,23,0,0,1,3012.024,1352.569Z" transform="translate(-2562.294 -1173.546)" fill="#a2dff2"/>
        <path id="Path_11614" data-name="Path 11614" d="M2927.34,1594.977c26.576.4,63.044.78,92.927.479,56.128-.568,60.049-4.228,69.737-9.071,11.338-5.669,11.905-15.308,11.905-15.308s-5.731-65.823-6.8-73.137c-6.236-42.521-12.974-91.179-28.657-114.666,14.741,43.21,17.116,79.668,17.379,95.24.133,7.885-.593,18.685-2.895,26.229-2.551,8.362-9.072,13.607-19.278,10.771-20.41-5.669-45.922,6.237-45.922,6.237s19.276-6.8,37.418-.567,55.561,47.624,14.741,62.932C3055.4,1588.8,2980.582,1592.621,2927.34,1594.977Z" transform="translate(-2599.451 -1190.787)" fill="#96cfe0"/>
        <path id="Path_11615" data-name="Path 11615" d="M2871.673,1772.481s7.56-12.852,23.056-12.852,14.364,25.325,12.1,33.64-11.34,8.693-11.34,8.693l-31.211-.791Z" transform="translate(-2564.816 -1397.48)" fill="#96cfe0"/>
        <path id="Path_11616" data-name="Path 11616" d="M2199.99,1838.5h260.417a13.052,13.052,0,0,0-13.053-13.052H2199.99Z" transform="translate(-2199.99 -1433.627)" fill="#75a1de"/>
        <path id="Path_11617" data-name="Path 11617" d="M2764.595,1763.691c-31.391-14.439-40.262-10.769-47.4-13.529-17.627-6.815-22.532-2.681-36.939,28.333-2.87,6.18,3.94,7.165,10.72,7.743s16.189-11.9,18.955-13.176,9.983-1.424,9.983-1.424-2.259-.193-6.228,6.3-8.335,8.772-3.063,9.222,6.765-8.147,16.4-5.429,7.658,11.886,32.216,11.093c23.291-.75,40.7,1.578,41.55-13.143.813-13.966,2.95-20.8-10.057-24.377C2780.719,1752.549,2764.595,1763.691,2764.595,1763.691Z" transform="translate(-2463.382 -1390.735)" fill="#f09959"/>
        <path id="Path_11618" data-name="Path 11618" d="M2869,1774.091c21.863-.6,13.206,25.833,10.753,27.9s11.989,1.822,11.989,1.822,7.649-10.246,3.062-23.157-15.837-14.438-15.837-14.438l-10.054,4.452Z" transform="translate(-2567.364 -1401.099)" fill="#a86b48"/>
        <path id="Path_11619" data-name="Path 11619" d="M2887.511,1765.186c.174,3.363-5.17,6.374-11.937,6.724s-12.394-2.09-12.568-5.453,5.169-6.373,11.938-6.723S2887.337,1761.824,2887.511,1765.186Z" transform="translate(-2564.116 -1397.52)" fill="#2e5b9a"/>
        <path id="Path_11620" data-name="Path 11620" d="M2886.4,1762.749c.155,3-4.619,5.694-10.665,6.007s-11.073-1.868-11.229-4.872,4.619-5.693,10.665-6.007S2886.24,1759.744,2886.4,1762.749Z" transform="translate(-2564.939 -1396.502)" fill="#3e6bab"/>
        <path id="Path_11621" data-name="Path 11621" d="M2885.169,1762.494c.112,2.163-3.325,4.1-7.677,4.325s-7.972-1.345-8.084-3.507,3.325-4.1,7.678-4.324S2885.057,1760.332,2885.169,1762.494Z" transform="translate(-2567.633 -1397.117)" fill="#f0ceb4"/>
        <path id="Path_11622" data-name="Path 11622" d="M2467.386,1781.492c16.14-8.967,35.867-5.978,43.041,2.989s8.369,14.943-7.771,14.943-48.419,1.2-53.8.6S2467.386,1781.492,2467.386,1781.492Z" transform="translate(-2336.234 -1406.515)" fill="#f09959"/>
        <path id="Path_11623" data-name="Path 11623" d="M2537.455,1779.985c17.335-4.185,29.18,5.9,43.638,15.542,12.553,8.369,15.077,16.5,1.2,9.564-20.325-10.162-32.28-11.357-32.28-11.357Z" transform="translate(-2385.326 -1408.126)" fill="#f09959"/>
        <path id="Path_11624" data-name="Path 11624" d="M2439.026,1795.737c-8.755,0-16.4-2.792-22.577-2.277s-25.749,20.6-22.659,22.145a7.376,7.376,0,0,0,.721.308,10.544,10.544,0,0,0,12.509-4.388c2.771-4.444,7.275-9.616,12.52-7.765a55.677,55.677,0,0,0,17.942,2.792Z" transform="translate(-2306.245 -1416.026)" fill="#f09959"/>
        <path id="Path_11625" data-name="Path 11625" d="M2494.036,1795.042c-8.967-3.587,5.379-33.476,10.162-33.476s22.715,14.348,22.715,14.348-4.217,2.379-18.531-2.391c-3.586-1.2-6.575,19.129-10.76,21.519S2494.036,1795.042,2494.036,1795.042Z" transform="translate(-2359.895 -1398.544)" fill="#f7a96f"/>
        <path id="Path_11626" data-name="Path 11626" d="M2855.094,1248.952l4.2,22.4-12.279,26.582-13.343-28.175Z" transform="translate(-2548.011 -1117.016)" fill="#a2dff2"/>
        <path id="Path_11627" data-name="Path 11627" d="M2744.219,1054.416c5.161,32.516,17.2,35.953,25.724,38.923s40.413-10.429,43.812-19.335c8.694-22.783-5.336-39.939-2.492-40.167s6.867,7.275,16.058,16.276c.856.838,6.765,6.36,6.62,4.187-1.977-29.607,11.453-41.394,2.443-70.044-6.641-21.121-20.043-16.872-20.043-16.872s-12.19-16.447-39.357-9.3c-18.2,4.785-33.328,15.015-51.448,23.427s31.379,43.863,53.147,23.549,15.993,16.641,20.385,18.613,1.939.011,7.005,17.44-15.344,33.19-21.527,35.9c-19.768,8.678-23.854,5.908-29.817-1.039C2749.553,1069.945,2744.219,1054.416,2744.219,1054.416Z" transform="translate(-2486.472 -956.281)" fill="#2e5b9a"/>
        <path id="Path_11628" data-name="Path 11628" d="M2934.845,1095.937c-.863,8.595-5.683,14.936-10.766,14.161s-6.45-7.376-7.638-16.965c-1.072-8.643,5.684-14.935,10.765-14.16S2935.709,1087.343,2934.845,1095.937Z" transform="translate(-2593.404 -1023.628)" fill="#f09959"/>
        <path id="Path_11629" data-name="Path 11629" d="M2945.562,1230.1l22.268,20.744s-42.845,40.347-46.554,39.9-10-34.261-10-34.261Z" transform="translate(-2590.627 -1106.661)" fill="#a2dff2"/>
        <path id="Path_11630" data-name="Path 11630" d="M2887.946,1287.493c-4.11,1.93-2.789,7.793-4.532,9.832s-2.783,2.588-4.185-.252-1.177-9.256-2.267-9.58-9.355,25.523-9.355,25.523,6.075-16.53,7.458-14.727.282,3.483,5.312,3.783,11.424-1.819,11.424-1.819Z" transform="translate(-2566.646 -1138.182)" fill="#a2dff2"/>
      </g>
      <g id="Group_2181" data-name="Group 2181" transform="translate(805.189 619.379)">
        <path id="Path_11631" data-name="Path 11631" d="M2126.683,1688.5h139.095l-59.068-129.949a10.62,10.62,0,0,0-9.669-6.226H2071.224a4.147,4.147,0,0,0-3.775,5.863Z" transform="translate(-2053.549 -1552.322)" fill="#a8ceff"/>
        <path id="Path_11632" data-name="Path 11632" d="M2041.224,1552.322H2169.6a10.622,10.622,0,0,1,9.669,6.226l59.068,129.949H2096.682l-59.232-130.312A4.147,4.147,0,0,1,2041.224,1552.322Z" transform="translate(-2037.073 -1552.322)" fill="#75a1de"/>
        <path id="Path_11633" data-name="Path 11633" d="M2190.285,1692.1c4.87,10.089,12.77,16.361,17.646,14.008s4.883-12.441.015-22.53-12.769-16.362-17.645-14.008S2185.418,1682.006,2190.285,1692.1Z" transform="translate(-2119.214 -1616.44)" fill="#6695d6"/>
      </g>
      <g id="Group_2184" data-name="Group 2184" transform="translate(245.839 362.288)">
        <g id="Group_2182" data-name="Group 2182" transform="translate(120.766 7.145)">
          <path id="Path_11634" data-name="Path 11634" d="M1076.861,1151.863c-2.163,0-4.292-.108-6.378-.214-1.727-.087-3.513-.178-5.234-.2a1.1,1.1,0,0,1,.015-2.2c1.777.024,3.583.116,5.33.2,13.059.66,26.568,1.346,39.726-23.957,5.712-10.985,11.929-32.341,10.653-56.379-1.045-19.689-7.718-47.7-33.57-69.309a1.1,1.1,0,1,1,1.408-1.685c26.459,22.121,33.287,50.753,34.355,70.877,1.3,24.48-5.058,46.279-10.9,57.509C1100.657,1148.844,1088.3,1151.863,1076.861,1151.863Z" transform="translate(-1064.167 -997.87)" fill="#303c60"/>
        </g>
        <g id="Group_2183" data-name="Group 2183" transform="translate(126.778 21.183)">
          <path id="Path_11635" data-name="Path 11635" d="M1080.083,1163.778c-.511,0-1.02-.012-1.534-.037a1.1,1.1,0,1,1,.108-2.194c.473.023.947.034,1.417.034,13.629,0,26.217-9.651,34.719-26.7,13.979-28.04,15.335-74.041-9.685-104.065a1.1,1.1,0,1,1,1.687-1.406c25.617,30.74,24.253,77.789,9.964,106.451C1107.869,1153.687,1094.569,1163.777,1080.083,1163.778Z" transform="translate(-1077.504 -1029.011)" fill="#303c60"/>
        </g>
        <path id="Path_11636" data-name="Path 11636" d="M928.4,997.882c39.438-30.611,76.476-14.385,89.745,27.046,12.394,38.7-3.49,121.856-62.322,107.365-60.864-14.991-65.935-33.624-65.473-60.706C890.722,1049.952,899.95,1019.966,928.4,997.882Z" transform="translate(-847.927 -982.021)" fill="#303c60"/>
        <path id="Path_11637" data-name="Path 11637" d="M856.254,1289.45l-56.374,21.036s15.778,114.5,17.13,158.23-20.737,81.663-20.737,81.663H943.685s20.286-119.079,16.229-161-32.007-85.361-33.359-86.408-35.162-8.71-35.162-8.71Z" transform="translate(-796.274 -1150.861)" fill="#a2dff2"/>
        <path id="Path_11638" data-name="Path 11638" d="M1114.125,1602.113s5.676,53.194,8.022,55.9,88.9,45.072,88.9,45.072l-125.773,8.573Z" transform="translate(-954.993 -1322.576)" fill="#d54a41"/>
        <path id="Path_11639" data-name="Path 11639" d="M1085.274,1319.435c13.974.306,17.768,23.154,21.056,40.13S1085.274,1319.435,1085.274,1319.435Z" transform="translate(-954.993 -1167.329)" fill="#d54a41"/>
        <path id="Path_11640" data-name="Path 11640" d="M907.056,1393.321c-7.664-27.5-48.84-104.075-48.84-104.075l-53.942,21.128s12.366,89.739,16.141,140.667l20.49,99.226h66.151S914.719,1420.82,907.056,1393.321Z" transform="translate(-800.668 -1150.749)" fill="#f37168"/>
        <path id="Path_11641" data-name="Path 11641" d="M863.4,1744.071l60.8-13.958-4.963,51.842Z" transform="translate(-833.138 -1392.874)" fill="#d54a41"/>
        <path id="Path_11642" data-name="Path 11642" d="M856.935,1545.973c-9.918-13.428-19.619-28.2-10.171-59.055s10.368-41.924,7.059-69.874-18.329-72.578-47.631-73.931c0,0-.966,9.772-2.528,25.375,4.758,36.854,12.423,99.81,13.347,129.7,1.352,43.727-20.737,81.662-20.737,81.662l119.912,2.637S866.852,1559.4,856.935,1545.973Z" transform="translate(-796.274 -1180.333)" fill="#d54a41"/>
        <path id="Path_11643" data-name="Path 11643" d="M1089.328,1398.349c-4.057-41.924-32.007-85.361-33.359-86.408-.836-.646-14.067-3.82-24.054-6.151,2.938,6.927,33.907,80.736,32.619,111.136-1.353,31.913.039,142.426.039,142.426h8.525S1093.386,1440.274,1089.328,1398.349Z" transform="translate(-925.689 -1159.835)" fill="#f37168"/>
      </g>
      <path id="Path_11644" data-name="Path 11644" d="M1112.388,1966.211c-1.513-.738-2.828-1.306-4.067-2a9.5,9.5,0,0,1-3.035-2.707c-.821-1.135-1.553-2.334-2.438-3.676a13.526,13.526,0,0,1-9.867,8.233c.974.4,1.6.643,2.209.9a11.187,11.187,0,0,1,6.4,13.679,11.061,11.061,0,0,1-12.4,7.761,11.218,11.218,0,0,1-2.55-21.48c.56-.226,1.126-.436,1.875-.726-1.456-.642-2.755-1.143-3.986-1.777a9.557,9.557,0,0,1-3.145-2.581c-.875-1.114-1.621-2.329-2.472-3.57-.6.275-.678.938-1,1.4-.394.557-.748,1.144-1.172,1.673a11.715,11.715,0,0,1-1.265,1.335,13.021,13.021,0,0,1-1.443,1.14,11.708,11.708,0,0,1-1.586.927c-.615.289-1.265.507-1.906.735-.575.2-1.159.38-1.972.645.789.252,1.366.421,1.935.62a11.131,11.131,0,1,1-6.854-.042c.516-.168,1.042-.3,1.879-.542-2.547-.812-4.828-1.521-6.664-3.161a13.454,13.454,0,0,1-3.862-5.835c-.806.134-.759.721-.943,1.111a12.482,12.482,0,0,1-8.631,7.2,11.818,11.818,0,0,1-10.379-2.379,12,12,0,0,1-3.725-4.8c-.182-.406-.15-.984-.828-1.146-2.468,5.814-6.734,8.947-13.219,8.3-5.244-.521-8.9-4.123-10.54-10.1-.589.279-.569.849-.708,1.323a11.953,11.953,0,0,1-22.322,1.818c-.419-.925-.733-1.9-1.1-2.866-.677.2-.619.85-.773,1.313a11.551,11.551,0,0,1-2.681,4.541c-3.436,3.5-7.594,4.609-12.185,3.075a11.055,11.055,0,0,1-7.989-10.129c-.415-4.868,1.67-8.583,5.8-11.157.46-.286.938-.545,1.4-.824.047-.028.063-.109.16-.288-.449-.583-1.253-.661-1.842-1.058-.62-.418-1.3-.746-1.911-1.182a11.5,11.5,0,0,1-1.544-1.336,16.956,16.956,0,0,1-1.444-1.721c-.442-.6-.819-1.245-1.308-2-.24.206-.479.326-.591.52a13.39,13.39,0,0,1-8.014,6.273,2.71,2.71,0,0,0-.461.276c.408.6,1.1.688,1.663.932a11.416,11.416,0,0,1,5.519,4.979,11.531,11.531,0,0,1-13.685,16.554,11.458,11.458,0,0,1-7.871-10.65,11.341,11.341,0,0,1,6.921-10.875c.552-.247,1.1-.5,1.882-.866-2.184-.945-4.218-1.664-5.86-3.128a17.352,17.352,0,0,1-3.633-5.053c-.576-.093-.593.356-.774.593a5.864,5.864,0,0,0-.389.718,12.513,12.513,0,0,1-20.7,1.815,18.69,18.69,0,0,1-1.619-2.593c-.238-.4-.436-.819-.631-1.191-.6-.022-.542.434-.7.687-.145.23-.241.49-.364.733a11.77,11.77,0,0,1-4.865,5.1,12.15,12.15,0,0,1-17.685-7.387c-.156-.589-.286-1.185-.431-1.792-.669.16-.533.727-.632,1.144a11.811,11.811,0,0,1-18.711,6.793,11.148,11.148,0,0,1-4.417-11.206,11.317,11.317,0,0,1,6.224-8.617c.421-.222.841-.445,1.259-.673.055-.032.088-.1.132-.155-6.577-3.61-5.782-4.079-8.284-7.383-.677.494-.9,1.333-1.435,1.909-.557.6-1.053,1.259-1.653,1.808a12.788,12.788,0,0,1-1.954,1.471,15.182,15.182,0,0,1-2.2,1.08c-.724.3-1.484.5-2.614.872.981.374,1.587.611,2.2.833a11.458,11.458,0,0,1,4.6,18.357,11.488,11.488,0,0,1-12.324,3.195,11.427,11.427,0,0,1-1.012-21.207c.853-.378,1.742-.676,2.741-1.06-.364-.561-.9-.465-1.291-.63-.438-.186-.9-.305-1.347-.481a12.64,12.64,0,0,1-1.3-.592,10.832,10.832,0,0,1-1.213-.759c-.441-.318-.867-.66-1.274-1.021a12.234,12.234,0,0,1-1.007-1.015,11.7,11.7,0,0,1-.9-1.116,12.945,12.945,0,0,1-.738-1.227c-.228-.419-.426-.854-.633-1.283-.193-.4-.381-.8-.672-1.421-.7.963-.846,1.941-1.378,2.7a20.472,20.472,0,0,1-1.711,2.286,12.188,12.188,0,0,1-2.176,1.842,11.664,11.664,0,0,1-2.554,1.271,12.172,12.172,0,0,1-2.789.59,14.3,14.3,0,0,1-2.855-.021,11.535,11.535,0,0,1-6.882-3.29,14.27,14.27,0,0,1-3.658-6.787c-.29.8-.5,1.361-.692,1.926a11.7,11.7,0,1,1-16.314-14.27c.485-.244.966-.5,1.443-.757.042-.022.046-.115.12-.323-.665-.486-1.525-.7-2.248-1.139a17.2,17.2,0,0,1-2.033-1.363,14.308,14.308,0,0,1-1.875-1.874,12.971,12.971,0,0,1-1.349-2.043c-.423-.768-.75-1.59-1.162-2.481a4.7,4.7,0,0,0-1.043,1.784,12.425,12.425,0,0,1-6.992,6.234c-5.2,2-10.867-.487-13.535-4.119a11.788,11.788,0,0,1-1.243-12.737,5.517,5.517,0,0,1,.405-.709c.111-.168.255-.314.464-.567a62.241,62.241,0,0,1,6.638-.117c2.183-.033,4.366-.006,6.549-.006H787.5l1.871,3.374,1.605-3.246c.482-.047.883-.122,1.284-.122q9.414-.012,18.829,0c1.115,0,1.115.021,2.175.779a2.594,2.594,0,0,1,2.174-.781c.546-.008,1.092,0,1.638,0h692.787c.545,0,1.092-.006,1.637,0a2.579,2.579,0,0,1,2.171.771c1.112-.74,1.112-.766,2-.767q9.927-.005,19.853.009a5.977,5.977,0,0,1,.722.1c.419.675.873,1.408,1.4,2.256l1.5-2.312h20.147c1.366,1.448,1.646,3.366,2.127,5.129.54.121.505-.249.547-.47a11.615,11.615,0,0,1,1.907-4.546,25.607,25.607,0,0,1,4.85-.164c1.568-.037,3.138-.008,4.707-.008h9.49c2.634,2.909,3.2,8.489.819,12.623a11.834,11.834,0,0,1-11.361,5.842c-5.337-.583-8.793-3.869-10.626-10.111-.56.09-.488.574-.563.942a11.847,11.847,0,0,1-3.974,6.745,11.356,11.356,0,0,1-3.676,2.175c-.821.288-1.646.562-2.761.94.948.341,1.631.6,2.321.832a10.5,10.5,0,0,1,5.45,4.126,10.885,10.885,0,0,1,.579,12.166,10.736,10.736,0,0,1-10.538,5.756,10.859,10.859,0,0,1-9.893-7.12,11.29,11.29,0,0,1,6.6-14.9c.691-.234,1.368-.508,2.176-.81-3.872-1.758-5.053-.775-9.869-7.824-2.63,3.906-1.814,4.208-8.292,7.976.456.27.831.519,1.23.723a11.578,11.578,0,0,1,6.58,9.486,11.793,11.793,0,0,1-22.861,5.04c-.261-.7-.478-1.411-.8-2.369a12.322,12.322,0,0,0-.506,1.254,12.666,12.666,0,0,1-2.975,5.527,12.214,12.214,0,0,1-19.647-2.524c-.343-.635-.668-1.28-1.123-2.152a17.985,17.985,0,0,1-3.792,5.757,15.1,15.1,0,0,1-5.825,3.112c-.067.481.207.559.46.649a13.622,13.622,0,0,1,3.63,1.85,11.531,11.531,0,0,1-6.684,20.783,11.54,11.54,0,0,1-4.714-22.172c.563-.23,1.132-.451,1.663-.663.1-.411-.13-.518-.4-.6a14.027,14.027,0,0,1-4.066-1.877,12.809,12.809,0,0,1-3.4-3.5c-.253-.381-.555-.729-.91-1.188-1.153,1.589-2.057,3.244-3.562,4.333-1.417,1.024-2.945,1.9-4.417,2.833,6.676,3.239,8.468,9.739,7.332,14.016a12.2,12.2,0,0,1-10.213,9.082,11.9,11.9,0,0,1-10.716-4.349,12.191,12.191,0,0,1-2.436-5.269c-.848.249-.7.833-.837,1.245a12.247,12.247,0,0,1-22.591,2.218c-.276-.532-.532-1.072-.792-1.6-.919,1.426-1.733,2.839-2.7,4.143a9.162,9.162,0,0,1-3.648,2.91c-1.482.66-3.052,1.124-4.675,1.706.2.36.632.286.953.366a11.794,11.794,0,0,1,7.269,4.935,11.3,11.3,0,1,1-19.535,11.267,11.205,11.205,0,0,1,4.375-14.777,34.742,34.742,0,0,1,4.427-1.82,3.817,3.817,0,0,0-.769-.334,12.7,12.7,0,0,1-9.307-6.975,4.987,4.987,0,0,0-.588-.717,20.217,20.217,0,0,1-3.649,5,16.834,16.834,0,0,1-5.4,2.964c.224.666.794.756,1.247.949a10.634,10.634,0,0,1,3.968,2.826c3.117,3.625,4,7.725,2.152,12.185a10.939,10.939,0,0,1-10.271,7.186c-4.9.2-8.53-2.125-10.775-6.436a11.457,11.457,0,0,1,5.422-15.579c.548-.254,1.088-.527,1.806-.875a7.772,7.772,0,0,0-2.029-1.017c-.592-.337-1.237-.583-1.809-.947a14.53,14.53,0,0,1-1.792-1.354,13.406,13.406,0,0,1-1.4-1.483c-.474-.568-.894-1.181-1.424-1.89-.8.589-1.057,1.485-1.635,2.1a25.426,25.426,0,0,1-1.861,1.894,14.8,14.8,0,0,1-2,1.417c-.738.452-1.524.824-2.227,1.2-.01.578.355.685.64.83a11.575,11.575,0,0,1,6.579,9.714,10.962,10.962,0,0,1-2.671,8.354,11.786,11.786,0,0,1-20.685-5.334,11.707,11.707,0,0,1,5.671-12.365c.5-.292,1.182-.366,1.5-1.129-.941-.508-1.919-.956-2.807-1.539a15.836,15.836,0,0,1-2.385-1.912c-.77-.756-1.419-1.636-2.173-2.523a42.816,42.816,0,0,1-3.312,3.583,40.48,40.48,0,0,1-3.967,2.729c.37.288.7.589,1.072.829a11.82,11.82,0,0,1,5.191,6.854,11.381,11.381,0,0,1-3.561,12.25,11.879,11.879,0,0,1-19.019-4.413c-.3-.737-.565-1.486-.891-2.35a4.391,4.391,0,0,0-.9,1.933,11.868,11.868,0,0,1-10.209,8.012,12.1,12.1,0,0,1-11.945-6.29c-.351-.658-.664-1.336-1.082-2.18-.269.463-.49.771-.642,1.112a12.436,12.436,0,0,1-9.753,7.562,12.485,12.485,0,0,1-12.982-7.256c-.188-.427-.392-.848-.683-1.476a7.066,7.066,0,0,0-.588.913,12.75,12.75,0,0,1-8.7,7.717c-.389.11-.766.262-1.362.466.74.244,1.292.42,1.839.607a11.17,11.17,0,1,1-6.837-.055c.516-.167,1.04-.306,1.67-.491-1.5-.573-2.9-1.023-4.226-1.646a9.528,9.528,0,0,1-3.363-2.63c-.928-1.151-1.74-2.4-2.614-3.614-3.72,5.791-4.594,5.756-9.408,7.908.767.334,1.448.616,2.116.925a11.262,11.262,0,1,1-9.5.012c.664-.311,1.336-.6,2.106-.945-4.528-2.079-5.574-1.877-9.473-8.088-2.783,4.548-2.983,5.211-9.161,8.11.628.307,1.157.575,1.7.826a11.091,11.091,0,0,1,6.137,7.013,11.329,11.329,0,1,1-16.371-6.593c.769-.417,1.576-.764,2.57-1.243-.935-.585-1.86-.762-2.638-1.216a20.043,20.043,0,0,1-2.568-1.664,13.832,13.832,0,0,1-1.979-2.058c-.591-.731-1.073-1.551-1.556-2.262-.467-.141-.594.154-.714.372a13.5,13.5,0,0,1-7.451,6.363c-.247.091-.479.222-.919.427.688.352,1.208.636,1.741.886a11.076,11.076,0,0,1,5.4,5.371,11.359,11.359,0,1,1-15.459-5.2,5.438,5.438,0,0,0,2.012-1.129,18.433,18.433,0,0,1-5.376-3.027,23.834,23.834,0,0,1-3.621-4.812,18.773,18.773,0,0,1-3.589,4.88,16.852,16.852,0,0,1-5.171,2.876c.21.82.968.767,1.455,1a11.091,11.091,0,0,1,5.672,5.921,11.352,11.352,0,1,1-21.811,4.7,10.828,10.828,0,0,1,6.073-10.366c.644-.354,1.329-.634,2.18-1.036a35.143,35.143,0,0,1-3.729-1.883,14.849,14.849,0,0,1-2.921-2.531,35.262,35.262,0,0,1-2.4-3.439c-.67.474-.785,1.336-1.255,1.939-.5.644-.958,1.333-1.516,1.924a13.121,13.121,0,0,1-1.842,1.61,16.323,16.323,0,0,1-2.1,1.255c-.706.365-1.452.653-2.4,1.073l1.807.892a11.043,11.043,0,0,1,6.435,9.088,11.338,11.338,0,1,1-22.6,1.811,10.818,10.818,0,0,1,5.752-10.542c.7-.408,1.445-.726,2.185-1.094-.074-.583-.585-.513-.885-.686-.411-.235-.875-.379-1.306-.582a11.977,11.977,0,0,1-1.088-.568,10.534,10.534,0,0,1-1.01-.7c-.376-.292-.741-.6-1.092-.923-.3-.275-.589-.569-.863-.873a10.6,10.6,0,0,1-.777-.949c-.275-.39-.51-.807-.769-1.207-.218-.339-.445-.672-.738-1.114-.729.525-.97,1.326-1.443,1.939a16.709,16.709,0,0,1-1.441,1.722,14.833,14.833,0,0,1-1.883,1.563,13.83,13.83,0,0,1-1.943,1.12c-.733.353-1.5.625-2.268.938.129.646.692.587,1.088.752a11.063,11.063,0,0,1,5.734,5.017,10.874,10.874,0,0,1-.266,11.478,10.624,10.624,0,0,1-10.17,5.295,11.189,11.189,0,0,1-10.456-13.526,10.906,10.906,0,0,1,6.039-7.815C1110.809,1966.882,1111.5,1966.608,1112.388,1966.211Zm394.218-72.558c2.711,2.512,3.957,1.72,6.88,9.387.326-.909.579-1.741.923-2.535a12.4,12.4,0,0,1,2.824-4.2,18.094,18.094,0,0,1,1.927-1.508c.678-.5,1.622-.62,2.191-1.317a20.043,20.043,0,0,1-7.764-6.683c-.626.916-1.167,1.849-1.848,2.666a17.2,17.2,0,0,1-2.315,2.3C1508.589,1892.437,1507.634,1892.971,1506.606,1893.654Zm-701.588-.162a14.258,14.258,0,0,1,5.533,3.554,15.428,15.428,0,0,1,2.922,5.756c.11-.134.171-.18.193-.241.093-.255.186-.511.259-.772a11.963,11.963,0,0,1,6.011-7.612,2.356,2.356,0,0,0,.5-.506,38.9,38.9,0,0,1-3.985-2.954,40.706,40.706,0,0,1-3.212-3.836C809.75,1891.17,809.75,1891.17,805.018,1893.491Zm80.764,34.424c1.77-5.125,1.318-5.438,6.812-9.91a40.577,40.577,0,0,1-3.916-2.836,38.616,38.616,0,0,1-3.111-3.547,36.982,36.982,0,0,1-3.455,3.545,39.735,39.735,0,0,1-4.334,2.657,29.793,29.793,0,0,1,2.846,1.682,12.478,12.478,0,0,1,2.371,2.225,14.393,14.393,0,0,1,1.766,2.97A28.088,28.088,0,0,1,885.782,1927.916Zm96.458,8.292c-.611.736-1.1,1.384-1.656,1.974a13.687,13.687,0,0,1-1.644,1.52c-.645.491-1.373.872-2.043,1.332-.641.441-1.5.53-2.152,1.253.538.3.963.5,1.339.768a28.52,28.52,0,0,1,2.77,2.057,10.785,10.785,0,0,1,2.9,4.61c.181.529.124,1.244.841,1.538a4.025,4.025,0,0,0,.255-.567,12.254,12.254,0,0,1,6.067-7.835c.194-.109.31-.357.473-.553a39.527,39.527,0,0,1-3.795-2.567A45.707,45.707,0,0,1,982.24,1936.208Zm458.618-9.253c2.949-7.2,4.29-6.75,7.738-9.156a36.72,36.72,0,0,1-3.968-2.452,42.545,42.545,0,0,1-3.515-3.5c-.636.816-1.2,1.659-1.881,2.383a21.118,21.118,0,0,1-2.423,2.184c-.786.609-1.666,1.1-2.539,1.661C1437.226,1920.551,1438.5,1920.6,1440.858,1926.955Zm-427.731,15.563a44.123,44.123,0,0,1-3.7-2.608,42.576,42.576,0,0,1-3.014-3.164,41.4,41.4,0,0,1-3.1,3.088c-1.143.927-2.452,1.648-3.772,2.514a4.362,4.362,0,0,0,.624.548,11.952,11.952,0,0,1,6,7.856,3.6,3.6,0,0,0,.5.845c.352-1.048.6-1.971.973-2.838a12.289,12.289,0,0,1,1.275-2.31,14.679,14.679,0,0,1,1.894-2.118C1011.493,1943.7,1012.278,1943.175,1013.127,1942.518Zm307.148-5.553a3.569,3.569,0,0,0-.587.511,15.731,15.731,0,0,1-5.391,4.608c-.193.1-.3.366-.444.555,3.825,2.978,4.26,3.575,5.985,8.137.069.183.18.349.414.793a15.943,15.943,0,0,1,2.4-5.367,18.878,18.878,0,0,1,4.36-3.764,22.495,22.495,0,0,1-6.739-5.473Zm-482.707-35.516c1.643-3.226,1.189-3.525,5.574-7.506-.769-.57-1.555-1.095-2.273-1.7-.675-.568-1.271-1.229-1.914-1.835-.668-.629-.989-1.578-1.816-2.163-.272.306-.462.494-.623.7a14.5,14.5,0,0,1-4.975,4.156c-.269.136-.662.225-.6.675C834.122,1896.074,834.709,1895.909,837.568,1901.449Zm192.9,48.463c.31-.331.5-.447.562-.613a12.944,12.944,0,0,1,4.823-6.153,2.32,2.32,0,0,0,.429-.591c-1.1-.772-2.152-1.407-3.079-2.186-.967-.812-1.817-1.763-2.6-2.542-.7.613-1.3,1.165-1.924,1.681-.68.558-1.372,1.106-2.089,1.617-.641.456-1.322.854-2.013,1.3,1.248,1.129,2.444,2.11,3.518,3.211A11.828,11.828,0,0,1,1030.472,1949.913Zm-120.817-36.727c-.673.675-1.262,1.322-1.911,1.9-.6.541-1.268,1.014-1.91,1.511a17.823,17.823,0,0,0-2.267,1.478c.772.555,1.443.989,2.057,1.494a12.831,12.831,0,0,1,1.612,1.541,16.252,16.252,0,0,1,1.418,1.978c.412.661.742,1.372,1.182,2.2a38.371,38.371,0,0,1,2.44-3.91,37.3,37.3,0,0,1,3.2-3.175c-1.006-.726-2.09-1.4-3.048-2.229S910.622,1914.171,909.655,1913.186Zm586-19.574a16.035,16.035,0,0,1-5.98-5c-.665.8-1.193,1.5-1.781,2.136a20.834,20.834,0,0,1-1.767,1.7c-.66.562-1.372,1.063-2.068,1.6a39.058,39.058,0,0,1,2.958,3.212,37.472,37.472,0,0,1,2.157,3.674C1492.51,1895.09,1492.941,1895.883,1495.656,1893.612Zm-199.4,44.3c-.963.926-1.8,1.822-2.733,2.6s-1.941,1.416-2.93,2.125a39.43,39.43,0,0,1,3.207,3.278,34.7,34.7,0,0,1,2.251,3.688,36.782,36.782,0,0,1,2.57-3.984,34.931,34.931,0,0,1,3.388-3.16c-1.105-.733-2.171-1.345-3.122-2.1S1297.11,1938.719,1296.255,1937.913Zm115.2-19.618c.8.723,1.549,1.3,2.178,1.99a19.2,19.2,0,0,1,1.861,2.4c.5.759.872,1.6,1.376,2.544.425-.848.715-1.536,1.1-2.167a15.312,15.312,0,0,1,1.418-1.979c.482-.561,1.091-1.013,1.6-1.55.53-.556,1.437-.7,1.779-1.454-.187-.205-.259-.337-.368-.393a15.623,15.623,0,0,1-4.788-3.72,2.735,2.735,0,0,0-.7-.409A18.825,18.825,0,0,1,1411.459,1918.3Zm-356.674,31.643c.528-1.083.873-1.965,1.365-2.755a18.252,18.252,0,0,1,1.833-2.439c.616-.7,1.349-1.291,2.109-2-1.032-.76-2-1.389-2.863-2.131-.911-.779-1.729-1.667-2.618-2.537-.92.869-1.716,1.707-2.6,2.432-.926.755-1.94,1.4-2.939,2.112C1053.436,1946.5,1052.594,1946.039,1054.785,1949.938Zm222.755-7.265c-1.041-.735-2.011-1.343-2.889-2.063-.921-.756-1.753-1.622-2.674-2.485-.913.916-1.683,1.78-2.549,2.534-.849.739-1.8,1.368-2.724,2.063a37.38,37.38,0,0,1,3.02,3.188,40.679,40.679,0,0,1,2.323,3.891c.5-1,.892-1.939,1.425-2.79a14.525,14.525,0,0,1,1.753-2.24C1275.909,1944.047,1276.7,1943.425,1277.54,1942.673Zm-349-24.478a36.917,36.917,0,0,1,2.98,2.854,42.227,42.227,0,0,1,2.467,3.59c.687-1.133,1.236-2.218,1.954-3.175.765-1.019,1.69-1.918,2.625-2.957-.864-.687-1.733-1.319-2.532-2.029s-1.531-1.5-2.369-2.33c-.87.78-1.633,1.537-2.473,2.2S929.434,1917.576,928.536,1918.2Zm464.381-3.762c-1.576,1.391-3.085,2.723-4.66,4.11.636.638,1.241,1.182,1.77,1.792s.982,1.306,1.483,1.952c.48.619.564,1.511,1.475,2.151a15.189,15.189,0,0,1,4.848-6.028Zm-294.97,28.422a14.705,14.705,0,0,1,4.935,6.242c.755-1.217,1.323-2.3,2.053-3.261.77-1.01,1.694-1.9,2.636-2.94-.854-.665-1.622-1.312-2.439-1.886-.869-.61-1.4-1.63-2.409-2.109-.792.721-1.469,1.387-2.2,1.989C1099.757,1941.526,1098.94,1942.1,1097.948,1942.855Zm-19.093-4.116c-.927.824-1.666,1.528-2.455,2.17-.772.629-1.6,1.195-2.327,1.736.919.99,1.809,1.836,2.562,2.792.789,1,1.447,2.105,2.242,3.284.7-1.081,1.287-2.148,2.036-3.085.8-1,1.752-1.875,2.734-2.9-.854-.64-1.681-1.211-2.452-1.852S1079.7,1939.514,1078.855,1938.739Zm169.109.213-4.672,3.908c.842.887,1.741,1.713,2.489,2.66s1.351,2.02,2.111,3.181c.654-.706.878-1.6,1.429-2.266.523-.626,1.046-1.252,1.562-1.883.542-.662,1.433-1,1.812-1.822ZM1223.647,1949c.792-1.248,1.473-2.332,2.163-3.41s1.894-1.694,2.576-2.861c-.84-.628-1.618-1.168-2.348-1.767-.776-.635-1.508-1.325-2.277-2.008-.784.74-1.493,1.373-2.161,2.048-.7.708-1.72,1.047-2.385,1.992A15.943,15.943,0,0,1,1223.647,1949Zm-72.431-.418c.662-1.04,1.208-2.055,1.906-2.954.74-.953,1.624-1.8,2.539-2.791-.824-.643-1.579-1.2-2.292-1.8s-1.4-1.272-2.153-1.959c-.75.679-1.433,1.335-2.155,1.944s-1.471,1.162-2.3,1.814c.855.929,1.689,1.724,2.385,2.625C1149.883,1946.424,1150.493,1947.484,1151.217,1948.585Zm28.746-5.72-4.535-3.721c-.792.721-1.524,1.326-2.182,2-.638.659-1.653.9-2.13,1.771.863.94,1.7,1.74,2.4,2.643s1.259,1.9,1.977,3.009c.677-1.039,1.233-2.036,1.93-2.921C1178.165,1944.7,1179.044,1943.859,1179.962,1942.865Zm-48.557.04-4.278-3.509-4.357,3.557c.6.6,1.146,1.1,1.634,1.649s.955,1.151,1.41,1.745c.434.566.643,1.313,1.379,1.822A19.327,19.327,0,0,1,1131.405,1942.9ZM856.78,1894.039c.643.56,1.272,1.057,1.842,1.614.532.52.987,1.118,1.5,1.655.543.565.744,1.418,1.412,1.867l3.87-4.95c-.65-.567-1.319-1.226-2.065-1.78-.8-.591-1.182-1.66-2.175-1.964Zm342.773,54.259c.8-1.161,1.4-2.043,2.006-2.921.643-.928,1.693-1.516,2.29-2.583-.778-.586-1.461-1.137-2.18-1.632-.761-.526-1.221-1.444-2.123-1.736l-4.2,3.467A18.762,18.762,0,0,1,1199.554,1948.3Zm265.783-49.223a16.244,16.244,0,0,1,4.2-4.965c-.787-.605-1.462-1.157-2.172-1.658s-1.157-1.319-2.064-1.686c-1.147,1.409-2.636,2.365-3.729,3.6ZM958.2,1923.336l3.56-4.668-3.788-3.293c-1.344,1.094-2.592,2.113-3.8,3.1Zm410.745-7.748-3.523,3.053c1.1,1.4,2.16,2.748,3.324,4.23.625-.816,1.182-1.562,1.759-2.291.607-.767,1.521-1.277,2-2.193Zm-483.356-17.4,2.447-3.327a18.842,18.842,0,0,0-3.229-2.8c-.827.881-1.958,1.308-2.516,2.3Zm462.007,20.536a11.815,11.815,0,0,0-2.79-2.265c-.539.474-1.018.851-1.442,1.281-.407.412-1.093.6-1.144,1.352.6.792,1.2,1.606,1.831,2.4a5.708,5.708,0,0,0,.715.644Zm94.021-26.582a15.484,15.484,0,0,0-2.751,2.744c.429.553.809,1.031,1.176,1.52.353.468.692.949,1.125,1.544.575-.694,1.062-1.244,1.506-1.827.476-.624,1.208-1.046,1.618-1.866Zm-462.195,26.573c1,1.166,1.9,2.213,2.9,3.37a28.807,28.807,0,0,0,2.46-3.136,11.944,11.944,0,0,0-2.928-2.238Zm27.29-1.786a9.421,9.421,0,0,0-2.439,2.239c.781.742,1.274,1.692,2.194,2.458a16.668,16.668,0,0,0,2.2-3.013Zm313.467,4.435a8.827,8.827,0,0,0,2.132-2.471,8.212,8.212,0,0,0-2.256-1.837,5.049,5.049,0,0,0-1.989,1.736Zm-289.745-.706a8.25,8.25,0,0,0,1.931-2.417c-.29-.18-.575-.355-.861-.529s-.546-.329-.888-.535l-1.752,1.563Zm22.712-2.122a3.626,3.626,0,0,0,1.576,1.6,6.941,6.941,0,0,0,1.6-1.969l-1.454-1.174A5.1,5.1,0,0,0,1053.145,1918.537ZM910.02,1893.281l-1.852,1.6,1.4,1.578a4.479,4.479,0,0,0,1.771-2.133Zm385.974,23.841c-.511.434-.871.722-1.206,1.038-.081.076-.073.247-.146.528.513.464.833,1.221,1.58,1.646a3.174,3.174,0,0,0,1.44-1.782Zm-22.54,1.417a2.963,2.963,0,0,0-1.525-1.475,2.246,2.246,0,0,0-1.456,1.374c.48.547.957,1.089,1.411,1.6C1272.719,1919.8,1272.988,1919.145,1273.454,1918.539Zm144.979-23.749-1.587-1.371a1.254,1.254,0,0,0-1.219,1.088c.469.495.752,1.206,1.546,1.576Zm-485.691-.219.959,1.02,1.526-1.814-.8-.7A2.837,2.837,0,0,0,932.742,1894.572Zm170.541,22.3c-.85.551-1.471.752-1.518,1.583.315.279.655.577.983.866a2.018,2.018,0,0,0,1.284-1.663Zm-24.569,2.642c.707-.381,1.158-.736,1.275-1.479l-1.1-.871-1.23,1.137Zm146.25-1.437c-.52-.463-.859-.763-1.212-1.078-.523.285-1.029.488-1,1.3l1.112,1.022Zm23.992.3c-1.1-1.37-1.187-1.377-2.113-.136.336.357.686.728,1.131,1.2Zm143.969-22.969c.959-1.072.959-1.292.194-1.916-.521-.421-.691-.363-1.415.565Zm-241.618,21.63c-.61.236-1.071.488-1.058,1.258l1.02.892,1.072-1.167Zm23.073,1.008,1,1.046c1.126-.8,1.26-1.033.887-1.492C1175.75,1916.954,1175.417,1917.007,1174.38,1918.039Zm-47.23-.951c-.33.431-.668.689-.709.988-.026.2.33.534.587.671.273.144.894-.318.823-.636S1127.471,1917.534,1127.15,1917.088Zm72.67,1.671a2.711,2.711,0,0,0,.5-.809c.076-.318-.542-.771-.834-.616a1.252,1.252,0,0,0-.574.7C1198.815,1918.4,1199.278,1918.8,1199.82,1918.759Zm-241.313-25.506a1.164,1.164,0,0,0-.279.055c-.3.165-.545.363-.421.757a.2.2,0,0,0,.144.109c.4.009.572-.24.637-.592C958.6,1893.525,958.56,1893.459,958.507,1893.253Zm-169.741,11.623c0-5.555-3.8-11.032-11.243-11.434-6.04-.326-11.306,5.167-11.328,11.333a11.285,11.285,0,1,0,22.57.1Zm144.484,48.739a11.226,11.226,0,1,0-11.3,11.063A11.224,11.224,0,0,0,933.25,1953.615Zm567.774-35.654a11.153,11.153,0,0,0-.042,22.306,11.153,11.153,0,1,0,.042-22.306Zm-675.336.1a11.065,11.065,0,1,0,11.02,11.044A11.024,11.024,0,0,0,825.688,1918.062Zm458.385,48.214a11.045,11.045,0,1,0,10.992,11.088A11.039,11.039,0,0,0,1284.073,1966.276Zm144.616-23.877a11.043,11.043,0,1,0,10.9,11.162A10.942,10.942,0,0,0,1428.689,1942.4Zm-397.012,35.012a11,11,0,1,0,10.968-11.1A10.882,10.882,0,0,0,1031.677,1977.41Zm-133.41-34.938a10.969,10.969,0,1,0,10.855,11.043A10.822,10.822,0,0,0,898.267,1942.472Zm664.336-37.64a10.928,10.928,0,1,0,10.939-10.944A10.78,10.78,0,0,0,1562.6,1904.833Zm-243.836,72.584a10.859,10.859,0,1,0-10.863,10.753A10.784,10.784,0,0,0,1318.767,1977.417Zm-289.122.046a10.821,10.821,0,1,0-10.925,10.664A10.822,10.822,0,0,0,1029.645,1977.464ZM753.1,1894.08a10.765,10.765,0,1,0,10.838,10.687A10.657,10.657,0,0,0,753.1,1894.08Zm772.312,24.313a10.734,10.734,0,1,0,10.736,10.832A10.689,10.689,0,0,0,1525.413,1918.392Zm-779.956-28.738a11.658,11.658,0,0,0,15.63-.157c4.383-4.016,4.91-11,1.525-15.164-1.551-.214-16.044-.278-18.847-.075A11.494,11.494,0,0,0,745.457,1889.655Zm597.478,87.791a10.695,10.695,0,1,0-10.789,10.568A10.689,10.689,0,0,0,1342.935,1977.446Zm110.079-34.687a10.685,10.685,0,1,0,10.561,10.77A10.713,10.713,0,0,0,1453.015,1942.759ZM994.56,1987.992a10.667,10.667,0,1,0-.078-21.333,10.667,10.667,0,0,0,.078,21.333Zm-182.1-58.87a10.667,10.667,0,0,0-21.333.008,10.667,10.667,0,0,0,21.333-.008Zm61.351,34.94a10.617,10.617,0,1,0-10.581-10.708A10.624,10.624,0,0,0,873.815,1964.063Zm482.586,2.775a10.365,10.365,0,0,0-10.4,10.439,10.517,10.517,0,1,0,21.033-.015A10.4,10.4,0,0,0,1356.4,1966.838Zm-385.654.041a10.336,10.336,0,0,0-10.577,10.428,10.467,10.467,0,0,0,20.933.027A10.332,10.332,0,0,0,970.746,1966.879Zm637.148-61.634a10.458,10.458,0,0,0-10.158-10.855,10.45,10.45,0,0,0-.613,20.89A10.5,10.5,0,0,0,1607.894,1905.244Zm-18.186-16.094a11.241,11.241,0,0,0,15.269.158,11.1,11.1,0,0,0,1.444-14.983c-1.693-.229-16.249-.229-17.962,0C1585.49,1877.562,1584.833,1884.562,1589.709,1889.15Zm-112.926,53.938a10.351,10.351,0,1,0,10.31,10.424A10.3,10.3,0,0,0,1476.783,1943.088Zm-755.15-54.015a11.179,11.179,0,0,0,15.524-.184c4.295-4.165,4.232-11.2.843-14.669H720.566A10.964,10.964,0,0,0,721.633,1889.073Zm837.975,39.943a10.354,10.354,0,0,0-20.707.119,10.354,10.354,0,1,0,20.707-.119ZM729.33,1894.53A10.345,10.345,0,0,0,719,1904.915a10.309,10.309,0,1,0,20.618-.154A10.332,10.332,0,0,0,729.33,1894.53Zm120.629,48.625a10.288,10.288,0,1,0,10.274,10.278A10.241,10.241,0,0,0,849.959,1943.155Zm530.45,23.946a10.224,10.224,0,0,0-10.291,10.043,10.342,10.342,0,0,0,10.14,10.444,10.232,10.232,0,0,0,10.351-10.19A10.116,10.116,0,0,0,1380.408,1967.1Zm-434.1,20.445a10.214,10.214,0,1,0-10.182-10.353A10.155,10.155,0,0,0,946.305,1987.546Zm-158.586-58.374a10.237,10.237,0,1,0-10.335,10.186A10.214,10.214,0,0,0,787.719,1929.172Zm824.4-43.361a10.28,10.28,0,0,0,9.765,5.885,10.756,10.756,0,0,0,9.165-16.178,2.439,2.439,0,0,0-2.45-1.383c-4.692.057-9.385.024-14.079.028-.337,0-.675.032-1.1.054A10.544,10.544,0,0,0,1612.124,1885.811Zm-207.5,81.521a9.985,9.985,0,1,0,10.075,9.909A9.892,9.892,0,0,0,1404.623,1967.332Zm96.485-23.864a9.974,9.974,0,1,0,9.879,9.918A9.975,9.975,0,0,0,1501.107,1943.469Zm110.7-38.689a9.915,9.915,0,1,0,19.83.011,9.915,9.915,0,0,0-19.83-.011Zm-914.287-16.285a10.569,10.569,0,0,0,15.577-14.259H696.91A10.32,10.32,0,0,0,697.518,1888.494Zm214.6,88.695a9.911,9.911,0,1,0,9.984-9.76A9.91,9.91,0,0,0,912.12,1977.189Zm-86.4-33.639a9.892,9.892,0,1,0,9.789,9.951A9.792,9.792,0,0,0,825.72,1943.55Zm757.688-14.387A9.884,9.884,0,1,0,1573.5,1939,9.841,9.841,0,0,0,1583.408,1929.163Zm-385.858,72.492a9.862,9.862,0,1,0-19.725-.095,9.862,9.862,0,0,0,19.725.095Zm-24.324.041a9.872,9.872,0,1,0-19.742-.177,9.872,9.872,0,0,0,19.742.177Zm48.183-.2a9.856,9.856,0,0,0-19.711.126,9.856,9.856,0,1,0,19.711-.126Zm-72.49.1a9.886,9.886,0,0,0-9.92-9.843,9.786,9.786,0,0,0-9.747,9.772,9.657,9.657,0,0,0,9.776,9.9A9.764,9.764,0,0,0,1148.919,2001.594Zm-443.744-106.57a9.83,9.83,0,1,0,9.618,9.9A9.8,9.8,0,0,0,705.175,1895.024Zm410.064,96.75a9.878,9.878,0,0,0-9.875,9.873,9.79,9.79,0,1,0,9.875-9.873Zm-361.933-72.437a9.792,9.792,0,1,0,9.643,9.872A9.774,9.774,0,0,0,753.305,1919.338Zm482.546,72.461a9.791,9.791,0,1,0,9.771,9.773A9.811,9.811,0,0,0,1235.852,1991.8Zm-135.229,9.888a9.764,9.764,0,1,0-9.828,9.663A9.715,9.715,0,0,0,1100.623,2001.686Zm327.854-34.1a9.732,9.732,0,1,0,9.816,9.687A9.818,9.818,0,0,0,1428.477,1967.59Zm-168.637,24.332a9.685,9.685,0,1,0,9.538,9.757A9.742,9.742,0,0,0,1259.84,1991.921ZM907.753,1977.4a9.495,9.495,0,0,0-9.524-9.728,9.636,9.636,0,1,0-.168,19.271A9.5,9.5,0,0,0,907.753,1977.4Zm159.268,14.566a9.638,9.638,0,1,0,9.618,9.668A9.713,9.713,0,0,0,1067.021,1991.967ZM1635.829,1883.9a9.721,9.721,0,0,0,8.17,7.085,9.6,9.6,0,0,0,10.176-4.55c2.287-3.593,2.173-7.321.028-11a2.35,2.35,0,0,0-2.31-1.3c-4.286.057-8.573.023-12.859.027-.337,0-.673.04-1.153.07C1635.563,1877.211,1634.683,1880.369,1635.829,1883.9Zm-351.619,108.13a9.659,9.659,0,0,0-9.731,9.5,9.541,9.541,0,1,0,19.081.156A9.631,9.631,0,0,0,1284.211,1992.033Zm-613-109.13a10.107,10.107,0,1,0,18.431-7.41,2.507,2.507,0,0,0-2.49-1.357c-4.085.062-8.172.022-12.259.028-.405,0-.81.039-1.361.068A10.044,10.044,0,0,0,671.215,1882.9Zm854.174,60.995a9.541,9.541,0,1,0,9.537,9.46A9.529,9.529,0,0,0,1525.388,1943.9Zm-492.2,57.625a9.491,9.491,0,1,0,9.539-9.428A9.462,9.462,0,0,0,1033.189,2001.522ZM801.8,1944a9.44,9.44,0,1,0,9.454,9.5A9.407,9.407,0,0,0,801.8,1944Zm496.683,57.492a9.4,9.4,0,1,0,9.486-9.319A9.452,9.452,0,0,0,1298.482,2001.494Zm-270.291.037a9.383,9.383,0,1,0-9.295,9.438A9.362,9.362,0,0,0,1028.192,2001.531Zm617.33-106.048a9.364,9.364,0,1,0,9.44,9.271A9.41,9.41,0,0,0,1645.522,1895.483Zm-48.166,24.265a9.367,9.367,0,1,0,9.428,9.313A9.4,9.4,0,0,0,1597.355,1919.747Zm-144.5,48.2a9.382,9.382,0,0,0,.047,18.765,9.382,9.382,0,0,0-.047-18.765Zm-578.929.084a9.187,9.187,0,0,0-9.369,9.311,9.3,9.3,0,1,0,18.6-.047A9.236,9.236,0,0,0,873.924,1968.031Zm-183.562-63.079a9.255,9.255,0,0,0-18.507-.346,9.255,9.255,0,1,0,18.507.346Zm39.05,14.916a9.262,9.262,0,1,0,9.129,9.324A9.29,9.29,0,0,0,729.412,1919.868Zm593.581,81.708a9.217,9.217,0,1,0,9.311-9.184A9.266,9.266,0,0,0,1322.993,2001.576Zm-319.314.2a9.167,9.167,0,1,0-9.222,9.025A9.2,9.2,0,0,0,1003.679,2001.773Zm672.874-127.54c-4.221-.025-8.442-.037-12.662-.077a1.79,1.79,0,0,0-1.538.833,9.63,9.63,0,0,0,7.455,15.577,9.5,9.5,0,0,0,8.917-5.74c1.471-3.03,1.031-7.873-1.979-10.527A.639.639,0,0,0,1676.552,1874.233Zm-127.238,70.1a9.111,9.111,0,1,0,9.036,9.127A9.082,9.082,0,0,0,1549.314,1944.33Zm-895.23-54.279a9.509,9.509,0,0,0,10.438-14.681,2.6,2.6,0,0,0-2.372-1.235c-3.608.063-7.217.021-10.826.028-.4,0-.806.056-1.192.084A9.49,9.49,0,0,0,654.084,1890.051Zm831.676,87.311a9,9,0,1,0-8.995,8.985A9.055,9.055,0,0,0,1485.76,1977.362Zm-129.171,15.284a8.967,8.967,0,1,0-.155,17.933,8.967,8.967,0,0,0,.155-17.933ZM786.463,1953.53a8.967,8.967,0,1,0-9.021,8.88A8.907,8.907,0,0,0,786.463,1953.53Zm63.4,14.862a8.937,8.937,0,1,0,8.987,8.879A8.891,8.891,0,0,0,849.865,1968.392Zm129.693,33.21a8.916,8.916,0,1,0-8.956,8.95A8.956,8.956,0,0,0,979.557,2001.6Zm633.327-72.7a8.849,8.849,0,1,0,9.025-8.658A8.862,8.862,0,0,0,1612.884,1928.9Zm65.775-23.991a8.748,8.748,0,0,0-8.771-8.854,8.771,8.771,0,0,0,.043,17.542A8.77,8.77,0,0,0,1678.659,1904.91Zm-307,96.688a8.726,8.726,0,1,0,8.75-8.689A8.752,8.752,0,0,0,1371.659,2001.6Zm-416.668,0a8.669,8.669,0,0,0-8.524-8.667,8.8,8.8,0,0,0-8.823,8.592,8.67,8.67,0,0,0,8.645,8.734A8.562,8.562,0,0,0,954.992,2001.6Zm-241.331-72.572a8.676,8.676,0,0,0-17.351.1,8.676,8.676,0,1,0,17.351-.1Zm980.644-54.866c-1.7,0-3.409.011-5.112-.006a1.973,1.973,0,0,0-1.619.7,8.645,8.645,0,0,0-2.071,8.354,8.767,8.767,0,0,0,9.532,6.642,8.368,8.368,0,0,0,7.5-5.491,8.706,8.706,0,0,0-1.554-9.37,2.283,2.283,0,0,0-1.97-.844c-1.567.04-3.136.012-4.7.012Zm-120.8,70.656a8.621,8.621,0,1,0,.069,17.243,8.621,8.621,0,0,0-.069-17.243Zm-81.042,32.352a8.589,8.589,0,1,0,8.686-8.429A8.583,8.583,0,0,0,1492.466,1977.171Zm-835.587-63.72a8.653,8.653,0,0,0,8.524-8.684,8.551,8.551,0,0,0-8.652-8.516,8.452,8.452,0,0,0-8.482,8.645A8.549,8.549,0,0,0,656.879,1913.45Zm-15.916-28.764a8.616,8.616,0,0,0-1.306-9.55,2.443,2.443,0,0,0-2.1-.994c-2.994.047-5.989.079-8.981-.013a2.869,2.869,0,0,0-2.588,1.285,8.907,8.907,0,0,0,6.821,14.424C636.534,1889.7,639.384,1888.111,640.963,1884.687Zm176.172,92.562a8.522,8.522,0,1,0,8.492-8.454A8.573,8.573,0,0,0,817.134,1977.249Zm-63.79-32.3a8.489,8.489,0,1,0,8.344,8.764A8.516,8.516,0,0,0,753.345,1944.948Zm659.8,56.65a8.5,8.5,0,0,0-8.313-8.421,8.439,8.439,0,1,0,8.313,8.421Zm-491.2,8.412a8.391,8.391,0,1,0-8.309-8.369A8.391,8.391,0,0,0,921.941,2010.01Zm731.893-80.93a8.237,8.237,0,1,0-8.278,8.272A8.193,8.193,0,0,0,1653.835,1929.08Zm-498.656,96.384a8.173,8.173,0,0,0,16.344.166,8.173,8.173,0,0,0-16.344-.166Zm-16.068,8.173a8.133,8.133,0,1,0-.005-16.266,8.133,8.133,0,1,0,.005,16.266Zm378.133-56.26a8.131,8.131,0,1,0,8.107-8.223A8.106,8.106,0,0,0,1517.244,1977.378Zm-80.537,24.371a8.146,8.146,0,1,0-8.16,7.978A8.2,8.2,0,0,0,1436.708,2001.749ZM1725.8,1884.1a8.381,8.381,0,0,0-1.969-9.2,2.475,2.475,0,0,0-1.815-.75c-2.584.021-5.169.03-7.754-.006a2.636,2.636,0,0,0-1.985.842,8.332,8.332,0,1,0,13.522,9.114Zm-522.363,141.249a8.118,8.118,0,1,0,8.149-7.938A8.079,8.079,0,0,0,1203.433,2025.352Zm-23.885.258a8.13,8.13,0,1,0,8.054-8.229A8.061,8.061,0,0,0,1179.548,2025.61Zm-490.328-96.425a8.105,8.105,0,1,0-8.1,8.027A8.137,8.137,0,0,0,689.219,1929.185Zm1013.089-24.239a8.1,8.1,0,1,0-8.166,7.943A8.045,8.045,0,0,0,1702.308,1904.946ZM1107.08,2025.457a8.091,8.091,0,1,0,16.182.077,8.091,8.091,0,0,0-16.182-.077Zm128.843-8.013a8.051,8.051,0,1,0,7.988,8.12A8.017,8.017,0,0,0,1235.922,2017.444Zm-433.9-48.167a7.882,7.882,0,0,0-8.259,7.647,8.008,8.008,0,0,0,7.68,8.443,8.16,8.16,0,0,0,8.4-7.763A8.039,8.039,0,0,0,802.021,1969.277Zm288.718,48.193a7.949,7.949,0,0,0-7.905,8.009,7.858,7.858,0,0,0,8.079,8.018,7.973,7.973,0,0,0,8.026-8.09A8.1,8.1,0,0,0,1090.739,2017.469Zm514.731-63.881a8.058,8.058,0,1,0-8.2,7.878A7.969,7.969,0,0,0,1605.47,1953.589Zm-699.294,48.048a8.022,8.022,0,0,0-16.043-.127,8.022,8.022,0,1,0,16.043.127Zm-292.029-126.7a2.5,2.5,0,0,0-1.816-.783q-3.68.027-7.36,0a2.573,2.573,0,0,0-1.832.749,8.071,8.071,0,0,0-2.6,4.755,8.19,8.19,0,0,0,7.246,9.4c5.266.481,9.134-3.771,9.024-7.563A8.441,8.441,0,0,0,614.147,1874.939Zm645.679,142.619a7.93,7.93,0,0,0-.2,15.858,7.93,7.93,0,1,0,.2-15.858ZM729.2,1945.5a7.931,7.931,0,1,0,8.019,7.838A7.946,7.946,0,0,0,729.2,1945.5Zm-88.31-40.643a7.941,7.941,0,0,0-7.912-7.969,7.93,7.93,0,0,0-.075,15.86A7.961,7.961,0,0,0,640.891,1904.862Zm426.148,128.483a7.749,7.749,0,0,0,7.844-7.747,7.883,7.883,0,1,0-15.766-.113A7.723,7.723,0,0,0,1067.039,2033.345Zm216.983-15.619a7.755,7.755,0,1,0,7.811,7.757A7.7,7.7,0,0,0,1284.022,2017.726Zm176.578-16.2a7.709,7.709,0,1,0-7.724,7.83A7.665,7.665,0,0,0,1460.6,2001.529Zm-425.619,23.906a7.719,7.719,0,0,0,15.438.113,7.719,7.719,0,0,0-15.438-.113Zm514.313-40.444a7.672,7.672,0,1,0-7.732-7.621A7.682,7.682,0,0,0,1549.294,1984.991Zm-683.131,16.673a7.686,7.686,0,1,0,7.642-7.676A7.711,7.711,0,0,0,866.163,2001.664Zm449.349,23.987a7.6,7.6,0,1,0-7.658,7.429A7.525,7.525,0,0,0,1315.512,2025.651Zm-289.124-.18a7.581,7.581,0,1,0-15.161.146,7.581,7.581,0,0,0,15.161-.146Zm643.552-103.916a7.583,7.583,0,1,0,7.51,7.57A7.582,7.582,0,0,0,1669.941,1921.555ZM777.369,1969.8a7.516,7.516,0,1,0,7.635,7.45A7.494,7.494,0,0,0,777.369,1969.8Zm844.376-23.827a7.464,7.464,0,1,0,7.442,7.382A7.473,7.473,0,0,0,1621.745,1945.973Zm118.518-71.824a3.429,3.429,0,0,0-2.616.923,7.349,7.349,0,0,0-2.536,7.892,7.559,7.559,0,1,0,12.058-7.874,3.577,3.577,0,0,0-2.611-.942c-.746.057-1.5.012-2.25.012C1741.626,1874.159,1740.94,1874.2,1740.263,1874.149ZM664.214,1929.214a7.394,7.394,0,1,0-14.787-.158,7.394,7.394,0,1,0,14.787.158Zm660.611,96.268a7.392,7.392,0,1,0,7.4-7.375A7.319,7.319,0,0,0,1324.825,2025.482Zm393.252-128.005a7.321,7.321,0,0,0-7.345,7.415,7.35,7.35,0,0,0,14.7-.032A7.272,7.272,0,0,0,1718.078,1897.476Zm-730.89,128.117a7.332,7.332,0,1,0,7.325-7.417A7.195,7.195,0,0,0,987.187,2025.594Zm496.881-23.908a7.3,7.3,0,1,0-14.607-.021,7.3,7.3,0,0,0,14.607.021Zm-779.005-55.535a7.285,7.285,0,1,0,7.225,7.3A7.228,7.228,0,0,0,705.064,1946.151Zm-122.1-72a4.486,4.486,0,0,0-3.814,1.558,7.419,7.419,0,0,0-1.53,8.291,7.021,7.021,0,0,0,6.838,4.268,6.8,6.8,0,0,0,6.566-4.337,7.142,7.142,0,0,0-1.3-7.979,4.567,4.567,0,0,0-4.115-1.8,9.987,9.987,0,0,1-1.221.008A11.019,11.019,0,0,1,582.963,1874.149Zm267.186,120.262a7.218,7.218,0,1,0,7.017,7.3A7.181,7.181,0,0,0,850.149,1994.411Zm513.572,31.139a7.2,7.2,0,1,0-7.207,7.108A7.236,7.236,0,0,0,1363.721,2025.551Zm-762.28-120.772a7.184,7.184,0,1,0,14.367-.016,7.183,7.183,0,0,0-14.367.016Zm369.093,127.84a7.121,7.121,0,1,0-7.015-7.277A7.152,7.152,0,0,0,970.534,2032.618Zm610.125-55.424a7.106,7.106,0,1,0-7.044,7.224A6.978,6.978,0,0,0,1580.659,1977.194Zm-834.457.161a6.96,6.96,0,0,0,13.921.009,6.96,6.96,0,1,0-13.921-.009Zm755.023,17.41a6.857,6.857,0,1,0,6.707,7.072A6.866,6.866,0,0,0,1501.226,1994.765Zm-114.007,30.712a6.815,6.815,0,1,0-6.856,6.848A6.737,6.737,0,0,0,1387.219,2025.477Zm300.159-96.44a6.836,6.836,0,1,0,13.671.009,6.837,6.837,0,0,0-13.671-.009Zm-734.213,96.482a6.883,6.883,0,0,0-6.914-6.828,6.8,6.8,0,1,0,.155,13.6A6.869,6.869,0,0,0,953.164,2025.518Zm699.265-71.938a6.787,6.787,0,0,0-6.826-6.922,6.777,6.777,0,1,0,6.826,6.922Zm113.9-79.38a6.755,6.755,0,1,0-.108,13.509,6.755,6.755,0,1,0,.108-13.509ZM825.748,1994.886a6.7,6.7,0,0,0-6.839,6.665,6.777,6.777,0,1,0,6.839-6.665Zm-144.609-34.815a6.638,6.638,0,1,0-6.668-6.611A6.627,6.627,0,0,0,681.138,1960.071Zm-48.214-37.57a6.635,6.635,0,0,0,.033,13.271,6.635,6.635,0,1,0-.033-13.271Zm1102.963-17.708a6.511,6.511,0,1,0,6.478-6.475A6.457,6.457,0,0,0,1735.887,1904.793Zm-324.68,120.737a6.516,6.516,0,1,0-6.507,6.452A6.425,6.425,0,0,0,1411.207,2025.531ZM560.415,1874.444a6.5,6.5,0,1,0,6.541,6.416A6.475,6.475,0,0,0,560.415,1874.444Zm1037.044,96.4a6.378,6.378,0,0,0-6.478,6.476,6.446,6.446,0,1,0,6.478-6.476Zm-681.828,54.629a6.4,6.4,0,0,0,12.793.232,6.4,6.4,0,1,0-12.793-.232Zm-192.678-48.11a6.388,6.388,0,0,0,6.293,6.256,6.3,6.3,0,0,0,6.353-6.171,6.324,6.324,0,1,0-12.647-.084Zm796.1,24.123a6.3,6.3,0,1,0,12.6.08,6.3,6.3,0,0,0-12.6-.08Zm-928.43-96.522a6.31,6.31,0,1,0-6.352,6.161A6.3,6.3,0,0,0,590.628,1904.967Zm211.338,90.479a6.178,6.178,0,1,0,6,6.268A6.141,6.141,0,0,0,801.966,1995.446Zm620.489,29.919a6.119,6.119,0,1,0,6.2-5.966A6.056,6.056,0,0,0,1422.455,2025.365ZM1724.1,1929.11a6,6,0,1,0-5.921,6.063A6.037,6.037,0,0,0,1724.1,1929.11Zm-819.929,96.466a6.009,6.009,0,1,0-6.046,5.9A5.973,5.973,0,0,0,904.174,2025.576Zm765.8-78.138a6,6,0,1,0,5.9,6.022A5.945,5.945,0,0,0,1669.979,1947.439Zm-530.9,96.4a5.959,5.959,0,1,0,5.9,6.045A5.938,5.938,0,0,0,1139.083,2043.84Zm54.522,5.856a5.941,5.941,0,1,0-5.891,6.061A5.963,5.963,0,0,0,1193.605,2049.7Zm-30.25-5.856a5.959,5.959,0,0,0-.065,11.917,5.959,5.959,0,1,0,.065-11.917Zm48.291.08a5.89,5.89,0,1,0-.124,11.778,5.966,5.966,0,0,0,5.917-5.835A5.888,5.888,0,0,0,1211.646,2043.92Zm-102.364,5.664a5.9,5.9,0,1,0,6.061-5.669A5.939,5.939,0,0,0,1109.282,2049.583ZM656.9,1959.271a5.837,5.837,0,1,0-5.926-5.747A5.851,5.851,0,0,0,656.9,1959.271Zm573.146,90.368a5.758,5.758,0,0,0,5.5,5.988,5.825,5.825,0,1,0,.53-11.638A5.714,5.714,0,0,0,1230.042,2049.638ZM1784.8,1880.9a5.765,5.765,0,1,0,11.528-.1,5.765,5.765,0,0,0-11.528.1Zm-693.969,163.146a5.762,5.762,0,1,0,5.795,5.808A5.764,5.764,0,0,0,1090.833,2044.049ZM608.917,1923.384a5.764,5.764,0,1,0,5.46,6A5.8,5.8,0,0,0,608.917,1923.384Zm1007.041,53.982a5.761,5.761,0,1,0,5.805-5.822A5.767,5.767,0,0,0,1615.958,1977.366ZM1554.91,2001.6a5.678,5.678,0,1,0-5.7,5.705A5.594,5.594,0,0,0,1554.91,2001.6Zm-102.077,18.23a5.675,5.675,0,1,0,5.71,5.673A5.6,5.6,0,0,0,1452.833,2019.828Zm-391.458,29.836a5.6,5.6,0,1,0,11.2.166,5.547,5.547,0,0,0-5.508-5.667A5.608,5.608,0,0,0,1061.376,2049.664Zm198.387-5.5a5.6,5.6,0,0,0-5.661,5.693,5.609,5.609,0,1,0,11.217-.118A5.557,5.557,0,0,0,1259.763,2044.163Zm512.1-139.137a5.589,5.589,0,0,0-11.169-.421,5.589,5.589,0,0,0,11.169.421Zm-994.337,91.04a5.571,5.571,0,1,0,5.514,5.608A5.531,5.531,0,0,0,777.525,1996.067Zm-78.06-18.762a5.544,5.544,0,1,0,11.089,0,5.545,5.545,0,1,0-11.089,0Zm174.423,42.63a5.561,5.561,0,1,0-.112,11.121,5.561,5.561,0,0,0,.112-11.121ZM536.4,1875.448a5.52,5.52,0,1,0-.318,11.035,5.522,5.522,0,0,0,.318-11.035Zm742.086,174.531a5.6,5.6,0,0,0,5.623,5.336,5.526,5.526,0,0,0,5.427-5.7,5.528,5.528,0,1,0-11.05.368Zm-235.871,5.273a5.453,5.453,0,1,0-5.359-5.543A5.525,5.525,0,0,0,1042.612,2055.252Zm-476.8-150.4a5.366,5.366,0,1,0-5.333,5.345A5.344,5.344,0,0,0,565.813,1904.847Zm742.022,139.644a5.3,5.3,0,0,0,.045,10.6,5.3,5.3,0,1,0-.045-10.6Zm174.1-19a5.114,5.114,0,0,0-5.149-5.214,5.2,5.2,0,0,0-5.274,5.321,5.149,5.149,0,0,0,5.279,5.093A5.053,5.053,0,0,0,1481.938,2025.489Zm-457.976,24.194a5.2,5.2,0,0,0-5.1-5.077,5.268,5.268,0,0,0-5.224,5.188,5.135,5.135,0,0,0,5.233,5.124A5.057,5.057,0,0,0,1023.963,2049.682Zm313.32.21a5.122,5.122,0,0,0-4.93-5.221,5.229,5.229,0,0,0-5.277,5.121,5.107,5.107,0,0,0,5.074,5.065A5,5,0,0,0,1337.282,2049.893Zm357.029-101.562a5.1,5.1,0,1,0-.1,10.206,5.1,5.1,0,0,0,.1-10.206Zm-849.39,77.247a5.035,5.035,0,0,0,10.07-.068,5.064,5.064,0,0,0-5.062-5.079A5.12,5.12,0,0,0,844.921,2025.577Zm728.708-18.911a5.028,5.028,0,1,0-5.108-5.012A5.006,5.006,0,0,0,1573.629,2006.666Zm-940.587-58.2a4.976,4.976,0,1,0-.1,9.951,4.976,4.976,0,0,0,.1-9.951Zm1007.62,28.906a4.907,4.907,0,0,0,5.008,4.882,4.938,4.938,0,1,0-5.008-4.882Zm106.695-48.243a4.962,4.962,0,1,0-4.9,4.965A5.03,5.03,0,0,0,1747.356,1929.125Zm-1163.041-4.872a4.881,4.881,0,1,0,4.863,4.778A4.838,4.838,0,0,0,584.315,1924.253Zm410.255,120.681a4.865,4.865,0,1,0,4.8,4.825A4.845,4.845,0,0,0,994.569,2044.934Zm361.962,0a4.866,4.866,0,1,0,4.848,4.778A4.873,4.873,0,0,0,1356.532,2044.933Zm-598.571-43.307a4.78,4.78,0,1,0-4.784,4.785A4.755,4.755,0,0,0,757.961,2001.626Zm747.84,23.927a4.71,4.71,0,0,0-4.773-4.771,4.711,4.711,0,0,0,.088,9.422A4.718,4.718,0,0,0,1505.8,2025.553Zm-829.354-48.232a4.524,4.524,0,0,0,4.645,4.658,4.628,4.628,0,0,0,4.747-4.8,4.763,4.763,0,0,0-4.783-4.609A4.665,4.665,0,0,0,676.446,1977.321Zm1138.139-100.955a4.6,4.6,0,1,0-.162,9.194,4.6,4.6,0,0,0,.162-9.194Zm-844.114,168.96a4.511,4.511,0,0,0-4.339,4.537,4.558,4.558,0,0,0,4.463,4.431,4.491,4.491,0,0,0,4.513-4.556A4.436,4.436,0,0,0,970.471,2045.327Zm626.945-48.1a4.4,4.4,0,0,0-4.4,4.4,4.464,4.464,0,0,0,4.409,4.4,4.4,4.4,0,0,0,0-8.8Zm193.168-96.8a4.386,4.386,0,1,0-.011,8.771,4.282,4.282,0,0,0,4.385-4.372A4.327,4.327,0,0,0,1790.584,1900.429ZM830.012,2025.548a4.35,4.35,0,0,0-4.44-4.371,4.318,4.318,0,0,0,.1,8.634A4.354,4.354,0,0,0,830.012,2025.548ZM1384.675,2048a4.536,4.536,0,0,0-2.183-2.338,4.7,4.7,0,0,0-5.733,1.24,4.285,4.285,0,0,0,.156,5.731c2.553-.573,5.223-.464,7.811-1.319C1385.183,2049.608,1385.159,2049.128,1384.675,2048Zm285.23-74.746a4.068,4.068,0,1,0,4.079,4.016A4.088,4.088,0,0,0,1669.9,1973.25Zm-723.5,72.483a4.061,4.061,0,1,0,4,4.08A4.1,4.1,0,0,0,946.4,2045.733Zm775.741-92.281a4.056,4.056,0,1,0-4.014,4.046A3.984,3.984,0,0,0,1722.143,1953.452ZM729.456,1997.69a3.885,3.885,0,0,0-4.127,3.877,3.983,3.983,0,0,0,3.8,4.034,3.922,3.922,0,0,0,4.108-3.908A3.833,3.833,0,0,0,729.456,1997.69ZM660.6,1977.3a3.754,3.754,0,0,0-3.764-3.747,3.853,3.853,0,0,0-3.862,3.889,3.911,3.911,0,0,0,3.9,3.659A3.8,3.8,0,0,0,660.6,1977.3Zm1105.79-51.943a3.784,3.784,0,1,0-.129,7.567,3.784,3.784,0,0,0,.129-7.567ZM609.823,1956.8a1.147,1.147,0,0,0,1.491-.2,4.019,4.019,0,0,0,1.316-4.229,3.942,3.942,0,0,0-3.237-3.015,3.832,3.832,0,0,0-3.968,1.481,12.3,12.3,0,0,0-1.045,2.091A46.242,46.242,0,0,0,609.823,1956.8Zm195.528,68.689a3.572,3.572,0,1,0-3.619,3.57A3.522,3.522,0,0,0,805.351,2025.493ZM922.12,2046.23a3.572,3.572,0,1,0,3.472,3.571A3.554,3.554,0,0,0,922.12,2046.23Zm601.1-20.051a34.152,34.152,0,0,1,5.106-1.182c.409-.024.792-.432,1.175-.657-1.127-2.584-3.079-3.673-5.331-3.022a4.227,4.227,0,0,0-2.525,1.943,3.259,3.259,0,0,0-.438,2.867A3.149,3.149,0,0,0,1523.222,2026.179Zm-815.188-24.694a3.012,3.012,0,0,0-3.07-2.9,2.98,2.98,0,0,0-2.991,3.164,3.013,3.013,0,0,0,3.054,2.913A3.05,3.05,0,0,0,708.034,2001.485Zm1130.92-123.569a2.963,2.963,0,0,0-3.2,2.948,3.01,3.01,0,0,0,2.816,3.153,3.133,3.133,0,0,0,3.248-2.971A3.083,3.083,0,0,0,1838.954,1877.916Zm-24.381,23.9a3.018,3.018,0,0,0-3.159,3,2.987,2.987,0,0,0,3.126,3.02,2.947,2.947,0,0,0,2.94-2.988A2.983,2.983,0,0,0,1814.572,1901.811ZM898.347,2046.8a3.01,3.01,0,1,0-.4,6.006,3.01,3.01,0,1,0,.4-6.006Zm-120.814-24.116a2.807,2.807,0,0,0-.206,5.61,2.807,2.807,0,1,0,.206-5.61Zm340.49,51.694a1.967,1.967,0,0,0,.109-.6,2.986,2.986,0,0,0-3.129-3.03,3.024,3.024,0,0,0-2.781,3.173c.08.908.5,1.369,1.4,1.391,1.283.034,2.568.009,3.964.009C1117.8,2074.869,1117.936,2074.633,1118.024,2074.382Zm-27.049,1.451c.2,0,.408.01.612,0a1.761,1.761,0,0,0,1.858-1.525,2.609,2.609,0,0,0-.947-2.732,2.741,2.741,0,0,0-2.887-.238,2.49,2.49,0,0,0-1.34,2.353c.021,1.338.709,2.322,2.093,2.15a4.915,4.915,0,0,1,.612,0Zm49.726-4.708a3,3,0,0,0-3.591.249,4.119,4.119,0,0,0-.966,1.508,1.782,1.782,0,0,0,.381,2.011,27.1,27.1,0,0,0,5.283-.145C1142.2,2072.9,1141.863,2071.859,1140.7,2071.124Zm-266.754-23.835a2.5,2.5,0,0,0-2.6,2.517,2.453,2.453,0,0,0,2.406,2.492,2.478,2.478,0,0,0,2.609-2.5A2.518,2.518,0,0,0,873.947,2047.289Zm527.571,1.676a8.865,8.865,0,0,0,.985-.191c.394-.081.785-.185,1.183-.234,1.337-.164,2.678-.3,4.015-.465a.654.654,0,0,0,.353-1.1,4.355,4.355,0,0,0-7.452,1.314,1.7,1.7,0,0,0,.081.606A5.019,5.019,0,0,0,1401.518,2048.966Zm-235.1,24.778a2.52,2.52,0,0,0-.9-2.351,2.886,2.886,0,0,0-2.225-.841,2.976,2.976,0,0,0-2.2.916,2.479,2.479,0,0,0-.748,2.368A16.363,16.363,0,0,0,1166.42,2073.743Zm-99.474,1.583c.4,0,.809.021,1.211,0a1.266,1.266,0,0,0,1.34-1.214,2.462,2.462,0,0,0-1.195-2.584,2.277,2.277,0,0,0-2.488-.066,2.444,2.444,0,0,0-1.308,2.527c.088.9.482,1.281,1.43,1.343.335.022.673,0,1.009,0Zm-23.1-3.542a2.142,2.142,0,0,0-2.623.271,2.881,2.881,0,0,0-.687,1.2,1.353,1.353,0,0,0,.42,1.541,10.1,10.1,0,0,0,3.652-.037C1045.016,2073.118,1044.814,2072.412,1043.845,2071.784Zm580.193-72.483c.076-.026.093-.224.188-.477a3.7,3.7,0,0,0-6.152,2.127A22.058,22.058,0,0,0,1624.038,1999.3ZM1190.52,2072.49a2.914,2.914,0,0,0-3-2.1,3.293,3.293,0,0,0-2.017.836c-.387.353-.835.7-.672,1.341A14.751,14.751,0,0,0,1190.52,2072.49Zm-340.446-24.514a1.837,1.837,0,1,0-.213,3.667,1.834,1.834,0,0,0,1.963-1.833A1.8,1.8,0,0,0,850.074,2047.976Zm893.007-97.605a3.115,3.115,0,0,0-2.34.375,2.312,2.312,0,0,0-1.075,3.086,34.384,34.384,0,0,0,4.825-2.375A1.531,1.531,0,0,0,1743.081,1950.37ZM754.907,2024.98a1.794,1.794,0,0,0-3.076-.761.586.586,0,0,0,.114,1.011c.938.28,1.769,1.024,2.975.684A3.122,3.122,0,0,0,754.907,2024.98Zm265.764,48.521a1.3,1.3,0,0,0-.7-1.465,2.425,2.425,0,0,0-1.306-.4,2.541,2.541,0,0,0-1.244.586,1.057,1.057,0,0,0-.414,1.3A11.011,11.011,0,0,0,1020.671,2073.5Zm188.657-2.008a15.075,15.075,0,0,1,1.674-.359c.6-.056,1.2-.012,2.287-.012C1211.516,2069.947,1210.582,2070.083,1209.327,2071.493Zm483.143-96.465c.484-.079.965-.135,1.221-.717C1692.673,1974.4,1692.673,1974.4,1692.471,1975.028Zm-697.775,97.1c-.054-.031-.116-.094-.161-.083a1.4,1.4,0,0,0-.28.125l.163.091Z" transform="translate(-404.539 -1109.672)" opacity="0.5" fill="url(#linear-gradient)"/>
      <rect id="Rectangle_2429" data-name="Rectangle 2429" width="1434.068" height="14.238" rx="7.119" transform="translate(57.141 754.686)" fill="#2e5b9a"/>
      <g id="Group_2186" data-name="Group 2186" transform="translate(799.95 64.839)">
        <path id="Rectangle_2430" data-name="Rectangle 2430" d="M15.912,0h136.45a15.913,15.913,0,0,1,15.913,15.913V53.43a15.913,15.913,0,0,1-15.913,15.913H15.913A15.913,15.913,0,0,1,0,53.43V15.912A15.912,15.912,0,0,1,15.912,0Z" fill="#9ec8ff"/>
        <path id="Path_11645" data-name="Path 11645" d="M2070.536,445.708v38.257l44.085-44.086S2071.431,445.708,2070.536,445.708Z" transform="translate(-2050.212 -386.826)" fill="#9ec8ff"/>
        <rect id="Rectangle_2431" data-name="Rectangle 2431" width="150.867" height="55.593" rx="13.491" transform="translate(8.704 6.874)" fill="#fff"/>
        <path id="Path_11646" data-name="Path 11646" d="M2140.345,360.659H2072.2a2.989,2.989,0,0,1,0-5.978h68.147a2.989,2.989,0,1,1,0,5.978Z" transform="translate(-2049.483 -340.035)" fill="#9ec8ff"/>
        <path id="Rectangle_2432" data-name="Rectangle 2432" d="M1.678,0H128.039a1.679,1.679,0,0,1,1.679,1.679v0a1.679,1.679,0,0,1-1.679,1.679H1.678A1.678,1.678,0,0,1,0,1.679v0A1.678,1.678,0,0,1,1.678,0Z" transform="translate(19.727 28.694)" fill="#9ec8ff"/>
        <path id="Rectangle_2433" data-name="Rectangle 2433" d="M1.678,0H128.039a1.679,1.679,0,0,1,1.679,1.679v0a1.679,1.679,0,0,1-1.679,1.679H1.678A1.678,1.678,0,0,1,0,1.679v0A1.678,1.678,0,0,1,1.678,0Z" transform="translate(19.727 35.199)" fill="#9ec8ff"/>
        <g id="Group_2185" data-name="Group 2185" transform="translate(115.936 53.501)">
          <rect id="Rectangle_2434" data-name="Rectangle 2434" width="7.306" height="6.576" rx="3.288" fill="#9ec8ff"/>
          <rect id="Rectangle_2435" data-name="Rectangle 2435" width="7.306" height="6.576" rx="3.288" transform="translate(13.284)" fill="#9ec8ff"/>
          <rect id="Rectangle_2436" data-name="Rectangle 2436" width="7.306" height="6.576" rx="3.288" transform="translate(26.568)" fill="#9ec8ff"/>
        </g>
      </g>
      <g id="Group_2187" data-name="Group 2187" transform="translate(346.099 619.379)">
        <path id="Path_11647" data-name="Path 11647" d="M1279.1,1834.038H1018.68a16.712,16.712,0,0,1,16.712-16.712h243.7Z" transform="translate(-1018.68 -1697.862)" fill="#a8ceff"/>
        <path id="Path_11648" data-name="Path 11648" d="M1427.584,1688.5h-139.1l59.068-129.949a10.621,10.621,0,0,1,9.67-6.226h125.815a4.147,4.147,0,0,1,3.776,5.863Z" transform="translate(-1166.859 -1552.322)" fill="#a8ceff"/>
        <path id="Path_11649" data-name="Path 11649" d="M1496.4,1552.322H1381.554a10.623,10.623,0,0,0-9.67,6.226L1312.816,1688.5h128.129l59.232-130.312A4.147,4.147,0,0,0,1496.4,1552.322Z" transform="translate(-1180.22 -1552.322)" fill="#75a1de"/>
        <path id="Path_11650" data-name="Path 11650" d="M1547.98,1684.762c-4.869,10.09-12.769,16.361-17.646,14.008s-4.883-12.44-.014-22.531,12.769-16.361,17.646-14.008S1552.849,1674.672,1547.98,1684.762Z" transform="translate(-1297.67 -1612.413)" fill="#6695d6"/>
      </g>
      <g id="Group_2188" data-name="Group 2188" transform="translate(196.897 357.839)">
        <path id="Path_11651" data-name="Path 11651" d="M951.243,1114.741s-11.817,60.329-24.878,70.9,30.059,61.555,44.986,48.494,1.039-41.652,1.039-41.652-8.084-4.975,5.6-36.695-23.152-55.354-23.152-55.354Z" transform="translate(-817.442 -1042.605)" fill="#f09959"/>
        <path id="Path_11652" data-name="Path 11652" d="M982.764,1100.436l-3.592,14.3s-1.645,8.394-4.384,19.466c5.106,23.823,14.65,39.317,23.188,49.166.25-5.493,2.137-14.132,7.939-27.583C1019.6,1124.07,982.764,1100.436,982.764,1100.436Z" transform="translate(-845.373 -1042.605)" fill="#e38540"/>
        <path id="Path_11653" data-name="Path 11653" d="M1063.165,1105.277c-7.941,21.9-27.349,39.48-39.67,35.424-20.131-6.628-34.784-22.361-31.323-57.145,4.077-40.964,35.6-45.662,54.111-40.427S1071.952,1081.043,1063.165,1105.277Z" transform="translate(-854.641 -1010.176)" fill="#f09959"/>
        <path id="Path_11654" data-name="Path 11654" d="M900.735,1289.246l-19.042,7.458,30.014,38.463-8.565,15.327s30.91,23.206,40.3,68.172a402.214,402.214,0,0,1,8.372,83.279s2.307-91.2-2.244-108.625C940.748,1359.511,900.735,1289.246,900.735,1289.246Z" transform="translate(-794.245 -1146.3)" fill="#d54a41"/>
        <path id="Path_11655" data-name="Path 11655" d="M1031.916,1305.79s23.76,61,27.529,78.168,4.533,101.056,4.533,101.056,10.926-73.14,7.77-94.779-7.664-41.192-7.664-41.192l-14.426-10.65s-2.727-29.011-4.261-29.386S1031.916,1305.79,1031.916,1305.79Z" transform="translate(-876.747 -1155.386)" fill="#d54a41"/>
        <path id="Path_11656" data-name="Path 11656" d="M978.243,1781.948c46.216-14,40.615-21.007,57.42-13.071s37.867,13.324,28.01,15.872-24.742-5.6-24.742-5.6,2.334,12.6-6.069,16.339-45.714,5.092-66.506-.723S978.243,1781.948,978.243,1781.948Z" transform="translate(-836.94 -1407.885)" fill="#f09959"/>
        <path id="Path_11657" data-name="Path 11657" d="M983.358,1797.113h9.2l-4.6,26.131s-18.123-2.689-16.771-4.493S983.358,1797.113,983.358,1797.113Z" transform="translate(-843.354 -1425.221)" fill="#a2dff2"/>
        <path id="Path_11658" data-name="Path 11658" d="M740.255,1336.113c-18.032,31.556-23.752,48.766-38.45,107.82s-20.6,85.926-4.376,93.687c13.43,6.422,111.207,35.746,123.068,32.135,5.41.307,13.713-27.627,13.713-27.627l-89-39.67s25.758-61.49,30.2-101.88-15.327-64.464-25.245-64.464Z" transform="translate(-687.707 -1172.04)" fill="#f37168"/>
        <path id="Path_11659" data-name="Path 11659" d="M984.387,1125.055c-4.355,13.67-2.486,16.457-8.514,17.736s-11.533-4.706-13.315-13.108,1.661-16.249,7.688-17.527S986.994,1116.871,984.387,1125.055Z" transform="translate(-838.398 -1048.947)" fill="#f09959"/>
        <path id="Path_11660" data-name="Path 11660" d="M1043.51,1043.172c-23.589,41.922-70.446,35.767-98.923,21.341-23.214-11.76,66.23-56.308,66.23-56.308Z" transform="translate(-826.673 -991.952)" fill="#303c60"/>
        <path id="Path_11661" data-name="Path 11661" d="M917.741,988.4c-8.743-26.37-44.569-20.135-60.8,14.95s8.607,58.549,23.66,49.954S917.741,988.4,917.741,988.4Z" transform="translate(-777.737 -972.151)" fill="#303c60"/>
      </g>
      <g id="Group_2191" data-name="Group 2191" transform="translate(429.763 62.697)">
        <path id="Path_11662" data-name="Path 11662" d="M1616.2,582.869a208.8,208.8,0,0,0,6.277-32.081l-33.115-14.907q.25-4.707.257-9.478a176.891,176.891,0,0,0-1.915-25.959l31.572-17.965a208.14,208.14,0,0,0-9.3-31.333l-36.253,2.19a175.381,175.381,0,0,0-17.982-30.591l19.6-30.564a211.1,211.1,0,0,0-22.821-23.425l-31.068,18.779a175.57,175.57,0,0,0-30.1-18.781l3.149-36.189a208.227,208.227,0,0,0-31.074-10.125l-18.792,31.081a176.6,176.6,0,0,0-30.55-2.655q-2.426,0-4.835.069l-14.023-33.493a209.247,209.247,0,0,0-32.239,5.426l-2.2,36.244a174.553,174.553,0,0,0-32.552,14.154l-27.98-23.139a210.6,210.6,0,0,0-25.987,19.846l14.9,33.112a176.313,176.313,0,0,0-22.257,27.617l-35.546-7.489a208.8,208.8,0,0,0-13.826,29.616l28.588,22.4a174.753,174.753,0,0,0-6.823,34.824l-34.932,9.882c-.065,2.149-.109,4.3-.109,6.469A212,212,0,0,0,1205.9,552.6l35.713,6.547a174.193,174.193,0,0,0,10.1,34.028l-26.348,24.992a209.618,209.618,0,0,0,16.57,28.179l34.675-10.8a176.565,176.565,0,0,0,24.746,25.4l-11.717,34.378a209.844,209.844,0,0,0,27.735,17.307l25.676-25.672a174.194,174.194,0,0,0,33.749,11l5.6,35.879a211.513,211.513,0,0,0,31.694,2.381c.307,0,.61-.01.917-.011l10.8-34.664a175.044,175.044,0,0,0,34.988-5.9l21.64,29.176a208.573,208.573,0,0,0,29.97-13.035l-6.544-35.728a176.211,176.211,0,0,0,28.193-21.526l32.709,15.772a210.722,210.722,0,0,0,20.52-25.461L1564.9,616.267a174.681,174.681,0,0,0,15.011-32.163Zm-202.119,29.87a86.335,86.335,0,1,1,86.335-86.335A86.335,86.335,0,0,1,1414.086,612.739Z" transform="translate(-1204.271 -317.442)" fill="#9ec8ff" opacity="0.5"/>
        <g id="Group_2189" data-name="Group 2189" transform="translate(72.35 277.9)">
          <path id="Path_11663" data-name="Path 11663" d="M1379.963,959.045a2.249,2.249,0,0,1-1.811-.91,156.811,156.811,0,0,1-13.131-20.934,2.254,2.254,0,1,1,4-2.086,152.271,152.271,0,0,0,12.752,20.33,2.254,2.254,0,0,1-1.807,3.6Z" transform="translate(-1364.765 -933.904)" fill="#fff"/>
        </g>
        <g id="Group_2190" data-name="Group 2190" transform="translate(115.375 329.062)">
          <path id="Path_11664" data-name="Path 11664" d="M1535.9,1082.308a2.381,2.381,0,0,1-.3-.02,155.968,155.968,0,0,1-74.512-30.851,2.254,2.254,0,1,1,2.742-3.577,151.465,151.465,0,0,0,72.356,29.958,2.254,2.254,0,0,1-.291,4.49Z" transform="translate(-1460.205 -1047.395)" fill="#fff"/>
        </g>
      </g>
      <g id="Group_2206" data-name="Group 2206" transform="translate(642.49 167.415)">
        <rect id="Rectangle_2437" data-name="Rectangle 2437" width="409.827" height="227.372" fill="#9ec8ff"/>
        <rect id="Rectangle_2438" data-name="Rectangle 2438" width="393.599" height="207.086" transform="translate(4.508 4.959)" fill="#fff"/>
        <g id="Group_2203" data-name="Group 2203" transform="translate(9.832 6.983)" opacity="0.5">
          <g id="Group_2192" data-name="Group 2192">
            <path id="Path_11665" data-name="Path 11665" d="M2072.15,754.036H1698.873a.9.9,0,0,1-.9-.9V566.13a.9.9,0,0,1,.9-.9H2072.15a.9.9,0,0,1,.9.9V753.135A.9.9,0,0,1,2072.15,754.036Zm-372.375-1.8h371.473v-185.2H1699.775Z" transform="translate(-1697.971 -565.228)" fill="#9ec8ff"/>
          </g>
          <g id="Group_2193" data-name="Group 2193" transform="translate(0 155.837)">
            <path id="Path_11666" data-name="Path 11666" d="M2072.15,912.723H1698.873a.9.9,0,1,1,0-1.8H2072.15a.9.9,0,0,1,0,1.8Z" transform="translate(-1697.971 -910.92)" fill="#9ec8ff"/>
          </g>
          <g id="Group_2194" data-name="Group 2194" transform="translate(0 124.67)">
            <path id="Path_11667" data-name="Path 11667" d="M2072.15,843.585H1698.873a.9.9,0,1,1,0-1.8H2072.15a.9.9,0,0,1,0,1.8Z" transform="translate(-1697.971 -841.782)" fill="#9ec8ff"/>
          </g>
          <g id="Group_2195" data-name="Group 2195" transform="translate(0 93.502)">
            <path id="Path_11668" data-name="Path 11668" d="M2072.15,774.446H1698.873a.9.9,0,1,1,0-1.8H2072.15a.9.9,0,0,1,0,1.8Z" transform="translate(-1697.971 -772.643)" fill="#9ec8ff"/>
          </g>
          <g id="Group_2196" data-name="Group 2196" transform="translate(0 62.335)">
            <path id="Path_11669" data-name="Path 11669" d="M2072.15,705.307H1698.873a.9.9,0,1,1,0-1.8H2072.15a.9.9,0,0,1,0,1.8Z" transform="translate(-1697.971 -703.504)" fill="#9ec8ff"/>
          </g>
          <g id="Group_2197" data-name="Group 2197" transform="translate(0 31.167)">
            <path id="Path_11670" data-name="Path 11670" d="M2072.15,636.169H1698.873a.9.9,0,1,1,0-1.8H2072.15a.9.9,0,0,1,0,1.8Z" transform="translate(-1697.971 -634.366)" fill="#9ec8ff"/>
          </g>
          <g id="Group_2198" data-name="Group 2198" transform="translate(311.064)">
            <path id="Path_11671" data-name="Path 11671" d="M2388.9,754.036a.9.9,0,0,1-.9-.9V566.13a.9.9,0,1,1,1.8,0V753.135A.9.9,0,0,1,2388.9,754.036Z" transform="translate(-2388 -565.228)" fill="#9ec8ff"/>
          </g>
          <g id="Group_2199" data-name="Group 2199" transform="translate(248.851)">
            <path id="Path_11672" data-name="Path 11672" d="M2250.895,754.036a.9.9,0,0,1-.9-.9V566.13a.9.9,0,1,1,1.8,0V753.135A.9.9,0,0,1,2250.895,754.036Z" transform="translate(-2249.994 -565.228)" fill="#9ec8ff"/>
          </g>
          <g id="Group_2200" data-name="Group 2200" transform="translate(186.638)">
            <path id="Path_11673" data-name="Path 11673" d="M2112.89,754.036a.9.9,0,0,1-.9-.9V566.13a.9.9,0,0,1,1.8,0V753.135A.9.9,0,0,1,2112.89,754.036Z" transform="translate(-2111.988 -565.228)" fill="#9ec8ff"/>
          </g>
          <g id="Group_2201" data-name="Group 2201" transform="translate(124.425)">
            <path id="Path_11674" data-name="Path 11674" d="M1974.884,754.036a.9.9,0,0,1-.9-.9V566.13a.9.9,0,1,1,1.8,0V753.135A.9.9,0,0,1,1974.884,754.036Z" transform="translate(-1973.982 -565.228)" fill="#9ec8ff"/>
          </g>
          <g id="Group_2202" data-name="Group 2202" transform="translate(62.213)">
            <path id="Path_11675" data-name="Path 11675" d="M1836.878,754.036a.9.9,0,0,1-.9-.9V566.13a.9.9,0,0,1,1.8,0V753.135A.9.9,0,0,1,1836.878,754.036Z" transform="translate(-1835.977 -565.228)" fill="#9ec8ff"/>
          </g>
        </g>
        <g id="Group_2204" data-name="Group 2204" transform="translate(8.93 6.082)">
          <path id="Path_11676" data-name="Path 11676" d="M1697.775,753.84a1.8,1.8,0,0,1-.809-3.416l61.968-31.045,31.958-30.751,29.68-62.041a1.818,1.818,0,0,1,.427-.568l33.738-30.061a1.8,1.8,0,0,1,2.834.586l28.446,61.165,33.8,60.048,25.45-29.24a1.8,1.8,0,0,1,1.3-.619,1.757,1.757,0,0,1,1.338.53l28.958,29.094,30.266-90.728a1.8,1.8,0,0,1,.435-.7l62.213-62.335a1.8,1.8,0,0,1,2.553,2.547l-61.914,62.035-31.056,93.1a1.8,1.8,0,0,1-2.988.7l-29.656-29.795-25.856,29.706a1.8,1.8,0,0,1-2.931-.3l-35.085-62.335c-.023-.04-.044-.082-.064-.124l-27.452-59.028-31.656,28.205L1794,690.479a1.83,1.83,0,0,1-.376.521l-32.392,31.167a1.8,1.8,0,0,1-.442.313l-62.213,31.168A1.8,1.8,0,0,1,1697.775,753.84Z" transform="translate(-1695.97 -563.227)" fill="#f39892"/>
        </g>
        <g id="Group_2205" data-name="Group 2205" transform="translate(8.93 6.081)">
          <path id="Path_11677" data-name="Path 11677" d="M1697.774,753.839a1.8,1.8,0,0,1-1.291-3.063l91.223-93.5a1.8,1.8,0,0,1,2.525-.055l31.927,29.971,60.978-61.1a1.8,1.8,0,0,1,2.527-.025l31.077,29.913,28.583-29.861a1.805,1.805,0,0,1,1.284-.556,1.835,1.835,0,0,1,1.3.53l60.442,60.561,61.094-122.428a1.8,1.8,0,1,1,3.227,1.611l-62.213,124.67a1.8,1.8,0,0,1-2.89.468l-60.909-61.029-28.558,29.835a1.8,1.8,0,0,1-2.553.052l-31.1-29.94-60.962,61.082a1.8,1.8,0,0,1-2.511.041l-31.913-29.957-89.989,92.237A1.8,1.8,0,0,1,1697.774,753.839Z" transform="translate(-1695.97 -563.226)" fill="#9ec8ff"/>
        </g>
      </g>
      <g id="Group_2209" data-name="Group 2209" transform="translate(481.987 77.23)">
        <path id="Rectangle_2439" data-name="Rectangle 2439" d="M9.867,0H130.9a9.867,9.867,0,0,1,9.867,9.867v130.52a65.3,65.3,0,0,1-65.3,65.3H0a0,0,0,0,1,0,0V9.867A9.867,9.867,0,0,1,9.867,0Z" transform="translate(62.868)" fill="#9ec8ff"/>
        <path id="Rectangle_2440" data-name="Rectangle 2440" d="M9.372,0H125.067a9.372,9.372,0,0,1,9.372,9.372V134.482a62.033,62.033,0,0,1-62.033,62.033H0a0,0,0,0,1,0,0V9.372A9.372,9.372,0,0,1,9.372,0Z" transform="translate(64.454 3.48)" fill="#fff"/>
        <path id="Path_11678" data-name="Path 11678" d="M1463.689,693.4v-3.544c0-2.8-1.958-5.062-4.375-5.062H1324.491c-2.415,0-4.373,2.266-4.373,5.062V693.4c0,25.122,17.594,45.486,39.3,45.486h137.756C1475.468,738.884,1463.392,720.811,1463.689,693.4Z" transform="translate(-1320.118 -533.724)" fill="#9ec8ff"/>
        <path id="Path_11679" data-name="Path 11679" d="M1467.457,703.213v-2.868a4.1,4.1,0,0,0-4.1-4.1H1337.113a4.1,4.1,0,0,0-4.1,4.1v2.868a36.8,36.8,0,0,0,36.8,36.8h134.44C1483.933,740.012,1467.457,730.176,1467.457,703.213Z" transform="translate(-1327.202 -540.017)" fill="#fff"/>
        <g id="Group_2207" data-name="Group 2207" transform="translate(83.241 22.275)">
          <path id="Path_11680" data-name="Path 11680" d="M1606.311,462.286h-96.029a5.518,5.518,0,0,1-5.511-5.511V404.6a5.518,5.518,0,0,1,5.511-5.511h96.029a5.517,5.517,0,0,1,5.51,5.511v52.172A5.517,5.517,0,0,1,1606.311,462.286Zm-96.029-61.39a3.712,3.712,0,0,0-3.707,3.708v52.172a3.712,3.712,0,0,0,3.707,3.708h96.029a3.712,3.712,0,0,0,3.707-3.708V404.6a3.712,3.712,0,0,0-3.707-3.708Z" transform="translate(-1504.771 -399.093)" fill="#9ec8ff"/>
        </g>
        <path id="Path_11681" data-name="Path 11681" d="M1527.291,588.806H1421.735a2.727,2.727,0,1,1,0-5.453h105.555a2.727,2.727,0,0,1,0,5.453Z" transform="translate(-1374.428 -478.014)" fill="#9ec8ff"/>
        <path id="Path_11682" data-name="Path 11682" d="M1527.291,610.876H1421.735a2.727,2.727,0,1,1,0-5.453h105.555a2.727,2.727,0,0,1,0,5.453Z" transform="translate(-1374.428 -490.135)" fill="#9ec8ff"/>
        <path id="Path_11683" data-name="Path 11683" d="M1527.291,632.178H1421.735a2.727,2.727,0,1,1,0-5.453h105.555a2.727,2.727,0,0,1,0,5.453Z" transform="translate(-1374.428 -501.834)" fill="#9ec8ff"/>
        <g id="Group_2208" data-name="Group 2208" transform="translate(153.693 30.575)">
          <rect id="Rectangle_2441" data-name="Rectangle 2441" width="6.225" height="5.603" rx="2.801" fill="#9ec8ff"/>
          <rect id="Rectangle_2442" data-name="Rectangle 2442" width="6.226" height="5.603" rx="2.801" transform="translate(11.319)" fill="#9ec8ff"/>
          <rect id="Rectangle_2443" data-name="Rectangle 2443" width="6.225" height="5.603" rx="2.801" transform="translate(22.638)" fill="#9ec8ff"/>
        </g>
        <rect id="Rectangle_2444" data-name="Rectangle 2444" width="14.212" height="23.465" transform="translate(93.746 53.872)" fill="#9ec8ff"/>
        <rect id="Rectangle_2445" data-name="Rectangle 2445" width="14.212" height="21.51" transform="translate(132.926 55.826)" fill="#9ec8ff"/>
        <rect id="Rectangle_2446" data-name="Rectangle 2446" width="14.212" height="31.113" transform="translate(155.588 46.223)" fill="#9ec8ff"/>
        <rect id="Rectangle_2447" data-name="Rectangle 2447" width="14.212" height="14.212" transform="translate(112.952 63.124)" fill="#9ec8ff"/>
      </g>
      <g id="Group_2211" data-name="Group 2211" transform="translate(1374.982 252.462)">
        <path id="Path_11684" data-name="Path 11684" d="M3351.633,804.7h50.6a50.6,50.6,0,1,1-50.6-50.6Z" transform="translate(-3301.037 -747.024)" fill="#9ec8ff"/>
        <g id="Group_2210" data-name="Group 2210" transform="translate(8.474)">
          <path id="Path_11685" data-name="Path 11685" d="M3482.667,788.99a50.6,50.6,0,0,0-50.6-50.6v50.6Z" transform="translate(-3381.475 -738.394)" fill="#f39892"/>
          <path id="Path_11686" data-name="Path 11686" d="M3319.835,850.63a50.6,50.6,0,0,0,50.6,50.6A50.836,50.836,0,0,1,3319.835,850.63Z" transform="translate(-3319.835 -800.034)" fill="#f39892"/>
          <path id="Path_11687" data-name="Path 11687" d="M3370.431,738.394a50.6,50.6,0,0,0-50.6,50.6A50.836,50.836,0,0,1,3370.431,738.394Z" transform="translate(-3319.835 -738.394)" fill="#f39892"/>
          <path id="Path_11688" data-name="Path 11688" d="M3432.071,901.226a50.6,50.6,0,0,0,50.6-50.6A50.839,50.839,0,0,1,3432.071,901.226Z" transform="translate(-3381.475 -800.034)" fill="#f39892"/>
        </g>
      </g>
      <circle id="Ellipse_546" data-name="Ellipse 546" cx="4.486" cy="4.486" r="4.486" transform="translate(805.991 204.239) rotate(-13.282)" fill="#f39892"/>
      <circle id="Ellipse_547" data-name="Ellipse 547" cx="4.486" cy="4.486" r="4.486" transform="translate(739.273 265.467) rotate(-13.282)" fill="#9ec8ff"/>
      <circle id="Ellipse_548" data-name="Ellipse 548" cx="4.486" cy="4.486" r="4.486" transform="translate(835.377 233.149)" fill="#9ec8ff"/>
      <circle id="Ellipse_549" data-name="Ellipse 549" cx="4.486" cy="4.486" r="4.486" transform="translate(897.589 233.149)" fill="#9ec8ff"/>
      <circle id="Ellipse_550" data-name="Ellipse 550" cx="4.486" cy="4.486" r="4.486" transform="translate(959.802 233.149)" fill="#f39892"/>
      <g id="Group_2213" data-name="Group 2213" transform="translate(477.359 248.154)">
        <circle id="Ellipse_551" data-name="Ellipse 551" cx="24.209" cy="24.209" r="24.209" transform="translate(0 34.236) rotate(-45)" fill="#9cd499"/>
        <g id="Group_2212" data-name="Group 2212" transform="translate(23.906 26.237)">
          <path id="Path_11689" data-name="Path 11689" d="M1370.81,803.495h-.05a1.352,1.352,0,0,1-.965-.458l-6.576-7.473a1.352,1.352,0,0,1,2.031-1.787l5.633,6.4,13.029-12.751a1.352,1.352,0,1,1,1.892,1.933l-14.048,13.749A1.352,1.352,0,0,1,1370.81,803.495Z" transform="translate(-1362.883 -787.041)" fill="#fff"/>
        </g>
      </g>
      <g id="Group_2214" data-name="Group 2214" transform="translate(169.546 109.856)">
        <rect id="Rectangle_2448" data-name="Rectangle 2448" width="16.114" height="87.909" transform="translate(0 26.764)" fill="#9ec8ff"/>
        <rect id="Rectangle_2449" data-name="Rectangle 2449" width="16.114" height="62.335" transform="translate(68.293 52.339)" fill="#9ec8ff"/>
        <rect id="Rectangle_2450" data-name="Rectangle 2450" width="16.114" height="87.909" transform="translate(102.439 26.764)" fill="#9ec8ff"/>
        <rect id="Rectangle_2451" data-name="Rectangle 2451" width="16.114" height="31.167" transform="translate(136.585 83.506)" fill="#9ec8ff"/>
        <rect id="Rectangle_2452" data-name="Rectangle 2452" width="16.114" height="114.674" transform="translate(34.146)" fill="#9ec8ff"/>
        <rect id="Rectangle_2453" data-name="Rectangle 2453" width="16.114" height="62.335" transform="translate(170.846 52.339)" fill="#9ec8ff"/>
      </g>
      <g id="Group_2215" data-name="Group 2215" transform="translate(1161.063 82.109)">
        <rect id="Rectangle_2454" data-name="Rectangle 2454" width="16.114" height="46.627" transform="translate(0 62.468)" fill="#9ec8ff"/>
        <rect id="Rectangle_2455" data-name="Rectangle 2455" width="16.114" height="31.458" transform="translate(206.546 77.637)" fill="#9ec8ff"/>
        <rect id="Rectangle_2456" data-name="Rectangle 2456" width="16.114" height="109.095" transform="translate(68.293)" fill="#9ec8ff"/>
        <rect id="Rectangle_2457" data-name="Rectangle 2457" width="16.115" height="49.036" transform="translate(102.439 60.059)" fill="#9ec8ff"/>
        <rect id="Rectangle_2458" data-name="Rectangle 2458" width="16.114" height="62.916" transform="translate(136.585 46.178)" fill="#9ec8ff"/>
        <rect id="Rectangle_2459" data-name="Rectangle 2459" width="16.115" height="77.413" transform="translate(34.146 31.682)" fill="#9ec8ff"/>
        <rect id="Rectangle_2460" data-name="Rectangle 2460" width="16.114" height="95.346" transform="translate(170.846 13.749)" fill="#9ec8ff"/>
      </g>
      <g id="Group_2217" data-name="Group 2217" transform="translate(54.036 310.905)">
        <g id="Group_2216" data-name="Group 2216" clip-path="url(#clip-path)">
          <path id="Path_11690" data-name="Path 11690" d="M558.219,1045.713l-57.952-35.438-10.483,67.116A68,68,0,0,0,558.219,1045.713Z" transform="translate(-436.146 -946.155)" fill="#a2dff2"/>
          <path id="Path_11691" data-name="Path 11691" d="M571.051,1006.52c.156-.256.361-.608.352-.594a67.935,67.935,0,0,0,1.5-66.87c-20.508,10.745-8.3,4.218-59.87,32.105C571.086,1006.658,562.07,1001.184,571.051,1006.52Z" transform="translate(-448.918 -907.041)" fill="#9cd499"/>
          <path id="Path_11692" data-name="Path 11692" d="M371.722,904.134l63.705,23.473,59.76-32.314C467.233,843.6,391.99,849.8,371.722,904.134Z" transform="translate(-371.307 -863.487)" fill="#9ec8ff"/>
          <path id="Path_11693" data-name="Path 11693" d="M419.741,1048.794l10.483-67.116L366.519,958.2C351.37,998.817,378.257,1042.254,419.741,1048.794Z" transform="translate(-366.104 -917.557)" fill="#f39892"/>
          <path id="Path_11694" data-name="Path 11694" d="M488.533,959.531a70.458,70.458,0,0,0,1.759-66.055l.038-.021-1.072-1.983c-.022-.04-.046-.079-.067-.119l-.877-1.631-.034.018a69.359,69.359,0,0,0-28-27.16,70.753,70.753,0,0,0-97.76,35.929l-.037-.014-.784,2.1-.791,2.121.037.013A69.312,69.312,0,0,0,366.884,960a70.251,70.251,0,0,0,47.579,33.815l-.006.039,2.22.35,2.232.352.006-.039a70.244,70.244,0,0,0,67.329-31.249l.046.027.441-.723c.011.006.719-1.178.719-1.178.11-.18.242-.4.317-.533l.047-.079c.012-.02.022-.041.035-.061l.715-1.168Zm-6.8-61.279c1.335-.7,2.865-1.5,4.682-2.449a65.941,65.941,0,0,1-1.691,61.317l-.43-.252c-2.368-1.4-3.4-2.012-8.116-4.89l-44.152-27,36.652-19.819C474.065,902.265,476.271,901.11,481.737,898.252Zm-114.991,1.814a65.722,65.722,0,0,1,117.44-8.414l-17.65,9.543c-3.644,1.961-8.738,4.717-17.266,9.331-5.464,2.957-12.339,6.677-21.144,11.438l-.544.294-1.775-1.085-.1.619L397.8,911.509Zm4.03,57.658a64.82,64.82,0,0,1-5.6-53.434l41.963,15.463L425,926.336l-9.843,63.023A65.764,65.764,0,0,1,370.776,957.724Zm48.835,32.338,9.608-61.517,25,15.292C464.3,950,470.071,953.531,473.7,955.746l8.632,5.278A65.413,65.413,0,0,1,419.611,990.062Z" transform="translate(-363.394 -860.739)" fill="#e7f3fe"/>
        </g>
      </g>
      <path id="Path_11696" data-name="Path 11696" d="M373.272,1309.474a20.228,20.228,0,1,1-20.228-20.228A20.227,20.227,0,0,1,373.272,1309.474Z" transform="translate(-295.904 -788.461)" fill="#9ec8ff"/>
      <path id="Path_11697" data-name="Path 11697" d="M385.984,1323.75a10.147,10.147,0,1,1-10.148-10.147A10.148,10.148,0,0,1,385.984,1323.75Z" transform="translate(-313.957 -801.838)" fill="#fff"/>
      <path id="Rectangle_2461" data-name="Rectangle 2461" d="M29.627,0H47.3A29.626,29.626,0,0,1,76.929,29.626V47.3A29.626,29.626,0,0,1,47.3,76.93H29.626A29.626,29.626,0,0,1,0,47.3V29.627A29.627,29.627,0,0,1,29.627,0Z" transform="translate(1379.307 443.811)" fill="#9ec8ff"/>
      <g id="Group_2218" data-name="Group 2218" transform="translate(1400.449 453.333)">
        <path id="Path_11698" data-name="Path 11698" d="M3423.357,1265.421h-50.22a15.626,15.626,0,0,1-15.608-15.609v-50.219a15.627,15.627,0,0,1,15.608-15.61h50.22a15.629,15.629,0,0,1,15.61,15.61v50.219A15.629,15.629,0,0,1,3423.357,1265.421Zm-50.22-76.93a11.114,11.114,0,0,0-11.1,11.1v50.219a11.114,11.114,0,0,0,11.1,11.1h50.22a11.114,11.114,0,0,0,11.1-11.1v-50.219a11.114,11.114,0,0,0-11.1-11.1Z" transform="translate(-3357.529 -1183.983)" fill="#fff"/>
      </g>
      <path id="Path_11699" data-name="Path 11699" d="M1472.684,1295.271l-12.816-14.781a5.424,5.424,0,0,1,.543-7.631l14.78-12.816a5.426,5.426,0,0,1,7.632.543l12.815,14.78a5.425,5.425,0,0,1-.543,7.631l-14.78,12.816A5.425,5.425,0,0,1,1472.684,1295.271Z" transform="translate(-914.159 -771.7)" fill="#9ec8ff"/>
      <path id="Path_11700" data-name="Path 11700" d="M1633.067,1353.431a11.319,11.319,0,1,1-11.319-11.319A11.319,11.319,0,0,1,1633.067,1353.431Z" transform="translate(-997.571 -817.495)" fill="#9ec8ff"/>
      <path id="Path_11701" data-name="Path 11701" d="M3781.575,1275.7a11.281,11.281,0,1,1-11.28-11.282A11.281,11.281,0,0,1,3781.575,1275.7Z" transform="translate(-2177.575 -774.828)" fill="#9ec8ff"/>
      <path id="Path_11702" data-name="Path 11702" d="M3134.537,765.64a11.282,11.282,0,1,1-11.283-11.282A11.283,11.283,0,0,1,3134.537,765.64Z" transform="translate(-1822.219 -494.7)" fill="#9ec8ff"/>
      <circle id="Ellipse_552" data-name="Ellipse 552" cx="8.791" cy="8.791" r="8.791" transform="translate(1508.395 417.902) rotate(-80.783)" fill="#9ec8ff"/>
      <g id="Group_2220" data-name="Group 2220" transform="translate(1022.63 214.289)">
        <path id="Rectangle_2462" data-name="Rectangle 2462" d="M8.169,0H186.08a8.17,8.17,0,0,1,8.17,8.17V79.616a8.17,8.17,0,0,1-8.17,8.17H8.17A8.17,8.17,0,0,1,0,79.616V8.169A8.169,8.169,0,0,1,8.169,0Z" fill="#9ec8ff"/>
        <rect id="Rectangle_2463" data-name="Rectangle 2463" width="183.628" height="60.602" rx="6.6" transform="translate(5.311 23.064)" fill="#fff"/>
        <g id="Group_2219" data-name="Group 2219" transform="translate(8.008 6.46)">
          <path id="Rectangle_2464" data-name="Rectangle 2464" d="M3.424,0h.762A3.424,3.424,0,0,1,7.61,3.424v0A3.424,3.424,0,0,1,4.186,6.849H3.425A3.425,3.425,0,0,1,0,3.424v0A3.424,3.424,0,0,1,3.424,0Z" fill="#fff"/>
          <path id="Rectangle_2465" data-name="Rectangle 2465" d="M3.424,0h.762A3.424,3.424,0,0,1,7.61,3.424v0A3.424,3.424,0,0,1,4.186,6.849H3.425A3.425,3.425,0,0,1,0,3.424v0A3.424,3.424,0,0,1,3.424,0Z" transform="translate(13.836)" fill="#fff"/>
          <rect id="Rectangle_2466" data-name="Rectangle 2466" width="7.61" height="6.849" rx="3.424" transform="translate(27.672)" fill="#fff"/>
        </g>
        <path id="Path_11703" data-name="Path 11703" d="M2800.095,727.263h-97.13a2.906,2.906,0,0,1,0-5.811h97.13a2.906,2.906,0,0,1,0,5.811Z" transform="translate(-2618.627 -690.917)" fill="#9ec8ff"/>
        <path id="Path_11704" data-name="Path 11704" d="M2638.039,826.707h-97.13a2.906,2.906,0,0,1,0-5.812h97.13a2.906,2.906,0,0,1,0,5.812Z" transform="translate(-2529.626 -745.531)" fill="#9ec8ff"/>
        <path id="Rectangle_2467" data-name="Rectangle 2467" d="M2.2,0H9.833a2.2,2.2,0,0,1,2.2,2.2v1.4a2.2,2.2,0,0,1-2.2,2.2H2.2A2.2,2.2,0,0,1,0,3.608V2.2A2.2,2.2,0,0,1,2.2,0Z" transform="translate(115.261 75.364)" fill="#9ec8ff"/>
        <path id="Rectangle_2468" data-name="Rectangle 2468" d="M2.2,0h7.63a2.2,2.2,0,0,1,2.2,2.2v1.4a2.2,2.2,0,0,1-2.2,2.2H2.205A2.205,2.205,0,0,1,0,3.606V2.2A2.2,2.2,0,0,1,2.2,0Z" transform="translate(130.412 75.364)" fill="#9ec8ff"/>
        <path id="Path_11705" data-name="Path 11705" d="M2725.679,757.622H2564.834a1.971,1.971,0,1,1,0-3.943h160.845a1.971,1.971,0,1,1,0,3.943Z" transform="translate(-2543.279 -708.616)" fill="#9ec8ff"/>
        <path id="Path_11706" data-name="Path 11706" d="M2725.679,776.5H2564.834a1.972,1.972,0,1,1,0-3.943h160.845a1.972,1.972,0,1,1,0,3.943Z" transform="translate(-2543.279 -718.982)" fill="#9ec8ff"/>
      </g>
      <circle id="Ellipse_553" data-name="Ellipse 553" cx="22.31" cy="22.31" r="22.31" transform="matrix(0.23, -0.973, 0.973, 0.23, 35.04, 228.648)" fill="#9ec8ff"/>
      <path id="Path_11707" data-name="Path 11707" d="M879.725,787.257H719.4a2.978,2.978,0,0,1,0-5.955H879.725a2.978,2.978,0,1,1,0,5.955Z" transform="translate(-506.583 -509.498)" fill="#9ec8ff"/>
      <path id="Path_11708" data-name="Path 11708" d="M879.725,820.246H719.4a2.978,2.978,0,0,1,0-5.955H879.725a2.978,2.978,0,1,1,0,5.955Z" transform="translate(-506.583 -527.615)" fill="#9ec8ff"/>
      <g id="Group_2224" data-name="Group 2224" transform="translate(752.816 383.308)">
        <path id="Path_11709" data-name="Path 11709" d="M2143.28,1150.475a112.62,112.62,0,0,0,.7-12.524c0-2.234-.074-4.451-.2-6.654l-20.693-6.7a91.009,91.009,0,0,0-7.327-24.795l13.722-16.885a111.838,111.838,0,0,0-10.87-15.8l-20.7,6.753a91.975,91.975,0,0,0-20.489-15.749l1.177-21.745a110.726,110.726,0,0,0-18.067-6.4l-12.78,17.636a92.038,92.038,0,0,0-25.836-.677l-11.832-18.289a110.7,110.7,0,0,0-18.383,5.432l.027,21.777a91.815,91.815,0,0,0-21.293,14.647l-20.3-7.834a111.992,111.992,0,0,0-11.694,15.2l12.815,17.59a90.962,90.962,0,0,0-8.639,24.371l-21.016,5.593a112.352,112.352,0,0,0-.7,12.523c0,2.234.073,4.451.2,6.653l20.694,6.7a90.994,90.994,0,0,0,7.327,24.8L1935.4,1192.98a111.81,111.81,0,0,0,10.87,15.8l20.7-6.753a91.957,91.957,0,0,0,20.488,15.749l-1.177,21.745a110.726,110.726,0,0,0,18.067,6.4l12.779-17.636a92.056,92.056,0,0,0,25.837.677l11.832,18.289a110.683,110.683,0,0,0,18.383-5.433l-.026-21.777a91.8,91.8,0,0,0,21.293-14.647l20.3,7.834a111.9,111.9,0,0,0,11.693-15.2l-12.814-17.591a90.909,90.909,0,0,0,8.639-24.37Zm-110.84,31.226a43.75,43.75,0,1,1,43.75-43.75A43.75,43.75,0,0,1,2032.439,1181.7Z" transform="translate(-1920.895 -1028.648)" fill="#9ec8ff" opacity="0.5"/>
        <g id="Group_2221" data-name="Group 2221" transform="translate(168.962 82.441)">
          <path id="Path_11710" data-name="Path 11710" d="M2297.954,1288.9a2.254,2.254,0,0,1-1.732-3.7,73.4,73.4,0,0,0,12.933-70.694,2.254,2.254,0,1,1,4.262-1.468,77.907,77.907,0,0,1-13.728,75.045A2.251,2.251,0,0,1,2297.954,1288.9Z" transform="translate(-2295.701 -1211.526)" fill="#fff"/>
        </g>
        <g id="Group_2222" data-name="Group 2222" transform="translate(136.626 36.029)">
          <path id="Path_11711" data-name="Path 11711" d="M2252.224,1129.1a2.245,2.245,0,0,1-1.544-.613,72.833,72.833,0,0,0-25.225-15.542,2.254,2.254,0,0,1,1.537-4.239,77.365,77.365,0,0,1,26.779,16.5,2.254,2.254,0,0,1-1.546,3.9Z" transform="translate(-2223.97 -1108.571)" fill="#fff"/>
        </g>
        <g id="Group_2223" data-name="Group 2223" transform="translate(92.321 31.522)">
          <path id="Path_11712" data-name="Path 11712" d="M2127.942,1105.375a2.254,2.254,0,0,1-.549-4.439,78.046,78.046,0,0,1,19.093-2.363,2.254,2.254,0,1,1,0,4.508,73.581,73.581,0,0,0-17.99,2.224A2.269,2.269,0,0,1,2127.942,1105.375Z" transform="translate(-2125.69 -1098.573)" fill="#fff"/>
        </g>
      </g>
    </g>
  </g>
</svg>
