<svg xmlns="http://www.w3.org/2000/svg" width="140" height="37" viewBox="0 0 140 37">
  <g id="Group_2725" data-name="Group 2725" transform="translate(12194 -7713)">
    <g id="Group_2724" data-name="Group 2724" transform="translate(-12194 7713)">
      <rect id="Rectangle_3455" data-name="Rectangle 3455" width="37" height="37" rx="8" transform="translate(0 0)" fill="#1cab4e"/>
      <path id="Path_10028" data-name="Path 10028" d="M-1762.226,4625.939c-6.729,0-12.184,4.527-12.184,10.115,0,3.623,2.294,6.8,5.744,8.587,0,0,.179,1.356-1.708,3,0,0,1.281.414,4.364-1.642l3.07.155q.354.013.714.014c6.73,0,12.184-4.525,12.184-10.112S-1755.5,4625.939-1762.226,4625.939Zm-5.724,6.85a1.341,1.341,0,0,1,1.343-1.339,1.341,1.341,0,0,1,1.344,1.339,1.344,1.344,0,0,1-1.344,1.343A1.344,1.344,0,0,1-1767.95,4632.789Zm9.047,6.81a4.244,4.244,0,0,1-3.371,1.048,4.235,4.235,0,0,1-3.324-1.17,2.025,2.025,0,0,1-.465-1.49l.005-.288c.011-.529.444-.566.972-.48l.319.056c.529.087.956.268.945.8l-.006.321c-.007.23-.344.939,1.58.975s1.617-.683,1.621-.917l.007-.316c.011-.533.446-.7.978-.767l.32-.04c.532-.071.961-.018.95.512l0,.289a2.04,2.04,0,0,1-.527,1.471Zm1.058-5.467a1.342,1.342,0,0,1-1.343-1.342,1.34,1.34,0,0,1,1.343-1.339,1.341,1.341,0,0,1,1.343,1.339,1.342,1.342,0,0,1-1.343,1.341Z" transform="translate(1780.281 -4618.188)" fill="#fff"/>
    </g>
    <path id="Path_14590" data-name="Path 14590" d="M11.271-7.867l5.564-18.462h5.631L13.918-1.78H8.641L.126-26.329H5.741ZM26.434-1.78V-26.329h8.6q4.468,0,6.778,1.711A5.852,5.852,0,0,1,44.12-19.6a5.546,5.546,0,0,1-.927,3.178,5.356,5.356,0,0,1-2.58,2.015A5.182,5.182,0,0,1,43.589-12.5,5.633,5.633,0,0,1,44.676-9a6.479,6.479,0,0,1-2.259,5.362A10.171,10.171,0,0,1,35.976-1.78ZM31.492-12.47v6.626h4.333a4.182,4.182,0,0,0,2.79-.851,2.92,2.92,0,0,0,1-2.352q0-3.372-3.49-3.423Zm0-3.574h3.743q3.827-.067,3.827-3.052a2.82,2.82,0,0,0-.969-2.4,5.1,5.1,0,0,0-3.06-.733H31.492Zm38.8,2.546a14.82,14.82,0,0,1-1.281,6.356,9.65,9.65,0,0,1-3.667,4.215,10.144,10.144,0,0,1-5.471,1.484A10.213,10.213,0,0,1,54.427-2.91,9.745,9.745,0,0,1,50.717-7.1a14.4,14.4,0,0,1-1.332-6.264v-1.214a14.742,14.742,0,0,1,1.307-6.382,9.729,9.729,0,0,1,3.692-4.232,10.157,10.157,0,0,1,5.454-1.475,10.157,10.157,0,0,1,5.454,1.475,9.729,9.729,0,0,1,3.692,4.232,14.7,14.7,0,0,1,1.307,6.365Zm-5.126-1.113a10.331,10.331,0,0,0-1.383-5.867,4.505,4.505,0,0,0-3.945-2.006A4.507,4.507,0,0,0,55.91-20.5a10.212,10.212,0,0,0-1.4,5.808v1.2a10.46,10.46,0,0,0,1.383,5.834,4.494,4.494,0,0,0,3.979,2.074,4.453,4.453,0,0,0,3.912-2,10.4,10.4,0,0,0,1.383-5.825Zm27.5-7.621h-7.52V-1.78H80.093V-22.232H72.675v-4.1h20Z" transform="translate(-12146.671 7745.666)" fill="#1cab4e"/>
  </g>
</svg>
