<svg xmlns="http://www.w3.org/2000/svg" width="40" height="40" viewBox="0 0 40 40">
  <g id="google" transform="translate(-1740 -24)">
    <g id="Rectangle_6013" data-name="Rectangle 6013" transform="translate(1740 24)" stroke="#000" stroke-width="0.5">
      <rect width="40" height="40" stroke="none"/>
      <rect x="0.25" y="0.25" width="39.5" height="39.5" fill="none"/>
    </g>
    <g id="icons8_google_play_3" transform="translate(1751 32)">
      <path id="Path_59" data-name="Path 59" d="M7.423,4.043A.6.6,0,0,0,7,4.69V27.479a.5.5,0,0,0,.3.514L19.413,15.951Z" transform="translate(-7 -4.022)" fill="#00ceff"/>
      <path id="Path_60" data-name="Path 60" d="M23.029,12.622,18.043,9.743,8.356,4.15a.872.872,0,0,0-.651-.121L19.7,15.937Z" transform="translate(-7.282 -4.008)" fill="#00f076"/>
      <path id="Path_61" data-name="Path 61" d="M8.05,35.838l14.924-8.617-3.362-3.338L7.5,35.925A.654.654,0,0,0,8.05,35.838Z" transform="translate(-7.2 -11.954)" fill="#ff3a44"/>
      <path id="Path_62" data-name="Path 62" d="M35.914,21.188c-.478-.257-4.862-2.807-4.862-2.807l-.037-.021-3.335,3.315,3.362,3.338L35.88,22.22C36.446,21.894,36.392,21.445,35.914,21.188Z" transform="translate(-15.268 -9.746)" fill="#fc0"/>
    </g>
  </g>
</svg>
