<svg xmlns="http://www.w3.org/2000/svg" width="330" height="103.938" viewBox="0 0 330 103.938">
  <g id="Group_2702" data-name="Group 2702" transform="translate(-490 -3217)">
    <rect id="Rectangle_182" data-name="Rectangle 182" width="330" height="103.937" rx="20" transform="translate(490 3217)"/>
    <g id="Group_72" data-name="Group 72" transform="translate(545.617 3245)">
      <path id="Path_187" data-name="Path 187" d="M82.114,41.058l-.027-.011a9.479,9.479,0,0,1-4.2-3.4A9.04,9.04,0,0,1,76.3,32.58c-.05-4.894,3.858-7.486,4.64-7.956l.037-.022a.369.369,0,0,0,.106-.1.353.353,0,0,0,0-.409,10.7,10.7,0,0,0-3.7-3.207,11.073,11.073,0,0,0-4.794-1.263c-.242-.023-.492-.035-.742-.035a15.2,15.2,0,0,0-5.333,1.29,8.783,8.783,0,0,1-2.555.74,8.564,8.564,0,0,1-2.643-.749,13.14,13.14,0,0,0-4.657-1.146h-.118a11.7,11.7,0,0,0-5.572,1.594,11.233,11.233,0,0,0-4.041,4.043C43.064,31.851,45.52,41.7,49.79,47.674c2.132,2.986,4.289,5.666,7.246,5.666h.169a9.18,9.18,0,0,0,3.363-.868,9.455,9.455,0,0,1,3.983-.914,8.89,8.89,0,0,1,3.792.885,8.245,8.245,0,0,0,3.632.844c3.33-.06,5.374-2.953,7.178-5.5a24.081,24.081,0,0,0,3.145-6.24l.012-.037a.352.352,0,0,0-.009-.26A.368.368,0,0,0,82.114,41.058Z" transform="translate(-45 -9.097)" fill="#fff"/>
      <path id="Path_188" data-name="Path 188" d="M58.548,22.754c.16.012.322.018.484.018a9.046,9.046,0,0,0,3.611-.932,8.77,8.77,0,0,0,2.889-2.3,9.776,9.776,0,0,0,2.421-7.218.361.361,0,0,0-.127-.236A.385.385,0,0,0,67.567,12a10.547,10.547,0,0,0-6.89,3.422A9.284,9.284,0,0,0,58.2,22.44a.358.358,0,0,0,.114.216A.38.38,0,0,0,58.548,22.754Z" transform="translate(-39.971 -12)" fill="#fff"/>
    </g>
    <path id="Path_190" data-name="Path 190" d="M104.163,41.431l2.787,8.207h3.6l-8.9-26.093H97.581L88.716,49.639H92.2l2.71-8.207ZM95.607,38.8l2.555-7.549c.5-1.587.929-3.174,1.316-4.723h.077c.387,1.51.774,3.058,1.355,4.762l2.555,7.51Zm18.557,18.5h3.368V47.122h.077a6.571,6.571,0,0,0,5.768,2.942c4.413,0,8.517-3.329,8.517-10.065,0-5.691-3.407-9.523-7.936-9.523a7.366,7.366,0,0,0-6.659,3.639h-.077l-.155-3.213h-3.058c.077,1.781.155,3.716.155,6.117Zm3.368-18.5a5.525,5.525,0,0,1,.232-1.394,5.436,5.436,0,0,1,5.149-4.22c3.6,0,5.575,3.213,5.575,6.968,0,4.3-2.09,7.239-5.691,7.239a5.257,5.257,0,0,1-5.11-3.987,7.671,7.671,0,0,1-.155-1.394Zm18.673,18.5h3.368V47.122h.077a6.571,6.571,0,0,0,5.768,2.942c4.413,0,8.517-3.329,8.517-10.065,0-5.691-3.407-9.523-7.936-9.523a7.366,7.366,0,0,0-6.659,3.639h-.077l-.155-3.213h-3.058c.077,1.781.155,3.716.155,6.117Zm3.368-18.5a5.525,5.525,0,0,1,.232-1.394,5.436,5.436,0,0,1,5.149-4.22c3.6,0,5.575,3.213,5.575,6.968,0,4.3-2.09,7.239-5.691,7.239a5.257,5.257,0,0,1-5.11-3.987,7.666,7.666,0,0,1-.155-1.394Zm25.676,9.562a13.484,13.484,0,0,0,6.659,1.665c6.155,0,9.136-3.484,9.136-7.51,0-3.833-2.245-5.962-6.659-7.665-3.6-1.394-5.188-2.594-5.188-5.033,0-1.781,1.355-3.91,4.917-3.91a10.392,10.392,0,0,1,4.955,1.239L180,24.4a11.856,11.856,0,0,0-5.768-1.278c-5.071,0-8.439,3.02-8.439,7.085,0,3.678,2.632,5.884,6.891,7.394,3.523,1.355,4.917,2.749,4.917,5.188,0,2.632-2.013,4.452-5.459,4.452a11.936,11.936,0,0,1-6.039-1.7ZM186.2,26.411V30.9h-2.9V33.5h2.9v10.22c0,2.207.348,3.871,1.316,4.878a4.721,4.721,0,0,0,3.678,1.432,8.34,8.34,0,0,0,3.02-.465l-.155-2.555a7.578,7.578,0,0,1-1.974.232c-1.9,0-2.555-1.316-2.555-3.639V33.5h4.878V30.9h-4.878V25.52Zm19.752,4.065c-5.187,0-9.291,3.678-9.291,9.949,0,5.923,3.91,9.64,8.981,9.64,4.529,0,9.33-3.02,9.33-9.949C214.974,34.386,211.335,30.476,205.954,30.476Zm-.077,2.555c4.026,0,5.613,4.026,5.613,7.2,0,4.22-2.439,7.278-5.691,7.278-3.329,0-5.691-3.1-5.691-7.2C200.109,36.747,201.851,33.031,205.877,33.031Zm13.388,16.608h3.368V39.651a9.587,9.587,0,0,1,.155-1.587c.465-2.555,2.168-4.375,4.568-4.375a5.118,5.118,0,0,1,1.161.116V30.592a3.685,3.685,0,0,0-.968-.116,5.622,5.622,0,0,0-5.188,4.1h-.155l-.116-3.678H219.11c.116,1.742.155,3.639.155,5.846Zm27.347-8.749a12.854,12.854,0,0,0,.116-1.587c0-3.445-1.626-8.827-7.743-8.827-5.459,0-8.788,4.452-8.788,10.1s3.445,9.446,9.214,9.446a15.176,15.176,0,0,0,6.233-1.161l-.581-2.439a12.319,12.319,0,0,1-5.188.968c-3.407,0-6.349-1.9-6.426-6.5ZM233.488,38.45c.271-2.362,1.781-5.536,5.226-5.536,3.833,0,4.762,3.368,4.723,5.536Z" transform="translate(517.343 3231.38)" fill="#fff" stroke="#fff" stroke-width="1"/>
  </g>
</svg>
