<svg xmlns="http://www.w3.org/2000/svg" width="1604.001" height="1604" viewBox="0 0 1604.001 1604">
  <g id="Group_2735" data-name="Group 2735" transform="translate(11106.001 -9617)">
    <rect id="Rectangle_3487" data-name="Rectangle 3487" width="1604" height="1604" transform="translate(-11106 9617)" fill="none"/>
    <g id="_4" data-name="4" transform="translate(-16859.191 4627.977)">
      <path id="Path_11539" data-name="Path 11539" d="M1038.968,100.954c-61.7,0-118.981,12.734-166.346,34.509A182.191,182.191,0,0,1,757.9,148.337C487.833,89.978,188.4,222.57,188.4,428.221a205.568,205.568,0,0,0,16.5,80.237C117.062,544.572,56.615,620.031,56.615,707.288c0,122.343,118.809,221.519,265.368,221.519,141.131,0,256.509-91.969,264.865-208.022q18.869,1.1,38.161,1.127c172.3,0,321.264-67.14,392.279-164.647a172.965,172.965,0,0,1,105.884-67.39C1245.177,465.5,1334.162,389.5,1334.162,299.519,1334.162,189.855,1202,100.954,1038.968,100.954Z" transform="translate(5782.536 5164.069)" fill="#dafffb"/>
      <line id="Line_304" data-name="Line 304" x2="330.899" transform="translate(5753.19 6068.381)" fill="none" stroke="#0e7130" stroke-miterlimit="10" stroke-width="1.459"/>
      <line id="Line_305" data-name="Line 305" x1="251.874" transform="translate(7092.538 6008.321)" fill="none" stroke="#0e7130" stroke-miterlimit="10" stroke-width="1.654"/>
      <path id="Path_11540" data-name="Path 11540" d="M646.387,289.65c0-36.462-15.717-74.142-40.766-87.419-18.326-9.714-34.058-23.86-43.471-42.34-17.071-33.53-38.81-53.628-62.494-53.628-42.6,0-78.923,64.953-93.07,156.217-3.681,23.724-14.737,45.973-32.436,62.2-24.862,22.792-40.994,59.423-40.994,100.754,0,60.909,36.216,114.721,85.54,123.847,17.479,3.237,33.244,12.1,46.462,23.985,10.745,9.662,22.363,14.95,34.5,14.95,44.032,0,81.356-69.4,94.42-165.516a107.793,107.793,0,0,1,27.075-58.212C636.442,347.7,646.387,320.438,646.387,289.65Z" transform="translate(6520.804 5178.239)" fill="#44c471"/>
      <line id="Line_306" data-name="Line 306" y2="490.866" transform="translate(7013.243 5432.154)" fill="none" stroke="#0e7130" stroke-miterlimit="10" stroke-width="1.654"/>
      <path id="Path_11541" data-name="Path 11541" d="M352.813,196.952l87.148,111.573,49.176-55.786" transform="translate(6573.282 5420.352)" fill="none" stroke="#0e7130" stroke-miterlimit="10" stroke-width="1.654"/>
      <path id="Path_11542" data-name="Path 11542" d="M477.32,159.119l-79.295,88.695-29.5-22.754" transform="translate(6615.217 5319.349)" fill="none" stroke="#0e7130" stroke-miterlimit="10" stroke-width="1.654"/>
      <path id="Path_11543" data-name="Path 11543" d="M653.167,329.672a32.638,32.638,0,0,0-15.273-3.582c-18.249,0-33.8-13.541-34.807-31.765C599.113,222.5,572.31,161.884,536.56,161.884c-26.146,0-48.8,33.632-59.856,82.692a33.564,33.564,0,0,1-38.113,25.666c-11.233-1.828-21.126-.275-28.869,5.145-41.408,28.99,1.725,144.148,74.013,211.306a33.69,33.69,0,0,1,10.609,30.161c-6.561,38.928-.359,69.683,19.383,79.987C546.56,613.979,604.394,568.06,642.9,494.285S686,346.805,653.167,329.672Z" transform="translate(6682.118 5326.732)" fill="#04ae3f"/>
      <line id="Line_307" data-name="Line 307" y2="355.607" transform="translate(7218.747 5650.427)" fill="none" stroke="#0e7130" stroke-miterlimit="10" stroke-width="1.654"/>
      <line id="Line_308" data-name="Line 308" x1="79.08" y2="128.436" transform="translate(7218.747 5747.513)" fill="none" stroke="#0e7130" stroke-miterlimit="10" stroke-width="1.654"/>
      <line id="Line_309" data-name="Line 309" x2="86.49" y2="131.47" transform="translate(7132.257 5658.517)" fill="none" stroke="#0e7130" stroke-miterlimit="10" stroke-width="1.654"/>
      <path id="Path_11544" data-name="Path 11544" d="M96.259,325.959c0-34.612,14.921-70.38,38.7-82.982,17.394-9.218,32.33-22.649,41.262-40.194,16.205-31.823,36.843-50.905,59.327-50.905,40.436,0,74.916,61.658,88.343,148.291,3.494,22.521,13.989,43.64,30.788,59.037,23.6,21.636,38.913,56.41,38.913,95.646,0,57.816-34.377,108.894-81.2,117.561-16.587,3.071-31.555,11.486-44.1,22.766-10.2,9.17-21.233,14.191-32.748,14.191-41.8,0-77.232-65.874-89.631-157.116A102.33,102.33,0,0,0,120.218,397C105.7,381.066,96.259,355.188,96.259,325.959Z" transform="translate(5888.371 5300.019)" fill="#2ae16a"/>
      <line id="Line_310" data-name="Line 310" y2="465.955" transform="translate(6130.769 5592.056)" fill="none" stroke="#0e7130" stroke-miterlimit="10" stroke-width="1.57"/>
      <path id="Path_11545" data-name="Path 11545" d="M252.767,237.966l-82.725,105.91-46.68-52.955" transform="translate(5960.727 5529.844)" fill="none" stroke="#0e7130" stroke-miterlimit="10" stroke-width="1.57"/>
      <path id="Path_11546" data-name="Path 11546" d="M115.571,202.053l75.27,84.194,28.006-21.6" transform="translate(5939.928 5433.968)" fill="none" stroke="#0e7130" stroke-miterlimit="10" stroke-width="1.57"/>
      <path id="Path_11547" data-name="Path 11547" d="M265.7,343.577a28.771,28.771,0,0,0-13.475-3.156c-16.1,0-29.816-11.948-30.7-28.022-3.508-63.364-27.152-116.835-58.685-116.835-23.067,0-43.049,29.669-52.8,72.949A29.61,29.61,0,0,1,76.4,291.152c-9.908-1.611-18.635-.242-25.464,4.539-36.528,25.574,1.523,127.161,65.291,186.4a29.722,29.722,0,0,1,9.358,26.609c-5.787,34.337-.316,61.47,17.1,70.56,28.965,15.115,79.98-25.39,113.947-90.472S294.66,358.7,265.7,343.577Z" transform="translate(5729.37 5416.647)" fill="#1cab4e"/>
      <line id="Line_311" data-name="Line 311" y2="313.7" transform="translate(5892.262 5754.955)" fill="none" stroke="#0e7130" stroke-miterlimit="10" stroke-width="1.459"/>
      <line id="Line_312" data-name="Line 312" x1="69.761" y2="113.3" transform="translate(5892.262 5840.599)" fill="none" stroke="#0e7130" stroke-miterlimit="10" stroke-width="1.459"/>
      <line id="Line_313" data-name="Line 313" x2="76.298" y2="115.977" transform="translate(5815.964 5762.092)" fill="none" stroke="#0e7130" stroke-miterlimit="10" stroke-width="1.459"/>
      <g id="Group_2170" data-name="Group 2170" transform="translate(6654.438 5679.825)">
        <rect id="Rectangle_2370" data-name="Rectangle 2370" width="477.446" height="555.562" rx="4.297" transform="translate(0 0)" fill="#e3e1ff"/>
        <rect id="Rectangle_2371" data-name="Rectangle 2371" width="384.19" height="436.226" transform="translate(46.003 70.702)" fill="#fff"/>
        <rect id="Rectangle_2372" data-name="Rectangle 2372" width="27.343" height="20.234" rx="1.118" transform="translate(46.843 24.938)" fill="#b4b7ff"/>
        <rect id="Rectangle_2373" data-name="Rectangle 2373" width="27.343" height="20.234" rx="1.118" transform="translate(86.49 24.938)" fill="#b4b7ff"/>
        <rect id="Rectangle_2374" data-name="Rectangle 2374" width="27.343" height="20.234" rx="1.118" transform="translate(126.138 24.938)" fill="#b4b7ff"/>
        <rect id="Rectangle_2375" data-name="Rectangle 2375" width="248.822" height="10.117" transform="translate(181.371 28.987)" fill="#b4b7ff"/>
        <g id="Rectangle_2376" data-name="Rectangle 2376" transform="translate(384.138 303.659) rotate(90)" fill="none" stroke="#b4b7ff" stroke-miterlimit="10" stroke-width="0.883">
          <rect width="145.107" height="292.08" stroke="none"/>
          <rect x="0.442" y="0.442" width="144.224" height="291.197" fill="none"/>
        </g>
        <rect id="Rectangle_2377" data-name="Rectangle 2377" width="214.607" height="23.442" transform="translate(165.571 101.094)" fill="#b4b7ff"/>
        <rect id="Rectangle_2378" data-name="Rectangle 2378" width="214.607" height="23.442" transform="translate(165.571 143.152)" fill="#b4b7ff"/>
        <rect id="Rectangle_2379" data-name="Rectangle 2379" width="214.607" height="23.442" transform="translate(165.571 185.21)" fill="#b4b7ff"/>
        <rect id="Rectangle_2380" data-name="Rectangle 2380" width="214.607" height="23.442" transform="translate(165.571 227.268)" fill="#b4b7ff"/>
        <path id="Path_11548" data-name="Path 11548" d="M330.518,264.98H316.672a11.721,11.721,0,0,1-11.721-11.721h0a11.721,11.721,0,0,1,11.721-11.721h13.846a11.721,11.721,0,0,1,11.721,11.721h0A11.721,11.721,0,0,1,330.518,264.98Z" transform="translate(-208.932 -140.445)" fill="#b4b7ff"/>
        <path id="Path_11549" data-name="Path 11549" d="M330.518,276.441H316.672a11.721,11.721,0,0,1-11.721-11.721h0A11.721,11.721,0,0,1,316.672,253h13.846a11.721,11.721,0,0,1,11.721,11.721h0A11.721,11.721,0,0,1,330.518,276.441Z" transform="translate(-208.932 -109.848)" fill="#b4b7ff"/>
        <path id="Path_11550" data-name="Path 11550" d="M330.518,287.9H316.672a11.721,11.721,0,0,1-11.721-11.721h0a11.721,11.721,0,0,1,11.721-11.721h13.846a11.721,11.721,0,0,1,11.721,11.721h0A11.721,11.721,0,0,1,330.518,287.9Z" transform="translate(-208.932 -79.251)" fill="#b4b7ff"/>
        <path id="Path_11551" data-name="Path 11551" d="M330.518,299.363H316.672a11.721,11.721,0,0,1-11.721-11.721h0a11.721,11.721,0,0,1,11.721-11.721h13.846a11.721,11.721,0,0,1,11.721,11.721h0A11.721,11.721,0,0,1,330.518,299.363Z" transform="translate(-208.932 -48.654)" fill="#b4b7ff"/>
      </g>
      <g id="Group_2171" data-name="Group 2171" transform="translate(5940.136 5845.805)">
        <path id="Path_11552" data-name="Path 11552" d="M561.578,567.956V274.989A15.769,15.769,0,0,0,545.81,259.22H99.9a15.769,15.769,0,0,0-15.769,15.769V567.956a22.958,22.958,0,0,0,22.957,22.958h431.53A22.958,22.958,0,0,0,561.578,567.956Z" transform="translate(-84.134 -259.22)" fill="#ffe2e1"/>
        <rect id="Rectangle_2381" data-name="Rectangle 2381" width="384.19" height="227.618" transform="translate(46.002 70.701)" fill="#fff"/>
        <rect id="Rectangle_2382" data-name="Rectangle 2382" width="27.343" height="20.234" rx="1.118" transform="translate(46.842 24.938)" fill="#ffb4bb"/>
        <rect id="Rectangle_2383" data-name="Rectangle 2383" width="27.343" height="20.234" rx="1.118" transform="translate(86.489 24.938)" fill="#ffb4bb"/>
        <rect id="Rectangle_2384" data-name="Rectangle 2384" width="27.343" height="20.234" rx="1.118" transform="translate(126.137 24.938)" fill="#ffb4bb"/>
        <rect id="Rectangle_2385" data-name="Rectangle 2385" width="248.822" height="10.117" transform="translate(181.369 28.987)" fill="#ffb4bb"/>
        <rect id="Rectangle_2386" data-name="Rectangle 2386" width="214.607" height="23.442" transform="translate(165.569 101.093)" fill="#ffb4bb"/>
        <rect id="Rectangle_2387" data-name="Rectangle 2387" width="214.607" height="23.442" transform="translate(165.569 143.151)" fill="#ffb4bb"/>
        <rect id="Rectangle_2388" data-name="Rectangle 2388" width="214.607" height="23.442" transform="translate(165.569 185.209)" fill="#ffb4bb"/>
        <rect id="Rectangle_2389" data-name="Rectangle 2389" width="214.607" height="23.442" transform="translate(165.569 227.267)" fill="#ffb4bb"/>
        <path id="Path_11553" data-name="Path 11553" d="M135.869,310.21H122.02A11.721,11.721,0,0,1,110.3,298.489h0a11.721,11.721,0,0,1,11.721-11.721h13.849a11.721,11.721,0,0,1,11.721,11.721h0A11.721,11.721,0,0,1,135.869,310.21Z" transform="translate(-14.282 -185.676)" fill="#ffb4bb"/>
        <path id="Path_11554" data-name="Path 11554" d="M135.869,321.671H122.02A11.721,11.721,0,0,1,110.3,309.95h0a11.721,11.721,0,0,1,11.721-11.721h13.849A11.721,11.721,0,0,1,147.59,309.95h0A11.721,11.721,0,0,1,135.869,321.671Z" transform="translate(-14.282 -155.079)" fill="#ffb4bb"/>
        <path id="Path_11555" data-name="Path 11555" d="M135.869,333.132H122.02A11.721,11.721,0,0,1,110.3,321.411h0A11.721,11.721,0,0,1,122.02,309.69h13.849a11.721,11.721,0,0,1,11.721,11.721h0A11.721,11.721,0,0,1,135.869,333.132Z" transform="translate(-14.282 -124.482)" fill="#ffb4bb"/>
        <path id="Path_11556" data-name="Path 11556" d="M135.869,344.6H122.02A11.722,11.722,0,0,1,110.3,332.872h0a11.723,11.723,0,0,1,11.721-11.721h13.849a11.723,11.723,0,0,1,11.721,11.721h0A11.722,11.722,0,0,1,135.869,344.6Z" transform="translate(-14.282 -93.885)" fill="#ffb4bb"/>
      </g>
      <rect id="Rectangle_2390" data-name="Rectangle 2390" width="502.086" height="802.98" rx="10.186" transform="translate(6328.804 5432.407)" fill="#189e47"/>
      <rect id="Rectangle_2391" data-name="Rectangle 2391" width="517.594" height="802.98" rx="10.385" transform="translate(6286.393 5432.407)" fill="#66d18b"/>
      <rect id="Rectangle_2392" data-name="Rectangle 2392" width="440.799" height="723.214" rx="7.167" transform="translate(6324.192 5473.177)" fill="#a3a3ff"/>
      <path id="Rectangle_2393" data-name="Rectangle 2393" d="M0,0H195.235a0,0,0,0,1,0,0V32.607a6.39,6.39,0,0,1-6.39,6.39H6.39A6.39,6.39,0,0,1,0,32.607V0A0,0,0,0,1,0,0Z" transform="translate(6444.716 5462.542)" fill="#8787d5"/>
      <path id="Path_11557" data-name="Path 11557" d="M308.71,439.235V399.588H291.543a76.625,76.625,0,0,0-7.831-18.866l12.15-12.15L267.83,340.535l-12.154,12.154a76.529,76.529,0,0,0-18.862-7.831v-17.17H197.167v17.17a76.67,76.67,0,0,0-18.862,7.831l-12.154-12.154-28.032,28.036,12.15,12.15a76.63,76.63,0,0,0-7.831,18.866H125.271v39.647h17.167a76.665,76.665,0,0,0,7.831,18.862l-12.15,12.15,28.032,28.036,12.154-12.15a76.639,76.639,0,0,0,18.862,7.827v17.171h39.647V493.96a76.641,76.641,0,0,0,18.862-7.827l12.154,12.15,28.033-28.036-12.15-12.15a76.66,76.66,0,0,0,7.831-18.862ZM216.99,464.409a45,45,0,1,1,45-45A45,45,0,0,1,216.99,464.409Z" transform="translate(5965.824 5769.372)" fill="#39de72"/>
      <path id="Path_11558" data-name="Path 11558" d="M234.258,423.554V394.006h-12.8a57.016,57.016,0,0,0-5.835-14.059l9.057-9.057L203.789,350l-9.057,9.057a57.169,57.169,0,0,0-14.058-5.838V340.421H151.125v12.793a57.168,57.168,0,0,0-14.059,5.838L128.01,350l-20.9,20.895,9.057,9.057a57.019,57.019,0,0,0-5.835,14.059h-12.8v29.548h12.8a57.025,57.025,0,0,0,5.835,14.058l-9.057,9.057,20.9,20.9,9.057-9.057a57.163,57.163,0,0,0,14.059,5.835v12.8h29.548v-12.8a57.028,57.028,0,0,0,14.058-5.835l9.057,9.057,20.895-20.9-9.057-9.057a57.022,57.022,0,0,0,5.835-14.058ZM165.9,442.316a33.537,33.537,0,1,1,33.537-33.537A33.538,33.538,0,0,1,165.9,442.316Z" transform="translate(5891.794 5803.363)" fill="#96dbbf"/>
      <path id="Path_11559" data-name="Path 11559" d="M1092.131,396.54H185.4a6.121,6.121,0,0,1-6.117-6.121h0A6.12,6.12,0,0,1,185.4,384.3h906.728a6.118,6.118,0,0,1,6.117,6.117h0A6.119,6.119,0,0,1,1092.131,396.54Z" transform="translate(6110.022 5920.512)" fill="#c8e6eb"/>
      <g id="Rectangle_2394" data-name="Rectangle 2394" transform="translate(6343.788 6035.834)" fill="none" stroke="#fff" stroke-miterlimit="10" stroke-width="0.827">
        <path d="M4.34,0H398.462A4.341,4.341,0,0,1,402.8,4.341v105.4a4.34,4.34,0,0,1-4.34,4.34H4.34A4.34,4.34,0,0,1,0,109.744V4.34A4.34,4.34,0,0,1,4.34,0Z" stroke="none"/>
        <rect x="0.413" y="0.413" width="401.976" height="113.258" rx="3.927" fill="none"/>
      </g>
      <g id="Group_2172" data-name="Group 2172" transform="translate(6604.196 6116.22)">
        <rect id="Rectangle_2395" data-name="Rectangle 2395" width="251.32" height="161.167" transform="translate(0 0)" fill="#c8e6eb"/>
        <path id="Path_11560" data-name="Path 11560" d="M390.754,354.869l-125.66,80.583h251.32Z" transform="translate(-265.094 -274.285)" fill="#b4d7dc"/>
        <path id="Path_11561" data-name="Path 11561" d="M516.414,332.909H265.094l125.66,114.11Z" transform="translate(-265.094 -332.909)" fill="#a5c8cd"/>
      </g>
      <path id="Path_11562" data-name="Path 11562" d="M290.283,340.494c-4.216-4.594,1.883-11.537,7.108-7.541,55.214,42.2,104.035,55.412,139.854-5.307,2.679-4.686,8.466-15.365,9.875-20.561A18.185,18.185,0,1,1,481.5,318.74C459.993,371.378,385.852,444.562,290.283,340.494Z" transform="translate(6402.588 5678.517)" fill="#fa968c"/>
      <rect id="Rectangle_2396" data-name="Rectangle 2396" width="402.802" height="114.085" rx="4.34" transform="translate(6162.264 5655.907)" opacity="0.15"/>
      <rect id="Rectangle_2397" data-name="Rectangle 2397" width="402.802" height="114.085" rx="4.34" transform="translate(6162.264 5649.84)" fill="#fff"/>
      <g id="Rectangle_2398" data-name="Rectangle 2398" transform="translate(6343.788 5544.334)" fill="none" stroke="#fff" stroke-miterlimit="10" stroke-width="0.827">
        <path d="M4.34,0H398.462A4.341,4.341,0,0,1,402.8,4.341v105.4a4.34,4.34,0,0,1-4.34,4.34H4.34A4.34,4.34,0,0,1,0,109.744V4.34A4.34,4.34,0,0,1,4.34,0Z" stroke="none"/>
        <rect x="0.413" y="0.413" width="401.976" height="113.258" rx="3.927" fill="none"/>
      </g>
      <g id="Rectangle_2399" data-name="Rectangle 2399" transform="translate(6343.788 5708.166)" fill="none" stroke="#fff" stroke-miterlimit="10" stroke-width="0.827">
        <path d="M4.34,0H398.462A4.341,4.341,0,0,1,402.8,4.341v105.4a4.34,4.34,0,0,1-4.34,4.34H4.34A4.34,4.34,0,0,1,0,109.744V4.34A4.34,4.34,0,0,1,4.34,0Z" stroke="none"/>
        <rect x="0.413" y="0.413" width="401.976" height="113.258" rx="3.927" fill="none"/>
      </g>
      <g id="Rectangle_2400" data-name="Rectangle 2400" transform="translate(6343.788 5875.034)" fill="none" stroke="#fff" stroke-miterlimit="10" stroke-width="0.827">
        <rect width="402.802" height="114.085" rx="4.34" stroke="none"/>
        <rect x="0.413" y="0.413" width="401.976" height="113.258" rx="3.927" fill="none"/>
      </g>
      <rect id="Rectangle_2401" data-name="Rectangle 2401" width="62.513" height="71.65" rx="1.76" transform="translate(6188.811 5671.058)" fill="#73c8f0"/>
      <rect id="Rectangle_2402" data-name="Rectangle 2402" width="164.128" height="8.769" transform="translate(6278.405 5671.058)" fill="#73c8f0"/>
      <rect id="Rectangle_2403" data-name="Rectangle 2403" width="252.482" height="8.769" transform="translate(6278.405 5701.217)" fill="#73c8f0"/>
      <rect id="Rectangle_2404" data-name="Rectangle 2404" width="252.482" height="8.769" transform="translate(6278.405 5731.373)" fill="#73c8f0"/>
      <rect id="Rectangle_2405" data-name="Rectangle 2405" width="402.802" height="114.085" rx="4.34" transform="translate(6394.512 6023.475)" opacity="0.15"/>
      <rect id="Rectangle_2406" data-name="Rectangle 2406" width="402.802" height="114.085" rx="4.34" transform="translate(6394.512 6017.406)" fill="#fff"/>
      <rect id="Rectangle_2407" data-name="Rectangle 2407" width="62.513" height="71.65" rx="1.76" transform="translate(6421.057 6029.523)" fill="#96dbbf"/>
      <rect id="Rectangle_2408" data-name="Rectangle 2408" width="164.128" height="8.769" transform="translate(6558.306 6038.623)" fill="#96dbbf"/>
      <rect id="Rectangle_2409" data-name="Rectangle 2409" width="252.483" height="8.769" transform="translate(6514.128 6068.783)" fill="#96dbbf"/>
      <rect id="Rectangle_2410" data-name="Rectangle 2410" width="252.483" height="8.769" transform="translate(6514.128 6098.94)" fill="#96dbbf"/>
      <g id="Group_2174" data-name="Group 2174" transform="translate(6186.217 5719.706)">
        <path id="Path_11563" data-name="Path 11563" d="M181.865,362.483c.635,11.868,7.875,77.364,12.917,119.547,2.55,21.339,2.906,36.711,4.877,36.146,5.083-1.46,20.946-139.84,19.992-157.707s-10.187-31.9-20.62-31.346S180.911,344.615,181.865,362.483Z" transform="translate(-69.521 53.449)" fill="#fa968c"/>
        <path id="Path_11564" data-name="Path 11564" d="M222.4,604.412c-1.824.092-12.4,1.372-14.345,1.769-6.33-42.377-13.835-113.341-13.17-125.8q.11-2.015.352-3.959c2.239-17.787,2.356-35.787-1.692-53.25-9.2-39.691-16.319-82.755-17.09-94.516-1.53-23.339,11.93-43.221,30.062-44.41s33.067,14.91,35.963,38.12C249.479,378.39,222.507,603.483,222.4,604.412Z" transform="translate(-84.064 -66.468)" fill="#0073aa"/>
        <path id="Path_11565" data-name="Path 11565" d="M239.985,424.683l.092.077c3.185-43.5,4.822-83.037,2.4-102.391-2.9-23.211-17.831-39.309-35.963-38.12s-31.592,21.071-30.062,44.41c.187,2.833.745,7.5,1.607,13.475,26.946,10.554,46.212,35.3,51.5,64.546A30.42,30.42,0,0,0,239.985,424.683Z" transform="translate(-84.064 -66.468)" fill="#195fa0"/>
        <path id="Path_11566" data-name="Path 11566" d="M187.17,371.49s1.083,30.469-1.416,36.275-3.108,12.37,4.851,12.315c7.805-.055,26.539-.07,29.243-.154,5.013-.154,9.457-.734,9.354-4.055s-23.277-4.349-27.706-7.7-1.163-35.064-1.163-35.064Z" transform="translate(-63.373 166.601)" fill="#fa968c"/>
        <path id="Path_11567" data-name="Path 11567" d="M217.617,384.039a41.067,41.067,0,0,1-13.992,2.514,41.664,41.664,0,0,1-18.756-4.536c-1.622,5.09-1.16,10.007,5.732,9.959,7.805-.055,26.539-.069,29.243-.154,5.013-.154,9.457-.734,9.358-4.055C229.151,386.164,223.716,385.092,217.617,384.039Z" transform="translate(-63.37 194.704)" fill="#a03c19"/>
        <path id="Path_11568" data-name="Path 11568" d="M192.937,363.629c.635,11.864,7.875,77.364,12.917,119.543,2.547,21.339,2.906,36.715,4.877,36.15,5.082-1.464,20.946-139.84,19.992-157.711s-10.187-31.9-20.62-31.346S191.983,345.761,192.937,363.629Z" transform="translate(-39.963 56.5)" fill="#fa968c"/>
        <path id="Path_11569" data-name="Path 11569" d="M233.472,605.556c-1.824.088-12.4,1.369-14.345,1.769-6.33-42.377-13.835-113.345-13.17-125.8q.11-2.015.352-3.956c2.239-17.787,2.356-35.787-1.692-53.25-9.2-39.691-16.319-82.758-17.09-94.516-1.53-23.339,11.93-43.221,30.062-44.41s33.067,14.91,35.963,38.121C260.551,379.531,233.579,604.628,233.472,605.556Z" transform="translate(-54.506 -63.414)" fill="#0091c8"/>
        <path id="Path_11570" data-name="Path 11570" d="M198.306,372.633s1.086,30.469-1.413,36.275-3.435,12.664,4.851,12.315c7.8-.327,22.924-.833,25.614-1.116,6.73-.712,14.51-.47,14.407-3.794s-24.7-3.644-29.13-6.994-1.163-35.06-1.163-35.06Z" transform="translate(-33.882 169.652)" fill="#fa968c"/>
        <path id="Path_11571" data-name="Path 11571" d="M226.624,384.278a41.1,41.1,0,0,1-13.934,2.492,41.58,41.58,0,0,1-16.756-3.556c-1.615,5.083-1.284,10.062,5.805,9.761,7.8-.327,22.924-.833,25.614-1.115,6.73-.712,14.51-.47,14.411-3.794C241.706,386.223,234.128,385.3,226.624,384.278Z" transform="translate(-33.878 197.9)" fill="#cd5014"/>
        <path id="Path_11572" data-name="Path 11572" d="M214.049,281.978c-5.405,0-11.255-2.7-19.313-9.743-4.624-4.044-8.051-11.09-8.051-15.849v-26.33h40.539s3.042,13.978.088,27.853C225.1,268.316,218.3,281.982,214.049,281.978Z" transform="translate(-56.443 -210.98)" fill="#fab9af"/>
        <path id="Path_11573" data-name="Path 11573" d="M155.4,246.23a4.88,4.88,0,0,1,9.592-1.607l.015.066c3.985,15.644,8.5,31.111,14.293,45.632,11.849,30.135,22.212,34.443,26.209,37.108a18.025,18.025,0,0,0,3.024.723c11.5,2.646,31.588-22.444,35.089-41.878,0-1.035,2.5-7.809,2.224-7a16.351,16.351,0,0,1,20.822-10.059C318.385,287.242,173.717,466.872,155.4,246.23Z" transform="translate(-140.003 -181.903)" fill="#fab9af"/>
        <path id="Path_11574" data-name="Path 11574" d="M180.878,413.442c14.818,17.005,100.354,24.1,100.354,24.1,6.312-7.328-23.1-90.96-23.1-90.96s14.172-60.362,13.537-82.156A16.617,16.617,0,0,0,255.042,248.3H200.76a16.044,16.044,0,0,0-16.018,14.723c-1.424,17.258,21.119,81.676,21.119,81.676S168.071,398.745,180.878,413.442Z" transform="translate(-79.015 -162.285)" fill="#fab9af"/>
        <path id="Path_11575" data-name="Path 11575" d="M263.241,346.584s14.11-62.12,13.5-83.554a15.179,15.179,0,0,0-15.2-14.734h-8.048c-3.064,7.112-9.56,12.605-19.658,12.605s-16.58-5.493-19.651-12.605h-7.556c8.213,17.585,5.259,40.781-8.87,54.318,6,21.214,13.222,42.08,13.222,42.08s-39.9,60.263-34.08,69.2c12.3,18.9,109.451,23.651,109.451,23.651C292.656,428.326,263.241,346.584,263.241,346.584Z" transform="translate(-84.127 -162.285)" fill="#ff8c46"/>
        <g id="Group_2173" data-name="Group 2173" transform="translate(140.9 60.217)">
          <path id="Path_11576" data-name="Path 11576" d="M189.589,270.8l24.623-2.587-7.79-26.945-15.927,1.971Z" transform="translate(-189.589 -241.267)" fill="#fab9af"/>
        </g>
        <path id="Path_11577" data-name="Path 11577" d="M190.276,243.238l15.926-1.971,2.429,8.411c-3.563,4.022-8.147,12.7-13.941,12.7a9.206,9.206,0,0,1-5.02-1.475Z" transform="translate(-48.469 -181.05)" fill="#fa968c"/>
        <path id="Path_11578" data-name="Path 11578" d="M198.7,231.27l13.655-.87a22.346,22.346,0,0,0,10.829-3.607,10.849,10.849,0,0,1,14.363,1.728c3.86,4.594,5.809,10.947-2.818,17.5-4.29,3.255-11.046.382-15.317,2.088-.272,0-.514-.022-.793,0l-12.117.774c-4.238.268-6.936,4-6.932,8.242,0,2.576-1.8,5.883-1.8,5.883l-5.662-6.991-5.306-4.3a5.3,5.3,0,0,1-1.956-3.78l-.055-.862A14.884,14.884,0,0,1,198.7,231.27Z" transform="translate(-61.591 -224.858)" fill="#be1ec8"/>
        <path id="Path_11579" data-name="Path 11579" d="M233.1,251.443s-6.638,12.642-3.453,15.948,5.934,4.939,10.917.481,9.7-12.95,11.508-18.605.837-16.418-.029-17.5c-3.148-3.945-5.347,6.646-6.66,11.725s-3.306,10.679-5.57,9.358.983-10.858-1.108-13.233S233.1,251.443,233.1,251.443Z" transform="translate(55.956 -208.715)" fill="#fab9af"/>
        <path id="Path_11580" data-name="Path 11580" d="M170.9,251.862s6.29,12.818,3.016,16.036-6.066,4.774-10.925.183S153.649,254.871,152,249.165s-.385-16.433.506-17.493c3.255-3.857,5.163,6.793,6.341,11.9s3.009,10.767,5.31,9.5-.69-10.881,1.468-13.2S170.9,251.862,170.9,251.862Z" transform="translate(-151.193 -208.867)" fill="#fab9af"/>
        <path id="Path_11581" data-name="Path 11581" d="M247.226,319.758c14.37,16.411,25.346,7.78,37.845-10.29,5.273-9.009,11.835-16.572,29.416-66.087l.022-.066c1.941-5.461,10.132-3.538,9.471,2.194C306.7,396.252,224.878,372.535,200.46,305a52.278,52.278,0,0,1-3.5-17.636,17.014,17.014,0,0,1,34.021-.7C231.116,293.047,237.314,308.8,247.226,319.758Z" transform="translate(-29.013 -184.229)" fill="#fab9af"/>
        <path id="Path_11582" data-name="Path 11582" d="M285.35,317.584c-5-3.805-7.266-10-6.91-16.135.756-13.016-7.038-24.583-17.042-33.783a29.554,29.554,0,0,1-9.159-25.145l1.387-12.1H212.731a31.513,31.513,0,0,1-12.77,25.519,62.556,62.556,0,0,0-21.295,28.04c-11.156,28.77-.3,59.948,24.194,71.287-6.455,27.207,5.589,54.641,29.453,63.9,26.385,10.235,57.144-5.633,68.7-35.438C310.777,358.559,303.687,331.54,285.35,317.584Z" transform="translate(-89.565 -209.992)" fill="#be1ec8"/>
      </g>
      <path id="Path_11583" data-name="Path 11583" d="M388.7,476.156a11.311,11.311,0,0,1-9.193-15.827c12.87-29.265,23.288-61.654,25.574-73.9,4.661-24.924-11.13-48.788-35.273-53.3s-31.977,12.7-36.638,37.621c-3.626,19.4-13.328,93.418-6.077,127.422-.026.382,5.581,27.655,32.961,27.655,18.491,0,177.989-5.765,178.224-20.11C538.465,494.4,439.6,481.33,388.7,476.156Z" transform="translate(6497.629 5781.972)" fill="#415050"/>
      <path id="Path_11584" data-name="Path 11584" d="M378.615,448.1c10.418-25.592,18.44-51.118,20.411-61.676,4.66-24.924-11.13-48.788-35.273-53.3s-31.977,12.7-36.638,37.621c-.117.624-.242,1.314-.371,2.048C369.173,398.337,374.523,442.23,378.615,448.1Z" transform="translate(6503.688 5781.972)" fill="#3c4646"/>
      <path id="Path_11585" data-name="Path 11585" d="M483.778,391.6c-9.292-6.3-19.978-10.3-30.888-12.888a1.978,1.978,0,0,0-1.519.261,39.273,39.273,0,0,0-3.637,2.653,1.933,1.933,0,0,1-.917.422c-14.958,2.6-32.036.936-49.618-2.066a1.939,1.939,0,0,0-1.952,2.983l10.1,15.145a1.929,1.929,0,0,0,1.589.866c5.574.066,32.649.415,48.656,1.171,12.818.605,23.959.492,33.218.059a1.96,1.96,0,0,0,1.3-3.339A43.226,43.226,0,0,0,483.778,391.6Z" transform="translate(6685.682 5905.443)" fill="#fab9af"/>
      <path id="Path_11586" data-name="Path 11586" d="M442.9,386.926l-15.548-8.359c-6.785-3.5-16.664,4.569-18.1,5.791.345-.011.686-.055,1.031-.055a43.065,43.065,0,0,1,34.128,17.3,4.689,4.689,0,0,0,3.5,1.882c14.161.642,24.411.84,29.934.9a3.184,3.184,0,0,0,1.982-5.71C471.586,392.742,448.262,390.174,442.9,386.926Z" transform="translate(6723.968 5902.872)" fill="#415050"/>
      <path id="Path_11587" data-name="Path 11587" d="M426.627,473.568a15.761,15.761,0,0,1-14.2-17.163c3.178-34.359,2.6-72.057.444-84.832-4.22-25.005-27.273-41.959-51.489-37.871s-25.64,22.943-21.42,47.944c3.262,19.332,17.552,94.582,35.06,125.844.092.18.2.356.3.536,5.049,8.848,10.356,14.018,15.743,13.108l.037-.011c4.393,1.743,174.313-.411,174.313-.411s.481-12.858,1.207-17.438C533.476,488.969,462.791,477,426.627,473.568Z" transform="translate(6534.042 5783.804)" fill="#55696e"/>
      <path id="Path_11588" data-name="Path 11588" d="M325.542,338.959c4.418-5.882,21.592-28.832,24.37-34.719l.14-.3q.336-.7.738-1.391a18.139,18.139,0,1,1,31.306,18.33,226.906,226.906,0,0,1-14.444,21.64c-3.486,4.573-7.174,8.991-10.965,13.339C354.147,352.889,325.509,339,325.542,338.959Z" transform="translate(6500.478 5678.303)" fill="#50d1dd"/>
      <path id="Path_11589" data-name="Path 11589" d="M390.177,389.1q5.653,1.106,11.306,2.216a21.434,21.434,0,0,0,25.548-21.027c.011-22.29.257-42.568.473-56.113a17.693,17.693,0,0,0-16.91-17.963L352.846,293.6A17.084,17.084,0,0,0,335.1,308.5c-1.556,12.128-2.293,30.513-3.783,50.612a21.4,21.4,0,0,0,17.034,22.631C362.218,384.5,376.317,386.384,390.177,389.1Z" transform="translate(6515.724 5678.331)" fill="#fab9af"/>
      <path id="Path_11590" data-name="Path 11590" d="M365.46,293.6l9.38.426c2.928,7.71,9.574,13.864,20.3,14.352,10.745.484,17.919-5.05,21.523-12.466l8.565.385A16.165,16.165,0,0,1,440.692,312.7c-.375,22.832-.877,66.843-.055,106.692.745,36.069,12.924,66.817,5.765,76.318,0,0-96.274,5.706-120.079-19.842,4.646-23.809,7.427-54.472,11.5-86.1,4.055-31.471,8.172-63.584,10.5-81.786A16.506,16.506,0,0,1,365.46,293.6Z" transform="translate(6502.564 5678.312)" fill="#25bbcc"/>
      <path id="Rectangle_2411" data-name="Rectangle 2411" d="M4.172,0H16.417a0,0,0,0,1,0,0V37.928a0,0,0,0,1,0,0H0a0,0,0,0,1,0,0V4.172A4.172,4.172,0,0,1,4.172,0Z" transform="matrix(-0.993, -0.12, 0.12, -0.993, 6911.211, 5957.793)" fill="#00558c"/>
      <g id="Group_2175" data-name="Group 2175" transform="translate(6878.129 5945.814)">
        <path id="Path_11591" data-name="Path 11591" d="M353.386,319.951l21.622-4.6-16.187-28.88-19.079,8.187,5.086,19.978A7.269,7.269,0,0,0,353.386,319.951Z" transform="translate(-339.742 -286.473)" fill="#fab9af"/>
      </g>
      <path id="Path_11592" data-name="Path 11592" d="M339.742,294.66l19.079-8.187,6.5,11.6c-2.984,6.279-6.609,13.24-13.809,15.328a12.988,12.988,0,0,1-7.068-.165Z" transform="translate(6538.388 5659.341)" fill="#fa968c"/>
      <path id="Path_11593" data-name="Path 11593" d="M349.643,332.214h0a25.173,25.173,0,0,0,28.021-21.956l3.376-27.834-42.858-5.2s-2.639,21.728-1.3,36.777C337.893,325.286,342.608,331.363,349.643,332.214Z" transform="translate(6529.748 5634.643)" fill="#fab9af"/>
      <rect id="Rectangle_2412" data-name="Rectangle 2412" width="8.114" height="3.68" transform="translate(6911.338 5931.671) rotate(-173.08)" fill="#00558c"/>
      <path id="Path_11594" data-name="Path 11594" d="M346,291.21c-.657,5.435,1.409,10.15,4.616,10.539s7.607-6.3,8.264-11.732-2.671-7.549-5.879-7.937S346.664,285.779,346,291.21Z" transform="translate(6554.779 5647.544)" fill="#fab9af"/>
      <path id="Path_11595" data-name="Path 11595" d="M336,298.7a24.291,24.291,0,0,1,.679-10.745s1.339-12.451,6.5-14.224c4.7-1.615,11.926,2.063,16.62,3.7,3.442,1.2,14.466,1.75,14.466,1.75A15.851,15.851,0,0,1,388.1,296.826l-.411,3.373-7.915,5.692-2.833,6.293-.565-.066a5.243,5.243,0,0,1-4.6-5.5c.26-4.514-2.378-8.642-6.87-9.189l-12.84-1.556c-7.813-.95-12.385,2.752-13.093,8.6l-.2,4.994Z" transform="translate(6527.568 5624.251)" fill="#00558c"/>
      <path id="Path_11596" data-name="Path 11596" d="M513.694,315.45c-11.016,69.635-83.085,147.689-207.354,140.632a5.2,5.2,0,0,1-.389-10.356c84.138-11.3,155.263-52.608,171.879-135.436,2.4-11.97,12.3-17.266,21.548-15.409A18.135,18.135,0,0,1,513.694,315.45Z" transform="translate(6436.104 5680.822)" fill="#fab9af"/>
      <g id="Group_2176" data-name="Group 2176" transform="translate(6901.557 5974.767)">
        <path id="Path_11597" data-name="Path 11597" d="M346.156,343.456c8.282-18.234,11.049-29.592,11.123-29.875,0,0,.782-2.591.995-3.468a28.77,28.77,0,0,1,5.636-11.526s7.893-8.517,23.023-1.365c12.084,5.717,8.932,20.157,8.932,20.157-.389,2.011,1.149,17.442-17.985,46.183C377.88,363.563,345,346.011,346.156,343.456Z" transform="translate(-346.126 -294.363)" fill="#50d1dd"/>
      </g>
      <path id="Path_11598" data-name="Path 11598" d="M319.424,335.834s15.192-.668,16.936,3.9,2.07,7.956-4.484,10.741-16.877,3.475-23.148,2.653-16.2-6.642-16.851-7.963c-2.374-4.822,8.829-2.139,14.319-1.1s11.791,1.659,11.541-1.127-10.91-3.971-12.249-7.064S319.424,335.834,319.424,335.834Z" transform="translate(6409.733 5787.521)" fill="#fab9af"/>
      <path id="Path_11599" data-name="Path 11599" d="M306.236,320.52s15.13-1.523,16.2-6.293.906-8.172-5.982-9.985-17.2-1.017-23.288.7c-4.624,1.3-10.917,5.758-13.882,8.44h15.475c6.345,0,8.66-1.952,8.789.352.15,2.789-10.227,5.5-11.108,8.752S306.236,320.52,306.236,320.52Z" transform="translate(6376.979 5704.023)" fill="#fa968c"/>
    </g>
  </g>
</svg>
