<svg xmlns="http://www.w3.org/2000/svg" width="330" height="103.125" viewBox="0 0 330 103.125">
  <g id="Group_2735" data-name="Group 2735" transform="translate(6515 -13078)">
    <rect id="Rectangle_181" data-name="Rectangle 181" width="330" height="103.125" rx="20" transform="translate(-6515 13078)"/>
    <path id="Path_196" data-name="Path 196" d="M153.234,54.431a11.593,11.593,0,0,1-2.354-3.14l3.423-1.42a6.906,6.906,0,0,0,1.047,1.573,4.725,4.725,0,0,0,3.478,1.563,4.65,4.65,0,0,0,3.619-1.66,5.768,5.768,0,0,0,.981-3.477v-1.3c-2.443,3.064-7.785,2.635-10.771-.532a9.015,9.015,0,0,1,.066-12.268c3.189-3.078,7.917-3.467,10.7-.551l.007.007V31.746h3.707v15.71c0,4-1.5,6.256-3.373,7.572a8.958,8.958,0,0,1-4.974,1.4A8.325,8.325,0,0,1,153.234,54.431Zm88.851.864,3.58-8.266L239.327,32.7h3.606L247.448,42.9,251.867,32.7h3.609l-9.782,22.6h-3.609ZM224.95,47.4a5.488,5.488,0,0,1-1.59-3.837,4.767,4.767,0,0,1,1.313-3.374,8.074,8.074,0,0,1,5.933-2.163,7.906,7.906,0,0,1,3.827.855,3.449,3.449,0,0,0-3.742-3.492,3.624,3.624,0,0,0-3.52,2.227l-3.24-1.279c.578-1.525,2.392-4.135,6.681-4.135a7.7,7.7,0,0,1,5.517,2.121c1.351,1.4,1.8,3.146,1.8,5.466v8.681H234.4V46.921a5.994,5.994,0,0,1-1.938,1.5A6.968,6.968,0,0,1,229.5,49,6.8,6.8,0,0,1,224.95,47.4ZM111.85,39.94a8.833,8.833,0,1,1,8.832,8.691A8.71,8.71,0,0,1,111.85,39.94Zm19.167,0a8.831,8.831,0,1,1,8.829,8.691A8.71,8.71,0,0,1,131.017,39.94ZM87.93,44.509a13.19,13.19,0,0,1,.159-18.938,13.818,13.818,0,0,1,9.751-3.936,13.987,13.987,0,0,1,9.384,3.655l-2.647,2.692a9.82,9.82,0,0,0-13.764,14,9.932,9.932,0,0,0,13.972.225,7.91,7.91,0,0,0,1.993-4.64H97.82V33.877H110.4a14.611,14.611,0,0,1,.207,2.813,12.258,12.258,0,0,1-3.428,8.337,12.775,12.775,0,0,1-9.218,3.579A14.567,14.567,0,0,1,87.93,44.509Zm89.654,1.551a9.221,9.221,0,0,1,0-12.32,7.888,7.888,0,0,1,11.568-.021,13.1,13.1,0,0,1,2.27,3.995l-11.776,4.835a4.6,4.6,0,0,0,4.187,2.647,4.887,4.887,0,0,0,4.4-2.418l3.081,2.02h0c-.355.455-.793.909-1.122,1.261C187.049,49.444,180.732,49.444,177.583,46.059ZM199.7,48.486V25.6h7.555c4.552,0,7.987,3.105,7.987,6.932a7.119,7.119,0,0,1-7.291,6.93h-4.671v9.025H199.7Zm17.884,0V25.6h3.579V48.486Zm-47.935-.373V22.5h3.919V48.115h-3.919Zm64.76-6.339a6.478,6.478,0,0,0-3.373-.838c-2.547,0-3.985,1.254-3.985,2.629,0,1.531,1.5,2.29,2.911,2.29C232,45.853,234.412,44.194,234.412,41.775Zm-108.8-1.839a4.937,4.937,0,1,0-4.926,5.246A5.072,5.072,0,0,0,125.608,39.936Zm19.168,0a4.937,4.937,0,1,0-4.928,5.246A5.072,5.072,0,0,0,144.777,39.936Zm18.735,1.581a4.883,4.883,0,0,0,.14-.621.2.2,0,0,0,.011-.084,5.49,5.49,0,0,0,.074-.921,5.148,5.148,0,0,0-.077-.867.477.477,0,0,0-.016-.11,4.457,4.457,0,0,0-.2-.772,4.815,4.815,0,0,0-4.526-3.446,5.033,5.033,0,0,0-4.751,5.27,5.018,5.018,0,0,0,4.818,5.193A4.883,4.883,0,0,0,163.511,41.517Zm15.53-1.887,7.86-3.25a3.645,3.645,0,0,0-3.255-1.794C180.656,34.586,178.607,37.9,179.042,39.63Zm32.549-7.016a3.716,3.716,0,0,0-4-3.622h-4.3v7.242h4.505A3.705,3.705,0,0,0,211.59,32.614Z" transform="translate(-6488.542 13091.365)" fill="#fff"/>
    <g id="icons8_google_play_3" transform="translate(-6467.52 13106)">
      <path id="Path_59" data-name="Path 59" d="M7.826,4.043A1.166,1.166,0,0,0,7,5.306V49.789a.978.978,0,0,0,.586,1L31.228,27.286Z" transform="translate(-7 -4.002)" fill="#00ceff"/>
      <path id="Path_60" data-name="Path 60" d="M37.616,20.822,27.884,15.2,8.975,4.285a1.7,1.7,0,0,0-1.27-.235l23.4,23.243Z" transform="translate(-6.879 -4.008)" fill="#00f076"/>
      <path id="Path_61" data-name="Path 61" d="M8.574,47.219,37.7,30.4l-6.562-6.516L7.5,47.389A1.276,1.276,0,0,0,8.574,47.219Z" transform="translate(-6.914 -0.599)" fill="#ff3a44"/>
      <path id="Path_62" data-name="Path 62" d="M43.751,23.879c-.933-.5-9.489-5.478-9.489-5.478l-.071-.041-6.509,6.47,6.562,6.516c5.192-3,9.092-5.248,9.441-5.451C44.79,25.258,44.683,24.382,43.751,23.879Z" transform="translate(-3.453 -1.546)" fill="#fc0"/>
    </g>
  </g>
</svg>
