<svg xmlns="http://www.w3.org/2000/svg" width="138" height="58.627" viewBox="0 0 138 58.627">
  <g id="logo_web_mm" transform="translate(12194 -7713)">
    <g id="Group_2724" data-name="Group 2724" transform="translate(-12194 7713)">
      <rect id="Rectangle_3455" data-name="Rectangle 3455" width="37" height="37" rx="8" transform="translate(0 0)" fill="#f85f33"/>
      <path id="Path_10028" data-name="Path 10028" d="M-1762.226,4625.939c-6.729,0-12.184,4.527-12.184,10.115,0,3.623,2.294,6.8,5.744,8.587,0,0,.179,1.356-1.708,3,0,0,1.281.414,4.364-1.642l3.07.155q.354.013.714.014c6.73,0,12.184-4.525,12.184-10.112S-1755.5,4625.939-1762.226,4625.939Zm-5.724,6.85a1.341,1.341,0,0,1,1.343-1.339,1.341,1.341,0,0,1,1.344,1.339,1.344,1.344,0,0,1-1.344,1.343A1.344,1.344,0,0,1-1767.95,4632.789Zm9.047,6.81a4.244,4.244,0,0,1-3.371,1.048,4.235,4.235,0,0,1-3.324-1.17,2.025,2.025,0,0,1-.465-1.49l.005-.288c.011-.529.444-.566.972-.48l.319.056c.529.087.956.268.945.8l-.006.321c-.007.23-.344.939,1.58.975s1.617-.683,1.621-.917l.007-.316c.011-.533.446-.7.978-.767l.32-.04c.532-.071.961-.018.95.512l0,.289a2.04,2.04,0,0,1-.527,1.471Zm1.058-5.467a1.342,1.342,0,0,1-1.343-1.342,1.34,1.34,0,0,1,1.343-1.339,1.341,1.341,0,0,1,1.343,1.339,1.342,1.342,0,0,1-1.343,1.341Z" transform="translate(1780.281 -4618.188)" fill="#fff"/>
    </g>
    <path id="Path_14590" data-name="Path 14590" d="M11.271-7.867l5.564-18.462h5.631L13.918-1.78H8.641L.126-26.329H5.741ZM26.434-1.78V-26.329h8.6q4.468,0,6.778,1.711A5.852,5.852,0,0,1,44.12-19.6a5.546,5.546,0,0,1-.927,3.178,5.356,5.356,0,0,1-2.58,2.015A5.182,5.182,0,0,1,43.589-12.5,5.633,5.633,0,0,1,44.676-9a6.479,6.479,0,0,1-2.259,5.362A10.171,10.171,0,0,1,35.976-1.78ZM31.492-12.47v6.626h4.333a4.182,4.182,0,0,0,2.79-.851,2.92,2.92,0,0,0,1-2.352q0-3.372-3.49-3.423Zm0-3.574h3.743q3.827-.067,3.827-3.052a2.82,2.82,0,0,0-.969-2.4,5.1,5.1,0,0,0-3.06-.733H31.492Zm38.8,2.546a14.82,14.82,0,0,1-1.281,6.356,9.65,9.65,0,0,1-3.667,4.215,10.144,10.144,0,0,1-5.471,1.484A10.213,10.213,0,0,1,54.427-2.91,9.745,9.745,0,0,1,50.717-7.1a14.4,14.4,0,0,1-1.332-6.264v-1.214a14.742,14.742,0,0,1,1.307-6.382,9.729,9.729,0,0,1,3.692-4.232,10.157,10.157,0,0,1,5.454-1.475,10.157,10.157,0,0,1,5.454,1.475,9.729,9.729,0,0,1,3.692,4.232,14.7,14.7,0,0,1,1.307,6.365Zm-5.126-1.113a10.331,10.331,0,0,0-1.383-5.867,4.505,4.505,0,0,0-3.945-2.006A4.507,4.507,0,0,0,55.91-20.5a10.212,10.212,0,0,0-1.4,5.808v1.2a10.46,10.46,0,0,0,1.383,5.834,4.494,4.494,0,0,0,3.979,2.074,4.453,4.453,0,0,0,3.912-2,10.4,10.4,0,0,0,1.383-5.825Zm27.5-7.621h-7.52V-1.78H80.093V-22.232H72.675v-4.1h20Z" transform="translate(-12148.671 7745.666)" fill="#f85f33"/>
    <path id="Path_14595" data-name="Path 14595" d="M10.691,0h-1.6V-5.586H3V0H1.4V-12.086H3v5.2H9.089v-5.2h1.6Zm6.317.166a3.924,3.924,0,0,1-2.972-1.2,4.452,4.452,0,0,1-1.146-3.208v-.282A5.39,5.39,0,0,1,13.4-6.91a3.982,3.982,0,0,1,1.428-1.644,3.59,3.59,0,0,1,1.988-.594A3.364,3.364,0,0,1,19.54-7.994a5,5,0,0,1,.971,3.3v.639H14.427A3.193,3.193,0,0,0,15.2-1.905a2.44,2.44,0,0,0,1.888.818,2.675,2.675,0,0,0,1.378-.332,3.462,3.462,0,0,0,.988-.88l.938.73A3.772,3.772,0,0,1,17.008.166Zm-.191-8.052a2.048,2.048,0,0,0-1.561.677,3.288,3.288,0,0,0-.78,1.9h4.5v-.116a2.925,2.925,0,0,0-.631-1.814A1.928,1.928,0,0,0,16.817-7.886ZM23.956,0H22.42V-12.75h1.536ZM34-4.391a5.378,5.378,0,0,1-.938,3.3A3.006,3.006,0,0,1,30.522.166,3.294,3.294,0,0,1,27.949-.872V3.453H26.413V-8.981h1.4l.075,1A3.163,3.163,0,0,1,30.5-9.147a3.063,3.063,0,0,1,2.561,1.22A5.437,5.437,0,0,1,34-4.532Zm-1.536-.174a3.968,3.968,0,0,0-.647-2.4,2.086,2.086,0,0,0-1.776-.88,2.257,2.257,0,0,0-2.092,1.237v4.292a2.262,2.262,0,0,0,2.108,1.229,2.076,2.076,0,0,0,1.756-.876A4.332,4.332,0,0,0,32.464-4.565ZM43.1-2.25l2.092-6.732h1.644L43.222,1.386q-.838,2.241-2.665,2.241L40.267,3.6l-.573-.108V2.25l.415.033a2.043,2.043,0,0,0,1.216-.315A2.283,2.283,0,0,0,42.043.813l.34-.913-3.2-8.882h1.677Zm4.574-2.324a5.3,5.3,0,0,1,.519-2.374,3.87,3.87,0,0,1,1.444-1.627,3.932,3.932,0,0,1,2.113-.573,3.788,3.788,0,0,1,2.968,1.27A4.886,4.886,0,0,1,55.848-4.5v.108a5.351,5.351,0,0,1-.5,2.353A3.813,3.813,0,0,1,53.909-.415a3.977,3.977,0,0,1-2.146.581A3.778,3.778,0,0,1,48.8-1.1a4.861,4.861,0,0,1-1.133-3.362Zm1.544.183a3.842,3.842,0,0,0,.693,2.4,2.218,2.218,0,0,0,1.855.9A2.2,2.2,0,0,0,53.623-2a4.2,4.2,0,0,0,.689-2.569,3.836,3.836,0,0,0-.7-2.395,2.23,2.23,0,0,0-1.864-.917,2.205,2.205,0,0,0-1.834.9A4.17,4.17,0,0,0,49.215-4.391Zm14.1,3.5A3.262,3.262,0,0,1,60.687.166,2.792,2.792,0,0,1,58.5-.668a3.611,3.611,0,0,1-.76-2.469V-8.981h1.536v5.8q0,2.042,1.66,2.042a2.3,2.3,0,0,0,2.341-1.312V-8.981h1.536V0H63.352ZM76.583-2.382a1.131,1.131,0,0,0-.469-.967,4.514,4.514,0,0,0-1.635-.594,7.731,7.731,0,0,1-1.851-.6,2.633,2.633,0,0,1-1.013-.83,1.986,1.986,0,0,1-.328-1.146,2.33,2.33,0,0,1,.934-1.868,3.647,3.647,0,0,1,2.386-.764,3.753,3.753,0,0,1,2.478.789,2.5,2.5,0,0,1,.95,2.017H76.492a1.386,1.386,0,0,0-.535-1.087,2.006,2.006,0,0,0-1.349-.457,2.1,2.1,0,0,0-1.312.365,1.15,1.15,0,0,0-.473.955.932.932,0,0,0,.44.838,5.413,5.413,0,0,0,1.59.54,8.283,8.283,0,0,1,1.864.614,2.718,2.718,0,0,1,1.058.859,2.112,2.112,0,0,1,.344,1.224,2.3,2.3,0,0,1-.963,1.93,4.039,4.039,0,0,1-2.5.726,4.523,4.523,0,0,1-1.909-.382,3.105,3.105,0,0,1-1.3-1.067,2.571,2.571,0,0,1-.469-1.482h1.536a1.59,1.59,0,0,0,.618,1.224,2.4,2.4,0,0,0,1.523.452,2.476,2.476,0,0,0,1.4-.353A1.084,1.084,0,0,0,76.583-2.382ZM85.664-.888A3.262,3.262,0,0,1,83.033.166a2.792,2.792,0,0,1-2.187-.834,3.611,3.611,0,0,1-.76-2.469V-8.981h1.536v5.8q0,2.042,1.66,2.042a2.3,2.3,0,0,0,2.341-1.312V-8.981h1.536V0H85.7Zm7.429-.2a2.212,2.212,0,0,0,1.436-.5,1.752,1.752,0,0,0,.681-1.245h1.453a2.785,2.785,0,0,1-.531,1.469A3.5,3.5,0,0,1,94.824-.249a3.772,3.772,0,0,1-1.731.415,3.7,3.7,0,0,1-2.918-1.224,4.877,4.877,0,0,1-1.083-3.349v-.257A5.407,5.407,0,0,1,89.574-7a3.667,3.667,0,0,1,1.382-1.585,3.926,3.926,0,0,1,2.129-.564,3.6,3.6,0,0,1,2.511.9,3.234,3.234,0,0,1,1.067,2.349H95.21a2.116,2.116,0,0,0-.66-1.432,2.053,2.053,0,0,0-1.465-.56,2.149,2.149,0,0,0-1.814.843,3.957,3.957,0,0,0-.643,2.436v.291a3.878,3.878,0,0,0,.639,2.391A2.16,2.16,0,0,0,93.093-1.087Zm8.9,0a2.212,2.212,0,0,0,1.436-.5,1.752,1.752,0,0,0,.681-1.245h1.453a2.785,2.785,0,0,1-.531,1.469,3.5,3.5,0,0,1-1.307,1.112,3.772,3.772,0,0,1-1.731.415,3.7,3.7,0,0,1-2.918-1.224,4.877,4.877,0,0,1-1.083-3.349v-.257A5.407,5.407,0,0,1,98.472-7a3.667,3.667,0,0,1,1.382-1.585,3.926,3.926,0,0,1,2.129-.564,3.6,3.6,0,0,1,2.511.9,3.234,3.234,0,0,1,1.067,2.349h-1.453a2.116,2.116,0,0,0-.66-1.432,2.053,2.053,0,0,0-1.465-.56,2.149,2.149,0,0,0-1.814.843,3.957,3.957,0,0,0-.643,2.436v.291a3.878,3.878,0,0,0,.639,2.391A2.16,2.16,0,0,0,101.992-1.087ZM111.015.166a3.924,3.924,0,0,1-2.972-1.2A4.452,4.452,0,0,1,106.9-4.242v-.282a5.39,5.39,0,0,1,.51-2.386,3.982,3.982,0,0,1,1.428-1.644,3.59,3.59,0,0,1,1.988-.594,3.364,3.364,0,0,1,2.723,1.154,5,5,0,0,1,.971,3.3v.639h-6.084a3.193,3.193,0,0,0,.776,2.146,2.44,2.44,0,0,0,1.888.818,2.675,2.675,0,0,0,1.378-.332,3.462,3.462,0,0,0,.988-.88l.938.73A3.772,3.772,0,0,1,111.015.166Zm-.191-8.052a2.048,2.048,0,0,0-1.561.677,3.288,3.288,0,0,0-.78,1.9h4.5v-.116a2.925,2.925,0,0,0-.631-1.814A1.928,1.928,0,0,0,110.824-7.886Zm9.2,8.052a3.924,3.924,0,0,1-2.972-1.2A4.452,4.452,0,0,1,115.9-4.242v-.282a5.39,5.39,0,0,1,.51-2.386,3.982,3.982,0,0,1,1.428-1.644,3.59,3.59,0,0,1,1.988-.594,3.364,3.364,0,0,1,2.723,1.154,5,5,0,0,1,.971,3.3v.639h-6.084a3.193,3.193,0,0,0,.776,2.146,2.44,2.44,0,0,0,1.888.818,2.675,2.675,0,0,0,1.378-.332,3.462,3.462,0,0,0,.988-.88l.938.73A3.772,3.772,0,0,1,120.021.166Zm-.191-8.052a2.048,2.048,0,0,0-1.561.677,3.288,3.288,0,0,0-.78,1.9h4.5v-.116a2.925,2.925,0,0,0-.631-1.814A1.928,1.928,0,0,0,119.83-7.886Zm5.1,3.32a5.261,5.261,0,0,1,.979-3.324,3.1,3.1,0,0,1,2.565-1.258,3.115,3.115,0,0,1,2.5,1.079V-12.75h1.536V0h-1.411l-.075-.963A3.127,3.127,0,0,1,128.455.166a3.068,3.068,0,0,1-2.544-1.278,5.321,5.321,0,0,1-.984-3.337Zm1.536.174A3.984,3.984,0,0,0,127.093-2a2.039,2.039,0,0,0,1.743.863,2.24,2.24,0,0,0,2.133-1.312V-6.574a2.257,2.257,0,0,0-2.117-1.27,2.049,2.049,0,0,0-1.76.872A4.386,4.386,0,0,0,126.462-4.391Zm10.144.966H135.22l-.108-8.661h1.61ZM135.054-.78a.915.915,0,0,1,.228-.633.86.86,0,0,1,.677-.256.874.874,0,0,1,.681.256.905.905,0,0,1,.232.633.875.875,0,0,1-.232.624.89.89,0,0,1-.681.247.876.876,0,0,1-.677-.247A.885.885,0,0,1,135.054-.78Z" transform="translate(-12194 7768)" fill="#f85f33"/>
  </g>
</svg>
