<svg xmlns="http://www.w3.org/2000/svg" width="40" height="40" viewBox="0 0 40 40">
  <g id="phone" transform="translate(-8334.266 -1242)">
    <circle id="Ellipse_1594" data-name="Ellipse 1594" cx="20" cy="20" r="20" transform="translate(8334.266 1242)" fill="#1cab4e"/>
    <path id="icons8_phone" d="M18.041,15.137a1.047,1.047,0,0,0-1.067.006l-1.668.994a1.044,1.044,0,0,1-1.182-.071A27.137,27.137,0,0,1,11.751,14a27.137,27.137,0,0,1-2.069-2.374,1.044,1.044,0,0,1-.071-1.182L10.6,8.773a1.051,1.051,0,0,0,0-1.07L8.161,3.523A1.055,1.055,0,0,0,7,3.031,3.458,3.458,0,0,0,5.378,4C3.491,5.891,2.489,9.072,9.583,16.166s10.274,6.093,12.162,4.205a3.472,3.472,0,0,0,.974-1.623,1.05,1.05,0,0,0-.489-1.159Z" transform="translate(8340.891 1250)" fill="#fff"/>
  </g>
</svg>
