<svg xmlns="http://www.w3.org/2000/svg" xmlns:xlink="http://www.w3.org/1999/xlink" width="567.5" height="584.35" viewBox="0 0 567.5 584.35">
  <defs>
    <linearGradient id="linear-gradient" x1="0.727" y1="-0.784" x2="0.316" y2="0.325" gradientUnits="objectBoundingBox">
      <stop offset="0" stop-color="#7e1c00"/>
      <stop offset="1" stop-color="#f85f33"/>
    </linearGradient>
    <linearGradient id="linear-gradient-2" y1="0.5" x2="1" y2="0.5" gradientUnits="objectBoundingBox">
      <stop offset="0" stop-color="#09005d"/>
      <stop offset="1" stop-color="#1a0f91"/>
    </linearGradient>
    <linearGradient id="linear-gradient-3" x1="-0.627" y1="0.154" x2="0.503" y2="0.546" xlink:href="#linear-gradient-2"/>
    <linearGradient id="linear-gradient-4" x1="0.244" y1="0.699" x2="0.91" y2="-0.228" gradientUnits="objectBoundingBox">
      <stop offset="0" stop-color="#febbba"/>
      <stop offset="1" stop-color="#ff928e"/>
    </linearGradient>
    <linearGradient id="linear-gradient-5" x1="10.622" y1="2.656" x2="10.589" y2="4.966" gradientUnits="objectBoundingBox">
      <stop offset="0" stop-color="#4f52ff"/>
      <stop offset="1" stop-color="#4042e2"/>
    </linearGradient>
    <linearGradient id="linear-gradient-6" x1="-88.234" y1="7.168" x2="-88.009" y2="6.258" xlink:href="#linear-gradient-4"/>
    <linearGradient id="linear-gradient-7" x1="-51.097" y1="5.185" x2="-49.888" y2="6.348" xlink:href="#linear-gradient-4"/>
    <linearGradient id="linear-gradient-8" x1="-3.038" y1="-1.018" x2="2.621" y2="1.272" xlink:href="#linear-gradient-2"/>
    <linearGradient id="linear-gradient-9" x1="-144.097" y1="16.743" x2="-140.721" y2="21.062" xlink:href="#linear-gradient-4"/>
    <linearGradient id="linear-gradient-10" x1="8.129" y1="1.284" x2="9.53" y2="0.148" xlink:href="#linear-gradient-4"/>
    <linearGradient id="linear-gradient-11" x1="18.694" y1="0.478" x2="19.689" y2="0.478" xlink:href="#linear-gradient-2"/>
    <linearGradient id="linear-gradient-12" x1="16.675" y1="0.452" x2="12.778" y2="0.783" xlink:href="#linear-gradient-4"/>
    <linearGradient id="linear-gradient-13" x1="17.345" y1="0.477" x2="18.338" y2="0.477" xlink:href="#linear-gradient-2"/>
    <linearGradient id="linear-gradient-14" x1="7.946" y1="0.64" x2="7.345" y2="2.53" xlink:href="#linear-gradient-2"/>
    <linearGradient id="linear-gradient-15" x1="0.511" y1="0.618" x2="0.59" y2="1.434" xlink:href="#linear-gradient-2"/>
    <linearGradient id="linear-gradient-16" x1="1.488" y1="-0.027" x2="-0.142" y2="0.848" xlink:href="#linear-gradient-2"/>
    <linearGradient id="linear-gradient-17" x1="1.929" y1="-0.013" x2="-0.172" y2="0.802" xlink:href="#linear-gradient-4"/>
    <linearGradient id="linear-gradient-18" x1="0.183" y1="0.527" x2="-0.107" y2="-0.41" xlink:href="#linear-gradient-4"/>
  </defs>
  <g id="cam" transform="translate(-474.488 -457.114)">
    <g id="Group_2758" data-name="Group 2758" transform="translate(474.488 480.701)">
      <g id="Group_2755" data-name="Group 2755" transform="translate(20.779)">
        <path id="Path_14597" data-name="Path 14597" d="M768.7,940.038s1.87-78.637-34.349-99.684S629.261,806.148,626.68,693.232c-1.511-66.106-3.147-95.009-4.243-107.612a7.443,7.443,0,0,1,8.79-7.971c34.3,6.462,145.739,33.061,169.1,109.12C828.026,776.939,768.7,940.038,768.7,940.038Z" transform="translate(-622.408 -577.518)" fill="#91b3fa"/>
        <path id="Path_14598" data-name="Path 14598" d="M781.767,726.553c37.654,33.582,81.195,93.016,104.4,152.451,2.979,9.8,11.693,30.625,15.477,67.635,3.38,30.867,1.7,63.484-2.4,85.075a2.515,2.515,0,0,1-2.941,2,2.551,2.551,0,0,1-2.014-2.89c4.68-36.888,2.738-82.8-7.987-124.23-13.7-50.868-44.261-100.187-75.869-142.016l-3.253-4.119c-24.489-31.45-29.644-31.681-27.355-33.874A1.433,1.433,0,0,1,781.767,726.553Z" transform="translate(-746.418 -695.005)" fill="#fff" opacity="0.5"/>
      </g>
      <g id="Group_2756" data-name="Group 2756" transform="translate(0 209.229)">
        <path id="Path_14599" data-name="Path 14599" d="M748.628,1879.405c4.9,2.4-46.392-62.1-62.459-163.4-7.571-47.736-7.67-107.546-34.863-130.595-22.632-19.183-99.644-7.072-124.843-2.469a3.779,3.779,0,0,0-1.758,6.611c12.084,10.148,37.934,34.086,44.669,58.211,8.878,31.8,39.109,52.024,66.174,57.5s42.121,10.786,55.306,54.068S734.7,1872.578,748.628,1879.405Z" transform="translate(-523.354 -1574.923)" fill="#bdd0fb"/>
        <path id="Path_14600" data-name="Path 14600" d="M704.4,1677.191c32.149,1.347,66.659,16.012,84.172,43.521l1.653,2.625c3.818,6.155,25.454,49.911,37.47,86.182a.863.863,0,0,1-.547,1.09.88.88,0,0,1-1.08-.516c-8.372-20.49-20.4-46.469-29.974-65.9-10.271-21.2-17.458-35.556-40.884-49.307-26.074-14.81-50.984-16.334-50.909-16.319a.692.692,0,0,1,.1-1.38Z" transform="translate(-665.856 -1655.738)" fill="#91b3fa"/>
      </g>
      <g id="Group_2757" data-name="Group 2757" transform="translate(3.59 328.041)">
        <path id="Path_14601" data-name="Path 14601" d="M740.165,2335.462c2.908,1.533-16.38-31.666-17.86-60.915s-8.079-79.17-33.3-109.032-52.844-32.587-87.649-5.439c-29,22.623-47.1,34.04-57.706,36.162a4.009,4.009,0,0,0-2.69,5.846c6.805,12.532,26.045,41.319,58.35,39.292,41.207-2.585,91.146-29.373,106.367-7.026s13.266,34.85,13.734,45.44S720.921,2325.316,740.165,2335.462Z" transform="translate(-540.47 -2141.307)" fill="#91b3fa"/>
        <path id="Path_14602" data-name="Path 14602" d="M885.522,2318.661c12.624-12.1,33.183-24,51.151-21.777,23.378,3.766,38.951,19.377,47.446,42.616a141.763,141.763,0,0,1,6.65,27.23.769.769,0,0,1-1.505.311c-1.429-5.681-2.844-11.63-4.96-17.782-12.322-39.694-38.626-45.041-39.649-45.853-1.989.2-14.044-8.829-42.65,6.564a126.964,126.964,0,0,0-15.423,9.887l-.027.021a.8.8,0,0,1-1.033-1.217Z" transform="translate(-812.945 -2264.035)" fill="#fff" opacity="0.5"/>
      </g>
    </g>
    <g id="Group_2762" data-name="Group 2762" transform="translate(609.145 457.115)">
      <g id="Group_2759" data-name="Group 2759" transform="translate(0 98.278)">
        <path id="Path_14603" data-name="Path 14603" d="M1367.455,933.638,1212.649,949.28a5.075,5.075,0,0,0-3.967,2.66l-41.808,78.355a13.644,13.644,0,0,0-1.466,8.374l53.156,367.831a4.926,4.926,0,0,0,5.734,4.146l255.932-45.291a6.02,6.02,0,0,0,4.909-6.789l-51.635-357.3a18.17,18.17,0,0,0-4.826-9.933l-51.525-54.1A11.761,11.761,0,0,0,1367.455,933.638Z" transform="translate(-1165.267 -933.579)" fill="url(#linear-gradient)"/>
      </g>
      <g id="Group_2760" data-name="Group 2760" transform="translate(15.194 112.441)" opacity="0.54">
        <path id="Path_14604" data-name="Path 14604" d="M1292.856,1446.776a5.42,5.42,0,0,1-3.185-1.042,5.769,5.769,0,0,1-2.308-3.839l-49.514-342.631a13.994,13.994,0,0,1,1.392-8.438l37.327-72.753a5.591,5.591,0,0,1,4.421-3.043l139.423-13.88a11.67,11.67,0,0,1,9.658,3.728l46.666,50.586a18.319,18.319,0,0,1,4.669,9.847l48.1,332.825a6.58,6.58,0,0,1-5.277,7.521l-230.415,41.034A5.421,5.421,0,0,1,1292.856,1446.776Zm127.663-444.547.107,1.079L1281.2,1017.187a3.431,3.431,0,0,0-2.706,1.875l-37.327,72.753a11.834,11.834,0,0,0-1.176,7.138l49.514,342.631a3.544,3.544,0,0,0,1.432,2.391,3.256,3.256,0,0,0,2.49.581l230.415-41.034a4.423,4.423,0,0,0,3.511-5.076l-48.1-332.825a16.164,16.164,0,0,0-4.117-8.687l-46.666-50.586a9.353,9.353,0,0,0-7.85-3.041Z" transform="translate(-1237.699 -1001.096)" fill="#fff"/>
      </g>
      <g id="Group_2761" data-name="Group 2761" transform="translate(84.814 228.914)">
        <path id="Path_14605" data-name="Path 14605" d="M1649.115,1789.87l-2.871-17.24c-18.092,2.273-36.574.992-50.12-2.432a10.11,10.11,0,0,1-7.473-10.863l1.705-16.787a10.189,10.189,0,0,1,12.548-8.85,118.333,118.333,0,0,0,46.229,1.965c17.31-2.883,29.241-10.9,27.238-22.931-1.808-10.854-12.857-15.647-37.99-18.094-35.89-3.671-63.027-14.53-68.06-44.749-4.545-27.286,11.938-51.439,45.629-62.778l-2.871-17.241a10.183,10.183,0,0,1,8.372-11.718l10.129-1.687a10.183,10.183,0,0,1,11.718,8.372l2.578,15.48c16.741-2.1,29.32-1.276,39.489.5a10.132,10.132,0,0,1,8.255,11.026l-1.554,15.522a10.156,10.156,0,0,1-12.1,8.968,106.024,106.024,0,0,0-38.741-.565c-20.538,3.42-24.987,12.905-23.717,20.534,1.564,9.388,14.961,13.79,43.027,17.559,40.046,5.09,58.527,18.294,63.267,46.753,4.349,26.111-11.1,52.807-47.681,64.93l3.213,19.293a10.183,10.183,0,0,1-8.372,11.718l-10.13,1.687A10.183,10.183,0,0,1,1649.115,1789.87Z" transform="translate(-1569.58 -1556.326)" fill="#fff"/>
      </g>
      <circle id="Ellipse_710" data-name="Ellipse 710" cx="25.783" cy="25.783" r="25.783" transform="translate(110.716 134.193)" fill="#611600"/>
      <circle id="Ellipse_711" data-name="Ellipse 711" cx="21.029" cy="21.029" r="21.029" transform="translate(106.76 159.976) rotate(-45)" fill="#fff"/>
      <path id="Path_14606" data-name="Path 14606" d="M1520.335,631.065a21.22,21.22,0,0,1-.416-10.38l1.38-1.06c45.514-34.973,43.793-79.953,27.006-110.384-13.819-25.05-37.077-40.092-52.948-34.246-19.635,7.234-24.04,45.2-12.64,100.9l-9.095.919.088.431c-17.142-83.754,4.326-105.112,18.648-110.389,20.124-7.414,47.44,9.006,63.541,38.2,18.527,33.587,20.555,83.129-29.316,121.451Z" transform="translate(-1403.993 -465.082)" fill="url(#linear-gradient-2)"/>
    </g>
    <g id="Group_2768" data-name="Group 2768" transform="translate(816.17 610.315)">
      <g id="Group_2764" data-name="Group 2764">
        <path id="Path_14607" data-name="Path 14607" d="M2513.424,1214.561s-9.479-23.225,26.273-18.542,27.063,18.18,29.889,28.728,17.825,22.5,59.564,38.775,29.364,60.642,10.616,75.368-28.972,4.938-33.333,30.354-21.755,46.058-43.459,24.513-46.371-47.023-39.472-80.431-.913-27.088-14.381-42.414S2524.2,1240.749,2513.424,1214.561Z" transform="translate(-2431.327 -1195.395)" fill="url(#linear-gradient-3)"/>
        <path id="Path_14608" data-name="Path 14608" d="M2281.7,1536.449c-5.676-5.758-11.2,8.081-12.673,11.549-3.722,8.757-7.591,16.617-15.447,22.618-4.86,3.713-11.428,6.093-17.577,4.309-22.147-6.425-22.25-24.215-22.749-37.541.513-3.78-1.754-7.526-4.5-8.695a8.886,8.886,0,0,1-4.409-4.656s-2.167,4.8.5,7.056a3.124,3.124,0,0,1,1.175,2.6c-.311-.052-.631-.1-.967-.142-6.657-.832.025,8.7.025,8.7s-6.444,34.881,23.075,48.743c14.613,6.862,25.82,5.236,33.436,1.84a24.825,24.825,0,0,0,10-6.834,20.735,20.735,0,0,0,1.726-1.911l0-.11C2285.1,1568.989,2287.146,1541.97,2281.7,1536.449Z" transform="translate(-2191.626 -1455.094)" fill="url(#linear-gradient-4)"/>
        <path id="Path_14609" data-name="Path 14609" d="M2497.856,1566.831c5.8-1.739,22.691-4.95,38.757,9.876a9.948,9.948,0,0,1,2.867,9.913c-4.315,15.887-15.7,62.823-5.718,83.131,0,0-17.592,19.393-36.784,3.762,0,0-8.611-37.53-19.89-54.006-7.787-11.375,12.417-42.714,17.528-50.285A5.988,5.988,0,0,1,2497.856,1566.831Z" transform="translate(-2407.534 -1487.689)" fill="url(#linear-gradient-5)"/>
        <path id="Path_14610" data-name="Path 14610" d="M2615.831,1422.21s8.579,24.267,9.225,34.973a18.35,18.35,0,0,1-18.417-2.965s-.937-24.239-2.292-28.579Z" transform="translate(-2509.492 -1374.63)" fill="url(#linear-gradient-6)"/>
        <path id="Path_14611" data-name="Path 14611" d="M2552.18,1263.807s-22.439,31.4-9.026,40.524,29.388-13.2,29.388-13.2,5.207-17.188-.238-23.019S2552.18,1263.807,2552.18,1263.807Z" transform="translate(-2457.758 -1249.315)" fill="url(#linear-gradient-7)"/>
        <path id="Path_14612" data-name="Path 14612" d="M2624.643,1234.326c-4.247-10.226-17.466-7.2-17.466-7.2s-10.309,2.443-11.754,7.107c-.65,2.1,2.244,4.128,6.034,5.746a27.706,27.706,0,0,1,16.313,20.2l.4,2.074S2628.89,1244.552,2624.643,1234.326Z" transform="translate(-2502.367 -1220.141)" fill="url(#linear-gradient-8)"/>
        <path id="Path_14613" data-name="Path 14613" d="M2678.613,1362.072s8.734-10.115,12.208-3.521-7.862,11.545-11.786,8.308Z" transform="translate(-2568.179 -1322.561)" fill="url(#linear-gradient-9)"/>
        <path id="Path_14614" data-name="Path 14614" d="M2453.493,2456.87c.066,1.7-2.926,15.218-4.553,22.427a11.871,11.871,0,0,0,1.278,8.517l56.381,94.892a12.938,12.938,0,0,1,1.48,3.692c1.033,4.453,3.176,15.366,2.057,25.295l-2.917,6.058,12.614-2.865,2.744-33.875-3.571-2.177a16.977,16.977,0,0,1-6.863-8.034c-5.1-12.384-17.758-43.907-21.022-59.27-3.709-17.459-23.1-31.641-23.1-31.641l3.406-8.053Z" transform="translate(-2386.454 -2192.247)" fill="url(#linear-gradient-10)"/>
        <path id="Path_14615" data-name="Path 14615" d="M2740.209,3061.123s-6.812-10.8-7.613-15-3.033-11.628-7.232-9.393c0,0-1.979,20.421-1.3,28.4s-9.021,7.723-9.021,7.723a9.062,9.062,0,0,0-4.632,2.333,2.271,2.271,0,0,0,1.523,3.82,54.611,54.611,0,0,0,13.514-.765,4.134,4.134,0,0,0,3.335-3.814l1.4-23.5,8.593,10.85Z" transform="translate(-2592.811 -2650.14)" fill="url(#linear-gradient-11)"/>
        <path id="Path_14616" data-name="Path 14616" d="M2588.116,2520.315s1.988,84.881,2.258,96.936-1.9,38.771-13.989,46.756l5.259,3.893s6.572-5.585,12.992-16.335c7.213-12.076,9.394-14.283,9.394-14.283l-2.393-4.9a10.777,10.777,0,0,1-.873-6.912c2.608-12.64,11.32-54.681,13.7-63.735,2.805-10.687,3-24.959-6.755-36.906S2588.116,2520.315,2588.116,2520.315Z" transform="translate(-2487.396 -2240.576)" fill="url(#linear-gradient-12)"/>
        <path id="Path_14617" data-name="Path 14617" d="M2576.956,3113.3a.741.741,0,0,0,.746-.636c.4-2.83,2.076-14.175,3.447-17.112,1.569-3.364,6.7-17.524,0-18.727,0,0-16.653,24.33-19.849,27.61a6.267,6.267,0,0,1-7.231,1.146,12.04,12.04,0,0,0-5.464,3.922,2.206,2.206,0,0,0,1.738,3.543l11.217.107a7.892,7.892,0,0,0,7.4-4.972c1.974-4.931,5.366-12.165,9.319-15.374l-2.054,19.668a.747.747,0,0,0,.736.825Z" transform="translate(-2465.075 -2682.156)" fill="url(#linear-gradient-13)"/>
        <path id="Path_14618" data-name="Path 14618" d="M2469.665,2016.675s2.528,8.057-1.355,21.326l-24.089,84.119a2.605,2.605,0,0,0,1.629,3.17c7.205,2.586,30.892,9.9,63.225,7.666a3.672,3.672,0,0,0,3.347-2.858c2.13-9.59,9.4-42.309,10.9-49.032,5.7-25.617,12.071-53.242-15.943-69.947C2494.466,2016.648,2482.425,2019.907,2469.665,2016.675Z" transform="translate(-2382.876 -1840.001)" fill="url(#linear-gradient-14)"/>
        <g id="Group_2763" data-name="Group 2763" transform="translate(3.591 33.555)">
          <path id="Path_14619" data-name="Path 14619" d="M2218.323,1423.127c.78-1.717.585-3.966.409-5.745-.407-4.122-.374-8.231-.441-12.372-.173-10.729-.079-21.484-.929-32.187-.184-2.31.063-4.627-.117-6.927-.457-5.838-3.881-7.561-9.577-8.779-4.818-1.03-10.071-2.449-15.049-1.391-1.961.417-3.847,1.489-4.093,3.536-.989,8.263-.742,62.411,9.231,63.9,3.368.5,6.71,1.093,10.058,1.7,2.38.429,5.563,1.333,7.961.526A4.089,4.089,0,0,0,2218.323,1423.127Z" transform="translate(-2184.188 -1355.352)" fill="url(#linear-gradient-15)"/>
          <path id="Path_14620" data-name="Path 14620" d="M2199.464,1423.127c.78-1.717.585-3.966.409-5.745-.407-4.122-.374-8.231-.44-12.372-.173-10.729-.078-21.484-.929-32.187-.184-2.31.063-4.627-.117-6.927-.458-5.838-3.882-7.561-9.578-8.779-4.818-1.03-10.071-2.449-15.049-1.391-1.961.417-3.847,1.489-4.092,3.536-.989,8.263-.742,62.411,9.231,63.9,3.368.5,6.711,1.093,10.059,1.7,2.381.429,5.563,1.333,7.961.526A4.089,4.089,0,0,0,2199.464,1423.127Z" transform="translate(-2169.285 -1355.352)" fill="url(#linear-gradient-16)"/>
        </g>
        <path id="Path_14621" data-name="Path 14621" d="M2157.177,1506.744s-1.81-1.229-3.3-8.576-2.964-11.8,0-15.2,7.557-3.556,7.557,0-.77,10.107-.237,15.2S2160.474,1515.319,2157.177,1506.744Z" transform="translate(-2152.167 -1420.576)" fill="url(#linear-gradient-17)"/>
        <path id="Path_14622" data-name="Path 14622" d="M2719.094,1251.174a18.5,18.5,0,0,1,9.261,4.891,13.331,13.331,0,0,1,2.842,4.54l.421,1.289.241,1.332c.17.9.252,1.727.4,2.59a40.494,40.494,0,0,0,8.687,18.6,38.366,38.366,0,0,0,7.569,7.043,58.847,58.847,0,0,0,9.119,5.022q4.743,2.248,9.625,4.188a93.2,93.2,0,0,0,9.921,3.451,106.163,106.163,0,0,1-19.923-6.809,52.52,52.52,0,0,1-9.361-4.969,39.349,39.349,0,0,1-7.862-7.171,40.508,40.508,0,0,1-8.67-19.215c-.12-.871-.185-1.793-.32-2.622l-.187-1.263-.359-1.223a12.838,12.838,0,0,0-2.561-4.394A18.87,18.87,0,0,0,2719.094,1251.174Z" transform="translate(-2600.168 -1239.473)" fill="#91b3fa"/>
        <path id="Path_14623" data-name="Path 14623" d="M3119.147,1602.009a45.069,45.069,0,0,1,6.167,13.883,40.935,40.935,0,0,1,1.034,15.25,35.986,35.986,0,0,1-5.351,14.317c-.741,1.044-1.429,2.123-2.264,3.093-.406.492-.79,1-1.214,1.479l-1.3,1.4c-.849.95-1.854,1.745-2.769,2.621-.954.836-1.974,1.6-2.964,2.381a51.466,51.466,0,0,0,9.74-11.454,40.827,40.827,0,0,0,3.206-6.749,37.087,37.087,0,0,0,1.746-7.246,42.012,42.012,0,0,0-.743-14.879,50.953,50.953,0,0,0-2.151-7.214A48.918,48.918,0,0,0,3119.147,1602.009Z" transform="translate(-2909.455 -1516.712)" fill="#91b3fa"/>
      </g>
      <path id="Path_14631" data-name="Path 14631" d="M2719.082,1653.721c-.311,2.386,21.07,25.617,27.358,54.764s4.173,48.609,4.173,48.609-6.388,4.764-4.091,8.143,1.691,5.678,4.626,6.334,6.576,1.579,6.132-4.215,6.473-6.962,5.324-10.465c-1.144-3.486,6.685-97.553-31.184-123.068q-.268-.181-.539-.357C2719.078,1640.892,2719.519,1650.363,2719.082,1653.721Z" transform="translate(-2600.156 -1541.571)" fill="url(#linear-gradient-18)"/>
    </g>
  </g>
</svg>
