<svg xmlns="http://www.w3.org/2000/svg" width="247" height="77.757" viewBox="0 0 247 77.757">
  <g id="logowhite_en" transform="translate(3194 9904.5)">
    <path id="Path_10028" data-name="Path 10028" d="M-1732.059,4625.941c-23.388,0-42.348,15.738-42.348,35.157,0,12.592,7.976,23.644,19.965,29.845,0,0,.621,4.716-5.94,10.422,0,0,4.453,1.44,15.17-5.706l10.669.54q1.23.051,2.483.05c23.392,0,42.351-15.731,42.351-35.15S-1708.668,4625.941-1732.059,4625.941Zm-19.895,23.809a4.66,4.66,0,0,1,4.666-4.655,4.662,4.662,0,0,1,4.669,4.655,4.665,4.665,0,0,1-4.669,4.663A4.664,4.664,0,0,1-1751.954,4649.75Zm31.446,23.667c-2.234,2.517-6.181,3.752-11.715,3.641s-9.429-1.47-11.554-4.065a7.034,7.034,0,0,1-1.615-5.179l.018-1c.041-1.839,1.542-1.968,3.376-1.671l1.11.192c1.839.3,3.322.934,3.287,2.777l-.021,1.113c-.024.8-1.2,3.269,5.49,3.388s5.62-2.374,5.635-3.186l.024-1.1c.04-1.852,1.551-2.425,3.4-2.663l1.114-.138c1.85-.246,3.342-.062,3.3,1.776l-.017,1.005A7.1,7.1,0,0,1-1720.508,4673.417Zm3.679-19a4.664,4.664,0,0,1-4.667-4.663,4.661,4.661,0,0,1,4.667-4.655,4.661,4.661,0,0,1,4.667,4.655A4.665,4.665,0,0,1-1716.829,4654.413Z" transform="translate(-1419.593 -14528.227)" fill="#fff"/>
    <text id="VBot" transform="translate(-3093 -9871.5)" fill="#fff" stroke="rgba(0,0,0,0)" stroke-miterlimit="10" stroke-width="1" font-size="34" font-family="Roboto-Bold, Roboto" font-weight="700"><tspan x="0" y="0">VBot</tspan></text>
    <text id="Help_you_succeed_" data-name="Help you succeed!" transform="translate(-3092 -9838.203)" fill="#fff" stroke="rgba(0,0,0,0)" stroke-miterlimit="10" stroke-width="1" font-size="18" font-family="Roboto-Italic, Roboto" font-style="italic"><tspan x="0" y="0">Help you succeed!</tspan></text>
  </g>
</svg>
