<svg xmlns="http://www.w3.org/2000/svg" width="1604" height="1604" viewBox="0 0 1604 1604">
  <g id="Group_2735" data-name="Group 2735" transform="translate(11659 -10674)">
    <rect id="Rectangle_3487" data-name="Rectangle 3487" width="1604" height="1604" transform="translate(-11659 10674)" fill="none"/>
    <g id="_7" data-name="7" transform="translate(-19505 5992)">
      <rect id="Rectangle_2525" data-name="Rectangle 2525" width="1604" height="0.802" transform="translate(7846 5936.444)" fill="#ebebeb"/>
      <rect id="Rectangle_2526" data-name="Rectangle 2526" width="106.256" height="0.802" transform="translate(9183.028 5988.08)" fill="#ebebeb"/>
      <rect id="Rectangle_2527" data-name="Rectangle 2527" width="27.888" height="0.802" transform="translate(8880.665 5996.786)" fill="#ebebeb"/>
      <rect id="Rectangle_2528" data-name="Rectangle 2528" width="61.569" height="0.802" transform="translate(9118.246 5958.291)" fill="#ebebeb"/>
      <rect id="Rectangle_2529" data-name="Rectangle 2529" width="138.564" height="0.802" transform="translate(8014.288 5963.681)" fill="#ebebeb"/>
      <rect id="Rectangle_2530" data-name="Rectangle 2530" width="20.316" height="0.802" transform="translate(8181.415 5963.681)" fill="#ebebeb"/>
      <rect id="Rectangle_2531" data-name="Rectangle 2531" width="300.512" height="0.802" transform="translate(8267.76 5977.227)" fill="#ebebeb"/>
      <path id="Path_11748" data-name="Path 11748" d="M675.98,962.326H56.518a18.334,18.334,0,0,1-18.311-18.311V73.261A18.331,18.331,0,0,1,56.518,54.953H675.98a18.33,18.33,0,0,1,18.308,18.308V944.015A18.333,18.333,0,0,1,675.98,962.326ZM56.518,55.755A17.527,17.527,0,0,0,39.009,73.261V944.015a17.527,17.527,0,0,0,17.509,17.509H675.98a17.527,17.527,0,0,0,17.506-17.509V73.261A17.526,17.526,0,0,0,675.98,55.755Z" transform="translate(7930.361 4831.047)" fill="#ebebeb"/>
      <path id="Path_11749" data-name="Path 11749" d="M892.271,962.326H272.813a18.331,18.331,0,0,1-18.308-18.311V73.261a18.328,18.328,0,0,1,18.308-18.308H892.271a18.332,18.332,0,0,1,18.315,18.308V944.015A18.334,18.334,0,0,1,892.271,962.326ZM272.813,55.755a17.526,17.526,0,0,0-17.506,17.506V944.015a17.527,17.527,0,0,0,17.506,17.509H892.271a17.53,17.53,0,0,0,17.512-17.509V73.261a17.529,17.529,0,0,0-17.512-17.506Z" transform="translate(8407.948 4831.047)" fill="#ebebeb"/>
      <g id="Group_2254" data-name="Group 2254" transform="translate(8022.54 5123.423)">
        <path id="Path_11750" data-name="Path 11750" d="M256.952,153.035H78.877L81.6,128.963H259.679Z" transform="translate(-2.379 -128.963)" fill="#f5f5f5"/>
        <path id="Path_11751" data-name="Path 11751" d="M252.978,188.117H74.9l2.727-24.072H255.7Z" transform="translate(-11.155 -51.503)" fill="#f5f5f5"/>
        <path id="Path_11752" data-name="Path 11752" d="M249,223.2H70.928l2.727-24.072H251.73Z" transform="translate(-19.93 25.958)" fill="#f5f5f5"/>
        <path id="Path_11753" data-name="Path 11753" d="M245.029,258.28H66.954l2.727-24.072H247.756Z" transform="translate(-28.705 103.418)" fill="#f5f5f5"/>
        <path id="Path_11754" data-name="Path 11754" d="M241.054,293.362H62.98l2.727-24.072H243.782Z" transform="translate(-37.48 180.878)" fill="#f5f5f5"/>
        <path id="Path_11755" data-name="Path 11755" d="M237.08,328.443H59.006l2.727-24.072H239.807Z" transform="translate(-46.256 258.338)" fill="#f5f5f5"/>
        <path id="Path_11756" data-name="Path 11756" d="M233.106,363.525H55.031l2.727-24.072H235.833Z" transform="translate(-55.031 335.799)" fill="#f5f5f5"/>
      </g>
      <g id="Group_2255" data-name="Group 2255" transform="translate(7993.938 5075.519)">
        <path id="Path_11757" data-name="Path 11757" d="M74,975.768H46.115L143.74,114.03h27.884Z" transform="translate(-46.115 -114.03)" fill="#ebebeb"/>
        <path id="Path_11758" data-name="Path 11758" d="M130.561,975.768H102.677L200.3,114.03h27.884Z" transform="translate(78.773 -114.03)" fill="#ebebeb"/>
      </g>
      <rect id="Rectangle_2532" data-name="Rectangle 2532" width="335.865" height="911.13" transform="translate(8935.576 5026.125)" fill="#f5f5f5"/>
      <g id="Group_2257" data-name="Group 2257" transform="translate(8953.963 5046.132)">
        <rect id="Rectangle_2533" data-name="Rectangle 2533" width="299.093" height="148.624" transform="translate(0 0)" fill="#ebebeb"/>
        <rect id="Rectangle_2534" data-name="Rectangle 2534" width="92.493" height="92.493" transform="translate(37.4 56.131)" fill="#f0f0f0"/>
        <rect id="Rectangle_2535" data-name="Rectangle 2535" width="65.832" height="65.832" transform="translate(163.111 82.791)" fill="#f0f0f0"/>
      </g>
      <g id="Group_2258" data-name="Group 2258" transform="translate(8953.963 5210.347)">
        <rect id="Rectangle_2536" data-name="Rectangle 2536" width="299.093" height="148.624" transform="translate(0 0)" fill="#ebebeb"/>
        <rect id="Rectangle_2537" data-name="Rectangle 2537" width="44.526" height="92.493" transform="translate(37.4 56.13)" fill="#f0f0f0"/>
        <rect id="Rectangle_2538" data-name="Rectangle 2538" width="99.05" height="37.905" transform="translate(129.893 110.718)" fill="#f0f0f0"/>
        <rect id="Rectangle_2539" data-name="Rectangle 2539" width="96.169" height="56.563" transform="translate(111.078 54.155)" fill="#f0f0f0"/>
      </g>
      <g id="Group_2259" data-name="Group 2259" transform="translate(8953.963 5374.563)">
        <rect id="Rectangle_2540" data-name="Rectangle 2540" width="299.093" height="148.624" transform="translate(0 0)" fill="#ebebeb"/>
        <rect id="Rectangle_2541" data-name="Rectangle 2541" width="18.815" height="92.493" transform="translate(111.078 56.13)" fill="#f0f0f0"/>
        <rect id="Rectangle_2542" data-name="Rectangle 2542" width="115.488" height="125.175" transform="translate(163.111 23.449)" fill="#f0f0f0"/>
      </g>
      <g id="Group_2260" data-name="Group 2260" transform="translate(8953.963 5538.781)">
        <rect id="Rectangle_2543" data-name="Rectangle 2543" width="299.093" height="148.624" transform="translate(0 0)" fill="#ebebeb"/>
        <rect id="Rectangle_2544" data-name="Rectangle 2544" width="92.493" height="92.493" transform="translate(37.4 56.13)" fill="#f0f0f0"/>
        <rect id="Rectangle_2545" data-name="Rectangle 2545" width="65.832" height="65.832" transform="translate(163.111 82.791)" fill="#f0f0f0"/>
      </g>
      <g id="Group_2261" data-name="Group 2261" transform="translate(8953.963 5702.997)">
        <rect id="Rectangle_2546" data-name="Rectangle 2546" width="299.093" height="148.624" transform="translate(0 0)" fill="#ebebeb"/>
        <rect id="Rectangle_2547" data-name="Rectangle 2547" width="92.493" height="92.493" transform="translate(37.4 56.13)" fill="#f0f0f0"/>
        <rect id="Rectangle_2548" data-name="Rectangle 2548" width="65.832" height="65.832" transform="translate(163.111 82.791)" fill="#f0f0f0"/>
      </g>
      <rect id="Rectangle_2549" data-name="Rectangle 2549" width="101.307" height="45.824" transform="translate(8982.549 4980.302)" fill="#f0f0f0"/>
      <rect id="Rectangle_2550" data-name="Rectangle 2550" width="52.139" height="22.912" transform="translate(9122.677 5003.214)" fill="#f0f0f0"/>
      <rect id="Rectangle_2551" data-name="Rectangle 2551" width="290.879" height="260.855" transform="translate(8449.222 5937.255) rotate(180)" fill="#ebebeb"/>
      <rect id="Rectangle_2552" data-name="Rectangle 2552" width="101.233" height="260.855" transform="translate(8449.222 5937.255) rotate(180)" fill="#e0e0e0"/>
      <rect id="Rectangle_2553" data-name="Rectangle 2553" width="290.879" height="212.336" transform="translate(8391.334 5681.778) rotate(180)" fill="#f5f5f5"/>
      <rect id="Rectangle_2554" data-name="Rectangle 2554" width="101.233" height="212.336" transform="translate(8391.334 5681.778) rotate(180)" fill="#ebebeb"/>
      <rect id="Rectangle_2555" data-name="Rectangle 2555" width="280.495" height="103.928" transform="translate(8449.222 5469.435) rotate(180)" fill="#fafafa"/>
      <rect id="Rectangle_2556" data-name="Rectangle 2556" width="97.619" height="103.928" transform="translate(8449.222 5469.435) rotate(180)" fill="#f0f0f0"/>
      <rect id="Rectangle_2557" data-name="Rectangle 2557" width="397.356" height="22.912" transform="translate(8056.693 4980.302)" fill="#f0f0f0"/>
      <rect id="Rectangle_2558" data-name="Rectangle 2558" width="57.703" height="32.389" transform="translate(8086.288 4947.913)" fill="#f5f5f5"/>
      <rect id="Rectangle_2559" data-name="Rectangle 2559" width="61.155" height="61.155" transform="translate(8157.304 4919.147)" fill="#f0f0f0"/>
      <rect id="Rectangle_2560" data-name="Rectangle 2560" width="30.577" height="30.577" transform="translate(8240.488 4949.725)" fill="#ebebeb"/>
      <path id="Path_11759" data-name="Path 11759" d="M170.429,90.645A15.828,15.828,0,1,1,154.6,74.817,15.828,15.828,0,0,1,170.429,90.645Z" transform="translate(8152.409 4874.907)" fill="#f5f5f5"/>
      <path id="Path_11760" data-name="Path 11760" d="M154.881,126.441,174.1,65.286h31.734l17.535,62.234Z" transform="translate(8187.979 4853.861)" fill="#ebebeb"/>
      <path id="Path_11761" data-name="Path 11761" d="M121.924,195.684c89.564-190.712,407.6-163.807,530.337-29.69S814.891,386.06,925.608,335.96s251.886-36.7,259.983,122.433S1063.969,805.7,858.09,861.366s-205.828,252.659-478.313,212.909C231.214,1052.6,227.83,891.868,248.81,758.925S18.052,416.856,121.924,195.684Z" transform="translate(8059.491 4840.039)" fill="#407bff"/>
      <path id="Path_11762" data-name="Path 11762" d="M121.924,195.684c89.564-190.712,407.6-163.807,530.337-29.69S814.891,386.06,925.608,335.96s251.886-36.7,259.983,122.433S1063.969,805.7,858.09,861.366s-205.828,252.659-478.313,212.909C231.214,1052.6,227.83,891.868,248.81,758.925S18.052,416.856,121.924,195.684Z" transform="translate(8059.491 4840.039)" fill="#fff" opacity="0.9"/>
      <ellipse id="_Path_" data-name="&lt;Path&gt;" cx="621.996" cy="36.325" rx="621.996" ry="36.325" transform="translate(8026.005 6008.677)" fill="#f5f5f5"/>
      <path id="Path_11763" data-name="Path 11763" d="M650.664,127.194V1078.27a13.888,13.888,0,0,1-14.1,13.907H193.934a12.307,12.307,0,0,1-8.851-3.567,12.679,12.679,0,0,1-3.766-9.181V126.036c0-6.208,4.591-11.658,10.8-11.658H317.827a8.863,8.863,0,0,1,8.094,5.649l5.216,12.813a8.848,8.848,0,0,0,8.094,5.617H493.048a8.747,8.747,0,0,0,8.091-5.518l5.219-12.88a8.86,8.86,0,0,1,8.094-5.681H638.345C645.181,114.378,650.664,120.322,650.664,127.194Z" transform="translate(8246.348 4962.258)" fill="#1cab4e"/>
      <g id="Group_2271" data-name="Group 2271" transform="translate(8454.049 5097.499)">
        <g id="Group_2269" data-name="Group 2269" transform="translate(0 0)">
          <rect id="Rectangle_2561" data-name="Rectangle 2561" width="6.54" height="8.719" transform="translate(38.518 17.446) rotate(180)" fill="#fff" opacity="0.6" style="isolation: isolate"/>
          <rect id="Rectangle_2562" data-name="Rectangle 2562" width="6.54" height="11.628" transform="translate(27.859 17.446) rotate(180)" fill="#fff" opacity="0.6" style="isolation: isolate"/>
          <rect id="Rectangle_2563" data-name="Rectangle 2563" width="6.541" height="14.537" transform="translate(17.2 17.446) rotate(180)" fill="#fff" opacity="0.6" style="isolation: isolate"/>
          <rect id="Rectangle_2564" data-name="Rectangle 2564" width="6.541" height="17.446" transform="translate(6.541 17.446) rotate(180)" fill="#fff" opacity="0.6" style="isolation: isolate"/>
        </g>
        <g id="Group_2270" data-name="Group 2270" transform="translate(379.164 2.362)">
          <rect id="Rectangle_2565" data-name="Rectangle 2565" width="3.876" height="8.719" transform="translate(0 3.182)" fill="#fff" opacity="0.6" style="isolation: isolate"/>
          <rect id="Rectangle_2566" data-name="Rectangle 2566" width="30.887" height="15.084" transform="translate(37.428 15.084) rotate(180)" fill="#fff" opacity="0.6" style="isolation: isolate"/>
        </g>
      </g>
      <g id="Group_2272" data-name="Group 2272" transform="translate(8427.675 5076.629)" opacity="0.1" style="isolation: isolate">
        <path id="Path_11764" data-name="Path 11764" d="M392.464,138.446,257.35,644.556v.029l-1.5,5.688v.029l-2.438,9.117v.029l-1.533,5.685L181.32,929.41V609.566l132.2-495.19h4.3a8.851,8.851,0,0,1,8.094,5.656l5.207,12.819a8.838,8.838,0,0,0,8.091,5.595Z" transform="translate(-181.32 -114.376)" fill="#fff"/>
        <path id="Path_11765" data-name="Path 11765" d="M455.37,202.449V522.3L371.1,837.959l-2.045,7.672-13.9,52.079H269.769l13.9-52.049,2.226-8.364,11.162-41.82,2.226-8.364,4.483-16.728,2.227-8.364,4.453-16.728,2.226-8.364,70.251-263.1v-.03l3.25-12.155v-.03Z" transform="translate(13.974 80.09)" fill="#fff"/>
        <path id="Path_11766" data-name="Path 11766" d="M438.736,121.879,304.462,624.829l-.812,3.009-7.34,27.56L295.5,658.4,185.083,1072.06a12.723,12.723,0,0,1-3.763-9.207V1014.2L276.3,658.4l.812-3.006,7.343-27.56.812-3.009,134.274-502.95Z" transform="translate(-181.32 -97.809)" fill="#fff"/>
      </g>
      <rect id="Rectangle_2567" data-name="Rectangle 2567" width="469.346" height="873.69" transform="translate(8427.665 5138.629)" fill="#fff" opacity="0.3" style="isolation: isolate"/>
      <path id="Path_11767" data-name="Path 11767" d="M310.724,453.522h0a16.348,16.348,0,0,0,16.348-16.348V179.084a16.35,16.35,0,0,0-16.348-16.348h0a16.35,16.35,0,0,0-16.351,16.348v258.09A16.348,16.348,0,0,0,310.724,453.522Z" transform="translate(8495.976 5069.031)" fill="#1cab4e"/>
      <path id="Path_11768" data-name="Path 11768" d="M306.308,442.69a9.947,9.947,0,0,1-9.935-9.932V174.668a9.932,9.932,0,1,1,19.864,0v258.09A9.941,9.941,0,0,1,306.308,442.69Z" transform="translate(8500.393 5073.448)" opacity="0.3" style="isolation: isolate"/>
      <circle id="Ellipse_554" data-name="Ellipse 554" cx="23.703" cy="23.703" r="23.703" transform="matrix(0.16, -0.987, 0.987, 0.16, 8779.505, 5293.147)" fill="#1cab4e"/>
      <path id="Path_11769" data-name="Path 11769" d="M280.724,453.522h0a16.348,16.348,0,0,0,16.348-16.348V179.084a16.35,16.35,0,0,0-16.348-16.348h0a16.351,16.351,0,0,0-16.351,16.348v258.09A16.348,16.348,0,0,0,280.724,453.522Z" transform="translate(8429.735 5069.031)" fill="#1cab4e"/>
      <path id="Path_11770" data-name="Path 11770" d="M276.308,442.69a9.947,9.947,0,0,1-9.935-9.932V174.668a9.932,9.932,0,1,1,19.864,0v258.09A9.941,9.941,0,0,1,276.308,442.69Z" transform="translate(8434.152 5073.448)" opacity="0.3" style="isolation: isolate"/>
      <circle id="Ellipse_555" data-name="Ellipse 555" cx="23.703" cy="23.703" r="23.703" transform="matrix(0.16, -0.987, 0.987, 0.16, 8683.265, 5485.627)" fill="#1cab4e"/>
      <path id="Path_11771" data-name="Path 11771" d="M250.724,453.522h0a16.348,16.348,0,0,0,16.348-16.348V179.084a16.35,16.35,0,0,0-16.348-16.348h0a16.351,16.351,0,0,0-16.351,16.348v258.09A16.348,16.348,0,0,0,250.724,453.522Z" transform="translate(8363.495 5069.031)" fill="#1cab4e"/>
      <path id="Path_11772" data-name="Path 11772" d="M246.308,442.69a9.947,9.947,0,0,1-9.935-9.932V174.668a9.932,9.932,0,1,1,19.864,0v258.09A9.941,9.941,0,0,1,246.308,442.69Z" transform="translate(8367.911 5073.448)" opacity="0.3" style="isolation: isolate"/>
      <circle id="Ellipse_556" data-name="Ellipse 556" cx="23.703" cy="23.703" r="23.703" transform="matrix(0.16, -0.987, 0.987, 0.16, 8587.024, 5357.307)" fill="#1cab4e"/>
      <path id="Path_11773" data-name="Path 11773" d="M220.724,453.522h0a16.348,16.348,0,0,0,16.348-16.348V179.084a16.35,16.35,0,0,0-16.348-16.348h0a16.351,16.351,0,0,0-16.351,16.348v258.09A16.348,16.348,0,0,0,220.724,453.522Z" transform="translate(8297.256 5069.031)" fill="#1cab4e"/>
      <path id="Path_11774" data-name="Path 11774" d="M216.308,442.69a9.947,9.947,0,0,1-9.935-9.932V174.668a9.932,9.932,0,1,1,19.864,0v258.09A9.941,9.941,0,0,1,216.308,442.69Z" transform="translate(8301.671 5073.448)" opacity="0.3" style="isolation: isolate"/>
      <circle id="Ellipse_557" data-name="Ellipse 557" cx="23.703" cy="23.703" r="23.703" transform="matrix(0.16, -0.987, 0.987, 0.16, 8490.785, 5453.547)" fill="#1cab4e"/>
      <circle id="Ellipse_558" data-name="Ellipse 558" cx="23.703" cy="23.703" r="23.703" transform="matrix(0.16, -0.987, 0.987, 0.16, 8779.505, 5293.147)" fill="#fff" opacity="0.6"/>
      <path id="Path_11775" data-name="Path 11775" d="M311.369,204.944a17.286,17.286,0,1,1,17.285-17.285A17.3,17.3,0,0,1,311.369,204.944Z" transform="translate(8495.331 5085.889)" fill="#fff" opacity="0.6"/>
      <circle id="Ellipse_559" data-name="Ellipse 559" cx="23.703" cy="23.703" r="23.703" transform="matrix(0.16, -0.987, 0.987, 0.16, 8683.265, 5485.627)" fill="#fff" opacity="0.6"/>
      <path id="Path_11776" data-name="Path 11776" d="M281.369,264.944a17.286,17.286,0,1,1,17.285-17.285A17.3,17.3,0,0,1,281.369,264.944Z" transform="translate(8429.091 5218.37)" fill="#fff" opacity="0.6"/>
      <circle id="Ellipse_560" data-name="Ellipse 560" cx="23.703" cy="23.703" r="23.703" transform="matrix(0.16, -0.987, 0.987, 0.16, 8587.024, 5357.307)" fill="#fff" opacity="0.6"/>
      <path id="Path_11777" data-name="Path 11777" d="M251.369,224.944a17.286,17.286,0,1,1,17.285-17.285A17.3,17.3,0,0,1,251.369,224.944Z" transform="translate(8362.851 5130.049)" fill="#fff" opacity="0.6"/>
      <circle id="Ellipse_561" data-name="Ellipse 561" cx="23.703" cy="23.703" r="23.703" transform="matrix(0.16, -0.987, 0.987, 0.16, 8490.785, 5453.547)" fill="#fff" opacity="0.6"/>
      <path id="Path_11778" data-name="Path 11778" d="M221.369,254.944a17.286,17.286,0,1,1,17.285-17.285A17.3,17.3,0,0,1,221.369,254.944Z" transform="translate(8296.61 5196.29)" fill="#fff" opacity="0.6"/>
      <rect id="Rectangle_2568" data-name="Rectangle 2568" width="423.969" height="397.141" rx="2.751" transform="translate(8450.354 5580.886)" fill="#1cab4e"/>
      <rect id="Rectangle_2569" data-name="Rectangle 2569" width="423.969" height="397.141" rx="2.751" transform="translate(8450.354 5580.886)" opacity="0.3" style="isolation: isolate"/>
      <path id="Path_11779" data-name="Path 11779" d="M242.545,414v34.14l17.58,1.655a91.243,91.243,0,0,0,13.111,31.535l-11.292,13.637,24.14,24.144,13.64-11.292a91.224,91.224,0,0,0,31.531,13.111l1.655,17.58h34.14l1.655-17.58a91.189,91.189,0,0,0,31.535-13.111l13.64,11.292,24.14-24.144-11.289-13.637A91.3,91.3,0,0,0,439.84,449.8l17.58-1.655V414l-17.58-1.655a91.233,91.233,0,0,0-13.108-31.535l11.289-13.64-24.14-24.137-13.637,11.289a91.163,91.163,0,0,0-31.538-13.108l-1.655-17.58h-34.14l-1.655,17.58a91.157,91.157,0,0,0-31.531,13.108l-13.64-11.289-24.14,24.137,11.292,13.64a91.243,91.243,0,0,0-13.111,31.535Zm107.436-29.148a46.218,46.218,0,1,1-46.215,46.218A46.219,46.219,0,0,1,349.981,384.856Z" transform="translate(8381.54 5424.303)" fill="#fff" opacity="0.6"/>
      <path id="Path_11780" data-name="Path 11780" d="M199.413,369.984v26.755l13.775,1.3a71.509,71.509,0,0,0,10.275,24.711l-8.848,10.686L233.53,452.35l10.689-8.848a71.458,71.458,0,0,0,24.711,10.275l1.3,13.772h26.752l1.3-13.772A71.458,71.458,0,0,0,322.985,443.5l10.689,8.848,18.918-18.918-8.851-10.686a71.507,71.507,0,0,0,10.275-24.711l13.775-1.3V369.984l-13.775-1.3a71.483,71.483,0,0,0-10.275-24.711l8.851-10.686-18.918-18.917-10.689,8.848a71.39,71.39,0,0,0-24.711-10.272l-1.3-13.775H270.226l-1.3,13.775a71.39,71.39,0,0,0-24.711,10.272l-10.689-8.848-18.914,18.917,8.848,10.686a71.484,71.484,0,0,0-10.275,24.711ZM283.6,347.146a36.215,36.215,0,1,1-36.215,36.215A36.216,36.216,0,0,1,283.6,347.146Z" transform="translate(8286.304 5370.287)" fill="#fff" opacity="0.4"/>
      <path id="Path_11781" data-name="Path 11781" d="M245.923,336.437v22.472L257.494,360a59.991,59.991,0,0,0,8.626,20.756l-7.43,8.976,15.889,15.892,8.976-7.433a59.991,59.991,0,0,0,20.756,8.626l1.088,11.571h22.472l1.088-11.568a60.058,60.058,0,0,0,20.756-8.629l8.976,7.433,15.892-15.892-7.433-8.976A60.053,60.053,0,0,0,375.776,360l11.571-1.087V336.437L375.78,335.35a60.062,60.062,0,0,0-8.63-20.756l7.433-8.976-15.892-15.892-8.976,7.433a60.058,60.058,0,0,0-20.756-8.629l-1.088-11.568H305.4l-1.088,11.568a60.123,60.123,0,0,0-20.756,8.629l-8.976-7.433-15.889,15.892,7.43,8.976a60.06,60.06,0,0,0-8.629,20.756Zm70.711-19.181a30.418,30.418,0,1,1-30.418,30.418A30.42,30.42,0,0,1,316.634,317.257Z" transform="translate(8388.998 5321.241)" fill="#fff" opacity="0.2"/>
      <path id="Path_11782" data-name="Path 11782" d="M269.159,336.248,250.3,317.385l-25.768,6.9-6.9,25.768,18.863,18.863,25.768-6.9Z" transform="translate(8326.514 5410.496)" fill="#fff" opacity="0.6"/>
      <path id="Path_11783" data-name="Path 11783" d="M301.178,346.908,270.7,359.695l-4.165,32.787,26.312,20L323.325,399.7l4.165-32.788Z" transform="translate(8434.51 5475.682)" fill="#fff" opacity="0.8"/>
      <path id="Path_11784" data-name="Path 11784" d="M299.952,325V303.123l-18.946-10.939L262.06,303.123V325l18.946,10.938Z" transform="translate(8424.628 5354.854)" fill="#fff" opacity="0.4"/>
      <path id="Path_11785" data-name="Path 11785" d="M424.042,237.611l34.127,27.72s8.347.173,10.968,2.929,12.7,23.239,11.267,26.033-18.273,8.315-21.824,5.011-9.717-22.254-9.6-24.278l-43.613-29.254Z" transform="translate(8741.062 5234.355)" fill="#b97964"/>
      <path id="Path_11786" data-name="Path 11786" d="M485.67,320.788l-7.635,16.649s-46.933-21.975-57.1-34.775c-2.6-3.3-6.191-8.565-10.073-14.564-6.384-9.913-13.6-21.846-18.606-30.219-3.721-6.256-6.224-10.522-6.224-10.522l26.562-41.9c5.807,4.459,23.579,76.062,26.755,79.911S485.67,320.788,485.67,320.788Z" transform="translate(8698.354 5163.366)" fill="#263238"/>
      <path id="Path_11787" data-name="Path 11787" d="M406.576,273c-6.384-9.913-13.6-21.846-18.606-30.219L400.321,212.3S407.026,247.267,406.576,273Z" transform="translate(8702.638 5178.468)" opacity="0.2" style="isolation: isolate"/>
      <path id="Path_11788" data-name="Path 11788" d="M376.3,211.415l-35.987-25.584s-4.28-7.167-7.972-8.081-26.476.462-28.2,3.089,1.816,19.992,6.445,21.445,24.147-2.566,25.847-3.673l36.549,25.25Z" transform="translate(8516.561 5101.557)" fill="#b97964"/>
      <path id="Path_11789" data-name="Path 11789" d="M439.581,451.171l-20.137,3.555-8.259-27.458-7.535-25.2,23.219-8.11,6.742,30.288Z" transform="translate(8737.257 5579.568)" fill="#b97964"/>
      <path id="Path_11790" data-name="Path 11790" d="M433.687,424.773l-22.438,2.954-7.584-25.477L426.859,394Z" transform="translate(8737.29 5579.665)" opacity="0.2" style="isolation: isolate"/>
      <path id="Path_11791" data-name="Path 11791" d="M391.419,451H370.97l-3.359-27.438-3.038-25.608,24.276-3.69,1.373,30.092Z" transform="translate(8650.977 5580.248)" fill="#b97964"/>
      <path id="Path_11792" data-name="Path 11792" d="M390.221,425.88l-22.61-.993-3.038-26.408,24.276-4.09Z" transform="translate(8650.977 5580.522)" opacity="0.2" style="isolation: isolate"/>
      <g id="Group_2279" data-name="Group 2279" transform="translate(8968.468 5494.782)">
        <path id="Path_11793" data-name="Path 11793" d="M554.3,732.352,521.2,738.187c-33.4-83.231-57.17-152.707-73.948-210.361-9.04-31.108-16.2-58.774-21.616-83.321l1.4,90.607V739.486H393.643C311.865,351.318,369.82,261.081,369.82,261.081l97.834-16.358c3.718,14.6,6.531,38.457,8.193,54.934l4.414,32.442,38.246,197.526Z" transform="translate(-349.896 -244.723)" fill="#1cab4e"/>
      </g>
      <path id="Path_11794" data-name="Path 11794" d="M401.676,406.641l41.064-13.614-.556,17.467-33.961,10.832Z" transform="translate(8732.901 5577.516)" fill="#1cab4e"/>
      <path id="Path_11795" data-name="Path 11795" d="M401.676,406.641l41.064-13.614-.556,17.467-33.961,10.832Z" transform="translate(8732.901 5577.516)" fill="#fff" opacity="0.6" style="isolation: isolate"/>
      <path id="Path_11796" data-name="Path 11796" d="M362.166,402.176l42.806-6.266-3.585,17.1-35.326,4.762Z" transform="translate(8645.662 5583.88)" fill="#1cab4e"/>
      <path id="Path_11797" data-name="Path 11797" d="M362.166,402.176l42.806-6.266-3.585,17.1-35.326,4.762Z" transform="translate(8645.662 5583.88)" fill="#fff" opacity="0.6" style="isolation: isolate"/>
      <path id="Path_11798" data-name="Path 11798" d="M400.967,483.8c-1.543-5.168-3.186-10.249-4.639-15.238-8.193-28.237-13.669-53.631-20.085-76.427v-.061L372.9,350.109S393.826,304,386,271.564c.725,1.845,14.574,37.187,9.133,72.5A1028.481,1028.481,0,0,0,400.967,483.8Z" transform="translate(8669.356 5309.323)" opacity="0.2" style="isolation: isolate"/>
      <path id="Path_11799" data-name="Path 11799" d="M415.331,251.2a4.7,4.7,0,0,1-.853.465,35.985,35.985,0,0,1-13.329,4.5c-13.65,1.335-22.469-1.659-27.592-8.424l-.032,0c-7.1-10.07-7.1-26.274-3.429-45.339,1.658-8.748,3.917-16.252,7.122-21.9.038-.058.067-.279.1-.334.151-.225.286-.549.436-.773,4.712-7.863,11.44-12.476,21.362-13.5a53.64,53.64,0,0,1,11.526.2C448.171,170.581,446.837,233.531,415.331,251.2Z" transform="translate(8657.806 5075.507)" fill="#b97964"/>
      <path id="Path_11800" data-name="Path 11800" d="M410.331,195.9a35.152,35.152,0,0,1-13.262,3.978c-13.65,1.331-22.411-2.095-27.525-8.95,6.32,2.287,15,3.965,24.028,1.145C399.26,190.313,405.06,192.347,410.331,195.9Z" transform="translate(8661.952 5131.275)" opacity="0.2" style="isolation: isolate"/>
      <path id="Path_11801" data-name="Path 11801" d="M410.052,230.959c3.368,10.487-10.076,16.21-10.076,16.21-23.637-7.462-29.032-19.113-29.032-19.113,17.955-11.729,9.74-39.112,9.74-39.112l4.036,1.517,27.547,2.634s-6.086,15.126-6.759,18.5c0,.032-.023.064-.019.093C402.083,229.342,410.052,230.959,410.052,230.959Z" transform="translate(8665.042 5126.898)" fill="#b97964"/>
      <path id="Path_11802" data-name="Path 11802" d="M371.032,186.194s-5.486,26.014,17.949,40.54c0,0,7.141,28.692,22.834,31.127,21.394,3.317,44.286-24.762,40.9-56.833C448.322,159.436,387.64,148.2,371.032,186.194Z" transform="translate(8664.008 5069.563)" fill="#263238"/>
      <path id="Path_11803" data-name="Path 11803" d="M372.932,186.243c.542-4.1,4.732-10.554,10.984-8.79,6.471,1.825,8.007,18.558-8.674,20.082C372.849,197.753,371.8,194.8,372.932,186.243Z" transform="translate(8668.426 5100.866)" fill="#b97964"/>
      <path id="Path_11804" data-name="Path 11804" d="M396.267,410.744h22.822a2.092,2.092,0,0,1,2.028,1.633L425.8,433.54a3.506,3.506,0,0,1-2.7,4.158,3.463,3.463,0,0,1-.773.074c-9.342-.151-10.093-.725-21.824-.725-7.224,0-29.023.757-39,.757s-11.276-9.858-7.2-10.763c18.321-3.991,32.109-9.525,37.973-14.786A5.751,5.751,0,0,1,396.267,410.744Z" transform="translate(8623.518 5616.63)" fill="#263238"/>
      <path id="Path_11805" data-name="Path 11805" d="M367.419,416.209A7.109,7.109,0,0,1,362.855,415a3.324,3.324,0,0,1-1.181-3.025,1.7,1.7,0,0,1,.969-1.572c2.627-1.36,10.307,3.355,11.154,3.9a.516.516,0,0,1,.273.545.569.569,0,0,1-.423.481A28.539,28.539,0,0,1,367.419,416.209Zm-3.538-4.931a1.3,1.3,0,0,0-.725.154c-.151,0-.334.212-.362.664a2.328,2.328,0,0,0,.754,2.024,11.549,11.549,0,0,0,8.466.423A23.131,23.131,0,0,0,363.881,411.279Z" transform="translate(8644.505 5615.338)" fill="#1cab4e"/>
      <path id="Path_11806" data-name="Path 11806" d="M370.168,419.06h-.273c-2.448-1.331-7.2-6.56-6.711-9.072A1.842,1.842,0,0,1,365,408.509a3.021,3.021,0,0,1,2.39.725c2.749,2.236,3.323,9.069,3.355,9.4a.6.6,0,0,1-.272.513A.5.5,0,0,1,370.168,419.06Zm-4.777-9.646h-.273c-.725,0-.786.423-.815.574-.3,1.543,2.72,5.5,5.168,7.35a13.319,13.319,0,0,0-2.81-7.439A1.951,1.951,0,0,0,365.391,409.414Z" transform="translate(8647.833 5611.64)" fill="#1cab4e"/>
      <path id="Path_11807" data-name="Path 11807" d="M438.7,410.744h22.822a2.088,2.088,0,0,1,2.024,1.633l4.687,21.163a3.508,3.508,0,0,1-2.7,4.158,3.463,3.463,0,0,1-.773.074c-9.342-.151-10.092-.725-21.824-.725-7.224,0-29.023.757-39,.757s-11.276-9.858-7.2-10.763c18.321-3.991,32.106-9.525,37.973-14.786A5.75,5.75,0,0,1,438.7,410.744Z" transform="translate(8717.216 5616.63)" fill="#263238"/>
      <path id="Path_11808" data-name="Path 11808" d="M409.852,416.209A7.119,7.119,0,0,1,405.288,415a3.322,3.322,0,0,1-1.177-3.025,1.7,1.7,0,0,1,.966-1.572c2.631-1.36,10.311,3.355,11.158,3.9a.516.516,0,0,1,.273.545.573.573,0,0,1-.423.481A28.537,28.537,0,0,1,409.852,416.209Zm-3.535-4.931a1.293,1.293,0,0,0-.725.154c-.151,0-.334.212-.362.664a2.328,2.328,0,0,0,.754,2.024,11.548,11.548,0,0,0,8.466.423A23.13,23.13,0,0,0,406.317,411.279Z" transform="translate(8738.204 5615.338)" fill="#1cab4e"/>
      <path id="Path_11809" data-name="Path 11809" d="M412.6,419.06h-.273c-2.448-1.331-7.2-6.56-6.711-9.072a1.842,1.842,0,0,1,1.813-1.479,3.021,3.021,0,0,1,2.39.725c2.749,2.236,3.323,9.069,3.355,9.4a.6.6,0,0,1-.273.513A.5.5,0,0,1,412.6,419.06Zm-4.777-9.646h-.273c-.725,0-.786.423-.818.574-.3,1.543,2.724,5.5,5.171,7.35a13.344,13.344,0,0,0-2.81-7.439A1.951,1.951,0,0,0,407.827,409.414Z" transform="translate(8741.532 5611.64)" fill="#1cab4e"/>
      <path id="Path_11810" data-name="Path 11810" d="M359.823,363.449s-18.664-113.72,13.413-164.705c0,0,64.067-3.981,109.139,22.036,0,0-18.622,50.629-21.4,142.669Z" transform="translate(8628.568 5148.053)" fill="#263238"/>
      <path id="Path_11811" data-name="Path 11811" d="M354.468,269.207c-1.383-15.43,3.083-30.283,3.853-43.372,11.773-9.816,21.086-24.044,21.086-24.044S385.242,247.861,354.468,269.207Z" transform="translate(8628.082 5155.265)" opacity="0.2" style="isolation: isolate"/>
      <path id="Path_11812" data-name="Path 11812" d="M456.8,229.121s-63.49-7.443-73.04-11.449c-5.98-2.505-52.65-33-52.65-33l-10.939,16.293s47.748,38.56,55.816,42.99c18.937,10.4,61.478,25.064,61.478,25.064S463.172,251.151,456.8,229.121Z" transform="translate(8552.938 5117.457)" fill="#263238"/>
      <path id="Path_11813" data-name="Path 11813" d="M391.82,175.824s21.776-18.523,43.4-6.875-3.558,56.528,2.759,70.281,20.024,12.736,2.733,21.789-.549,16.547-.549,16.547-15.472,5.245-16.746-7.494-6.852-23.284-11.857-25.465,8.488-26.37,3.8-38.332S397.1,195.329,397.1,195.329Z" transform="translate(8711.139 5074.258)" fill="#263238"/>
      <path id="Path_11814" data-name="Path 11814" d="M413.454,172.248s-27.47-17.211-40.4-4.972c-19.963,18.885,8.492,46.025,38.624,58.886Z" transform="translate(8654.996 5069.352)" fill="#263238"/>
      <path id="Path_11815" data-name="Path 11815" d="M426.48,500.1,201.464,249.562A54.8,54.8,0,0,0,141.584,172.8a3.854,3.854,0,0,0-2.22,6.361l29.514,32.86a4.837,4.837,0,0,1,1,4.729l-6.394,19.588a4.833,4.833,0,0,1-3.593,3.227l-20.162,4.257a4.818,4.818,0,0,1-4.591-1.5l-29.514-32.863A3.859,3.859,0,0,0,99.055,211a54.8,54.8,0,0,0,69.906,67.737L393.98,529.274a54.8,54.8,0,0,0,59.88,76.764,3.855,3.855,0,0,0,2.22-6.362l-29.514-32.863a4.831,4.831,0,0,1-1-4.725l6.394-19.588a4.827,4.827,0,0,1,3.593-3.227l20.162-4.26a4.833,4.833,0,0,1,4.591,1.5l29.514,32.863a3.854,3.854,0,0,0,6.564-1.533A54.8,54.8,0,0,0,426.48,500.1Z" transform="translate(8059.613 5089.207)" fill="#407bff"/>
      <path id="Path_11816" data-name="Path 11816" d="M426.48,500.1,201.464,249.562A54.8,54.8,0,0,0,141.584,172.8a3.854,3.854,0,0,0-2.22,6.361l29.514,32.86a4.837,4.837,0,0,1,1,4.729l-6.394,19.588a4.833,4.833,0,0,1-3.593,3.227l-20.162,4.257a4.818,4.818,0,0,1-4.591-1.5l-29.514-32.863A3.859,3.859,0,0,0,99.055,211a54.8,54.8,0,0,0,69.906,67.737L393.98,529.274a54.8,54.8,0,0,0,59.88,76.764,3.855,3.855,0,0,0,2.22-6.362l-29.514-32.863a4.831,4.831,0,0,1-1-4.725l6.394-19.588a4.827,4.827,0,0,1,3.593-3.227l20.162-4.26a4.833,4.833,0,0,1,4.591,1.5l29.514,32.863a3.854,3.854,0,0,0,6.564-1.533A54.8,54.8,0,0,0,426.48,500.1Z" transform="translate(8059.613 5089.207)" fill="#fff" opacity="0.7" style="isolation: isolate"/>
      <path id="Path_11817" data-name="Path 11817" d="M175.509,182.156s-66.794,8.764-75.465,20.679-9.152,22.976,30.348,34.306l11.562-8.418s-16.38-6.262-14.452-10.115,48.008-2.409,48.008-2.409Z" transform="translate(8056.369 5111.911)" fill="#e4897b"/>
      <path id="Path_11818" data-name="Path 11818" d="M169.753,183.465l-9.3,32.465L144.827,218.3l-32.722,4.972-.962-13.089-1.893-25.856S141.394,177.851,169.753,183.465Z" transform="translate(8087.224 5109.748)" fill="#1cab4e"/>
      <path id="Path_11819" data-name="Path 11819" d="M151.961,186.17l-8.437,21.109L110.8,212.251l-.962-13.089C126.457,186.234,151.961,186.17,151.961,186.17Z" transform="translate(8088.526 5120.774)" opacity="0.2" style="isolation: isolate"/>
      <path id="Path_11820" data-name="Path 11820" d="M120.965,450.371l26.017,2.727L148.3,438.02l3.561-41.03-26.017-2.759L121.9,439.56Z" transform="translate(8113.091 5580.172)" fill="#e4897b"/>
      <path id="Path_11821" data-name="Path 11821" d="M80.485,450.445H105.7l.225-5.71.032-.706,1.283-36.571.033-.738.513-14.019H82.538Z" transform="translate(8023.711 5576.794)" fill="#e4897b"/>
      <path id="Path_11822" data-name="Path 11822" d="M125.2,394.231l-3.946,45.329,26.4-1.54,3.561-41.03Z" transform="translate(8113.731 5580.172)" opacity="0.2" style="isolation: isolate"/>
      <path id="Path_11823" data-name="Path 11823" d="M80.535,436.2h.033l25.247-3.208h.032l1.316-35.288h-.033l-25.279,2.021L80.568,435.09Z" transform="translate(8023.822 5587.833)" opacity="0.2" style="isolation: isolate"/>
      <path id="Path_11824" data-name="Path 11824" d="M115.479,410.229H84.843a2.209,2.209,0,0,0-2.149,1.732l-4.972,22.456a3.721,3.721,0,0,0,2.871,4.411,3.888,3.888,0,0,0,.818.08c9.913-.16,17.131-.77,29.578-.77,7.667,0,30.8.8,41.383.8s11.966-10.458,7.635-11.421c-19.441-4.235-34.069-10.105-40.293-15.687A6.1,6.1,0,0,0,115.479,410.229Z" transform="translate(8017.428 5615.493)" fill="#263238"/>
      <path id="Path_11825" data-name="Path 11825" d="M155.979,409.979H125.343a2.209,2.209,0,0,0-2.149,1.732l-4.972,22.456a3.721,3.721,0,0,0,2.871,4.411,3.894,3.894,0,0,0,.818.08c9.913-.16,17.131-.77,29.578-.77,7.667,0,30.8.8,41.383.8s11.966-10.458,7.635-11.421c-19.44-4.235-34.069-10.105-40.292-15.687A6.1,6.1,0,0,0,155.979,409.979Z" transform="translate(8106.853 5614.941)" fill="#263238"/>
      <path id="Path_11826" data-name="Path 11826" d="M246.3,788.685H209.312S198.7,468.9,158.7,361.363c4.9,199.967-42.224,430.53-42.224,430.53H79.933s16.7-180.521,16.7-259.46c0-139.894-38.368-208.222-1.011-298.732H229.458C262.231,431.15,274.851,570.541,246.3,788.685Z" transform="translate(8021.04 5225.722)" fill="#263238"/>
      <path id="Path_11827" data-name="Path 11827" d="M163.959,403.451l-1.8,10.426H118.445v-9.624Z" transform="translate(8107.527 5600.53)" fill="#2fc864"/>
      <path id="Path_11828" data-name="Path 11828" d="M121.947,404.7l-4.194,9.624H81.1L78.7,404.7Z" transform="translate(8019.759 5603.291)" fill="#2fc864"/>
      <path id="Path_11829" data-name="Path 11829" d="M200.195,244.635a35.576,35.576,0,0,1-3,2.22,35.488,35.488,0,0,1-25.269,5.476,31.792,31.792,0,0,1-22.671-15.3,32.112,32.112,0,0,1-4.084-12.008c-2.554-17.776,6.487-29.411,20.194-50.3a34.2,34.2,0,0,1,58.228.69C237.308,198,217.909,229.814,200.195,244.635Z" transform="translate(8165.585 5060.316)" fill="#e4897b"/>
      <path id="Path_11830" data-name="Path 11830" d="M174.166,201.78a35.034,35.034,0,0,1-5.348-.449,31.792,31.792,0,0,1-22.671-15.3,37.153,37.153,0,0,1,8.62-4.148S168.109,188.916,174.166,201.78Z" transform="translate(8168.692 5111.317)" opacity="0.2" style="isolation: isolate"/>
      <path id="Path_11831" data-name="Path 11831" d="M136.306,222.241c3.224,16.284,29.866,30.89,29.866,30.89s18.157,7.054,18.485-.013c-7.805-8.058-9.034-15.4-6.878-22.023a32.089,32.089,0,0,1,6.625-10.824,65.742,65.742,0,0,1,4.947-5.117l-13.49-44.3C168.947,188.374,153.822,218.811,136.306,222.241Z" transform="translate(8146.964 5086.965)" fill="#e4897b"/>
      <path id="Path_11832" data-name="Path 11832" d="M241.208,190.475c-2.724-15.228-10.423-15.918-10.423-15.918-.741-12.133-29.356-24.387-48.065-20.457s-31.493,20.5-36.613,35.7c-7.462,22.148-2.961,49.647-2.961,49.647l.013.01c15.145,11.533,30.941,13.666,35.74,5.114s16.64-11.488,16.64-11.488c7.208,6.268,18.629.055,18.629.055s12.944-4.469,15.161-17.108S243.505,203.311,241.208,190.475Z" transform="translate(8159.096 5048.311)" fill="#263238"/>
      <path id="Path_11833" data-name="Path 11833" d="M159.4,182.661c-2.034,5.248-2.008,10.227.071,13.846,2.8,4.757,9.739.995,13.615-5.47,3.4-5.752,6.2-15.318,1.1-17.561S161.974,176.219,159.4,182.661Z" transform="translate(8194.638 5091.539)" fill="#e4897b"/>
      <path id="Path_11834" data-name="Path 11834" d="M159.393,154.237c28.141-8.4,50.779,37.787,49.666,62.267-.9,19.89-21.789,17.477-21.789,17.477s11.526-.767,10.413-14.741c0,0-4.995,17.1-16.188,5.88s2.063-37.973,2.063-37.973Z" transform="translate(8197.94 5048.043)" fill="#263238"/>
      <path id="Path_11835" data-name="Path 11835" d="M128.524,440.813a913.109,913.109,0,0,0-14.147-92.326C76.49,300.88,97.181,256.93,97.181,256.93,102.25,287.5,131.6,310.087,131.6,310.087,132.662,353.106,131.315,397.537,128.524,440.813Z" transform="translate(8048.125 5277.012)" opacity="0.2" style="isolation: isolate"/>
      <path id="Path_11836" data-name="Path 11836" d="M136.286,185.968s8.142-6.028,23.159,2.858,19.967,25.879,19.967,25.879Z" transform="translate(8146.92 5115.917)" fill="#1cab4e"/>
      <path id="Path_11837" data-name="Path 11837" d="M239.977,411.24s0-78.054,81.605-172.526c0,0-36.645-51.155-89.577-56.827,0,0-97.722,33.546-150.949,176.414Z" transform="translate(8024.971 5111.317)" fill="#407bff"/>
      <path id="Path_11838" data-name="Path 11838" d="M321.564,238.7q-12.944,15.013-23.258,29.385a366.9,366.9,0,0,0-32.08,53.092c-26.241,53.445-26.241,90.049-26.241,90.049L81.06,358.3C134.281,215.414,232,181.89,232,181.89,284.928,187.568,321.564,238.7,321.564,238.7Z" transform="translate(8024.98 5111.323)" fill="#fff" opacity="0.6" style="isolation: isolate"/>
      <g id="Group_2298" data-name="Group 2298" transform="translate(8108.189 5293.919)">
        <g id="Group_2287" data-name="Group 2287" transform="translate(0 164.089)">
          <path id="Path_11839" data-name="Path 11839" d="M239.467,286.609c-.353,2.631-.577,4.812-.706,6.544L81.73,239.227c.77-2.021,1.572-4.01,2.374-5.967Z" transform="translate(-81.73 -233.26)" fill="#1cab4e"/>
        </g>
        <g id="Group_2288" data-name="Group 2288" transform="translate(7.795 145.515)">
          <path id="Path_11840" data-name="Path 11840" d="M236.861,283.514c-.481,2.278-.93,4.4-1.283,6.384C181.17,268.885,119.223,245.435,84.16,233.309c.866-1.989,1.764-3.914,2.663-5.839C125.928,240.944,193.617,266.8,236.861,283.514Z" transform="translate(-84.16 -227.47)" fill="#1cab4e"/>
        </g>
        <g id="Group_2289" data-name="Group 2289" transform="translate(16.553 127.261)">
          <path id="Path_11841" data-name="Path 11841" d="M234.971,279.973c-.642,2.149-1.219,4.235-1.764,6.224-43.18-18.671-108.27-46.1-146.317-58.674.994-1.957,1.989-3.85,2.983-5.742C128.626,234.676,192.273,261.463,234.971,279.973Z" transform="translate(-86.89 -221.78)" fill="#1cab4e"/>
        </g>
        <g id="Group_2290" data-name="Group 2290" transform="translate(26.306 109.489)">
          <path id="Path_11842" data-name="Path 11842" d="M233.616,275.748c-.738,2.117-1.476,4.17-2.149,6.159-42.153-20.339-102.624-48.152-141.537-60.022,1.091-1.925,2.214-3.818,3.336-5.646C132.853,228.495,192.009,255.666,233.616,275.748Z" transform="translate(-89.93 -216.24)" fill="#1cab4e"/>
        </g>
        <g id="Group_2291" data-name="Group 2291" transform="translate(37.084 92.134)">
          <path id="Path_11843" data-name="Path 11843" d="M232.838,271.108c-.9,2.021-1.732,4.01-2.5,6-40.325-21.558-96.3-49.275-137.046-60.663,1.251-1.893,2.534-3.785,3.818-5.614C138.394,222.732,193.123,249.807,232.838,271.108Z" transform="translate(-93.29 -210.83)" fill="#1cab4e"/>
        </g>
        <g id="Group_2292" data-name="Group 2292" transform="translate(49.114 75.26)">
          <path id="Path_11844" data-name="Path 11844" d="M232.385,265.945c-.994,1.989-1.957,3.978-2.887,5.935-37.919-22.36-89.5-49.6-132.458-60.76,1.412-1.893,2.823-3.721,4.267-5.55C144.583,217.311,195.044,243.906,232.385,265.945Z" transform="translate(-97.04 -205.57)" fill="#1cab4e"/>
        </g>
        <g id="Group_2293" data-name="Group 2293" transform="translate(62.588 58.803)">
          <path id="Path_11845" data-name="Path 11845" d="M232.126,260.526c-1.123,1.957-2.181,3.882-3.24,5.774-35.192-22.713-82.7-49.147-127.646-60.439,1.6-1.861,3.208-3.657,4.876-5.422C151.092,212.278,197.512,238.1,232.126,260.526Z" transform="translate(-101.24 -200.44)" fill="#1cab4e"/>
        </g>
        <g id="Group_2294" data-name="Group 2294" transform="translate(77.73 42.923)">
          <path id="Path_11846" data-name="Path 11846" d="M231.714,255.063c-1.187,1.8-2.31,3.593-3.433,5.389-32.337-22.745-76.03-48.184-122.321-59.765,1.829-1.8,3.625-3.529,5.422-5.2C157.031,207.68,199.826,232.671,231.714,255.063Z" transform="translate(-105.96 -195.49)" fill="#1cab4e"/>
        </g>
        <g id="Group_2295" data-name="Group 2295" transform="translate(94.957 27.525)">
          <path id="Path_11847" data-name="Path 11847" d="M231.02,249.268c-1.251,1.764-2.47,3.5-3.689,5.2-29.353-22.424-69.389-46.741-116-58.8,2.117-1.732,4.17-3.4,6.191-4.972C163.043,203.362,202.116,227.2,231.02,249.268Z" transform="translate(-111.33 -190.69)" fill="#1cab4e"/>
        </g>
        <g id="Group_2296" data-name="Group 2296" transform="translate(114.782 13.024)">
          <path id="Path_11848" data-name="Path 11848" d="M229.6,243.112c-1.347,1.7-2.663,3.368-3.946,5.069-26.306-21.75-62.62-44.816-108.142-57.423,2.47-1.668,4.844-3.176,7.122-4.587C168.549,199.291,203.741,221.811,229.6,243.112Z" transform="translate(-117.51 -186.17)" fill="#1cab4e"/>
        </g>
        <g id="Group_2297" data-name="Group 2297" transform="translate(138.233 0)">
          <path id="Path_11849" data-name="Path 11849" d="M224.942,238.218c-.866.994-1.7,1.989-2.534,2.983a263.21,263.21,0,0,0-97.587-55.178c3.946-1.957,6.929-3.208,8.694-3.914A268.481,268.481,0,0,1,215.8,227.247a.031.031,0,0,1,.032.032A130.28,130.28,0,0,1,224.942,238.218Z" transform="translate(-124.82 -182.11)" fill="#1cab4e"/>
        </g>
      </g>
      <path id="Path_11850" data-name="Path 11850" d="M170.877,215.958a366.9,366.9,0,0,0-32.08,53.092c-1.027-41.127,29.642-63.551,29.642-63.551Z" transform="translate(8152.409 5163.455)" opacity="0.2" style="isolation: isolate"/>
      <path id="Path_11851" data-name="Path 11851" d="M177.861,207.123V306.01l38.284,68.882L231.9,392.436s-18.4,11.369-23.479,4.065-10.15-21.609-10.15-21.609-38.04-51.087-44-63.3-8.129-86-8.129-86Z" transform="translate(8168.692 5167.039)" fill="#e4897b"/>
      <path id="Path_11852" data-name="Path 11852" d="M183.695,199.6c6.028,16.685,5.98,73.537,5.98,73.537l-42.74,3.74-3.429-22.456s.311-20.355,14.7-40.462C167.992,200.288,183.695,199.6,183.695,199.6Z" transform="translate(8162.858 5150.429)" fill="#1cab4e"/>
    </g>
  </g>
</svg>
