<svg xmlns="http://www.w3.org/2000/svg" xmlns:xlink="http://www.w3.org/1999/xlink" width="1676" height="1616.002" viewBox="0 0 1676 1616.002">
  <defs>
    <clipPath id="clip-path">
      <path id="Path_11465" data-name="Path 11465" d="M368.349,739.68c19.682-58.687,72.578-99.648,126.4-130.218s112.279-55.152,157.3-97.628A257.959,257.959,0,0,0,726.1,382.06c9.535-42.153,4.6-93.657-31.285-117.743-21.886-14.691-50.992-15.455-76.034-7.223s-46.66,24.458-66.343,41.993C434.344,404.319,374.656,558.518,319.061,706.6c-4.456,11.867-8.987,24.326-7.379,36.9s11.551,25.062,24.226,24.874,21.978-18.5,12.251-26.634" transform="translate(-311.35 -251.846)" fill="none"/>
    </clipPath>
    <clipPath id="clip-path-2">
      <path id="Path_11479" data-name="Path 11479" d="M590.809,803.878C557.06,739.335,488,701.55,419.79,676.008s-140.685-43.26-200.876-84.269a303.482,303.482,0,0,1-110.1-137.057C89.914,407.47,86.1,346.706,123.329,312.065c22.71-21.126,56.388-27.41,87.013-22.49s58.751,19.767,84.869,36.493C451.944,426.444,549.888,594.547,641.945,756.3c7.375,12.963,14.951,26.6,15.419,41.5s-8.775,31.266-23.538,33.4-28.97-17.423-19.175-28.674" transform="translate(-94.835 -287.991)" fill="none"/>
    </clipPath>
    <linearGradient id="linear-gradient" x1="0.346" y1="0.641" x2="-0.805" y2="2.323" gradientUnits="objectBoundingBox">
      <stop offset="0" stop-color="#fff"/>
      <stop offset="1" stop-color="#d9b7b3"/>
    </linearGradient>
  </defs>
  <g id="Group_2735" data-name="Group 2735" transform="translate(11478 -9686.998)">
    <rect id="Rectangle_3487" data-name="Rectangle 3487" width="1676" height="1616" transform="translate(-11478 9687)" fill="none"/>
    <g id="_2" data-name="2" transform="translate(-18390.408 6037)">
      <g id="Group_2108" data-name="Group 2108" transform="translate(8173.514 4241.596)">
        <path id="Path_11452" data-name="Path 11452" d="M361.041,266.836a10.178,10.178,0,0,1,7.539-7.655,10.2,10.2,0,0,1,8.643-17.887l1.62.36,24.146,5.964s-.3-22.718,4.18-33.889,21.262-12.8,18.639.2-1.968,17.679,5.475,31.233a89.811,89.811,0,0,1,8.064,18.935,11.049,11.049,0,0,1,.1,5.336l-10.955,49a4.969,4.969,0,0,1-5.936,3.768l-58.783-13.139-1.62-.36c-5.508-1.232-9.539-6.367-7.875-11.763,1.368-4.416,7.259-4.892,7.259-4.892s-6.571-2.268-5.116-8.787c1.356-6.063,5.464-6.7,8.176-6.287a10.186,10.186,0,0,1-3.556-10.137Z" transform="translate(-353.902 -204.756)" fill="#7557e4"/>
        <rect id="Rectangle_2282" data-name="Rectangle 2282" width="69.72" height="34.629" rx="1.612" transform="translate(78.51 130.786) rotate(-77.401)" fill="#7557e4"/>
      </g>
      <g id="Group_2110" data-name="Group 2110" transform="translate(8003.319 4429.94)" clip-path="url(#clip-path)">
        <path id="Path_11453" data-name="Path 11453" d="M368.349,739.68c19.682-58.687,72.578-99.648,126.4-130.218s112.279-55.152,157.3-97.628A257.959,257.959,0,0,0,726.1,382.06c9.535-42.153,4.6-93.657-31.285-117.743-21.886-14.691-50.992-15.455-76.034-7.223s-46.66,24.458-66.343,41.993C434.344,404.319,374.656,558.518,319.061,706.6c-4.456,11.867-8.987,24.326-7.379,36.9s11.551,25.062,24.226,24.874,21.978-18.5,12.251-26.634" transform="translate(-311.35 -251.846)" fill="#788fec"/>
        <path id="Path_11454" data-name="Path 11454" d="M747.532,249.234S523.19,391.155,309.723,821.569" transform="translate(-316.231 -259.68)" fill="none" stroke="#fff" stroke-miterlimit="10" stroke-width="0.5"/>
        <path id="Path_11455" data-name="Path 11455" d="M389.32,386.818s-6.7-98.5,7.623-147.448" transform="translate(-82.157 -289.269)" fill="none" stroke="#fff" stroke-miterlimit="10" stroke-width="0.5"/>
        <path id="Path_11456" data-name="Path 11456" d="M381.188,284.644S513.622,326.7,583,297.279" transform="translate(-101.859 -153.462)" fill="none" stroke="#fff" stroke-miterlimit="10" stroke-width="0.5"/>
        <path id="Path_11457" data-name="Path 11457" d="M394.1,286.881s132.533,14.731,174.982-21.2" transform="translate(-63.115 -210.351)" fill="none" stroke="#fff" stroke-miterlimit="10" stroke-width="0.5"/>
        <path id="Path_11458" data-name="Path 11458" d="M407.3,400.436s-42.833-86.293-43.929-145.852" transform="translate(-155.301 -243.632)" fill="none" stroke="#fff" stroke-miterlimit="10" stroke-width="0.5"/>
        <path id="Path_11459" data-name="Path 11459" d="M366.045,301.786s175.87,67.287,237.441,8.435" transform="translate(-147.283 -102.041)" fill="none" stroke="#fff" stroke-miterlimit="10" stroke-width="0.5"/>
        <path id="Path_11460" data-name="Path 11460" d="M413.646,437.4S336.68,331.287,342.291,267.32" transform="translate(-219.414 -205.428)" fill="none" stroke="#fff" stroke-miterlimit="10" stroke-width="0.5"/>
        <path id="Path_11461" data-name="Path 11461" d="M355.456,316.8s119.919,62.179,160.659,53.476" transform="translate(-179.047 -57.001)" fill="none" stroke="#fff" stroke-miterlimit="10" stroke-width="0.5"/>
        <path id="Path_11462" data-name="Path 11462" d="M429.494,411.879S335.7,343.3,322.7,294.248" transform="translate(-277.31 -124.653)" fill="none" stroke="#fff" stroke-miterlimit="10" stroke-width="0.5"/>
        <path id="Path_11463" data-name="Path 11463" d="M343.967,333.368s110,66.379,192.689,55.48" transform="translate(-213.51 -7.305)" fill="none" stroke="#fff" stroke-miterlimit="10" stroke-width="0.5"/>
        <path id="Path_11464" data-name="Path 11464" d="M430.191,432.826s-111-76.09-124.314-120.335" transform="translate(-327.768 -69.929)" fill="none" stroke="#fff" stroke-miterlimit="10" stroke-width="0.5"/>
      </g>
      <path id="Path_11466" data-name="Path 11466" d="M345.3,567.218c10.1-38.917,44.045-67.8,80.974-83.693s77.374-21.178,116.751-29.3,79.5-19.926,110.043-46.072c13.359-11.435,24.906-26.186,27.938-43.509s-4.5-37.241-20.518-44.508c-25.346-11.5-51.856,11.8-71.082,31.917a724.969,724.969,0,0,1-160.033,125.98" transform="translate(7793.809 4373.787)" fill="#7557e4"/>
      <g id="Group_2112" data-name="Group 2112" transform="translate(7137.325 4574.511)" clip-path="url(#clip-path-2)">
        <path id="Path_11467" data-name="Path 11467" d="M590.809,803.878C557.06,739.335,488,701.55,419.79,676.008s-140.685-43.26-200.876-84.269a303.482,303.482,0,0,1-110.1-137.057C89.914,407.47,86.1,346.706,123.329,312.065c22.71-21.126,56.388-27.41,87.013-22.49s58.751,19.767,84.869,36.493C451.944,426.444,549.888,594.547,641.945,756.3c7.375,12.963,14.951,26.6,15.419,41.5s-8.775,31.266-23.538,33.4-28.97-17.423-19.175-28.674" transform="translate(-94.835 -287.991)" fill="#7557e4"/>
        <path id="Path_11468" data-name="Path 11468" d="M87,289.571s286.989,123.3,614.835,583.838" transform="translate(-118.336 -283.252)" fill="none" stroke="#fff" stroke-miterlimit="10" stroke-width="0.5"/>
        <path id="Path_11469" data-name="Path 11469" d="M155.22,442.622s-10.483-115.7-36.2-169.914" transform="translate(-22.289 -333.835)" fill="none" stroke="#fff" stroke-miterlimit="10" stroke-width="0.5"/>
        <path id="Path_11470" data-name="Path 11470" d="M311.817,323.67s-146.08,73.422-232.142,52.1" transform="translate(-140.309 -180.965)" fill="none" stroke="#fff" stroke-miterlimit="10" stroke-width="0.5"/>
        <path id="Path_11471" data-name="Path 11471" d="M275.609,310.188S124.345,351.877,68.357,318" transform="translate(-174.259 -221.407)" fill="none" stroke="#fff" stroke-miterlimit="10" stroke-width="0.5"/>
        <path id="Path_11472" data-name="Path 11472" d="M146.842,463.056s33.773-108.208,24-177.618" transform="translate(61.171 -295.649)" fill="none" stroke="#fff" stroke-miterlimit="10" stroke-width="0.5"/>
        <path id="Path_11473" data-name="Path 11473" d="M364.228,340.78S172.352,451.575,89.9,394.608" transform="translate(-109.631 -129.641)" fill="none" stroke="#fff" stroke-miterlimit="10" stroke-width="0.5"/>
        <path id="Path_11474" data-name="Path 11474" d="M167.109,507.143s69.754-137.573,51.372-210.855" transform="translate(121.966 -263.103)" fill="none" stroke="#fff" stroke-miterlimit="10" stroke-width="0.5"/>
        <path id="Path_11475" data-name="Path 11475" d="M306.141,356.263s-127.806,94.481-176.758,91.925" transform="translate(8.8 -83.197)" fill="none" stroke="#fff" stroke-miterlimit="10" stroke-width="0.5"/>
        <path id="Path_11476" data-name="Path 11476" d="M181.886,480.467s96.26-97.076,102.28-156.484" transform="translate(166.292 -180.027)" fill="none" stroke="#fff" stroke-miterlimit="10" stroke-width="0.5"/>
        <path id="Path_11477" data-name="Path 11477" d="M350.2,373.383S234.688,470.907,136.592,473.575" transform="translate(30.424 -31.842)" fill="none" stroke="#fff" stroke-miterlimit="10" stroke-width="0.5"/>
        <path id="Path_11478" data-name="Path 11478" d="M199.85,504.937s114.871-109,122.13-162.875" transform="translate(220.178 -125.795)" fill="none" stroke="#fff" stroke-miterlimit="10" stroke-width="0.5"/>
      </g>
      <path id="Path_11480" data-name="Path 11480" d="M286.572,598.369c22.022-26.27,62.223-24.526,96.273-20.506-12.983.868-24.5-12.231-23.4-25.194s13.131-23.586,26.1-24.666,25.83,6.4,32.845,17.363c-11.635-14.351-23.606-29.378-27.8-47.368s1.908-39.825,18.6-47.752c13.843-6.575,30.946-1.728,42.845,7.927s19.71,23.334,27.246,36.681c-.064-23.13-12.275-44.261-24.106-64.135s-24.01-41.037-23.99-64.167,17.475-47.916,40.585-46.992c22.962.912,37.629,24.574,45.648,46.108a318.586,318.586,0,0,1,19.55,127.262,341.551,341.551,0,0,1,43.4-129.41c2.78-4.8,5.9-9.743,10.771-12.4,8.3-4.516,19.235-.568,25.27,6.7s8.171,16.963,9.335,26.338a172,172,0,0,1-23.022,108.751c13.543-10.031,19.854-26.906,24.99-42.957s10.259-33.045,22.506-44.62,34.245-14.731,45.057-1.8c7.431,8.883,7.143,21.854,4.848,33.2a123.6,123.6,0,0,1-40.173,68.586,206.086,206.086,0,0,1,66.239-48.536c9.547-4.4,20.618-8.063,30.35-4.088,18.414,7.523,16.891,35.421,5.02,51.38s-30.254,26.786-39.613,44.336c23.75-25.606,64.515-33.577,96.16-18.8s51.712,51.144,47.328,85.793q-209.941,2.262-419.887,4.532c-56.4.608-112.843,1.216-169.151-2" transform="translate(7587.096 4381.138)" fill="#f85f33"/>
      <path id="Path_11481" data-name="Path 11481" d="M455.131,625.169c-10.935-42.145-47.7-73.418-87.693-90.633S283.653,511.6,241.008,502.8s-86.1-21.578-119.171-49.892c-14.467-12.383-26.97-28.358-30.254-47.116s4.876-40.333,22.218-48.2c27.45-12.451,56.155,12.775,76.978,34.565a785.188,785.188,0,0,0,173.3,136.429" transform="translate(7030.604 4485.402)" fill="#f85f33"/>
      <path id="Path_11482" data-name="Path 11482" d="M129.881,628.432c22.334-26.638,63.1-24.87,97.616-20.79-13.167.876-24.842-12.4-23.726-25.55s13.315-23.914,26.462-25.01,26.186,6.5,33.3,17.607c-11.8-14.551-23.934-29.786-28.186-48.028s1.936-40.381,18.854-48.416c14.039-6.668,31.378-1.752,43.445,8.039s19.986,23.658,27.626,37.189c-.064-23.454-12.447-44.876-24.442-65.027s-24.342-41.608-24.322-65.063,17.715-48.584,41.149-47.648c23.282.928,38.153,24.918,46.284,46.752a323.132,323.132,0,0,1,19.822,129.038,346.312,346.312,0,0,1,44-131.218c2.82-4.864,5.979-9.879,10.919-12.567,8.415-4.58,19.506-.576,25.622,6.792s8.287,17.2,9.467,26.706A174.394,174.394,0,0,1,450.432,521.5c13.731-10.167,20.13-27.282,25.334-43.552s10.407-33.505,22.822-45.245,34.721-14.935,45.684-1.828c7.535,9.007,7.243,22.158,4.916,33.669a125.332,125.332,0,0,1-40.729,69.539,208.946,208.946,0,0,1,67.159-49.212c9.679-4.452,20.906-8.175,30.774-4.144,18.67,7.627,17.127,35.913,5.088,52.1s-30.674,27.158-40.161,44.952c24.078-25.962,65.411-34.045,97.5-19.062s52.432,51.856,47.988,86.989l-425.734,4.6c-57.183.616-114.419,1.232-171.51-2.024" transform="translate(7116.654 4459.654)" fill="#3a5dec"/>
      <ellipse id="Ellipse_543" data-name="Ellipse 543" cx="387.943" cy="55.227" rx="387.943" ry="55.227" transform="translate(7514.221 5156.917) rotate(-9.037)" fill="#ff597d" opacity="0.23"/>
      <path id="Path_11483" data-name="Path 11483" d="M778.314,187.493l183.07,1071.65a91.981,91.981,0,0,1,1.268,18.271,88.894,88.894,0,0,1-.74,8.867c-.232,1.488-.46,2.976-.7,4.428a89.158,89.158,0,0,1-8.423,24.718,92.113,92.113,0,0,1-6.755,11.143,95.241,95.241,0,0,1-8.235,10.023c-1.984,2.072-4.1,4.084-6.26,6.024l-.04.008q-3.258,2.85-6.812,5.392l-.04.008a88.44,88.44,0,0,1-11.275,6.839l-.04.008a87.836,87.836,0,0,1-8.119,3.64,92.188,92.188,0,0,1-17.691,4.876l-439.581,75.094a90.26,90.26,0,0,1-19.286,1.2c-1.06-.06-2.072-.092-3.136-.192-1.14-.084-2.328-.2-3.48-.328a92.28,92.28,0,0,1-14.179-2.856c-2.336-.688-4.6-1.432-6.791-2.264-1.032-.388-2.064-.776-3.068-1.208-2.164-.88-4.268-1.888-6.339-2.944a91.2,91.2,0,0,1-17.935-12.079c-2.172-1.884-4.284-3.86-6.3-5.971a90.967,90.967,0,0,1-8.327-10.1,85.671,85.671,0,0,1-8.775-15.3l-.008-.036a90.166,90.166,0,0,1-6.615-21.746L160.638,293.008A90.378,90.378,0,0,1,234.5,188.765l439.581-75.09A90.341,90.341,0,0,1,778.314,187.493Z" transform="translate(7235.98 3759.715)" fill="#292929"/>
      <path id="Path_11484" data-name="Path 11484" d="M743.855,175.939,926.925,1247.6a71.782,71.782,0,0,1,1,14.331,58.047,58.047,0,0,1-.548,6.7l-.644,4.016a67.728,67.728,0,0,1-6.479,18.871,68.554,68.554,0,0,1-5.32,8.723,69.562,69.562,0,0,1-6.5,7.915c-1.164,1.2-2.58,2.576-4.22,4.064l-.664.6c-1.364,1.2-2.776,2.368-4.28,3.472l-1.048.7a64.073,64.073,0,0,1-7.831,4.844l-.924.48c-2.192,1.1-4.248,2.016-6.279,2.844a75.519,75.519,0,0,1-13.9,3.784l-439.581,75.094a70.164,70.164,0,0,1-15.019.956c-1.7-.072-3.416-.184-5.06-.388a71.726,71.726,0,0,1-11.263-2.264c-1.784-.54-3.572-1.12-5.128-1.74-.9-.332-1.588-.576-2.2-.832l-.48-.2c-1.34-.536-2.868-1.24-4.764-2.2a73.853,73.853,0,0,1-14.027-9.487c-1.8-1.544-3.38-3.048-4.848-4.568a71.5,71.5,0,0,1-6.508-7.911A67.952,67.952,0,0,1,354,1364.44l-.456-1.012a71.419,71.419,0,0,1-5.16-17L165.313,274.771a70.593,70.593,0,0,1,57.635-81.333l439.577-75.09a70.576,70.576,0,0,1,72.018,32.8A69.85,69.85,0,0,1,743.855,175.939Z" transform="translate(7250.872 3774.608)" fill="#edf1ff"/>
      <path id="Path_11485" data-name="Path 11485" d="M347.4,335.7c-.212-4.072-.4-8.911-.488-14.415l14.431,84.489c-6.816-12.571-11.587-21.862-12.751-25.37C345.721,371.837,346.217,352.583,347.4,335.7Z" transform="translate(7797.301 4386.404)" fill="#292929" opacity="0.2"/>
      <path id="Path_11486" data-name="Path 11486" d="M341.9,294.091h0l-21.618-126.53h0a18.12,18.12,0,0,1,20.91,14.811l15.515,90.809A18.121,18.121,0,0,1,341.9,294.091Z" transform="translate(7718.762 3924.483)" fill="#292929"/>
      <path id="Rectangle_2283" data-name="Rectangle 2283" d="M0,0H15.759a2.359,2.359,0,0,1,2.359,2.359V61.822a2.359,2.359,0,0,1-2.359,2.359H0Z" transform="translate(7441.108 4259.302) rotate(170.308)" fill="#292929"/>
      <path id="Rectangle_2284" data-name="Rectangle 2284" d="M0,0H15.759a2.359,2.359,0,0,1,2.359,2.359V61.822a2.359,2.359,0,0,1-2.359,2.359H0Z" transform="translate(7454.144 4335.612) rotate(170.308)" fill="#292929"/>
      <path id="Path_11487" data-name="Path 11487" d="M384.414,165.84,253.7,188.167a40.39,40.39,0,0,1-46.616-33.013h0l210.339-35.929h0a40.392,40.392,0,0,1-33.009,46.615Z" transform="translate(7379.215 3780.272)" fill="#292929"/>
      <g id="Group_2116" data-name="Group 2116" transform="translate(8313.246 5036.584)">
        <g id="Group_2115" data-name="Group 2115">
          <path id="Path_11488" data-name="Path 11488" d="M389.818,470.331a52.5,52.5,0,0,0,1.672,6.088l11.1-.148,5.484,9.543-5.707,9.519a55.272,55.272,0,0,0,9.487,8.583l8.9-6.659,10.051,4.484.984,11.075a54.8,54.8,0,0,0,12.343,1.348l3.34-10.607,10.791-2.2,7.255,8.432a54.828,54.828,0,0,0,11.131-6.328l-3.54-10.535,7.432-8.135,10.811,2.532a55.051,55.051,0,0,0,5.272-11.651l-9.039-6.435L488.8,458.3l10.235-4.312a56.543,56.543,0,0,0-.976-6.615,59.034,59.034,0,0,0-1.612-5.9l-11.107.116-5.451-9.559,5.76-9.511a55.968,55.968,0,0,0-9.5-8.631l-8.915,6.631L457.193,416l-.94-11.083a55.427,55.427,0,0,0-12.723-1.4l-3.308,10.623-10.779,2.244-7.271-8.415a55.636,55.636,0,0,0-11.111,6.375l3.568,10.527-7.391,8.163-10.819-2.5a54.862,54.862,0,0,0-5.244,11.671l9.076,6.4-1.172,10.959L388.838,463.9a56.69,56.69,0,0,0,.98,6.431ZM424.543,443.4a24.789,24.789,0,1,1-5.248,18.252,24.784,24.784,0,0,1,5.248-18.252Z" transform="translate(-388.838 -403.519)" fill="#788fec"/>
        </g>
      </g>
      <g id="Group_2118" data-name="Group 2118" transform="translate(7941.712 3708.462)">
        <path id="Path_11489" data-name="Path 11489" d="M295.951,131.517a58.278,58.278,0,0,0,.356,7.019l12.111,2.508,3.668,11.7-8.5,8.983a61.4,61.4,0,0,0,8.259,11.615l11.271-5.108,9.855,7.3-1.588,12.283a60.983,60.983,0,0,0,13.1,4.432l6.179-10.735,12.267.2,5.868,10.915a61.226,61.226,0,0,0,13.623-4.212l-1.312-12.311,10.035-7.059L402.3,174.4a61.338,61.338,0,0,0,8.535-11.411l-8.283-9.175,3.948-11.6,12.171-2.232a62.719,62.719,0,0,0,.528-7.427,65.979,65.979,0,0,0-.332-6.811L406.758,123.2l-3.632-11.707,8.547-8.963a62.357,62.357,0,0,0-8.251-11.667l-11.291,5.072L382.3,88.609l1.64-12.283a61.891,61.891,0,0,0-13.5-4.576l-6.151,10.763-12.263-.152-5.888-10.9a62.011,62.011,0,0,0-13.619,4.264l1.352,12.307-10,7.1L312.7,89.808a61.107,61.107,0,0,0-8.507,11.435l8.331,9.143L308.61,122.03l-12.179,2.252a62.826,62.826,0,0,0-.48,7.235ZM340.2,110.575a27.613,27.613,0,1,1-10.1,18.59A27.607,27.607,0,0,1,340.2,110.575Z" transform="translate(-295.947 -71.462)" fill="#7557e4"/>
      </g>
      <g id="Group_2120" data-name="Group 2120" transform="translate(7240.497 3866.406)">
        <path id="Path_11490" data-name="Path 11490" d="M120.632,155.244a42.715,42.715,0,0,0,.264,5.18l8.931,1.848,2.7,8.627-6.264,6.628a45.457,45.457,0,0,0,6.088,8.563l8.315-3.764,7.267,5.38-1.172,9.055a45.086,45.086,0,0,0,9.663,3.272l4.56-7.919,9.047.152,4.324,8.047a45.122,45.122,0,0,0,10.051-3.1l-.972-9.079,7.4-5.208,8.223,3.948a45.166,45.166,0,0,0,6.3-8.411l-6.108-6.768,2.912-8.555,8.975-1.648a45.576,45.576,0,0,0,.388-5.479,48.47,48.47,0,0,0-.244-5.024l-8.931-1.876-2.68-8.635,6.3-6.607a45.859,45.859,0,0,0-6.084-8.6L191.566,129l-7.255-5.4,1.212-9.055a45.449,45.449,0,0,0-9.959-3.376l-4.536,7.939L161.981,119l-4.34-8.043A45.634,45.634,0,0,0,147.6,114.1l1,9.075-7.379,5.24-8.231-3.928a45.2,45.2,0,0,0-6.28,8.435l6.148,6.743-2.88,8.583-8.983,1.66a46.191,46.191,0,0,0-.363,5.336ZM153.265,139.8a20.365,20.365,0,1,1-7.445,13.713A20.36,20.36,0,0,1,153.265,139.8Z" transform="translate(-120.629 -110.951)" fill="#7557e4"/>
      </g>
      <g id="Group_2125" data-name="Group 2125" transform="translate(8065.469 3774.046)">
        <g id="Group_2124" data-name="Group 2124">
          <g id="Group_2123" data-name="Group 2123">
            <g id="Group_2122" data-name="Group 2122">
              <path id="Path_11491" data-name="Path 11491" d="M326.891,118.169a28.9,28.9,0,0,0,.18,3.544l6.111,1.264,1.852,5.9-4.288,4.536a30.945,30.945,0,0,0,4.168,5.859L340.6,136.7l4.976,3.684-.8,6.2a30.765,30.765,0,0,0,6.615,2.24l3.12-5.42,6.187.1,2.96,5.508a31.008,31.008,0,0,0,6.879-2.124l-.664-6.215,5.064-3.56,5.628,2.7a30.748,30.748,0,0,0,4.308-5.756l-4.18-4.632,1.992-5.855,6.143-1.128a31.1,31.1,0,0,0,.268-3.748,33.7,33.7,0,0,0-.168-3.44l-6.111-1.284-1.836-5.908,4.316-4.524a31.426,31.426,0,0,0-4.163-5.888l-5.7,2.56-4.964-3.7.828-6.2A31.169,31.169,0,0,0,364.482,88l-3.1,5.432-6.191-.076-2.972-5.5a31.284,31.284,0,0,0-6.871,2.152l.684,6.212-5.052,3.584-5.632-2.684a30.828,30.828,0,0,0-4.3,5.772l4.2,4.612-1.972,5.876-6.143,1.136a31.534,31.534,0,0,0-.242,3.651Zm22.33-10.571a13.941,13.941,0,1,1-5.094,9.384,13.935,13.935,0,0,1,5.094-9.384Z" transform="translate(-326.888 -87.859)" fill="#3a5dec"/>
            </g>
          </g>
        </g>
      </g>
      <g id="Group_2127" data-name="Group 2127" transform="translate(7427.891 5149.716)">
        <path id="Path_11492" data-name="Path 11492" d="M167.484,462.113a28.888,28.888,0,0,0,.18,3.544l6.112,1.264,1.852,5.9-4.288,4.536a30.963,30.963,0,0,0,4.168,5.864l5.687-2.58,4.976,3.684-.8,6.2a30.863,30.863,0,0,0,6.611,2.236l3.12-5.42,6.192.1,2.96,5.507a30.813,30.813,0,0,0,6.88-2.124l-.664-6.216,5.064-3.56,5.628,2.7a30.908,30.908,0,0,0,4.3-5.748l-4.18-4.632,1.992-5.856,6.143-1.128a31.9,31.9,0,0,0,.268-3.748c0-1.164-.056-2.308-.168-3.44l-6.116-1.28-1.832-5.911,4.316-4.524a31.568,31.568,0,0,0-4.164-5.887l-5.7,2.56-4.964-3.7.828-6.2a31.164,31.164,0,0,0-6.815-2.308l-3.1,5.431-6.192-.076-2.972-5.5a31.635,31.635,0,0,0-6.871,2.152l.684,6.211-5.052,3.584-5.636-2.684a30.822,30.822,0,0,0-4.292,5.771l4.2,4.612-1.972,5.876-6.147,1.136a31.552,31.552,0,0,0-.237,3.654Zm22.33-10.567a13.934,13.934,0,1,1-5.1,9.383,13.932,13.932,0,0,1,5.1-9.383Z" transform="translate(-167.481 -431.804)" fill="#f85f33"/>
      </g>
      <g id="Group_2130" data-name="Group 2130" transform="translate(7101.738 3950.052)">
        <g id="Group_2129" data-name="Group 2129">
          <path id="Path_11493" data-name="Path 11493" d="M85.949,238.284a100.92,100.92,0,0,0,.876,12.167l21.1,3.9,6.8,20.159-14.4,15.9a106.517,106.517,0,0,0,14.751,19.842l19.366-9.271L151.8,313.274l-2.3,21.362a105.7,105.7,0,0,0,22.89,7.211l10.327-18.854L204,322.9l10.579,18.718a106.606,106.606,0,0,0,23.482-7.807l-2.736-21.31,17.151-12.615,19.542,8.875a106.319,106.319,0,0,0,14.383-20.1L271.694,273.05l6.423-20.274,21.03-4.324a107.936,107.936,0,0,0,.644-12.9,115.7,115.7,0,0,0-.828-11.8l-21.1-3.968L271.13,199.6l14.5-15.863A108.5,108.5,0,0,0,270.887,163.8l-19.406,9.211L234.149,160.67l2.4-21.366a107.4,107.4,0,0,0-23.594-7.439l-10.271,18.9-21.282.188-10.62-18.693a107.348,107.348,0,0,0-23.462,7.9l2.8,21.3-17.1,12.691-19.562-8.823a106.5,106.5,0,0,0-14.343,20.15l14.795,15.551-6.352,20.338-21.042,4.356a108.233,108.233,0,0,0-.572,12.561Zm75.982-37.957a47.913,47.913,0,1,1-16.83,32.624A47.9,47.9,0,0,1,161.931,200.327Z" transform="translate(-85.937 -131.864)" fill="#f85f33"/>
        </g>
      </g>
      <path id="Path_11494" data-name="Path 11494" d="M297.394,183.754v67.383a41.326,41.326,0,0,0,41.324,41.325h32.8V347.95l60.647-55.488H537.279A75.017,75.017,0,0,0,612.3,217.438v0a75.019,75.019,0,0,0-75.017-75.018H338.719a41.327,41.327,0,0,0-41.325,41.327Z" transform="translate(7650.105 3849.867)" fill="#f85f33"/>
      <path id="Path_11495" data-name="Path 11495" d="M342.972,170.186a12.707,12.707,0,1,1-12.707-12.707,12.707,12.707,0,0,1,12.707,12.707Z" transform="translate(7710.591 3895.024)" fill="#fff"/>
      <path id="Path_11496" data-name="Path 11496" d="M358.809,170.186A12.707,12.707,0,1,1,346.1,157.479a12.707,12.707,0,0,1,12.708,12.707Z" transform="translate(7758.095 3895.024)" fill="#fff"/>
      <path id="Path_11497" data-name="Path 11497" d="M374.646,170.186a12.707,12.707,0,1,1-12.707-12.707,12.707,12.707,0,0,1,12.707,12.707Z" transform="translate(7805.601 3895.024)" fill="#fff"/>
      <rect id="Rectangle_2285" data-name="Rectangle 2285" width="411.652" height="292.979" transform="translate(7514.984 4091.386) rotate(-8.997)" fill="#fff"/>
      <path id="Path_11498" data-name="Path 11498" d="M298.434,217.572,239.4,193.229l10.4,65.734Z" transform="translate(7476.128 4002.262)" fill="#7557e4" fill-rule="evenodd"/>
      <g id="Group_2136" data-name="Group 2136" transform="translate(7582.466 4387.312)">
        <g id="Group_2135" data-name="Group 2135">
          <g id="Group_2134" data-name="Group 2134">
            <rect id="Rectangle_2286" data-name="Rectangle 2286" width="402.853" height="283.784" transform="matrix(0.986, -0.167, 0.167, 0.986, 0, 67.149)" fill="#fff"/>
            <rect id="Rectangle_2287" data-name="Rectangle 2287" width="402.853" height="62.1" transform="matrix(0.986, -0.167, 0.167, 0.986, 0, 67.15)" fill="#f85f33"/>
            <rect id="Rectangle_2288" data-name="Rectangle 2288" width="195.092" height="12.668" transform="matrix(0.986, -0.167, 0.167, 0.986, 179.303, 155.054)" fill="#788fec"/>
            <rect id="Rectangle_2289" data-name="Rectangle 2289" width="195.092" height="12.668" transform="matrix(0.986, -0.167, 0.167, 0.986, 183.632, 180.66)" fill="#788fec"/>
            <rect id="Rectangle_2290" data-name="Rectangle 2290" width="153.402" height="12.542" transform="matrix(0.986, -0.167, 0.167, 0.986, 187.961, 206.267)" fill="#788fec"/>
            <rect id="Rectangle_2291" data-name="Rectangle 2291" width="104.224" height="12.679" transform="matrix(0.986, -0.167, 0.167, 0.986, 192.29, 231.874)" fill="#788fec"/>
          </g>
        </g>
        <rect id="Rectangle_2292" data-name="Rectangle 2292" width="107.462" height="92.89" transform="matrix(0.986, -0.167, 0.167, 0.986, 50.916, 176.27)" fill="#7557e4"/>
      </g>
      <g id="Group_2137" data-name="Group 2137" transform="translate(7616.936 4466.6)">
        <path id="Path_11499" data-name="Path 11499" d="M226.8,267.992a6.07,6.07,0,1,1-7-4.972,6.07,6.07,0,0,1,7,4.972Z" transform="translate(-214.747 -255.243)" fill="#fff"/>
        <path id="Path_11500" data-name="Path 11500" d="M232.492,267.034a6.07,6.07,0,1,1-7-4.976,6.07,6.07,0,0,1,7,4.976Z" transform="translate(-197.684 -258.129)" fill="#fff"/>
        <path id="Path_11501" data-name="Path 11501" d="M238.179,266.069a6.07,6.07,0,1,1-7-4.972,6.07,6.07,0,0,1,7,4.972Z" transform="translate(-180.625 -261.012)" fill="#fff"/>
      </g>
      <g id="Group_2140" data-name="Group 2140" transform="translate(7637.693 4739.321)">
        <g id="Group_2139" data-name="Group 2139">
          <path id="Path_11502" data-name="Path 11502" d="M615.755,329.228l47.312,278.754a.034.034,0,0,1-.032.04L267.259,675.2l-47.32-278.79a.04.04,0,0,1,.032-.044L615.711,329.2a.037.037,0,0,1,.044.028Z" transform="translate(-219.933 -329.192)" fill="url(#linear-gradient)"/>
          <rect id="Rectangle_2293" data-name="Rectangle 2293" width="401.476" height="61.888" transform="matrix(0.986, -0.167, 0.167, 0.986, 0, 67.181)" fill="#3a5dec"/>
          <circle id="Ellipse_544" data-name="Ellipse 544" cx="53.025" cy="53.025" r="53.025" transform="matrix(0.992, -0.127, 0.127, 0.992, 47.799, 169.607)" fill="#f85f33"/>
          <rect id="Rectangle_2294" data-name="Rectangle 2294" width="194.426" height="12.624" transform="translate(178.748 154.667) rotate(-9.633)" fill="#7557e4"/>
          <rect id="Rectangle_2295" data-name="Rectangle 2295" width="194.426" height="12.624" transform="matrix(0.986, -0.167, 0.167, 0.986, 183.079, 180.183)" fill="#7557e4"/>
          <rect id="Rectangle_2296" data-name="Rectangle 2296" width="194.426" height="12.625" transform="translate(187.409 205.699) rotate(-9.633)" fill="#7557e4"/>
          <rect id="Rectangle_2297" data-name="Rectangle 2297" width="194.426" height="12.625" transform="translate(191.74 231.216) rotate(-9.633)" fill="#7557e4"/>
        </g>
        <path id="Path_11503" data-name="Path 11503" d="M260.87,391.774a9.227,9.227,0,0,0,2.22-7.6,9.4,9.4,0,1,0-18.533,3.144,9.237,9.237,0,0,0,5.058,6.651,14.9,14.9,0,0,0-6.443,14.895L245.3,421.4l29.434-5L272.6,403.869A14.9,14.9,0,0,0,260.87,391.774Z" transform="translate(-150.878 -187.755)" fill="#fff"/>
      </g>
      <g id="Group_2141" data-name="Group 2141" transform="translate(7672.649 4820.055)">
        <path id="Path_11504" data-name="Path 11504" d="M239.251,355.507a5.324,5.324,0,1,1-6.139-4.356,5.324,5.324,0,0,1,6.139,4.356Z" transform="translate(-228.676 -344.304)" fill="#fff"/>
        <path id="Path_11505" data-name="Path 11505" d="M244.234,354.664a5.323,5.323,0,1,1-6.14-4.359,5.323,5.323,0,0,1,6.14,4.359Z" transform="translate(-213.717 -346.844)" fill="#fff"/>
        <path id="Path_11506" data-name="Path 11506" d="M249.224,353.814a5.325,5.325,0,1,1-6.14-4.356,5.325,5.325,0,0,1,6.14,4.356Z" transform="translate(-198.76 -349.382)" fill="#fff"/>
      </g>
      <rect id="Rectangle_2298" data-name="Rectangle 2298" width="413.199" height="61.887" transform="translate(7513.346 4091.602) rotate(-9.095)" fill="#3a5dec"/>
      <g id="Group_2142" data-name="Group 2142" transform="translate(7548.328 4107.063)">
        <path id="Path_11507" data-name="Path 11507" d="M208.164,177.247A5.32,5.32,0,1,1,206,173.794a5.323,5.323,0,0,1,2.165,3.453Z" transform="translate(-197.593 -166.048)" fill="#fff"/>
        <path id="Path_11508" data-name="Path 11508" d="M213.154,176.4a5.325,5.325,0,1,1-6.14-4.356,5.325,5.325,0,0,1,6.14,4.356Z" transform="translate(-182.637 -168.582)" fill="#fff"/>
        <path id="Path_11509" data-name="Path 11509" d="M218.137,175.556A5.323,5.323,0,1,1,212,171.2a5.323,5.323,0,0,1,6.137,4.356Z" transform="translate(-167.677 -171.12)" fill="#fff"/>
      </g>
      <g id="Group_2157" data-name="Group 2157" transform="translate(7024.408 4222.035)">
        <g id="hands_mobile" data-name="hands &amp; mobile" transform="translate(0 25.901)">
          <g id="Group_2155" data-name="Group 2155">
            <g id="Group_2145" data-name="Group 2145" transform="translate(292.605 88.967)">
              <g id="Group_2144" data-name="Group 2144">
                <path id="Path_11510" data-name="Path 11510" d="M235.608,264.452a48.791,48.791,0,1,1-59.983-34.109,48.791,48.791,0,0,1,59.983,34.109Z" transform="translate(-139.76 -228.584)" fill="#f85f33"/>
              </g>
            </g>
            <g id="Group_2147" data-name="Group 2147" transform="translate(11.259)">
              <g id="Group_2146" data-name="Group 2146">
                <path id="Path_11511" data-name="Path 11511" d="M302.183,459.045a11.587,11.587,0,0,1-3.952,15.843L293.064,478a11.584,11.584,0,0,1-15.839-3.944L128.557,226.936a11.594,11.594,0,0,1,3.944-15.847l5.172-3.108a11.584,11.584,0,0,1,15.843,3.944Z" transform="translate(103.07 -206.341)" fill="#292929"/>
                <path id="Path_11512" data-name="Path 11512" d="M231.73,371.273l-83.193,50.044a13.9,13.9,0,0,1-19.022-4.736L71.391,319.965a13.89,13.89,0,0,1,4.732-19.014l71.322-42.908a13.9,13.9,0,0,1,19.018,4.732Z" transform="translate(-69.418 -57.166)" fill="#292929"/>
              </g>
            </g>
            <g id="Group_2151" data-name="Group 2151" transform="translate(0 26.186)">
              <g id="Group_2150" data-name="Group 2150">
                <g id="Group_2148" data-name="Group 2148" transform="translate(0 239.045)">
                  <path id="Path_11513" data-name="Path 11513" d="M81.294,272.654a49.72,49.72,0,0,0-7.667,60.707l6.847,11.379A49.713,49.713,0,0,0,137.7,366.41Z" transform="translate(-66.603 -272.654)" fill="#3a5dec"/>
                </g>
                <g id="Group_2149" data-name="Group 2149" transform="translate(108.304)">
                  <path id="Path_11514" data-name="Path 11514" d="M93.681,392.322l58.987,98.052c98.8-49.536,190.181-44.912,221.022-41.345L231.634,212.888C220.407,243.3,182.482,328.487,93.681,392.322Z" transform="translate(-93.681 -212.888)" fill="#3a5dec"/>
                </g>
              </g>
            </g>
            <g id="Group_2153" data-name="Group 2153" transform="translate(86.654 322.283)">
              <g id="Group_2152" data-name="Group 2152">
                <path id="Path_11515" data-name="Path 11515" d="M88.268,331.022a7.476,7.476,0,0,0,.908,1.172l17.655,15.039a6.931,6.931,0,0,0,9.651-.7l51.864,89.329,1.936,3.22,3.456,5.74a6.949,6.949,0,0,0,9.5,2.368l40.957-24.642a6.953,6.953,0,0,0,2.368-9.5L221.17,404.1a7.075,7.075,0,0,0-9.5-2.372s-17.1-23.094-23.606-33.917c-8.2-13.611-29.934-49.744-37.1-61.667l9.8-11.5a6.928,6.928,0,0,0,.832-7.719Z" transform="translate(-88.268 -286.918)" fill="#3a5dec"/>
              </g>
            </g>
            <g id="Group_2154" data-name="Group 2154" transform="translate(149.345 341.504)">
              <path id="Path_11516" data-name="Path 11516" d="M103.942,291.724l21.709,18.523-5.688,8.038Z" transform="translate(-103.942 -291.724)" fill="#afafaf"/>
            </g>
          </g>
        </g>
        <g id="Group_2156" data-name="Group 2156" transform="translate(352.508)">
          <path id="Path_11517" data-name="Path 11517" d="M192.287,207.988l-26.17,64.647a5.907,5.907,0,0,1-7.691,3.26h0a5.909,5.909,0,0,1-3.256-7.691l26.17-64.647a5.9,5.9,0,0,1,7.691-3.256h0a5.9,5.9,0,0,1,3.256,7.687Z" transform="translate(-154.737 -199.865)" fill="#f85f33"/>
          <path id="Path_11518" data-name="Path 11518" d="M223.5,221.959l-49.18,49.449a5.9,5.9,0,0,1-8.351.024h0a5.906,5.906,0,0,1-.024-8.351l49.18-49.452a5.906,5.906,0,0,1,8.351-.024h0a5.906,5.906,0,0,1,.024,8.354Z" transform="translate(-126.267 -163.805)" fill="#f85f33"/>
          <path id="Path_11519" data-name="Path 11519" d="M243.527,239.539,177.5,262.013a5.91,5.91,0,0,1-7.5-3.688h0a5.907,5.907,0,0,1,3.688-7.491l66.027-22.47a5.9,5.9,0,0,1,7.491,3.688h0a5.9,5.9,0,0,1-3.679,7.487Z" transform="translate(-109.872 -115.342)" fill="#f85f33"/>
          <path id="Path_11520" data-name="Path 11520" d="M248.925,255.487,179.49,262.07a5.9,5.9,0,0,1-6.435-5.32h0a5.9,5.9,0,0,1,5.32-6.436l69.439-6.579a5.9,5.9,0,0,1,6.432,5.32h0a5.9,5.9,0,0,1-5.321,6.432Z" transform="translate(-99.868 -68.359)" fill="#f85f33"/>
        </g>
      </g>
      <g id="Group_2159" data-name="Group 2159" transform="translate(7543.266 3650)">
        <rect id="Rectangle_2299" data-name="Rectangle 2299" width="129.792" height="129.792" rx="2.976" transform="translate(0 27.569) rotate(-12.264)" fill="#3a5dec"/>
        <path id="Path_11521" data-name="Path 11521" d="M273.289,70.542c-10.639-6.4-24.534-2.464-31.246,7.975l-.4.628-.628-.4c-10.439-6.715-24.718-4.52-31.737,5.712a22.664,22.664,0,0,0,6.423,31.9l33.4,20.41a7.173,7.173,0,0,0,9.683-2.1l21.91-32.433a22.667,22.667,0,0,0-7.4-31.7Z" transform="translate(-169.46 -25.042)" fill="#fff"/>
      </g>
      <path id="Path_11522" data-name="Path 11522" d="M269.321,89.262l-23.727,34-34-23.727" transform="translate(7392.728 3690.396)" fill="#3a5dec"/>
    </g>
  </g>
</svg>
