<svg xmlns="http://www.w3.org/2000/svg" width="1408" height="1632" viewBox="0 0 1408 1632">
  <g id="Group_2735" data-name="Group 2735" transform="translate(12520 -9424)">
    <rect id="Rectangle_3487" data-name="Rectangle 3487" width="1408" height="1632" transform="translate(-12520 9424)" fill="none"/>
    <g id="image_features_big" transform="translate(-12520 9594)">
      <g id="Group_30" data-name="Group 30" transform="translate(857.009 211.544)">
        <g id="Group_12" data-name="Group 12">
          <g id="Group_11" data-name="Group 11">
            <path id="Path_7602" data-name="Path 7602" d="M314.178,212.637l120.457-85.569A106.091,106.091,0,0,1,540.26,117.1" transform="translate(-269.997 -107.465)" fill="none" stroke="#a28ff2" stroke-linecap="round" stroke-linejoin="round" stroke-width="4"/>
            <path id="Path_7603" data-name="Path 7603" d="M375.613,404.418a106.1,106.1,0,0,1-61.443-86.492L300.3,170.826" transform="translate(-300.295 30.806)" fill="none" stroke="#a28ff2" stroke-linecap="round" stroke-linejoin="round" stroke-width="4"/>
            <path id="Path_7604" data-name="Path 7604" d="M533,246.767l-61.2,43.478a106.092,106.092,0,0,1-105.621,9.964" transform="translate(-156.52 196.549)" fill="none" stroke="#a28ff2" stroke-linecap="round" stroke-linejoin="round" stroke-width="4"/>
            <path id="Path_7605" data-name="Path 7605" d="M467.52,157.007,481.4,304.114a106.092,106.092,0,0,1-44.185,96.453" transform="translate(-1.481 0.655)" fill="none" stroke="#a28ff2" stroke-linecap="round" stroke-linejoin="round" stroke-width="4"/>
          </g>
          <path id="Path_7606" data-name="Path 7606" d="M320.74,429.121,308.259,296.835a95.412,95.412,0,0,1,39.732-86.74l108.326-76.951a95.4,95.4,0,0,1,94.982-8.962l120.8,55.336a95.411,95.411,0,0,1,55.25,77.778l12.481,132.29a95.408,95.408,0,0,1-39.73,86.737L591.777,553.274a95.4,95.4,0,0,1-94.983,8.962L375.99,506.9A95.411,95.411,0,0,1,320.74,429.121Z" transform="translate(-283.837 -89.896)" fill="#a28ff2"/>
        </g>
        <g id="Group_29" data-name="Group 29" transform="translate(95.411 85.876)">
          <path id="Path_7607" data-name="Path 7607" d="M516.25,230.741c-2.784,46.552-49.5,77.2-87.367,77.2S350.936,270.134,351.55,223.5c.837-63.461,51.835-95.177,106.178-88.07C495.269,140.341,519.178,181.834,516.25,230.741Z" transform="translate(-283.86 -134.45)" fill="#4e435a"/>
          <g id="Group_20" data-name="Group 20" transform="translate(0 100.11)">
            <g id="Group_13" data-name="Group 13" transform="translate(0 54.71)">
              <path id="Path_7608" data-name="Path 7608" d="M355.379,326.892a25.209,25.209,0,0,1-23.407-34.119l37.708-98.922a16.7,16.7,0,1,1,31.2,11.893l-29.135,76.435,54.193-32.753A16.7,16.7,0,1,1,443.211,278l-74.79,45.2a25.162,25.162,0,0,1-13.042,3.692Z" transform="translate(-330.276 -183.098)" fill="#a74e67"/>
            </g>
            <g id="Group_19" data-name="Group 19" transform="translate(39.221)">
              <g id="Group_18" data-name="Group 18">
                <g id="Group_17" data-name="Group 17">
                  <path id="Rectangle_1154" data-name="Rectangle 1154" d="M1.636,0h73.18a1.637,1.637,0,0,1,1.637,1.637V36.161A1.636,1.636,0,0,1,74.817,37.8H1.636A1.636,1.636,0,0,1,0,36.161V1.636A1.636,1.636,0,0,1,1.636,0Z" transform="translate(0 58.412) rotate(-49.821)" fill="#4e435a"/>
                  <g id="Group_16" data-name="Group 16" transform="translate(57.96 13.756)">
                    <g id="Group_15" data-name="Group 15">
                      <g id="Group_14" data-name="Group 14">
                        <path id="Path_7609" data-name="Path 7609" d="M360.9,170.712l4.592,3.879a.256.256,0,0,0,.36-.032h0a.253.253,0,0,0-.029-.36l-4.592-3.879a.256.256,0,0,0-.359.032h0a.253.253,0,0,0,.028.36Z" transform="translate(-360.813 -170.16)" fill="#efece5"/>
                        <path id="Path_7610" data-name="Path 7610" d="M362.1,170.355a.358.358,0,1,1,.045.5.358.358,0,0,1-.045-.5Z" transform="translate(-358.185 -170.229)" fill="#efece5"/>
                      </g>
                      <path id="Path_7611" data-name="Path 7611" d="M362.992,172.185a.657.657,0,1,1-.155.48A.658.658,0,0,1,362.992,172.185Z" transform="translate(-356.397 -166.475)" fill="#efece5"/>
                    </g>
                  </g>
                  <path id="Path_7612" data-name="Path 7612" d="M347.411,188.426l4.914,4.121a1.443,1.443,0,0,0,2.034-.178h0a1.443,1.443,0,0,0-.178-2.034l-4.911-4.121a1.443,1.443,0,0,0-2.034.178h0a1.44,1.44,0,0,0,.175,2.034Z" transform="translate(-333.225 -122.324)" fill="#efece5"/>
                </g>
                <rect id="Rectangle_1155" data-name="Rectangle 1155" width="34.27" height="57.636" transform="matrix(-0.766, -0.643, 0.643, -0.766, 33.741, 74.556)" fill="#9fcaf4"/>
              </g>
              <path id="Path_7613" data-name="Path 7613" d="M366.21,171.255s-15.54,10.683-18.9,18.044-1.741,13.236-1.741,13.236,6.521-3.163,10.588-1.356,16.529-9.169,18.531-12.59S381.816,171.615,366.21,171.255Z" transform="translate(-336.964 -154.235)" fill="#ffad91"/>
              <path id="Path_7614" data-name="Path 7614" d="M370.412,188.226c-.121-.372-5.884-9.869-11.87-8.507s-3.558,6.871-1.464,10.575,3.138,9.274-.277,12.631-2.6,6.632-2.6,6.632C364.254,205.949,373.8,198.661,370.412,188.226Z" transform="translate(-317.476 -136.053)" fill="#ffad91"/>
              <path id="Path_7615" data-name="Path 7615" d="M345.311,198.468s.99-.041,2.438,0c2.728.041,7.148.331,9.792,1.528,4.07,1.8,16.53-9.172,18.534-12.6,1.426-2.419,4.443-10,.395-14.279,1.26,4.217-.891,9.464-2.027,11.406-2,3.431-14.464,14.4-18.534,12.6-2.126-.951-4.917-.538-7.087.061a23.983,23.983,0,0,0-3.511,1.279Z" transform="translate(-336.684 -150.178)" fill="#606060" opacity="0.3"/>
              <path id="Path_7616" data-name="Path 7616" d="M355.6,202.921a4.338,4.338,0,0,0-1.136,5.226v.022a5.982,5.982,0,0,0,.929,1.384,5.808,5.808,0,0,1,.188-2.708A8.73,8.73,0,0,1,358,202.921c3.408-3.348,2.377-8.927.27-12.625-2.088-3.7-4.506-9.194,1.445-10.578a5.3,5.3,0,0,0-2.355,0c-5.993,1.362-3.574,6.88-1.467,10.578C357.978,193.994,359.031,199.573,355.6,202.921Z" transform="translate(-318.647 -136.055)" fill="#606060" opacity="0.3"/>
            </g>
          </g>
          <g id="Group_21" data-name="Group 21" transform="translate(79.693 158.622)">
            <path id="Path_7617" data-name="Path 7617" d="M498.34,389.853l-10.174,7.234a95.546,95.546,0,0,1-47.972,17.373H426.325a94.663,94.663,0,0,1-33.161-8.4l-32.559-14.926c1.96-47.819,1.6-77.342-.624-98.483-1.168-11-5.315-22.716-4.576-27.267,3.676-22.63,18.429-39.379,26.793-52.077a39.185,39.185,0,0,1,2.565-3.469V209.8a1.172,1.172,0,0,1,.226-.229,54.813,54.813,0,0,1,18.916-14.544h.038a81.534,81.534,0,0,1,18.728-6.218,87.666,87.666,0,0,1,9.344-1.394c.754-.076,1.171-.076,1.171-.076s.261-.038.713-.111c.567-.038,1.509-.076,2.715-.115h.038c1.47-.073,3.392-.038,5.576.076,2.075.15,4.449.376,7.011.789a.131.131,0,0,1,.111.038c.869.153,1.773.34,2.676.528a5.1,5.1,0,0,1,.64.153h.038c.528.111,1.057.226,1.585.375.6.15,1.206.3,1.77.49a7.883,7.883,0,0,1,.9.264c.6.188,1.206.376,1.849.6a8,8,0,0,1,.865.3c.567.188,1.168.414,1.734.64.64.264,1.318.528,1.957.831,12.625,5.5,25.927,16.73,32.785,39.417v.035a102.134,102.134,0,0,1,3.657,17.786c1.13,9.121,1.846,17.637,2.26,25.7C504.406,320.025,497.548,350.359,498.34,389.853Z" transform="translate(-355.318 -178.219)" fill="#c86277"/>
            <path id="Path_7618" data-name="Path 7618" d="M443.1,192.219c-8.443-1.1-16.886,7.654-25.615,18.175-30.007,5.557-52.023-.573-52.879-.811,16.956-20.918,48.226-22.255,48.226-22.255a62.246,62.246,0,0,1,30.268,4.891Z" transform="translate(-335.053 -178.248)" fill="#ffad91"/>
            <path id="Path_7619" data-name="Path 7619" d="M413.377,184.293l6.094,10.617c-34.663,15.279-48.9,6.148-48.9,6.148l5.477-10.582Z" transform="translate(-322.03 -184.293)" fill="#ed9780"/>
            <path id="Path_7620" data-name="Path 7620" d="M418.8,194.95c-13.716,16.5-28.123,37.374-44.414,31.315-15.861-5.913-8.943-30.554-8.513-32.056a.2.2,0,0,0,.022-.07h.026C366.772,194.378,388.788,200.507,418.8,194.95Z" transform="translate(-336.366 -162.805)" fill="#ffda89"/>
          </g>
          <g id="Group_23" data-name="Group 23" transform="translate(171.039 169.287)">
            <path id="Path_7621" data-name="Path 7621" d="M453.371,222.115s-6.222-17.99,5.677-25.981,17.895-9.286,19.324-8.118,3.822,6.947-1.461,10.858S478.63,207,483.5,206.3s33.514-10.142,35.729-3.816,4.436,20.472-12.046,23.992S456.7,235.965,453.371,222.115Z" transform="translate(-236.219 -187.644)" fill="#ffad91"/>
            <g id="Group_22" data-name="Group 22" transform="translate(0 24.802)">
              <path id="Path_7622" data-name="Path 7622" d="M505.233,290.927a44.105,44.105,0,0,1-23.9-7.04l-89.654-57.706A16.7,16.7,0,1,1,409.758,198.1L499.4,255.8a10.744,10.744,0,0,0,11.915-.172l83.535-57.264a16.7,16.7,0,1,1,18.883,27.546L530.2,283.171a44.1,44.1,0,0,1-24.967,7.756Z" transform="translate(-384.021 -195.438)" fill="#a74e67"/>
            </g>
          </g>
          <g id="Group_28" data-name="Group 28" transform="translate(84.456 35.988)">
            <path id="Path_7623" data-name="Path 7623" d="M478.455,182.824v31.913a60.99,60.99,0,0,1-.955,10.709c-1.311-38.689-41.572-63.375-41.572-63.375s-9.945,26.023-79.115,33.18V182.824a37.071,37.071,0,0,1,37.06-37.066h47.516a37.071,37.071,0,0,1,37.066,37.06Z" transform="translate(-356.814 -145.758)" fill="#4e435a"/>
            <path id="Path_7624" data-name="Path 7624" d="M477.5,214.259A60.818,60.818,0,0,1,356.814,203.55V184.064c69.17-7.157,79.115-33.18,79.115-33.18S476.19,175.57,477.5,214.259Z" transform="translate(-356.814 -134.571)" fill="#ffad91"/>
            <path id="Path_7625" data-name="Path 7625" d="M394.737,170.8" transform="translate(-274.05 -91.11)" fill="none" stroke="#fff" stroke-miterlimit="10" stroke-width="0.749"/>
            <path id="Path_7626" data-name="Path 7626" d="M430.533,148.321a58.169,58.169,0,0,1-9.235,8.64c-1.48,1.2-3.176,2.368-4.974,3.612-1.84,1.165-3.742,2.482-5.843,3.606-2.088,1.143-4.22,2.4-6.518,3.4-2.25,1.1-4.6,2.072-6.966,3.02-2.355.974-4.815,1.661-7.186,2.463-2.364.84-4.818,1.241-7.119,1.855s-4.614.84-6.759,1.219a50.468,50.468,0,0,1-6.11.652c-1.9.124-3.628.293-5.174.255s-2.887-.08-3.994-.111c-2.212-.092-3.466-.191-3.466-.191s1.241-.3,3.393-.754c1.073-.21,2.374-.468,3.87-.761,1.489-.261,3.144-.767,4.961-1.146,1.811-.423,3.775-.837,5.814-1.432s4.217-1.079,6.413-1.8,4.484-1.359,6.759-2.174,4.624-1.54,6.877-2.524c2.3-.866,4.589-1.747,6.785-2.766,2.221-.948,4.395-1.925,6.476-2.921s4.07-2.011,5.98-2.947c1.846-1.037,3.669-1.9,5.276-2.836C426.3,151.093,430.533,148.321,430.533,148.321Z" transform="translate(-355.998 -140.164)" fill="#3a3244"/>
            <path id="Path_7627" data-name="Path 7627" d="M396.854,145.758a38.274,38.274,0,0,1-4.277,3.953,61.454,61.454,0,0,1-10.811,6.836c-1.037.528-2.116.977-3.157,1.458s-2.119.837-3.128,1.244-2.037.691-2.985,1.006-1.868.547-2.718.754c-1.683.458-3.138.652-4.137.837-1,.165-1.582.226-1.582.226s.525-.264,1.451-.672c.939-.379,2.25-.983,3.822-1.687,3.15-1.388,7.307-3.259,11.374-5.3,2.053-.987,4.064-2.053,5.957-3.046l5.156-2.788C394.843,146.935,396.854,145.758,396.854,145.758Z" transform="translate(-341.002 -145.758)" fill="#3a3244"/>
            <g id="Group_26" data-name="Group 26" transform="translate(17.5 39.844)">
              <path id="Path_7628" data-name="Path 7628" d="M399.52,166.839a25.022,25.022,0,0,0-19.11-8.561" transform="translate(-322.818 -158.278)" fill="none" stroke="#343434" stroke-linecap="round" stroke-miterlimit="10" stroke-width="1.229"/>
              <g id="Group_24" data-name="Group 24" transform="translate(51.581 10.776)">
                <path id="Path_7629" data-name="Path 7629" d="M386.07,182.377h0a6.6,6.6,0,0,0,6.6-6.588l.009-6.639a6.594,6.594,0,0,0-6.588-6.6h0a6.6,6.6,0,0,0-6.6,6.584l-.006,6.642a6.6,6.6,0,0,0,6.586,6.6Z" transform="translate(-376.415 -159.737)" fill="#343434"/>
                <path id="Path_7630" data-name="Path 7630" d="M382.8,172.029h0a4.288,4.288,0,0,0,4.29-4.28v-1.792a4.286,4.286,0,0,0-4.28-4.293h0a4.284,4.284,0,0,0-4.29,4.28v1.792a4.287,4.287,0,0,0,4.28,4.293Z" transform="translate(-378.521 -161.664)" fill="#fff"/>
              </g>
              <path id="Path_7631" data-name="Path 7631" d="M362.313,166.839a25.022,25.022,0,0,1,19.11-8.561" transform="translate(-362.313 -158.278)" fill="none" stroke="#343434" stroke-linecap="round" stroke-miterlimit="10" stroke-width="1.229"/>
              <g id="Group_25" data-name="Group 25" transform="translate(8.854 10.776)">
                <path id="Path_7632" data-name="Path 7632" d="M371.708,182.377h0a6.6,6.6,0,0,1-6.6-6.588l-.01-6.639a6.594,6.594,0,0,1,6.588-6.6h0a6.6,6.6,0,0,1,6.6,6.584l.007,6.642a6.6,6.6,0,0,1-6.586,6.6Z" transform="translate(-365.095 -159.737)" fill="#343434"/>
                <path id="Path_7633" data-name="Path 7633" d="M371.806,172.029h0a4.288,4.288,0,0,1-4.29-4.28v-1.792a4.286,4.286,0,0,1,4.28-4.293h0a4.284,4.284,0,0,1,4.29,4.28v1.792a4.287,4.287,0,0,1-4.28,4.293Z" transform="translate(-359.818 -161.664)" fill="#fff"/>
              </g>
              <path id="Path_7634" data-name="Path 7634" d="M368.119,175.81s16.377,14.057,40.149,0" transform="translate(-349.642 -120.016)" fill="none" stroke="#ed9780" stroke-miterlimit="10" stroke-width="2.248"/>
            </g>
            <g id="Group_27" data-name="Group 27" transform="translate(114.207 49.142)">
              <path id="Path_7635" data-name="Path 7635" d="M394.4,189.183c1.171,4.675,10.648,5.467,16.055-1.9,5.948-8.1,2.581-21.02-3.22-24.683-6.028-3.806-11.975,2.368-11.975,2.368S390.13,172.141,394.4,189.183Z" transform="translate(-392.701 -160.842)" fill="#ffad91"/>
              <path id="Path_7636" data-name="Path 7636" d="M393.635,167.352a19.433,19.433,0,0,1-.057-2.32l.213-.013a18.025,18.025,0,0,0,.57,2.19,21.536,21.536,0,0,0,1.263,3.1,3.448,3.448,0,0,1,.159-.423,8.4,8.4,0,0,1,1.241-1.432,14.958,14.958,0,0,1,3.94-2.864l.127.169s-.4.433-.945,1.127a23.374,23.374,0,0,0-1.779,2.594c-.28.484-.439,1.015-.646,1.448a7.972,7.972,0,0,1-.732,1.1l-.115.162c.369.42.764.8,1.123,1.136a19.1,19.1,0,0,0,1.512,1.27c.255.146.49.315.71.468l.614.328a6.362,6.362,0,0,1,.582.334v.21a3.909,3.909,0,0,1-.662.194,4.166,4.166,0,0,1-.808.137,10.494,10.494,0,0,1-1.063-.1,5.44,5.44,0,0,1-1.213-.426,5.542,5.542,0,0,1-1.181-.811,8.859,8.859,0,0,1-1.588-2.517,15.04,15.04,0,0,1-1.265-5.056Z" transform="translate(-390.814 -152.865)" fill="#ed9780"/>
              <path id="Path_7637" data-name="Path 7637" d="M394.3,165.443a12.011,12.011,0,0,1,2.018-1.5,9.925,9.925,0,0,1,6.12-1.642,7.238,7.238,0,0,1,3.736,1.6,9.056,9.056,0,0,1,1.585,1.62,14.488,14.488,0,0,1,1.308,2.021,20.266,20.266,0,0,1,2.161,9.993,17.347,17.347,0,0,1-.968,5.028A16.33,16.33,0,0,1,408,186.73l-.812,1.006c-.27.321-.509.516-.748.786a6.816,6.816,0,0,1-.786.719,6.389,6.389,0,0,1-.831.659,10.281,10.281,0,0,1-3.533,1.642,8.822,8.822,0,0,1-5.9-.611,6.456,6.456,0,0,1-1.461-1.015l-.471-.455-.274.162.306.63a5.983,5.983,0,0,0,1.247,1.582,7.6,7.6,0,0,0,2.737,1.661,9.979,9.979,0,0,0,4.188.551,11.22,11.22,0,0,0,4.8-1.559,11.356,11.356,0,0,0,2.237-1.645,13.622,13.622,0,0,0,1.028-1.025l.824-1a16.335,16.335,0,0,0,2.539-5.375,21.314,21.314,0,0,0,.665-5.891,22.424,22.424,0,0,0-3.1-10.925,16.324,16.324,0,0,0-1.62-2.183,9.858,9.858,0,0,0-1.973-1.738,8.494,8.494,0,0,0-4.557-1.5,10.693,10.693,0,0,0-6.489,2.3,12.69,12.69,0,0,0-1.944,1.712Z" transform="translate(-391.631 -161.2)" fill="#ed9780"/>
            </g>
          </g>
        </g>
      </g>
      <g id="Group_40" data-name="Group 40" transform="translate(0 599.457)">
        <g id="Group_38" data-name="Group 38" transform="translate(314.854)">
          <g id="Group_31" data-name="Group 31" transform="translate(74.066 78.593)">
            <path id="Path_7638" data-name="Path 7638" d="M209.212,593.353h0a6.517,6.517,0,0,1-6.46-7.38l32.594-244.406H260.9L215.625,588.013a6.52,6.52,0,0,1-6.413,5.34Z" transform="translate(-45.213 -63.064)" fill="#f9cd75"/>
            <path id="Path_7639" data-name="Path 7639" d="M168.881,593.353h0a6.521,6.521,0,0,1-6.464-7.38l32.594-244.406h25.555L175.294,588.013a6.522,6.522,0,0,1-6.413,5.34Z" transform="translate(-133.238 -63.064)" fill="#f9cd75"/>
            <path id="Path_7640" data-name="Path 7640" d="M247.955,593.353h0a6.517,6.517,0,0,0,6.46-7.38L221.821,341.567H196.266l45.276,246.446a6.52,6.52,0,0,0,6.413,5.34Z" transform="translate(-59.241 -63.064)" fill="#ffda89"/>
            <path id="Path_7641" data-name="Path 7641" d="M288.286,593.353h0a6.521,6.521,0,0,0,6.463-7.38L262.155,341.567H236.6l45.273,246.446a6.522,6.522,0,0,0,6.413,5.34Z" transform="translate(28.785 -63.064)" fill="#ffda89"/>
            <path id="Path_7642" data-name="Path 7642" d="M196.362,257.256c-16.154,2.24-41.372,9.149-42.963,43.758-2.011,43.8,12.332,186.967,21.481,202.481s22.675,43.36,113.374,35.8,88.6,4.51,141.108,2.918,57.945-1.725,55.692-9.019-91.23-1.855-116.047-53.569c-14.321-29.845-18.563-141.086-42.431-177.156S279.5,245.719,196.362,257.256Z" transform="translate(-153.209 -254.054)" fill="#efefef"/>
            <path id="Path_7643" data-name="Path 7643" d="M317.9,511.229c-8.783.127-18.522.636-29.437,1.528-90.7,7.542-104.224-20.272-113.358-35.8-9.165-15.53-23.486-158.675-21.481-202.465a58.7,58.7,0,0,1,.923-8.274c.127,3.851,6.174,170.864,58.747,210.74C252.083,506.392,317.9,511.229,317.9,511.229Z" transform="translate(-152.728 -227.513)" fill="#9c9c9c"/>
            <path id="Path_7644" data-name="Path 7644" d="M188.817,266.258V266.2" transform="translate(-75.498 -227.557)" fill="none" stroke="#f2797f" stroke-miterlimit="10" stroke-width="1"/>
          </g>
          <g id="Group_33" data-name="Group 33" transform="translate(360.615 234.261)">
            <rect id="Rectangle_1156" data-name="Rectangle 1156" width="314.106" height="12.893" transform="translate(314.106 15.822) rotate(180)" fill="#35d6c6"/>
            <g id="Group_32" data-name="Group 32" transform="translate(5.861)">
              <path id="Path_7645" data-name="Path 7645" d="M334.585,305.9h14.649a2.928,2.928,0,0,0-2.928-2.928h-8.79A2.929,2.929,0,0,0,334.585,305.9Z" transform="translate(-49.781 -302.969)" fill="#fff"/>
              <path id="Path_7646" data-name="Path 7646" d="M330,305.9h14.649a2.929,2.929,0,0,0-2.931-2.928h-8.79A2.928,2.928,0,0,0,330,305.9Z" transform="translate(-59.796 -302.969)" fill="#fff"/>
              <path id="Path_7647" data-name="Path 7647" d="M325.406,305.9h14.652a2.929,2.929,0,0,0-2.931-2.928h-8.79a2.929,2.929,0,0,0-2.931,2.928Z" transform="translate(-69.813 -302.969)" fill="#fff"/>
              <path id="Path_7648" data-name="Path 7648" d="M320.817,305.9h14.652a2.931,2.931,0,0,0-2.931-2.928h-8.793A2.928,2.928,0,0,0,320.817,305.9Z" transform="translate(-79.828 -302.969)" fill="#fff"/>
              <path id="Path_7649" data-name="Path 7649" d="M316.227,305.9h14.652a2.929,2.929,0,0,0-2.931-2.928h-8.79A2.929,2.929,0,0,0,316.227,305.9Z" transform="translate(-89.846 -302.969)" fill="#fff"/>
              <path id="Path_7650" data-name="Path 7650" d="M311.638,305.9H326.29a2.931,2.931,0,0,0-2.931-2.928h-8.79A2.929,2.929,0,0,0,311.638,305.9Z" transform="translate(-99.861 -302.969)" fill="#fff"/>
              <path id="Path_7651" data-name="Path 7651" d="M307.049,305.9H321.7a2.929,2.929,0,0,0-2.931-2.928H309.98A2.929,2.929,0,0,0,307.049,305.9Z" transform="translate(-109.876 -302.969)" fill="#fff"/>
              <path id="Path_7652" data-name="Path 7652" d="M302.459,305.9h14.652a2.931,2.931,0,0,0-2.931-2.928h-8.79a2.931,2.931,0,0,0-2.931,2.928Z" transform="translate(-119.893 -302.969)" fill="#fff"/>
              <path id="Path_7653" data-name="Path 7653" d="M297.87,305.9h14.649a2.929,2.929,0,0,0-2.931-2.928H300.8a2.929,2.929,0,0,0-2.931,2.928Z" transform="translate(-129.908 -302.969)" fill="#fff"/>
              <path id="Path_7654" data-name="Path 7654" d="M293.28,305.9h14.652A2.929,2.929,0,0,0,305,302.969h-8.79a2.931,2.931,0,0,0-2.931,2.928Z" transform="translate(-139.926 -302.969)" fill="#fff"/>
              <path id="Path_7655" data-name="Path 7655" d="M288.691,305.9h14.652a2.929,2.929,0,0,0-2.931-2.928h-8.79A2.929,2.929,0,0,0,288.691,305.9Z" transform="translate(-149.941 -302.969)" fill="#fff"/>
              <path id="Path_7656" data-name="Path 7656" d="M284.1,305.9h14.649a2.928,2.928,0,0,0-2.928-2.928H287.03a2.928,2.928,0,0,0-2.93,2.928Z" transform="translate(-159.956 -302.969)" fill="#fff"/>
              <path id="Path_7657" data-name="Path 7657" d="M279.512,305.9h14.651a2.929,2.929,0,0,0-2.931-2.928h-8.79a2.929,2.929,0,0,0-2.931,2.928Z" transform="translate(-169.973 -302.969)" fill="#fff"/>
              <path id="Path_7658" data-name="Path 7658" d="M274.923,305.9h14.648a2.928,2.928,0,0,0-2.928-2.928h-8.79a2.929,2.929,0,0,0-2.931,2.928Z" transform="translate(-179.988 -302.969)" fill="#fff"/>
              <path id="Path_7659" data-name="Path 7659" d="M266.82,305.9h14.652a2.929,2.929,0,0,0-2.931-2.928h-8.79A2.931,2.931,0,0,0,266.82,305.9Z" transform="translate(-197.672 -302.969)" fill="#fff"/>
              <path id="Path_7660" data-name="Path 7660" d="M262.217,305.9h14.649a2.928,2.928,0,0,0-2.928-2.928h-8.79a2.929,2.929,0,0,0-2.931,2.928Z" transform="translate(-207.718 -302.969)" fill="#fff"/>
              <path id="Path_7661" data-name="Path 7661" d="M257.613,305.9h14.652a2.929,2.929,0,0,0-2.931-2.928h-8.79a2.931,2.931,0,0,0-2.931,2.928Z" transform="translate(-217.766 -302.969)" fill="#fff"/>
              <path id="Path_7662" data-name="Path 7662" d="M249.7,305.9h14.652a2.929,2.929,0,0,0-2.931-2.928h-8.79A2.931,2.931,0,0,0,249.7,305.9Z" transform="translate(-235.046 -302.969)" fill="#fff"/>
              <path id="Path_7663" data-name="Path 7663" d="M245.092,305.9h14.649a2.928,2.928,0,0,0-2.928-2.928h-8.79a2.929,2.929,0,0,0-2.931,2.928Z" transform="translate(-245.092 -302.969)" fill="#fff"/>
            </g>
          </g>
          <g id="Group_34" data-name="Group 34" transform="translate(0 250.083)">
            <path id="Path_7664" data-name="Path 7664" d="M808.92,329.669H194.449l-8.486-21.728H819.4Z" transform="translate(-7.661 -307.941)" fill="#a49572"/>
            <path id="Path_7665" data-name="Path 7665" d="M450.454,329.669H140.7l-8.487-21.728H441.968Z" transform="translate(-124.966 -307.941)" fill="#9c9c9c"/>
            <path id="Path_7666" data-name="Path 7666" d="M138.663,651.84h0a8.726,8.726,0,0,1-8.65-9.881l43.634-327.19h34.211l-60.612,329.92A8.727,8.727,0,0,1,138.663,651.84Z" transform="translate(-129.936 -293.041)" fill="#eaa16e"/>
            <path id="Path_7667" data-name="Path 7667" d="M287.13,651.84h0a8.728,8.728,0,0,0,8.65-9.881l-43.634-327.19H217.935L278.547,644.69A8.727,8.727,0,0,0,287.13,651.84Z" transform="translate(62.116 -293.041)" fill="#ffbb8d"/>
            <path id="Path_7668" data-name="Path 7668" d="M287.332,651.84h0a8.729,8.729,0,0,1-8.653-9.881l43.634-327.19h34.211l-60.609,329.92A8.727,8.727,0,0,1,287.332,651.84Z" transform="translate(194.516 -293.041)" fill="#eaa16e"/>
            <path id="Path_7669" data-name="Path 7669" d="M435.8,651.84h0a8.728,8.728,0,0,0,8.65-9.881l-43.634-327.19H366.6L427.209,644.69a8.73,8.73,0,0,0,8.591,7.15Z" transform="translate(386.569 -293.041)" fill="#ffbb8d"/>
          </g>
          <g id="Group_35" data-name="Group 35" transform="translate(346.461)">
            <path id="Path_7670" data-name="Path 7670" d="M254.371,431.97H527.518A15.567,15.567,0,0,0,543,418.024l17.955-171.478a15.565,15.565,0,0,0-15.483-17.188H272.33A15.569,15.569,0,0,0,256.844,243.3L238.889,414.781a15.568,15.568,0,0,0,15.482,17.189Z" transform="translate(-238.803 -229.358)" fill="#e6e6e6"/>
            <path id="Path_7671" data-name="Path 7671" d="M258.538,431.97H531.685a15.567,15.567,0,0,0,15.482-13.945l17.955-171.478a15.567,15.567,0,0,0-15.482-17.188H276.494A15.567,15.567,0,0,0,261.011,243.3l-17.955,171.48a15.568,15.568,0,0,0,15.482,17.189Z" transform="translate(-229.709 -229.358)" fill="#35d6c6"/>
            <path id="Path_7672" data-name="Path 7672" d="M333.026,257.774H295.884a9.766,9.766,0,0,0-9.592,11.584l25.253,133.216h72.8Z" transform="translate(-135.541 -167.342)" fill="#fff"/>
            <path id="Path_7673" data-name="Path 7673" d="M330.347,257.774H297.816a7.871,7.871,0,0,0-7.733,9.334l25.679,135.466h72.8l-49.012-138.3a9.764,9.764,0,0,0-9.2-6.5Z" transform="translate(-127.194 -167.342)" fill="#ffda89"/>
            <path id="Path_7674" data-name="Path 7674" d="M286.951,318.126H405.5a7.427,7.427,0,0,0,7.428-7.426h0a7.428,7.428,0,0,0-7.428-7.428H286.951a7.427,7.427,0,0,0-7.425,7.428h0a7.427,7.427,0,0,0,7.425,7.425Z" transform="translate(-149.928 -68.042)" fill="#fff"/>
            <path id="Path_7675" data-name="Path 7675" d="M293.831,318.126H412.376A7.427,7.427,0,0,0,419.8,310.7h0a7.427,7.427,0,0,0-7.426-7.428H293.831A7.428,7.428,0,0,0,286.4,310.7h0a7.427,7.427,0,0,0,7.43,7.426Z" transform="translate(-134.92 -68.042)" fill="#ffda89"/>
            <path id="Path_7676" data-name="Path 7676" d="M318.709,269.755a8.779,8.779,0,0,1-1.232.045,7.644,7.644,0,0,1-7.364-8.548,9.94,9.94,0,0,1,5.592-7.759c1.747-.85,1.973-3.182.369-3.943a6.931,6.931,0,0,0-2.985-.659h-1.543l2.444-7.877c.22-.706-.684-1.324-1.935-1.324h-4.79c-1.254,0-2.3.617-2.244,1.324l.611,7.877h-1.54a8.644,8.644,0,0,0-7.2,4.131l-3.663,5.9a8.269,8.269,0,0,0-1.2,3.389l-1.652,14.216a6.673,6.673,0,0,0,2.269,5.983l.808.675a6.77,6.77,0,0,0,4.376,1.54h13.178a8.328,8.328,0,0,0,4.742-1.54l.961-.675a8.639,8.639,0,0,0,3.66-5.983l.538-4.63a1.91,1.91,0,0,0-2.2-2.142Z" transform="translate(-126.347 -206.807)" fill="#fff"/>
          </g>
          <g id="Group_37" data-name="Group 37" transform="translate(275.363 227.291)">
            <g id="Group_36" data-name="Group 36">
              <path id="Path_7677" data-name="Path 7677" d="M289.81,323.441l-73.348.131a26.435,26.435,0,0,1,5.776-11.4h.006c4.815-5.7,13.478-11.4,28.877-11.4,15.635,0,25.316,5.709,31.086,11.4a31.746,31.746,0,0,1,7.6,11.269Z" transform="translate(-216.462 -300.779)" fill="#f7f7f7"/>
              <path id="Path_7678" data-name="Path 7678" d="M289.81,317.3l-73.348.131a26.436,26.436,0,0,1,5.776-11.4h.006c.325-.159,11.533-5.416,22.57,0,11.2,5.5,40.14,7.807,37.393,0a31.745,31.745,0,0,1,7.6,11.269Z" transform="translate(-216.462 -294.639)" fill="#35d6c6"/>
            </g>
          </g>
        </g>
        <g id="Group_39" data-name="Group 39" transform="translate(0 608.883)">
          <rect id="Rectangle_1157" data-name="Rectangle 1157" width="1023.94" height="28.053" rx="4.407" fill="#816ae2"/>
          <rect id="Rectangle_1158" data-name="Rectangle 1158" width="275.562" height="28.053" rx="4.407" transform="translate(1058.846)" fill="#816ae2"/>
          <path id="Path_7679" data-name="Path 7679" d="M384.587,457.537H165.86a14.019,14.019,0,1,0,0-28.038H384.587a14.019,14.019,0,1,0,0,28.037Z" transform="translate(263.321 -401.447)" fill="#816ae2"/>
          <rect id="Rectangle_1159" data-name="Rectangle 1159" width="497.342" height="28.053" rx="4.407" transform="translate(259.277 56.105)" fill="#816ae2"/>
          <rect id="Rectangle_1160" data-name="Rectangle 1160" width="240.417" height="28.053" rx="4.407" transform="translate(915.038 56.105)" fill="#816ae2"/>
        </g>
      </g>
      <g id="Group_66" data-name="Group 66" transform="translate(1.111 285.823)">
        <g id="Group_44" data-name="Group 44" transform="translate(55.886 422.017)">
          <g id="Group_41" data-name="Group 41">
            <path id="Path_7680" data-name="Path 7680" d="M48.91,298.975,55.463,733.06A22.921,22.921,0,0,0,78.38,755.579h2.18a22.918,22.918,0,0,0,22.621-19.23L140.866,444.5l21.755,269.9a22.916,22.916,0,0,0,22.818,20.756h0a22.918,22.918,0,0,0,22.917-22.641L212.868,303.2l-46.3-39.78Z" transform="translate(-48.91 -263.415)" fill="#c86277"/>
            <path id="Path_7681" data-name="Path 7681" d="M212.857,292.345l-.236,19.025a86.5,86.5,0,0,1-27.875.309l-11.269-19.572-13.449,20.355c-14.518,3.58-92.354,1.636-110.786-5.219l-.331-19.12c17.767,6.973,96.5,8.968,111.117,5.359l13.449-25.1,11.27,24.318a86.438,86.438,0,0,0,28.11-.355Z" transform="translate(-48.906 -252.568)" fill="#a74e67"/>
            <path id="Path_7682" data-name="Path 7682" d="M77.8,390.338,94.5,288.231,89.051,529.869Z" transform="translate(14.151 -209.254)" fill="#a74e67"/>
          </g>
          <g id="Group_42" data-name="Group 42" transform="translate(108.785 432.594)">
            <path id="Path_7683" data-name="Path 7683" d="M193.37,430.8H88.707a5.612,5.612,0,0,1-5.614-5.611v-2.858l117.756-6.9-1.957,10.76A5.61,5.61,0,0,1,193.37,430.8Z" transform="translate(-83.093 -364.236)" fill="#35d6c6"/>
            <path id="Path_7684" data-name="Path 7684" d="M200.886,441.383v.022a7.488,7.488,0,0,1-7.5,7.479H83.1V422.537a109.916,109.916,0,0,1,1.181-15.508,3.555,3.555,0,0,1,5.6-2.409c11.568,8.6,18.6,7.5,24.116,4.665,4.691-2.384,8.281-6.021,12.7-6.021,10.362,0,16.634,11.142,29.485,20.075a15.98,15.98,0,0,0,1.553.98c9.611,5.719,27.028,8.507,36.537,9.633A7.51,7.51,0,0,1,200.886,441.383Z" transform="translate(-83.089 -390.8)" fill="#015b76"/>
            <path id="Path_7685" data-name="Path 7685" d="M136.538,424.319s-16.335,7.953-23.661,0c-7.329-7.931-20.075-15.034-20.075-15.034,4.691-2.384,8.281-6.021,12.7-6.021,10.362,0,16.634,11.142,29.485,20.075a15.979,15.979,0,0,0,1.551.98Z" transform="translate(-61.904 -390.8)" fill="#35d6c6"/>
            <path id="Path_7686" data-name="Path 7686" d="M98.05,418.7s5.49-13.252,8.863-16.622,12.154-4.863,12.936,2.979S104.323,417.606,98.05,418.7Z" transform="translate(-50.451 -399.348)" fill="none" stroke="#9be3ea" stroke-miterlimit="10" stroke-width="0.789"/>
            <path id="Path_7687" data-name="Path 7687" d="M115.017,408.5s-12.545-7.526-20.387-3.058-4.392,14.353,4.783,12.94C104.894,417.537,115.017,408.5,115.017,408.5Z" transform="translate(-67.418 -389.142)" fill="none" stroke="#9be3ea" stroke-miterlimit="10" stroke-width="0.789"/>
          </g>
          <g id="Group_43" data-name="Group 43" transform="translate(4.404 447.959)">
            <path id="Path_7688" data-name="Path 7688" d="M160.571,435.632H55.908a5.615,5.615,0,0,1-5.614-5.613V427.16l117.756-6.9-1.957,10.76a5.61,5.61,0,0,1-5.522,4.612Z" transform="translate(-50.294 -369.064)" fill="#35d6c6"/>
            <path id="Path_7689" data-name="Path 7689" d="M168.087,446.211v.025a7.485,7.485,0,0,1-7.5,7.475H50.3V427.365a109.924,109.924,0,0,1,1.181-15.508,3.555,3.555,0,0,1,5.6-2.409c11.568,8.608,18.595,7.5,24.116,4.669,4.691-2.384,8.281-6.024,12.7-6.024,10.362,0,16.638,11.141,29.485,20.074a15.672,15.672,0,0,0,1.556.98c9.611,5.722,27.025,8.507,36.534,9.636A7.507,7.507,0,0,1,168.087,446.211Z" transform="translate(-50.29 -395.628)" fill="#015b76"/>
            <path id="Path_7690" data-name="Path 7690" d="M103.742,429.147s-16.339,7.953-23.664,0C72.749,421.216,60,414.116,60,414.116c4.691-2.384,8.281-6.024,12.7-6.024,10.362,0,16.638,11.141,29.485,20.074a15.665,15.665,0,0,0,1.557.981Z" transform="translate(-29.105 -395.628)" fill="#35d6c6"/>
            <path id="Path_7691" data-name="Path 7691" d="M65.251,423.535s5.49-13.255,8.863-16.625,12.154-4.863,12.936,2.979S71.527,422.437,65.251,423.535Z" transform="translate(-17.652 -404.176)" fill="none" stroke="#9be3ea" stroke-miterlimit="10" stroke-width="0.789"/>
            <path id="Path_7692" data-name="Path 7692" d="M82.217,413.329s-12.545-7.53-20.387-3.058-4.392,14.349,4.783,12.936C72.094,422.364,82.217,413.329,82.217,413.329Z" transform="translate(-34.618 -393.969)" fill="none" stroke="#9be3ea" stroke-miterlimit="10" stroke-width="0.789"/>
          </g>
        </g>
        <g id="Group_52" data-name="Group 52" transform="translate(138.303 82.281)">
          <g id="Group_45" data-name="Group 45" transform="translate(0 61.557)">
            <path id="Path_7693" data-name="Path 7693" d="M201.921,342.4c-18.506,0-41.877-11.243-73.056-34.771A586.544,586.544,0,0,1,81.74,267.616a22.536,22.536,0,1,1,31.2-32.528h0c28.721,27.534,63.05,52.777,80.649,60.1-3.065-18.442-17.923-56.179-35.774-89.28-5.91-10.954.777-19.725,11.73-25.634s22.032-6.715,27.942,4.242c.5.933,12.475,23.2,23.4,49.375,21.733,52.09,19.814,72.5,15.715,84.468A34.449,34.449,0,0,1,218,339.113a39.257,39.257,0,0,1-16.079,3.287Z" transform="translate(-74.808 -176.004)" fill="#f1f1f1"/>
          </g>
          <g id="Group_51" data-name="Group 51" transform="translate(30.88)">
            <g id="Group_50" data-name="Group 50">
              <g id="Group_49" data-name="Group 49">
                <path id="Rectangle_1161" data-name="Rectangle 1161" d="M1.879,0H41.517A1.879,1.879,0,0,1,43.4,1.879V85.9a1.878,1.878,0,0,1-1.878,1.878H1.879A1.879,1.879,0,0,1,0,85.9V1.879A1.879,1.879,0,0,1,1.879,0Z" transform="matrix(0.764, -0.645, 0.645, 0.764, 0, 27.998)" fill="#4e435a"/>
                <g id="Group_48" data-name="Group 48" transform="translate(14.336 15.793)">
                  <g id="Group_47" data-name="Group 47">
                    <g id="Group_46" data-name="Group 46" transform="translate(3.047)">
                      <path id="Path_7694" data-name="Path 7694" d="M95.73,162.182l-5.27,4.449a.3.3,0,0,1-.417-.035h0a.293.293,0,0,1,.035-.414l5.273-4.452a.293.293,0,0,1,.414.035h0a.3.3,0,0,1-.035.417Z" transform="translate(-89.973 -161.544)" fill="#efece5"/>
                      <path id="Path_7695" data-name="Path 7695" d="M90.9,161.771a.41.41,0,1,0-.048.576.41.41,0,0,0,.048-.576Z" transform="translate(-89.534 -161.624)" fill="#efece5"/>
                    </g>
                    <path id="Path_7696" data-name="Path 7696" d="M90.353,163.869a.758.758,0,1,0-.089,1.066.758.758,0,0,0,.089-1.066Z" transform="translate(-89.016 -157.312)" fill="#efece5"/>
                  </g>
                </g>
                <path id="Path_7697" data-name="Path 7697" d="M113.34,182.517l-5.636,4.732a1.66,1.66,0,0,1-2.339-.207h0a1.66,1.66,0,0,1,.207-2.336l5.636-4.729a1.656,1.656,0,0,1,2.336.2h0a1.656,1.656,0,0,1-.2,2.34Z" transform="translate(-39.843 -106.623)" fill="#efece5"/>
              </g>
              <rect id="Rectangle_1162" data-name="Rectangle 1162" width="39.346" height="66.174" transform="matrix(0.766, -0.643, 0.643, 0.766, 8.513, 34.909)" fill="#9fcaf4"/>
            </g>
            <path id="Path_7698" data-name="Path 7698" d="M110.758,162.8s17.844,12.265,21.7,20.718,2,15.2,2,15.2-7.488-3.631-12.157-1.556-18.98-10.527-21.278-14.455S92.844,163.215,110.758,162.8Z" transform="translate(-54.551 -143.261)" fill="#ffad91"/>
            <path id="Path_7699" data-name="Path 7699" d="M94.178,182.287c.137-.43,6.756-11.333,13.624-9.767s4.089,7.889,1.684,12.138-3.606,10.648.318,14.5,2.985,7.616,2.985,7.616C101.246,202.632,90.28,194.266,94.178,182.287Z" transform="translate(-65.165 -122.385)" fill="#ffad91"/>
            <path id="Path_7700" data-name="Path 7700" d="M135.745,194.046s-1.139-.048-2.8,0c-3.132.045-8.207.379-11.243,1.754-4.675,2.065-18.98-10.534-21.278-14.47-1.639-2.775-5.1-11.482-.452-16.393-1.448,4.84,1.018,10.865,2.323,13.1,2.3,3.937,16.606,16.536,21.281,14.471,2.444-1.092,5.646-.617,8.137.07a27.373,27.373,0,0,1,4.032,1.468Z" transform="translate(-55.861 -138.601)" fill="#606060" opacity="0.3"/>
            <path id="Path_7701" data-name="Path 7701" d="M103.023,199.157a4.98,4.98,0,0,1,1.3,6v.022a6.837,6.837,0,0,1-1.066,1.591,6.635,6.635,0,0,0-.216-3.109,10.012,10.012,0,0,0-2.775-4.506c-3.914-3.844-2.727-10.247-.309-14.5,2.4-4.245,5.171-10.556-1.658-12.144a6.111,6.111,0,0,1,2.705,0c6.877,1.566,4.1,7.9,1.683,12.144C100.3,188.91,99.086,195.313,103.023,199.157Z" transform="translate(-55.663 -122.388)" fill="#606060" opacity="0.3"/>
          </g>
        </g>
        <g id="Group_53" data-name="Group 53" transform="translate(49.066 176.694)">
          <path id="Path_7702" data-name="Path 7702" d="M92.845,191.578S51.442,211.831,49.071,300s-4.153,144.9,1.184,153.6,98.451,11.466,114.462,7.514l13.443-25.106,11.269,24.314s16.211,2.966,32.817-1.381c0,0,13.051-216.866-60.285-259.669Z" transform="translate(-46.767 -174.87)" fill="#4d48a1"/>
          <ellipse id="Ellipse_30" data-name="Ellipse 30" cx="8.303" cy="11.12" rx="8.303" ry="11.12" transform="translate(116.073 131.554)" fill="#35d6c6"/>
          <ellipse id="Ellipse_31" data-name="Ellipse 31" cx="8.303" cy="11.12" rx="8.303" ry="11.12" transform="translate(120.521 193.743)" fill="#35d6c6"/>
          <path id="Path_7703" data-name="Path 7703" d="M65.862,199.562s27.086,18.188,38.946,44.678,21.745,49.62,26.491,31.035-4.449-63.247-23.623-79.36S65.862,199.562,65.862,199.562Z" transform="translate(-5.094 -179.207)" fill="#fff"/>
          <path id="Path_7704" data-name="Path 7704" d="M66,186.329l-2.169,10.665,34,19.67,9.129.971.521-.39,8.043-10.564-1.68-6.375.025-7.518Z" transform="translate(-9.533 -186.327)" fill="#ffad91"/>
          <path id="Path_7705" data-name="Path 7705" d="M113.984,201.96a62.819,62.819,0,0,1-16.463,2.161,63.784,63.784,0,0,1-33.546-9.49l1.709-8.3,47.873,6.451-.026,7.52Z" transform="translate(-9.21 -186.328)" fill="#ed9780"/>
          <path id="Path_7706" data-name="Path 7706" d="M81.316,190.13s10.922,12.628,11.072,21.67L79.932,201.7Z" transform="translate(25.613 -178.03)" fill="#27c1ae"/>
          <path id="Path_7707" data-name="Path 7707" d="M86.884,190.909l-2.61-1.136c-1.349,4.229-2.511,16-6.893,20.345C77.381,210.118,89.108,210.335,86.884,190.909Z" transform="translate(20.045 -178.81)" fill="#35d6c6"/>
          <path id="Path_7708" data-name="Path 7708" d="M82.084,191.761s6.46,9.865,11.7,14.019c0,0-13.182,1.2-21.682-2.158S82.084,191.761,82.084,191.761Z" transform="translate(3.644 -174.471)" fill="#27c1ae"/>
          <path id="Path_7709" data-name="Path 7709" d="M101.5,198.607s-5.633,16.113-5.633,22.735c0,0-20.66-9.194-34.892-24.218l7.561-8.5A101.743,101.743,0,0,0,101.5,198.607Z" transform="translate(-15.768 -181.317)" fill="#35d6c6"/>
        </g>
        <g id="Group_61" data-name="Group 61" transform="translate(60.017)">
          <path id="Path_7710" data-name="Path 7710" d="M102.689,149.8s2.759,46.791-8.112,52.083V147.377Z" transform="translate(46.624 -94.641)" fill="#3a3244"/>
          <path id="Path_7711" data-name="Path 7711" d="M118.3,279.829h0a63.854,63.854,0,0,1-63.852-63.852v-68.6H182.155v68.6A63.856,63.856,0,0,1,118.3,279.829Z" transform="translate(-40.955 -94.641)" fill="#ffad91"/>
          <path id="Path_7712" data-name="Path 7712" d="M102.25,196.192s-.789,19.769-14.034,31.038c0,0-.6,25.106-3.558,30.048S81.5,229.8,78.331,229.009,67.839,249.946,73.783,264.2c2.209,5.3,6.906,13.774.369,22.952-4.914,6.9-23.2-33.428-14.645-101.335,0,0-9.3-5.041-9.3-20.014s19.572-21.5,39.144-21.351,26.1-13.643,41.365-13.643,22.983,12.456,35.29,10.677,17.2-10.823,27.133-7.265,21.338,19.391,13.688,41.021C201.1,191.45,167.289,215.566,102.25,196.192Z" transform="translate(-50.208 -130.806)" fill="#4e435a"/>
          <g id="Group_54" data-name="Group 54" transform="translate(0.825 84.664)">
            <path id="Path_7713" data-name="Path 7713" d="M75.89,193.748c-1.518,6.069-13.828,7.1-20.848-2.463-7.721-10.518-3.351-27.3,4.182-32.053,7.829-4.942,15.549,3.077,15.549,3.077S81.434,171.617,75.89,193.748Z" transform="translate(-49.337 -156.946)" fill="#ffad91"/>
            <path id="Path_7714" data-name="Path 7714" d="M65.282,165.4a24.291,24.291,0,0,0,.073-3.011l-.274-.019a24.424,24.424,0,0,1-.742,2.845A28.213,28.213,0,0,1,62.7,169.24a4.55,4.55,0,0,0-.2-.547,10.917,10.917,0,0,0-1.613-1.862,19.462,19.462,0,0,0-5.117-3.72l-.165.22s.528.563,1.228,1.467a30.739,30.739,0,0,1,2.31,3.367c.366.627.57,1.318.84,1.881a10.925,10.925,0,0,0,.948,1.423l.15.207c-.481.547-.99,1.041-1.458,1.477-.694.621-1.324,1.187-1.96,1.648-.334.191-.636.411-.923.608-.309.162-.579.3-.8.426-.461.242-.754.433-.754.433v.274a8.52,8.52,0,0,0,1.909.43,13.089,13.089,0,0,0,1.384-.134,6.958,6.958,0,0,0,1.572-.554,7.284,7.284,0,0,0,1.534-1.053,11.46,11.46,0,0,0,2.059-3.268A19.514,19.514,0,0,0,65.282,165.4Z" transform="translate(-40.187 -146.587)" fill="#ed9780"/>
            <path id="Path_7715" data-name="Path 7715" d="M75.757,162.916a15.893,15.893,0,0,0-2.619-1.938,12.884,12.884,0,0,0-7.946-2.132,9.359,9.359,0,0,0-4.853,2.075,12.083,12.083,0,0,0-2.059,2.1,18.835,18.835,0,0,0-1.7,2.626,26.325,26.325,0,0,0-2.807,12.975,22.534,22.534,0,0,0,1.257,6.53,21.146,21.146,0,0,0,2.934,5.41l1.053,1.308c.353.414.659.665.971,1.018a8.72,8.72,0,0,0,1.022.936,7.925,7.925,0,0,0,1.079.853,13.257,13.257,0,0,0,4.586,2.132,11.448,11.448,0,0,0,7.66-.792,8.528,8.528,0,0,0,1.9-1.318l.611-.592.353.21-.395.821a7.845,7.845,0,0,1-1.623,2.053,9.822,9.822,0,0,1-3.552,2.158,13.021,13.021,0,0,1-5.439.716,14.55,14.55,0,0,1-6.231-2.027,14.776,14.776,0,0,1-2.906-2.135,17.613,17.613,0,0,1-1.337-1.333l-1.069-1.3a21.134,21.134,0,0,1-3.3-6.982,27.615,27.615,0,0,1-.866-7.644,29.1,29.1,0,0,1,4.029-14.187,21.117,21.117,0,0,1,2.1-2.836,12.877,12.877,0,0,1,2.562-2.259,11.07,11.07,0,0,1,5.919-1.954,13.881,13.881,0,0,1,8.427,2.992,16.163,16.163,0,0,1,2.524,2.224Z" transform="translate(-50.467 -157.41)" fill="#ed9780"/>
          </g>
          <path id="Path_7716" data-name="Path 7716" d="M124.154,139.115a15.21,15.21,0,0,1,.207,2.543,22.342,22.342,0,0,1-.162,2.94c-.073.566-.153,1.171-.236,1.808q-.21.94-.446,1.973a29.477,29.477,0,0,1-1.432,4.35,28.457,28.457,0,0,1-2.349,4.573,34.578,34.578,0,0,1-3.217,4.487,50.152,50.152,0,0,1-4.026,4.035,50.061,50.061,0,0,1-4.586,3.342,46.946,46.946,0,0,1-4.805,2.587c-1.614.71-3.2,1.318-4.7,1.887-1.544.446-3.017.808-4.369,1.133-.671.159-1.318.315-1.932.461l-1.792.21c-1.117.143-2.1.216-2.9.286-1.6.127-2.52.153-2.52.153s.84-.417,2.3-1.069c.732-.318,1.613-.716,2.632-1.117a31.716,31.716,0,0,0,3.342-1.505c1.2-.592,2.5-1.219,3.879-1.82,1.317-.754,2.68-1.569,4.124-2.32s2.737-1.852,4.194-2.718c1.426-.92,2.68-2.094,4.051-3.113,1.263-1.139,2.521-2.3,3.688-3.5a44.51,44.51,0,0,0,3.192-3.758c.993-1.263,1.839-2.568,2.645-3.819.735-1.283,1.461-2.508,2.03-3.689a44,44,0,0,0,3.188-8.34Z" transform="translate(25.474 -112.672)" fill="#3a3244"/>
          <path id="Path_7717" data-name="Path 7717" d="M113.56,144a10.081,10.081,0,0,1-.691,1.808,15.79,15.79,0,0,1-1.107,1.938A19.337,19.337,0,0,1,110,150.06a21.116,21.116,0,0,1-2.425,2.447,30.687,30.687,0,0,1-3.026,2.38,35.467,35.467,0,0,1-3.526,2.107,39.564,39.564,0,0,1-3.838,1.769,37.7,37.7,0,0,1-3.984,1.356,30.256,30.256,0,0,1-3.943.964,44.933,44.933,0,0,1-7.1.885,39.783,39.783,0,0,1-5.044-.035c-1.216-.07-1.906-.143-1.906-.143s.668-.226,1.833-.56c1.162-.363,2.839-.7,4.8-1.279.98-.286,2.04-.589,3.166-.862s2.266-.726,3.478-1.044c1.222-.3,2.422-.8,3.669-1.2a35.9,35.9,0,0,0,3.707-1.384,37.561,37.561,0,0,0,3.628-1.54c1.2-.515,2.3-1.149,3.415-1.693,1.037-.656,2.132-1.177,3.061-1.827.952-.617,1.846-1.219,2.638-1.824a33.821,33.821,0,0,0,3.682-3.179A17.627,17.627,0,0,0,113.56,144Z" transform="translate(4.355 -102.018)" fill="#3a3244"/>
          <g id="Group_60" data-name="Group 60" transform="translate(57.917 85.441)">
            <g id="Group_57" data-name="Group 57" transform="translate(16.568 54.267)">
              <g id="Group_55" data-name="Group 55">
                <path id="Path_7718" data-name="Path 7718" d="M107.273,190.936c-2.909,3.272-7.5,5.706-14.735,5.522-7.323-.185-11.823-2.922-14.588-6.387-5.121-6.422-4.287-15.365-4.287-15.365a50.507,50.507,0,0,0,15.171,2.734c14.35.369,23.445-1.741,23.445-1.741S112.759,184.785,107.273,190.936Z" transform="translate(-73.613 -174.706)" fill="#c64b55"/>
              </g>
              <g id="Group_56" data-name="Group 56" transform="translate(4.337 9.055)">
                <path id="Path_7719" data-name="Path 7719" d="M104.3,184.727c-2.909,3.272-7.5,5.706-14.735,5.521-7.323-.184-11.823-2.921-14.588-6.387,1.442-3.762,7.558-6.486,14.811-6.3C97.119,177.745,103.134,180.841,104.3,184.727Z" transform="translate(-74.976 -177.551)" fill="#ed747d"/>
              </g>
            </g>
            <path id="Path_7720" data-name="Path 7720" d="M68.407,166.094a24.679,24.679,0,0,1,18.843-8.44" transform="translate(-68.407 -157.654)" fill="none" stroke="#343434" stroke-linecap="round" stroke-miterlimit="10" stroke-width="1.212"/>
            <g id="Group_58" data-name="Group 58" transform="translate(8.729 10.626)">
              <path id="Path_7721" data-name="Path 7721" d="M77.671,181.415h0a6.5,6.5,0,0,1-6.511-6.492l-.01-6.549a6.506,6.506,0,0,1,6.5-6.511h0a6.508,6.508,0,0,1,6.511,6.5l.01,6.546A6.5,6.5,0,0,1,77.671,181.415Z" transform="translate(-71.15 -159.096)" fill="#343434"/>
              <path id="Path_7722" data-name="Path 7722" d="M77.768,171.209h0a4.228,4.228,0,0,1-4.233-4.22v-1.766a4.223,4.223,0,0,1,4.217-4.229h0a4.224,4.224,0,0,1,4.233,4.22v1.766a4.225,4.225,0,0,1-4.217,4.229Z" transform="translate(-65.945 -160.993)" fill="#fff"/>
            </g>
            <path id="Path_7723" data-name="Path 7723" d="M105.094,166.094a24.679,24.679,0,0,0-18.843-8.44" transform="translate(-29.464 -157.654)" fill="none" stroke="#343434" stroke-linecap="round" stroke-miterlimit="10" stroke-width="1.212"/>
            <g id="Group_59" data-name="Group 59" transform="translate(50.861 10.626)">
              <path id="Path_7724" data-name="Path 7724" d="M91.832,181.415h0a6.5,6.5,0,0,0,6.511-6.492l.01-6.549a6.506,6.506,0,0,0-6.5-6.511h0a6.508,6.508,0,0,0-6.511,6.5l0,6.537a6.5,6.5,0,0,0,6.492,6.515Z" transform="translate(-82.313 -159.096)" fill="#343434"/>
              <path id="Path_7725" data-name="Path 7725" d="M88.606,171.209h0a4.226,4.226,0,0,0,4.233-4.22v-1.766a4.223,4.223,0,0,0-4.22-4.229h0a4.223,4.223,0,0,0-4.229,4.22v1.766a4.221,4.221,0,0,0,4.216,4.229Z" transform="translate(-84.389 -160.993)" fill="#fff"/>
            </g>
          </g>
        </g>
        <g id="Group_65" data-name="Group 65" transform="translate(0 212.764)">
          <g id="Group_62" data-name="Group 62" transform="translate(178.961 55.233)">
            <path id="Path_7726" data-name="Path 7726" d="M243.6,215.782a1.955,1.955,0,0,0-1.55-.764H145.124a1.959,1.959,0,0,0-1.789,1.171l-55.587,127a1.951,1.951,0,0,0,.242,1.976h0a2.127,2.127,0,0,0,1.683.831h97.045l57.131-128.1a2.07,2.07,0,0,0-.251-2.113Z" transform="translate(-87.583 -215.018)" fill="#c86277"/>
            <path id="Path_7727" data-name="Path 7727" d="M88.852,341.042l4.253,6.919L147.669,223.3l-4.219-7Z" transform="translate(-84.815 -212.221)" fill="#fff"/>
            <path id="Path_7728" data-name="Path 7728" d="M106.008,216.3H203.1l6.185,7.192-99.061-.2Z" transform="translate(-47.373 -212.221)" fill="#fff"/>
            <path id="Path_7729" data-name="Path 7729" d="M245.962,218.482a1.965,1.965,0,0,0-1.55-.764H147.489a1.96,1.96,0,0,0-1.792,1.171l-55.587,127a1.952,1.952,0,0,0,.242,1.976h0a2.124,2.124,0,0,0,1.684.828h95.7a2.077,2.077,0,0,0,1.9-1.232l56.58-126.867a2.076,2.076,0,0,0-.248-2.113Z" transform="translate(-82.428 -209.125)" fill="#c86277"/>
            <path id="Path_7730" data-name="Path 7730" d="M136.945,215.325l7.008,8.015-3.553-.4-3.882-4.514Z" transform="translate(19.212 -214.348)" fill="#c86277"/>
            <path id="Path_7731" data-name="Path 7731" d="M174.147,250.008H110.225a3.254,3.254,0,0,1-2.928-4.672l10.126-20.883a3.255,3.255,0,0,1,2.928-1.833H184.27a3.252,3.252,0,0,1,2.928,4.672l-10.123,20.883a3.255,3.255,0,0,1-2.928,1.833Z" transform="translate(-45.279 -198.427)" fill="#fff"/>
            <path id="Path_7732" data-name="Path 7732" d="M172.334,239.188H108.406a3.251,3.251,0,0,1-2.928-4.665h0a3.252,3.252,0,0,1,2.928-1.84h63.928a3.253,3.253,0,0,1,2.931,4.665h0A3.253,3.253,0,0,1,172.334,239.188Z" transform="translate(-49.246 -176.466)" fill="#fff"/>
          </g>
          <g id="Group_64" data-name="Group 64">
            <path id="Path_7733" data-name="Path 7733" d="M86.484,255.727s9.84-17.58,17.4-18.617a43.042,43.042,0,0,1,12.182-.213l-6.3,14.391s7.017,5.391,14.875,5.245,23.13-7.116,28.763-2.374,14.085,28.766-2.816,41.515-61.876-3.135-61.876-3.135Z" transform="translate(88.978 -112.713)" fill="#ffad91"/>
            <g id="Group_63" data-name="Group 63">
              <path id="Path_7734" data-name="Path 7734" d="M162.674,383c-9.172,0-19.559-.14-30.262-.55-64.549-2.476-82.561-12.517-91.663-22.016-21.157-22.073-3.093-59.747,19.581-97.172C78.079,233.97,97.918,207.7,98.752,206.6a22.538,22.538,0,1,1,35.94,27.205c-28.261,37.346-53.071,79.478-57.494,96.8,17.618,5.767,68.256,8.876,116.823,6.747a22.537,22.537,0,0,1,1.97,45.031C195.151,382.417,181.463,383,162.674,383Z" transform="translate(-31.349 -197.662)" fill="#f1f1f1"/>
            </g>
          </g>
        </g>
      </g>
      <g id="Group_87" data-name="Group 87" transform="translate(157.766)">
        <g id="Group_68" data-name="Group 68" transform="translate(633.233 278.485)">
          <path id="Path_7735" data-name="Path 7735" d="M279.553,179.533l.083,37.158c.067,28.346,23.824,50.508,52.15,50.441l67.543-.35a45.917,45.917,0,0,0,5.531.041c17.627,13.678,47.084,10.8,47.084,10.8-12.262-8.023-15.508-18.273-16.482-24.848A51.24,51.24,0,0,0,451.247,216.1l-.086-37.155c-.064-28.349-23.823-50.508-52.147-50.445l-67.544.353C303.144,128.917,279.486,151.184,279.553,179.533Z" transform="translate(-279.553 -128.5)" fill="#f85f33"/>
          <g id="Group_67" data-name="Group 67" transform="translate(31.551 56.746)">
            <path id="Path_7736" data-name="Path 7736" d="M315.572,159.436a13.107,13.107,0,1,0,13.106-13.1,13.107,13.107,0,0,0-13.106,13.1Z" transform="translate(-232.495 -146.331)" fill="#fff"/>
            <path id="Path_7737" data-name="Path 7737" d="M302.519,159.436a13.107,13.107,0,1,0,13.107-13.1,13.107,13.107,0,0,0-13.107,13.1Z" transform="translate(-260.982 -146.331)" fill="#fff"/>
            <path id="Path_7738" data-name="Path 7738" d="M289.467,159.436a13.107,13.107,0,1,0,13.106-13.1,13.107,13.107,0,0,0-13.106,13.1Z" transform="translate(-289.467 -146.331)" fill="#fff"/>
          </g>
        </g>
        <g id="Group_70" data-name="Group 70" transform="translate(149.506 262.573)">
          <path id="Path_7739" data-name="Path 7739" d="M299.945,174.533l-.086,37.158c-.064,28.346-23.823,50.508-52.147,50.441l-67.544-.35a45.942,45.942,0,0,1-5.531.041c-17.627,13.678-47.084,10.8-47.084,10.8,12.262-8.023,15.508-18.273,16.482-24.848A51.228,51.228,0,0,1,128.25,211.1l.083-37.155c.067-28.349,23.824-50.508,52.15-50.444l67.544.353C276.35,123.917,300.008,146.184,299.945,174.533Z" transform="translate(-127.553 -123.5)" fill="#f85f33"/>
          <g id="Group_69" data-name="Group 69" transform="translate(31.55 56.744)">
            <circle id="Ellipse_32" data-name="Ellipse 32" cx="13.107" cy="13.107" r="13.107" transform="translate(0 0)" fill="#fff"/>
            <circle id="Ellipse_33" data-name="Ellipse 33" cx="13.107" cy="13.107" r="13.107" transform="translate(41.539 0)" fill="#fff"/>
            <circle id="Ellipse_34" data-name="Ellipse 34" cx="13.107" cy="13.107" r="13.107" transform="translate(83.077 0)" fill="#fff"/>
          </g>
        </g>
        <path id="Path_7740" data-name="Path 7740" d="M160.138,173.49V277.143H591.566V198.778" transform="translate(93.067 248.173)" fill="none" stroke="#b4f7ff" stroke-linecap="round" stroke-linejoin="round" stroke-width="1.606" stroke-dasharray="5.354 3.213"/>
        <g id="Group_75" data-name="Group 75" transform="translate(399.756 97.712)">
          <g id="Group_74" data-name="Group 74" transform="translate(22.742 33.427)">
            <g id="Group_72" data-name="Group 72">
              <g id="Group_71" data-name="Group 71">
                <path id="Path_7741" data-name="Path 7741" d="M230.294,83.075l45.439-.869A32.633,32.633,0,0,1,304.3,97.978" transform="translate(-176.322 -82.2)" fill="none" stroke="#a28ff2" stroke-linecap="round" stroke-linejoin="round" stroke-width="1.23"/>
                <path id="Path_7742" data-name="Path 7742" d="M218.024,160.181a32.63,32.63,0,0,1-.624-32.626l21.965-39.783" transform="translate(-213.334 -70.042)" fill="none" stroke="#a28ff2" stroke-linecap="round" stroke-linejoin="round" stroke-width="1.23"/>
                <path id="Path_7743" data-name="Path 7743" d="M273.837,138.085l-23.085.442a32.636,32.636,0,0,1-28.569-15.775" transform="translate(-194.023 6.301)" fill="none" stroke="#a28ff2" stroke-linecap="round" stroke-linejoin="round" stroke-width="1.23"/>
                <path id="Path_7744" data-name="Path 7744" d="M295.345,109.638,273.38,149.424a32.631,32.631,0,0,1-27.942,16.851" transform="translate(-143.271 -22.319)" fill="none" stroke="#a28ff2" stroke-linecap="round" stroke-linejoin="round" stroke-width="1.23"/>
              </g>
              <path id="Path_7745" data-name="Path 7745" d="M219.475,136.235l19.753-35.777A29.344,29.344,0,0,1,264.356,85.3l40.862-.78A29.348,29.348,0,0,1,330.907,98.7l21.106,35a29.341,29.341,0,0,1,.563,29.339l-19.756,35.78a29.341,29.341,0,0,1-25.125,15.155l-40.862.783a29.348,29.348,0,0,1-25.689-14.184l-21.109-35a29.349,29.349,0,0,1-.56-29.338Z" transform="translate(-207.911 -77.147)" fill="#a28ff2"/>
            </g>
            <g id="Group_73" data-name="Group 73" transform="translate(21.586 22.316)">
              <text id="_24" data-name="24" transform="translate(0 54.256)" fill="#fff" font-size="33" font-family="OpenSans-Bold, Open Sans" font-weight="700"><tspan x="0" y="0">24</tspan></text>
              <text id="_7" data-name="7" transform="translate(75.253 53.256)" fill="#fff" font-size="32" font-family="OpenSans-Bold, Open Sans" font-weight="700"><tspan x="0" y="0">7</tspan></text>
              <text id="_" data-name="/" transform="translate(47.693 59)" fill="#fff" font-size="55" font-family="OpenSans-Regular, Open Sans"><tspan x="0" y="0">/</tspan></text>
            </g>
            <path id="Path_7746" data-name="Path 7746" d="M304.516,115.054A53.823,53.823,0,0,0,231.094,94.97a2.683,2.683,0,1,0,2.657,4.662A48.457,48.457,0,0,1,283.776,182.6l-.7-1.092a2.5,2.5,0,0,0-4.233.029l-4.073,6.581a2.5,2.5,0,0,0,2.288,3.806L285,191.4a2.5,2.5,0,0,0,1.941-3.835l-.28-.442a53.892,53.892,0,0,0,17.857-72.071Z" transform="translate(-177.533 -69.819)" fill="#fff"/>
          </g>
          <path id="Path_7747" data-name="Path 7747" d="M207.263,129.928l5.6,2.17a1.7,1.7,0,0,1,.964.967l2.151,5.6a1.683,1.683,0,0,0,3.141,0l2.174-5.6a1.692,1.692,0,0,1,.964-.964l5.6-2.151a1.683,1.683,0,0,0,.006-3.141l-5.6-2.174a1.692,1.692,0,0,1-.964-.964l-2.151-5.6A1.683,1.683,0,0,0,216,118.07l-2.174,5.6a1.692,1.692,0,0,1-.964.964l-5.6,2.151a1.683,1.683,0,0,0-.006,3.143Z" transform="translate(-206.188 27.174)" fill="#b4f7ff"/>
          <path id="Path_7748" data-name="Path 7748" d="M261.015,134.587l5.6,2.174a1.678,1.678,0,0,1,.961.964l2.151,5.6a1.685,1.685,0,0,0,3.144.006l2.17-5.6a1.7,1.7,0,0,1,.967-.964l5.6-2.151a1.684,1.684,0,0,0,0-3.141L276,129.3a1.678,1.678,0,0,1-.961-.964l-2.151-5.6a1.685,1.685,0,0,0-3.144-.006l-2.17,5.6a1.688,1.688,0,0,1-.968.964l-5.6,2.151a1.684,1.684,0,0,0,0,3.141Z" transform="translate(-88.879 37.342)" fill="#b4f7ff"/>
          <path id="Path_7749" data-name="Path 7749" d="M230.814,84.625l5.6,2.174a1.678,1.678,0,0,1,.961.964l2.151,5.6a1.686,1.686,0,0,0,3.144.006l2.17-5.6a1.689,1.689,0,0,1,.967-.964l5.6-2.151a1.684,1.684,0,0,0,0-3.141l-5.6-2.174a1.678,1.678,0,0,1-.961-.964l-2.151-5.6a1.686,1.686,0,0,0-3.144-.006l-2.17,5.6a1.7,1.7,0,0,1-.967.964l-5.595,2.151a1.684,1.684,0,0,0,0,3.141Z" transform="translate(-154.79 -71.696)" fill="#b4f7ff"/>
        </g>
        <g id="Group_79" data-name="Group 79" transform="translate(896.725)">
          <g id="Group_77" data-name="Group 77" transform="translate(16.889 29.112)">
            <g id="Group_76" data-name="Group 76">
              <path id="Path_7750" data-name="Path 7750" d="M406.225,57.309l16.326,37.979a29.685,29.685,0,0,1-3.482,29.482" transform="translate(-283.482 -34.496)" fill="none" stroke="#a28ff2" stroke-linecap="round" stroke-linejoin="round" stroke-width="1.119"/>
              <path id="Path_7751" data-name="Path 7751" d="M377.279,62.07a29.685,29.685,0,0,1,27.273-11.724l41.056,4.85" transform="translate(-346.655 -50.14)" fill="none" stroke="#a28ff2" stroke-linecap="round" stroke-linejoin="round" stroke-width="1.119"/>
              <path id="Path_7752" data-name="Path 7752" d="M378.365,113.079l-8.3-19.3A29.693,29.693,0,0,1,373.553,64.3" transform="translate(-367.656 -19.241)" fill="none" stroke="#a28ff2" stroke-linecap="round" stroke-linejoin="round" stroke-width="1.119"/>
              <path id="Path_7753" data-name="Path 7753" d="M438.39,108.1l-41.056-4.85A29.688,29.688,0,0,1,373.545,85.5" transform="translate(-354.804 27.025)" fill="none" stroke="#a28ff2" stroke-linecap="round" stroke-linejoin="round" stroke-width="1.119"/>
            </g>
            <path id="Path_7754" data-name="Path 7754" d="M421.946,52.487l36.919,4.36a26.7,26.7,0,0,1,21.392,15.969l14.684,34.154a26.685,26.685,0,0,1-3.132,26.51L469.57,163.274a26.686,26.686,0,0,1-24.524,10.543l-36.922-4.36a26.7,26.7,0,0,1-21.393-15.969L372.05,119.334a26.692,26.692,0,0,1,3.131-26.513L397.422,63.03a26.686,26.686,0,0,1,24.524-10.543Z" transform="translate(-362.801 -45.423)" fill="#a28ff2"/>
          </g>
          <g id="Group_78" data-name="Group 78" transform="translate(51.972 73.481)">
            <path id="Path_7755" data-name="Path 7755" d="M450,64.082v46.389H378.68V64.082l25.865,23.2,9.794,8.775,9.793-8.775Z" transform="translate(-378.68 -64.082)" fill="none" stroke="#fff" stroke-linecap="round" stroke-linejoin="round" stroke-width="1.5"/>
            <path id="Path_7756" data-name="Path 7756" d="M450,64.082l-25.865,23.2-9.793,8.775-9.794-8.775-25.865-23.2Z" transform="translate(-378.68 -64.082)" fill="none" stroke="#fff" stroke-linecap="round" stroke-linejoin="round" stroke-width="1.5"/>
            <path id="Path_7757" data-name="Path 7757" d="M450,94.561H378.68l25.865-23.188,9.794,8.776,9.793-8.776Z" transform="translate(-378.68 -48.172)" fill="none" stroke="#fff" stroke-linecap="round" stroke-linejoin="round" stroke-width="1.5"/>
          </g>
          <path id="Path_7758" data-name="Path 7758" d="M402.121,101.116l5.092,1.976a1.525,1.525,0,0,1,.875.878l1.957,5.089a1.534,1.534,0,0,0,2.861.006l1.973-5.092a1.525,1.525,0,0,1,.878-.875l5.092-1.96a1.532,1.532,0,0,0,0-2.858l-5.088-1.98a1.534,1.534,0,0,1-.875-.878l-1.957-5.089a1.533,1.533,0,0,0-2.861,0L408.1,95.425a1.544,1.544,0,0,1-.878.875l-5.092,1.957a1.533,1.533,0,0,0,0,2.859Z" transform="translate(-277.682 64.553)" fill="#b4f7ff"/>
          <path id="Path_7759" data-name="Path 7759" d="M363.946,60.2l8.312,3.224a2.5,2.5,0,0,1,1.432,1.435l3.2,8.309a2.5,2.5,0,0,0,4.669.006l3.224-8.312a2.5,2.5,0,0,1,1.435-1.429l8.309-3.2a2.5,2.5,0,0,0,.009-4.669L386.22,52.34a2.49,2.49,0,0,1-1.429-1.435l-3.2-8.309a2.5,2.5,0,0,0-4.665-.01L373.7,50.9a2.49,2.49,0,0,1-1.435,1.429l-8.309,3.2a2.5,2.5,0,0,0-.01,4.671Z" transform="translate(-362.349 -40.993)" fill="#b4f7ff"/>
        </g>
        <g id="Group_84" data-name="Group 84" transform="translate(0 27.361)">
          <g id="Group_83" data-name="Group 83" transform="translate(8.848 12.514)">
            <g id="Group_81" data-name="Group 81">
              <g id="Group_80" data-name="Group 80">
                <path id="Path_7760" data-name="Path 7760" d="M98.783,54.32l41.333-.792A29.689,29.689,0,0,1,166.1,67.877" transform="translate(-49.684 -53.522)" fill="none" stroke="#a28ff2" stroke-linecap="round" stroke-linejoin="round" stroke-width="1.119"/>
                <path id="Path_7761" data-name="Path 7761" d="M87.62,124.463a29.691,29.691,0,0,1-.57-29.679L107.036,58.59" transform="translate(-83.355 -42.463)" fill="none" stroke="#a28ff2" stroke-linecap="round" stroke-linejoin="round" stroke-width="1.119"/>
                <path id="Path_7762" data-name="Path 7762" d="M138.392,104.358l-21,.4A29.686,29.686,0,0,1,91.4,90.413" transform="translate(-65.788 26.989)" fill="none" stroke="#a28ff2" stroke-linecap="round" stroke-linejoin="round" stroke-width="1.119"/>
                <path id="Path_7763" data-name="Path 7763" d="M157.961,78.483l-19.982,36.19a29.687,29.687,0,0,1-25.421,15.333" transform="translate(-19.621 0.952)" fill="none" stroke="#a28ff2" stroke-linecap="round" stroke-linejoin="round" stroke-width="1.119"/>
              </g>
              <path id="Path_7764" data-name="Path 7764" d="M88.941,102.679l17.968-32.547a26.692,26.692,0,0,1,22.859-13.786l37.171-.713a26.69,26.69,0,0,1,23.368,12.9l19.2,31.834a26.691,26.691,0,0,1,.509,26.691l-17.968,32.547A26.7,26.7,0,0,1,169.192,173.4l-37.171.71a26.691,26.691,0,0,1-23.368-12.9l-19.2-31.837a26.693,26.693,0,0,1-.512-26.694Z" transform="translate(-78.422 -48.926)" fill="#a28ff2"/>
            </g>
            <g id="Group_82" data-name="Group 82" transform="translate(40.972 15.321)">
              <path id="Path_7765" data-name="Path 7765" d="M105.268,64.006s5.162-5.907,8.354-5.662,7.2,1.053,7.87,3.307S124.611,76.7,124.611,76.7a4.748,4.748,0,0,1-1.254,3.914,40.4,40.4,0,0,1-5.1,4,3.6,3.6,0,0,0-.847,4.194,78.26,78.26,0,0,0,6.893,13.08c4.064,6.123,13.115,11.727,13.115,11.727a3.033,3.033,0,0,0,2.431-.239c1.069-.71,7.116-5.776,7.116-5.776a3.469,3.469,0,0,1,4.3.01c2.333,1.693,12.37,9.5,12.37,9.5a2.468,2.468,0,0,1,.812,2.711c-.4,1.97-2.167,6.632-4.128,7.934s-7.74,5.366-14.9,3.924-23.05-10.712-30.309-21.634S101.634,88.281,101.418,79.5,102.22,66.988,105.268,64.006Z" transform="translate(-84.966 -58.337)" fill="#fff"/>
              <path id="Path_7766" data-name="Path 7766" d="M108.29,77.073l-4.923,4.048a1.763,1.763,0,0,0-.245,2.482l1.76,2.139a21.649,21.649,0,0,0-3.338,6.25l-2.756-.27a1.764,1.764,0,0,0-1.93,1.578l-.621,6.342a1.764,1.764,0,0,0,1.582,1.929l2.756.271a21.64,21.64,0,0,0,2.062,6.782l-2.142,1.757a1.759,1.759,0,0,0-.245,2.479l4.048,4.926a1.756,1.756,0,0,0,2.479.242l2.142-1.757a21.685,21.685,0,0,0,6.25,3.338l-.271,2.756a1.768,1.768,0,0,0,1.582,1.929l6.346.621a1.765,1.765,0,0,0,1.925-1.582l.271-2.756a21.6,21.6,0,0,0,6.779-2.062l1.76,2.142a1.762,1.762,0,0,0,2.479.242l4.926-4.045a1.76,1.76,0,0,0,.242-2.482l-1.757-2.139a21.646,21.646,0,0,0,3.338-6.25l2.756.27a1.763,1.763,0,0,0,1.925-1.582l.624-6.346a1.766,1.766,0,0,0-1.585-1.925l-2.753-.27a21.57,21.57,0,0,0-2.062-6.779l2.142-1.76a1.765,1.765,0,0,0,.245-2.479l-4.048-4.926a1.766,1.766,0,0,0-2.482-.245l-2.139,1.76a21.647,21.647,0,0,0-6.25-3.338l.271-2.756a1.761,1.761,0,0,0-1.582-1.925l-6.346-.624a1.763,1.763,0,0,0-1.925,1.582l-.27,2.76a21.591,21.591,0,0,0-6.782,2.062l-1.757-2.142A1.769,1.769,0,0,0,108.29,77.073ZM116.51,92.1a8.91,8.91,0,1,1-1.228,12.542A8.91,8.91,0,0,1,116.51,92.1Z" transform="translate(-96.229 -26.223)" fill="#fff"/>
              <path id="Path_7767" data-name="Path 7767" d="M129.25,84.427a1.767,1.767,0,0,1-.239,2.485l-2.142,1.754a21.474,21.474,0,0,1,2.062,6.794l2.746.255a1.774,1.774,0,0,1,1.585,1.944L133.1,99.4a60.044,60.044,0,0,1-8.411-4.522,19.754,19.754,0,0,0-1.5-4.016l2.145-1.754a1.766,1.766,0,0,0,.235-2.482l-4.035-4.92a1.794,1.794,0,0,0-2.5-.255l-2.132,1.773a21.743,21.743,0,0,0-6.257-3.342l.274-2.756a1.766,1.766,0,0,0-1.575-1.925l-4.506-.452a1.316,1.316,0,0,1-.162-.226l.064-.563a1.775,1.775,0,0,1,1.928-1.575l6.352.621a1.765,1.765,0,0,1,1.572,1.925l-.274,2.756a21.837,21.837,0,0,1,6.26,3.342l2.132-1.773a1.789,1.789,0,0,1,1.935-.181c.194.159.376.3.56.436l.022.038Z" transform="translate(-77.775 -27.705)" fill="#b5b5b5"/>
            </g>
          </g>
          <path id="Path_7768" data-name="Path 7768" d="M81.554,97.863l5.092,1.976a1.535,1.535,0,0,1,.875.878l1.957,5.089a1.532,1.532,0,0,0,2.858.006l1.976-5.092a1.531,1.531,0,0,1,.878-.878l5.089-1.957a1.532,1.532,0,0,0,.006-2.858l-5.092-1.976a1.531,1.531,0,0,1-.878-.878l-1.957-5.089a1.531,1.531,0,0,0-2.858,0l-1.976,5.092a1.535,1.535,0,0,1-.878.875L81.557,95a1.531,1.531,0,0,0,0,2.863Z" transform="translate(-80.574 30.092)" fill="#b4f7ff"/>
          <path id="Path_7769" data-name="Path 7769" d="M122.041,68.8l8.313,3.227a2.5,2.5,0,0,1,1.432,1.435l3.2,8.309a2.5,2.5,0,0,0,4.669.006l3.224-8.312a2.514,2.514,0,0,1,1.435-1.432l8.312-3.2a2.5,2.5,0,0,0,.006-4.669l-8.316-3.227a2.494,2.494,0,0,1-1.429-1.432l-3.2-8.312a2.5,2.5,0,0,0-4.665-.006l-3.23,8.313a2.509,2.509,0,0,1-1.435,1.429l-8.309,3.2a2.5,2.5,0,0,0-.007,4.671Z" transform="translate(6.438 -49.59)" fill="#b4f7ff"/>
        </g>
        <g id="Group_85" data-name="Group 85" transform="translate(169.171 528.305)">
          <path id="Path_7770" data-name="Path 7770" d="M153.443,218.762l-5.092,1.976a1.531,1.531,0,0,0-.878.878l-1.957,5.089a1.531,1.531,0,0,1-2.858,0l-1.976-5.092a1.535,1.535,0,0,0-.878-.875l-5.089-1.957a1.531,1.531,0,0,1,0-2.858l5.092-1.976a1.534,1.534,0,0,0,.875-.878l1.957-5.089a1.532,1.532,0,0,1,2.858-.006l1.976,5.092a1.517,1.517,0,0,0,.878.875l5.089,1.96a1.532,1.532,0,0,1,0,2.861Z" transform="translate(-133.732 -207)" fill="#b4f7ff"/>
          <path id="Path_7771" data-name="Path 7771" d="M153.862,230.4l-3.37,1.308a1.014,1.014,0,0,0-.579.582l-1.3,3.37a1.016,1.016,0,0,1-1.894,0l-1.308-3.373a1.023,1.023,0,0,0-.582-.579l-3.367-1.3a1.013,1.013,0,0,1,0-1.89l3.37-1.308a1.013,1.013,0,0,0,.579-.582l1.3-3.37a1.015,1.015,0,0,1,1.893,0l1.308,3.37a1.014,1.014,0,0,0,.582.579l3.367,1.3a1.013,1.013,0,0,1,0,1.893Z" transform="translate(-118.274 -172.911)" fill="#b4f7ff"/>
          <path id="Path_7772" data-name="Path 7772" d="M156.529,221.634l-3.37,1.308a1.019,1.019,0,0,0-.582.583l-1.3,3.367a1.013,1.013,0,0,1-1.89,0l-1.308-3.37a1.013,1.013,0,0,0-.582-.579l-3.367-1.3a1.015,1.015,0,0,1,0-1.894l3.37-1.308a1.014,1.014,0,0,0,.579-.582l1.3-3.367a1.015,1.015,0,0,1,1.894,0l1.3,3.37a1.013,1.013,0,0,0,.582.579l3.37,1.3a1.016,1.016,0,0,1,0,1.893Z" transform="translate(-112.453 -192.054)" fill="#b4f7ff"/>
        </g>
        <g id="Group_86" data-name="Group 86" transform="translate(491.363 567.754)">
          <path id="Path_7773" data-name="Path 7773" d="M247.253,231.158l5.092,1.976a1.517,1.517,0,0,1,.875.878l1.957,5.089a1.534,1.534,0,0,0,2.861,0l1.973-5.092a1.553,1.553,0,0,1,.878-.875l5.092-1.957a1.532,1.532,0,0,0,0-2.858l-5.092-1.976a1.535,1.535,0,0,1-.875-.878l-1.957-5.089a1.534,1.534,0,0,0-2.861-.006l-1.973,5.092a1.526,1.526,0,0,1-.879.875l-5.092,1.96a1.533,1.533,0,0,0,0,2.861Z" transform="translate(-210.307 -219.396)" fill="#b4f7ff"/>
          <path id="Path_7774" data-name="Path 7774" d="M235.621,244.217l3.37,1.308a1.014,1.014,0,0,1,.579.583l1.3,3.367a1.015,1.015,0,0,0,1.894,0l1.308-3.37a1,1,0,0,1,.582-.579l3.367-1.3a1.015,1.015,0,0,0,0-1.894l-3.37-1.308a1.009,1.009,0,0,1-.579-.579l-1.3-3.37a1.016,1.016,0,0,0-1.893,0l-1.308,3.37a1,1,0,0,1-.582.579l-3.367,1.3a1.013,1.013,0,0,0,0,1.893Z" transform="translate(-234.973 -182.215)" fill="#b4f7ff"/>
          <path id="Path_7775" data-name="Path 7775" d="M237.771,233.3l3.37,1.308a1.014,1.014,0,0,1,.582.579l1.3,3.37a1.013,1.013,0,0,0,1.89,0l1.308-3.37a1.013,1.013,0,0,1,.582-.579l3.367-1.3a1.013,1.013,0,0,0,0-1.89l-3.37-1.308a1.023,1.023,0,0,1-.579-.582l-1.3-3.367a1.015,1.015,0,0,0-1.894,0l-1.3,3.37a1.023,1.023,0,0,1-.582.579l-3.37,1.3a1.016,1.016,0,0,0,0,1.89Z" transform="translate(-230.278 -206.043)" fill="#b4f7ff"/>
        </g>
      </g>
    </g>
  </g>
</svg>
