<svg xmlns="http://www.w3.org/2000/svg" xmlns:xlink="http://www.w3.org/1999/xlink" width="1048.001" height="1780" viewBox="0 0 1048.001 1780">
  <defs>
    <clipPath id="clip-path">
      <circle id="Ellipse_279" data-name="Ellipse 279" cx="60.609" cy="60.609" r="60.609" transform="translate(0 114.644) rotate(-71.045)" fill="none"/>
    </clipPath>
  </defs>
  <g id="Group_2736" data-name="Group 2736" transform="translate(12066 -9528)">
    <rect id="Rectangle_3487" data-name="Rectangle 3487" width="1048" height="1780" transform="translate(-12066 9528)" fill="none"/>
    <g id="Group_2735" data-name="Group 2735" transform="translate(-581.045 13.154)">
      <g id="Group_1067" data-name="Group 1067" transform="translate(-11484.955 9877.847)">
        <g id="Group_1031" data-name="Group 1031" transform="translate(336.593 249.163)">
          <rect id="Rectangle_1264" data-name="Rectangle 1264" width="9.604" height="28.813" transform="matrix(0.669, -0.744, 0.744, 0.669, 0, 34.71)" fill="#1f8ddf"/>
          <path id="Path_9789" data-name="Path 9789" d="M206.332,169.219h0s-2.53-8.237-2.749-12.41c-.2-3.636-4.265-8-5.31-9.055a.363.363,0,0,1-.008-.5h0a5.069,5.069,0,0,1,7.159-.381l8.5,7.642,6.708-7.459a5.976,5.976,0,0,1,8.44-.448l14.37,12.922a5.977,5.977,0,0,1,.448,8.437L226.479,187.33a2.462,2.462,0,0,1-3.478.186l-16.48-14.82A2.463,2.463,0,0,1,206.332,169.219Z" transform="translate(-194.513 -145.077)" fill="#1f8ddf"/>
        </g>
        <g id="Group_1066" data-name="Group 1066">
          <g id="Group_1032" data-name="Group 1032" transform="translate(169.176 77.837)">
            <rect id="Rectangle_1265" data-name="Rectangle 1265" width="83.325" height="53.739" rx="1.72" transform="translate(0 37.431) rotate(-26.693)" fill="#ff4d41"/>
            <path id="Path_9790" data-name="Path 9790" d="M163.288,106.18,172.536,136l6.936-37.955Z" transform="translate(-89.185 -57.472)" fill="#ff4d41"/>
            <path id="Path_9791" data-name="Path 9791" d="M175.045,92.327A10.4,10.4,0,0,0,161.9,98.935l-.295.89-.89-.295a10.4,10.4,0,0,0-6.533,19.749l.887.295,19.752,6.533,6.533-19.749.295-.887a10.4,10.4,0,0,0-6.6-13.144Z" transform="translate(-118.091 -68.589)" fill="#fff"/>
          </g>
          <g id="Group_1033" data-name="Group 1033" transform="translate(0 516.503)">
            <rect id="Rectangle_1266" data-name="Rectangle 1266" width="166.65" height="107.477" rx="3.439" transform="translate(166.65 107.477) rotate(180)" fill="#ff4d41"/>
            <path id="Path_9792" data-name="Path 9792" d="M114.936,272.437,125.2,334.025,78.708,272.437Z" transform="translate(-70.564 -185.711)" fill="#ff4d41"/>
            <path id="Path_9793" data-name="Path 9793" d="M160.081,254.748a20.806,20.806,0,0,0-29.421,0l-1.323,1.323-1.323-1.323a20.8,20.8,0,0,0-29.421,29.418l1.323,1.326,29.421,29.418,29.421-29.418,1.323-1.326a20.8,20.8,0,0,0,0-29.418Z" transform="translate(-46.012 -228.043)" fill="#fff"/>
          </g>
          <g id="Group_1040" data-name="Group 1040" transform="translate(62.793 285.652)">
            <g id="Group_1034" data-name="Group 1034">
              <circle id="Ellipse_278" data-name="Ellipse 278" cx="60.609" cy="60.609" r="60.609" transform="translate(0 114.644) rotate(-71.045)" fill="#1f8ddf"/>
            </g>
            <g id="Group_1039" data-name="Group 1039">
              <g id="Group_1038" data-name="Group 1038" clip-path="url(#clip-path)">
                <g id="Group_1037" data-name="Group 1037" transform="translate(52.589 32.467)">
                  <g id="Group_1035" data-name="Group 1035" transform="translate(8.01)">
                    <path id="Path_9794" data-name="Path 9794" d="M168.868,268.555,155.8,274.713,122.131,203.23a20.675,20.675,0,0,1,9.883-27.483l12.449-5.866,6.158,13.069-12.452,5.863a6.214,6.214,0,0,0-2.969,8.262Z" transform="translate(-120.163 -169.881)" fill="#fff"/>
                  </g>
                  <g id="Group_1036" data-name="Group 1036" transform="translate(0 32.036)">
                    <rect id="Rectangle_1267" data-name="Rectangle 1267" width="51.521" height="14.445" transform="translate(0 21.955) rotate(-25.222)" fill="#fff"/>
                  </g>
                </g>
              </g>
            </g>
          </g>
          <g id="Group_1045" data-name="Group 1045" transform="translate(407.641 77.543)">
            <g id="Group_1041" data-name="Group 1041">
              <circle id="Ellipse_280" data-name="Ellipse 280" cx="60.509" cy="60.509" r="60.509" transform="translate(0 110.642) rotate(-66.101)" fill="#ff4e6b"/>
            </g>
            <g id="Group_1042" data-name="Group 1042" transform="translate(42.522 43.015)">
              <path id="Path_9795" data-name="Path 9795" d="M276.919,171.752l-31.044-14.7a14.3,14.3,0,0,1-6.8-19.024l14.7-31.045a14.3,14.3,0,0,1,19.021-6.8l31.045,14.7a14.3,14.3,0,0,1,6.8,19.021l-14.7,31.045A14.3,14.3,0,0,1,276.919,171.752Zm-7.411-64.611a6.6,6.6,0,0,0-8.779,3.136l-14.7,31.045a6.6,6.6,0,0,0,3.136,8.779l31.045,14.7a6.6,6.6,0,0,0,8.779-3.139l14.7-31.045a6.6,6.6,0,0,0-3.139-8.779Z" transform="translate(-237.705 -98.816)" fill="#fff"/>
            </g>
            <g id="Group_1043" data-name="Group 1043" transform="translate(64.242 64.736)">
              <path id="Path_9796" data-name="Path 9796" d="M254.347,136.013a15.435,15.435,0,1,1,20.555-7.345,15.435,15.435,0,0,1-20.555,7.345Zm9.919-20.947a7.742,7.742,0,1,0,3.684,10.311,7.742,7.742,0,0,0-3.684-10.311Z" transform="translate(-245.519 -106.629)" fill="#fff"/>
            </g>
            <g id="Group_1044" data-name="Group 1044" transform="translate(96.666 68.629)">
              <path id="Path_9797" data-name="Path 9797" d="M263.894,113.065a3.521,3.521,0,1,1,.138-2.7,3.525,3.525,0,0,1-.138,2.7Z" transform="translate(-257.182 -108.03)" fill="#fff"/>
            </g>
          </g>
          <g id="Group_1051" data-name="Group 1051" transform="translate(877.392 456.726)">
            <g id="Group_1046" data-name="Group 1046">
              <circle id="Ellipse_281" data-name="Ellipse 281" cx="60.981" cy="60.981" r="60.981" transform="matrix(0.803, -0.596, 0.596, 0.803, 0, 72.633)" fill="#38ace5"/>
            </g>
            <g id="Group_1050" data-name="Group 1050" transform="translate(51.409 56.253)">
              <g id="Group_1047" data-name="Group 1047" transform="translate(0 9.422)">
                <path id="Path_9798" data-name="Path 9798" d="M410.607,243.363s3.108,14.565,17.767,14.654,21.634-12.117,35.926-11.46c18.04.834,21.4,26.471-3.864,36.824C428.274,296.559,405.439,276.69,410.607,243.363Z" transform="translate(-409.876 -243.363)" fill="#fff"/>
              </g>
              <g id="Group_1048" data-name="Group 1048" transform="translate(57.735 33.397)">
                <path id="Path_9799" data-name="Path 9799" d="M435.2,251.987l11.326,7.339c1.32.856,1.062,2.571-.392,2.6l-15.485.317Z" transform="translate(-430.644 -251.987)" fill="#fff"/>
              </g>
              <g id="Group_1049" data-name="Group 1049" transform="translate(14.6)">
                <path id="Path_9800" data-name="Path 9800" d="M444.035,263.852s-15.349-10.889-21.679-22.532a2.571,2.571,0,0,0-4.615.192c-2.443,5.591-4.87,15.329,1.171,25.359C428.211,282.309,444.035,263.852,444.035,263.852Z" transform="translate(-415.128 -239.974)" fill="#fff"/>
              </g>
            </g>
          </g>
          <g id="Group_1054" data-name="Group 1054" transform="translate(771.74 792.61)">
            <g id="Group_1052" data-name="Group 1052">
              <circle id="Ellipse_282" data-name="Ellipse 282" cx="61.866" cy="61.866" r="61.866" transform="translate(0 100.761) rotate(-54.529)" fill="#ff4d41"/>
            </g>
            <g id="Group_1053" data-name="Group 1053" transform="translate(60.549 55.911)">
              <path id="Path_9801" data-name="Path 9801" d="M401.16,362.117,430,398.694c2.535,3.214-.064,8.96-4.153,9.177l-46.515,2.457c-3.317.175-5.2-3.583-3.583-7.15l17.675-39.034C395.038,360.574,399.105,359.509,401.16,362.117Z" transform="translate(-375.16 -360.671)" fill="#fff"/>
            </g>
          </g>
          <g id="Group_1055" data-name="Group 1055" transform="translate(774.039 222.918)">
            <rect id="Rectangle_1268" data-name="Rectangle 1268" width="142.31" height="91.779" rx="2.937" transform="translate(167.973 82.813) rotate(154.462)" fill="#ff4d41"/>
            <path id="Path_9802" data-name="Path 9802" d="M395.863,175.866l30.582,43.676-58.5-30.339Z" transform="translate(-329.746 -64.027)" fill="#ff4d41"/>
            <path id="Path_9803" data-name="Path 9803" d="M412.215,155.019a17.767,17.767,0,0,0-22.668,10.831l-.534,1.507-1.507-.531a17.765,17.765,0,1,0-11.837,33.5l1.507.534,33.5,11.837,11.837-33.5.531-1.507a17.765,17.765,0,0,0-10.829-22.671Z" transform="translate(-337.098 -102.947)" fill="#fff"/>
            <text id="_3" data-name="3" transform="translate(99.139 68.251) rotate(-25.537)" fill="#fff" font-size="59" font-family="MyriadPro-Regular, Myriad Pro"><tspan x="0" y="0">3</tspan></text>
          </g>
          <g id="Group_1056" data-name="Group 1056" transform="translate(719.748)">
            <circle id="Ellipse_283" data-name="Ellipse 283" cx="46.08" cy="46.08" r="46.08" transform="matrix(0.315, -0.949, 0.949, 0.315, 0, 87.468)" fill="#ffa031"/>
            <path id="Path_9804" data-name="Path 9804" d="M378.927,93.755a7.214,7.214,0,0,0-2.877,3.18l-13.18-.556a7.475,7.475,0,0,0-.57-1.207,7.364,7.364,0,0,0-.79-1.079l5.813-11.843a7.276,7.276,0,1,0-5.8-3.545,7.144,7.144,0,0,0,.787,1.079L356.5,91.627a7.276,7.276,0,1,0,6.144,10.336l13.18.553a7.037,7.037,0,0,0,.57,1.209,7.277,7.277,0,1,0,2.538-9.972Z" transform="translate(-309.6 -33.625)" fill="#fff"/>
          </g>
          <g id="Group_1058" data-name="Group 1058" transform="translate(705.723 415.425)">
            <circle id="Ellipse_284" data-name="Ellipse 284" cx="52.73" cy="52.73" r="52.73" transform="translate(0 101.047) rotate(-73.366)" fill="#5acaa9"/>
            <g id="Group_1057" data-name="Group 1057" transform="translate(42.317 39.464)">
              <rect id="Rectangle_1269" data-name="Rectangle 1269" width="9.604" height="28.813" transform="matrix(0.904, -0.428, 0.428, 0.904, 0, 29.048)" fill="#fff"/>
              <path id="Path_9805" data-name="Path 9805" d="M351.147,242.942h0s.848-8.574,2.255-12.507c1.226-3.431-.845-9.021-1.4-10.4a.366.366,0,0,1,.183-.467h0a5.071,5.071,0,0,1,6.75,2.416l4.89,10.331,9.069-4.289a5.975,5.975,0,0,1,7.956,2.847l8.265,17.467a5.974,5.974,0,0,1-2.847,7.956l-23.536,11.137a2.463,2.463,0,0,1-3.281-1.17l-9.48-20.036A2.466,2.466,0,0,1,351.147,242.942Z" transform="translate(-336.164 -219.078)" fill="#fff"/>
            </g>
          </g>
          <g id="Group_1060" data-name="Group 1060" transform="translate(54.637 752.704)">
            <path id="Path_9806" data-name="Path 9806" d="M186.479,383.2a46.161,46.161,0,1,1-34.055-55.7A46.161,46.161,0,0,1,186.479,383.2Z" transform="translate(-95.431 -326.205)" fill="#5acaa9"/>
            <g id="Group_1059" data-name="Group 1059" transform="translate(22.79 24.673)">
              <rect id="Rectangle_1270" data-name="Rectangle 1270" width="8.408" height="25.224" transform="translate(5.912 10.669) rotate(13.556)" fill="#fff"/>
              <path id="Path_9807" data-name="Path 9807" d="M115.071,350.451h0s5.288-5.379,8.41-7.289c2.719-1.662,4.379-6.611,4.762-7.856a.316.316,0,0,1,.381-.217h0a4.436,4.436,0,0,1,3.272,5.354l-2.344,9.727,8.537,2.06a5.229,5.229,0,0,1,3.859,6.311l-3.964,16.447a5.232,5.232,0,0,1-6.313,3.859l-22.16-5.343a2.155,2.155,0,0,1-1.59-2.6l4.548-18.862a2.153,2.153,0,0,1,2.6-1.591Z" transform="translate(-96.098 -335.08)" fill="#fff"/>
            </g>
          </g>
          <g id="Group_1062" data-name="Group 1062" transform="translate(258.548 506.127)">
            <path id="Path_9808" data-name="Path 9808" d="M207.411,268.12a20.608,20.608,0,1,1-8.02-28.02,20.608,20.608,0,0,1,8.02,28.02Z" transform="translate(-168.78 -237.509)" fill="#ffc348"/>
            <g id="Group_1061" data-name="Group 1061" transform="translate(5.557 7.469)">
              <path id="Rectangle_1271" data-name="Rectangle 1271" d="M2.515,0H19.532a2.515,2.515,0,0,1,2.515,2.515v9.734H0V2.515A2.515,2.515,0,0,1,2.515,0Z" transform="translate(5.943 6.843) rotate(29.027)" fill="#fff"/>
              <path id="Path_9809" data-name="Path 9809" d="M186.9,249.324a6.146,6.146,0,1,1-2.391-8.354,6.146,6.146,0,0,1,2.391,8.354Z" transform="translate(-162.59 -240.196)" fill="#fff"/>
            </g>
          </g>
          <g id="Group_1064" data-name="Group 1064" transform="translate(592.854 217.129)">
            <circle id="Ellipse_285" data-name="Ellipse 285" cx="31.749" cy="31.749" r="31.749" transform="translate(0 63.478) rotate(-88.58)" fill="#ffc348"/>
            <g id="Group_1063" data-name="Group 1063" transform="translate(16.385 11.846)">
              <path id="Rectangle_1272" data-name="Rectangle 1272" d="M3.874,0H30.092a3.874,3.874,0,0,1,3.874,3.874v15H0v-15A3.874,3.874,0,0,1,3.874,0Z" transform="translate(0 26.221) rotate(-24.578)" fill="#fff"/>
              <path id="Path_9810" data-name="Path 9810" d="M313.56,143.348a9.466,9.466,0,1,1-12.547-4.673,9.466,9.466,0,0,1,12.547,4.673Z" transform="translate(-293.938 -137.815)" fill="#fff"/>
            </g>
          </g>
          <g id="Group_1065" data-name="Group 1065" transform="translate(759.587 740.197)">
            <rect id="Rectangle_1273" data-name="Rectangle 1273" width="9.604" height="28.813" transform="translate(22.863) rotate(52.512)" fill="#1f8ddf"/>
            <path id="Path_9811" data-name="Path 9811" d="M374.278,329.178h0s8.56-.979,12.7-.434c3.611.478,8.64-2.727,9.875-3.559a.363.363,0,0,1,.492.081h0a5.07,5.07,0,0,1-.937,7.109l-9.071,6.956,6.108,7.962a5.974,5.974,0,0,1-1.107,8.376L377,367.432a5.974,5.974,0,0,1-8.376-1.107l-15.849-20.661a2.465,2.465,0,0,1,.456-3.453l17.586-13.489a2.462,2.462,0,0,1,3.458.456Z" transform="translate(-343.192 -315.622)" fill="#1f8ddf"/>
          </g>
          <path id="Path_9812" data-name="Path 9812" d="M275.981,172.145a8.709,8.709,0,0,0-11.456-4.515l-.717.311-.314-.717a8.706,8.706,0,0,0-15.969,6.939l.311.72,6.939,15.971,15.971-6.942.72-.311A8.708,8.708,0,0,0,275.981,172.145Z" transform="translate(228.646 134.184)" fill="#ff4d41"/>
          <path id="Path_9813" data-name="Path 9813" d="M181.6,202.831a6.383,6.383,0,0,0-8.2,3.759l-.2.539-.539-.2a6.381,6.381,0,1,0-4.445,11.962l.539.2,11.962,4.442,4.442-11.962.2-.537A6.381,6.381,0,0,0,181.6,202.831Z" transform="translate(81.364 206.177)" fill="#ff4d41"/>
          <path id="Path_9814" data-name="Path 9814" d="M165.04,326.712a6.38,6.38,0,0,0-7.77-4.584l-.556.142-.145-.556a6.381,6.381,0,1,0-12.357,3.186l.145.556,3.186,12.357,12.357-3.186.556-.142a6.383,6.383,0,0,0,4.584-7.773Z" transform="translate(45.674 409.983)" fill="#ff4d41"/>
        </g>
      </g>
      <rect id="Rectangle_1274" data-name="Rectangle 1274" width="323.912" height="705.456" rx="18.187" transform="translate(-11124.872 10226.96)" fill="#141414" stroke="#000" stroke-miterlimit="10" stroke-width="0.476"/>
      <rect id="Rectangle_1275" data-name="Rectangle 1275" width="295.683" height="637.314" rx="5.162" transform="translate(-11110.759 10263.104)" fill="#fff"/>
      <g id="Group_1068" data-name="Group 1068" transform="translate(-11076.893 10327.49)">
        <rect id="Rectangle_1276" data-name="Rectangle 1276" width="238.581" height="14.678" fill="#f7fbfe"/>
        <rect id="Rectangle_1277" data-name="Rectangle 1277" width="238.581" height="14.678" transform="translate(0 37.923)" fill="#f7fbfe"/>
        <rect id="Rectangle_1278" data-name="Rectangle 1278" width="174.723" height="14.678" transform="translate(0 75.846)" fill="#f7fbfe"/>
      </g>
      <g id="Group_1069" data-name="Group 1069" transform="translate(-11076.893 10756.741)">
        <rect id="Rectangle_1279" data-name="Rectangle 1279" width="238.581" height="14.678" fill="#f7fbfe"/>
        <rect id="Rectangle_1280" data-name="Rectangle 1280" width="238.581" height="14.678" transform="translate(0 37.923)" fill="#f7fbfe"/>
        <rect id="Rectangle_1281" data-name="Rectangle 1281" width="238.581" height="14.678" transform="translate(0 75.846)" fill="#f7fbfe"/>
      </g>
      <circle id="Ellipse_287" data-name="Ellipse 287" cx="101.581" cy="101.581" r="101.581" transform="translate(-11064.061 10466.224)" fill="#bcbcbc"/>
      <circle id="Ellipse_286" data-name="Ellipse 286" cx="101.581" cy="101.581" r="101.581" transform="translate(-11064.061 10431.925)" fill="#f85f33"/>
      <path id="Path_9815" data-name="Path 9815" d="M-1707.05,4625.94c-37.2,0-67.357,25.03-67.357,55.923,0,20.021,12.687,37.6,31.756,47.466,0,0,.989,7.5-9.445,16.575,0,0,7.082,2.288,24.126-9.075l16.969.854q1.956.078,3.951.077c37.206,0,67.361-25.021,67.361-55.9S-1669.84,4625.94-1707.05,4625.94Zm-31.645,37.87a7.411,7.411,0,0,1,7.423-7.4,7.413,7.413,0,0,1,7.425,7.4,7.422,7.422,0,0,1-7.425,7.414,7.42,7.42,0,0,1-7.428-7.415Zm50.016,37.638c-3.553,4.006-9.83,5.973-18.633,5.8s-15-2.34-18.376-6.472a11.172,11.172,0,0,1-2.57-8.237l.027-1.592c.065-2.919,2.452-3.127,5.369-2.659l1.765.31c2.925.479,5.286,1.49,5.226,4.416l-.031,1.773c-.039,1.278-1.9,5.2,8.732,5.39s8.939-3.78,8.961-5.07l.038-1.754c.063-2.949,2.467-3.854,5.406-4.237l1.772-.22c2.941-.389,5.315-.1,5.252,2.825l-.029,1.6a11.282,11.282,0,0,1-2.91,8.128Zm5.852-30.223a7.418,7.418,0,0,1-7.422-7.415,7.41,7.41,0,0,1,7.422-7.4,7.411,7.411,0,0,1,7.423,7.4,7.42,7.42,0,0,1-7.426,7.419Z" transform="translate(-9253.641 5847.587)" fill="#fff"/>
    </g>
  </g>
</svg>
