<svg id="icons8_online_support" xmlns="http://www.w3.org/2000/svg" width="25.223" height="29.75" viewBox="0 0 25.223 29.75">
  <path id="Path_24351" data-name="Path 24351" d="M27.66,111.306a.929.929,0,0,0,.285-.052l4.993-2.044a3.9,3.9,0,0,0,3.518,2.1h0a3.9,3.9,0,0,0,3.518-2.1l4.993,2.044a.606.606,0,0,0,.285.052.783.783,0,0,0,.31-1.5l-5.717-2.328a.782.782,0,0,0-1.009.414c0,.026-.026.052-.026.078h0a2.445,2.445,0,0,1-4.708,0c0-.026,0-.026-.026-.052v-.052a.025.025,0,0,0-.026-.026c0-.026-.026-.052-.026-.078a.056.056,0,0,0-.052-.052c-.026-.026-.026-.052-.052-.052l-.052-.052-.052-.052c-.026-.026-.052-.026-.052-.052a.09.09,0,0,1-.052-.026c-.026,0-.052-.026-.078-.026s-.052-.026-.078-.026a.1.1,0,0,1-.078-.026h-.233a.1.1,0,0,0-.078.026h-.026c-.026,0-.026,0-.052.026h-.052l-5.717,2.328a.76.76,0,0,0-.414,1.009A.8.8,0,0,0,27.66,111.306Z" transform="translate(-23.844 -81.557)" fill="#fff"/>
  <path id="Path_24352" data-name="Path 24352" d="M38.6,17.615a10.755,10.755,0,0,0-21.472,0,2.435,2.435,0,0,0-1.837,2.794l.88,4.941a2.443,2.443,0,0,0,2.406,2.018h0a2.226,2.226,0,0,0,.414-.026l2.1-.362a.773.773,0,0,0,.621-.905L20.643,20.1a3.067,3.067,0,0,1,1.578-1.578c1.087-.336,2.587.44,4.32,1.345,2.018,1.061,4.475,2.328,7.3,2.328.31,0,.621-.026.931-.052l-.621,4.01v.026c-2.38,5.3-5.2,5.872-6.312,5.872-1.087,0-3.208-.517-5.277-3.906a.772.772,0,1,0-1.319.8c2.458,4.061,5.2,4.656,6.6,4.656,3.958,0,6.467-4.165,7.58-6.467l1.319.207a2.225,2.225,0,0,0,.414.026,2.443,2.443,0,0,0,2.406-2.018l.88-4.941A2.449,2.449,0,0,0,38.6,17.615ZM18.7,25.815c-.052,0-.1.026-.155.026h0a.889.889,0,0,1-.88-.75l-.88-4.941a.888.888,0,0,1,.724-1.035l1.345-.233,1.164,6.7ZM27.86,9.932a8.32,8.32,0,0,0-8.252,5.717.786.786,0,0,0,1.475.543,6.623,6.623,0,0,1,6.778-4.708c6.416.155,5.64,9.028,5.64,9.028-2.949.44-3.958-.88-6.235-2.07-2.044-1.061-3.8-1.992-5.51-1.449a3.75,3.75,0,0,0-1.475.931l-.026-.129a.715.715,0,0,0-.31-.492.777.777,0,0,0-.569-.129l-.647.1a9.2,9.2,0,0,1,18.315,0L36.63,17.2C35.543,12.6,32.413,9.932,27.86,9.932ZM38.906,20.15l-.88,4.941a.889.889,0,0,1-.88.75.328.328,0,0,1-.155-.026l-1.19-.207,1.061-6.726,1.319.233A.888.888,0,0,1,38.906,20.15Z" transform="translate(-15.249 -7.5)" fill="#fff"/>
</svg>
