<svg id="Group_10743" data-name="Group 10743" xmlns="http://www.w3.org/2000/svg" width="28.764" height="28.336" viewBox="0 0 28.764 28.336">
  <path id="icons8_hot_line_1" d="M22.133,42.253a4.254,4.254,0,0,0,1.959.483h0a4.539,4.539,0,0,0,2.868-1.022l2.5-1.931.142-.114a2.3,2.3,0,0,0,.852-1.647,2.182,2.182,0,0,0-.6-1.59l-4.6-4.571a2.144,2.144,0,0,0-1.533-.625,2.564,2.564,0,0,0-1.278.369l-1.987,1.278a.453.453,0,0,1-.227.085A.227.227,0,0,1,20,32.855l-4.259-6.644a.312.312,0,0,1,.17-.426L17.9,24.508a2.257,2.257,0,0,0,.965-2.641l-2.243-6.1A2.106,2.106,0,0,0,14.609,14.4a2.552,2.552,0,0,0-1.022.227l-2.981,1.562a4.43,4.43,0,0,0-2.527,4.174,27.461,27.461,0,0,0,4.174,12.748A27.9,27.9,0,0,0,22.133,42.253ZM11.4,17.694l2.754-1.448.17-.085a.512.512,0,0,1,.284-.057.388.388,0,0,1,.4.256l1.391,3.89a3.484,3.484,0,0,1-1.42,4.117,2.129,2.129,0,0,0-.937,1.334,1.85,1.85,0,0,0,.256,1.448l4.259,6.644a1.915,1.915,0,0,0,1.647.88,2.212,2.212,0,0,0,1.164-.341l1.987-1.278a.548.548,0,0,1,.681.028l2.186,2.186a3.432,3.432,0,0,1-.312,5.139,2.853,2.853,0,0,1-1.817.653,2.283,2.283,0,0,1-1.164-.284A26.443,26.443,0,0,1,13.672,32.2a26.021,26.021,0,0,1-3.89-11.953A2.746,2.746,0,0,1,11.4,17.694Z" transform="translate(-8.07 -14.4)" fill="#fff"/>
  <path id="icons8_adjust" d="M32.679,41.747a.5.5,0,0,0,.508-.508V35.724a1.785,1.785,0,0,0,0-3.418v-1a.508.508,0,0,0-1.015,0v1a1.785,1.785,0,0,0,0,3.418V41.24A.5.5,0,0,0,32.679,41.747Zm-.761-7.732a.761.761,0,1,1,.761.761A.758.758,0,0,1,31.917,34.015Zm-3.841,7.732a.5.5,0,0,0,.508-.508v-.728a1.785,1.785,0,0,0,0-3.418V31.308a.508.508,0,0,0-1.015,0v5.8a1.785,1.785,0,0,0,0,3.418v.728A.506.506,0,0,0,28.077,41.747Zm-.761-2.927a.761.761,0,1,1,.761.761A.758.758,0,0,1,27.315,38.82Zm9.966,2.927a.5.5,0,0,0,.508-.508V39.565a1.785,1.785,0,0,0,0-3.418V31.308a.508.508,0,1,0-1.015,0v4.839a1.785,1.785,0,0,0,0,3.418V41.24A.5.5,0,0,0,37.281,41.747Zm-.761-3.892a.761.761,0,1,1,.761.761A.758.758,0,0,1,36.52,37.856Z" transform="translate(-10.294 -28.573)" fill="#fff"/>
</svg>
