<svg xmlns="http://www.w3.org/2000/svg" width="23.627" height="33.876" viewBox="0 0 23.627 33.876">
  <g id="icons8_pass_fail_1" transform="translate(-26.7 -10.5)">
    <path id="Path_24356" data-name="Path 24356" d="M44.581,47.6a1.581,1.581,0,1,0,1.581,1.581A1.581,1.581,0,0,0,44.581,47.6Zm0,7.18a1.581,1.581,0,1,0,1.581,1.581A1.581,1.581,0,0,0,44.581,54.78Z" transform="translate(-11.144 -25.365)" fill="#fff"/>
    <path id="Path_24357" data-name="Path 24357" d="M26.7,19.356V40.264a4.1,4.1,0,0,0,4.112,4.112h15.4a4.1,4.1,0,0,0,4.112-4.112V19.356a4.1,4.1,0,0,0-4.112-4.112h-5a3.056,3.056,0,0,0,.443-1.581,3.163,3.163,0,1,0-6.326,0,3.056,3.056,0,0,0,.443,1.581H30.812A4.1,4.1,0,0,0,26.7,19.356ZM38.5,12.4a1.265,1.265,0,1,1-1.265,1.265A1.269,1.269,0,0,1,38.5,12.4Zm-5.883,6.358a.91.91,0,0,0,.664.285H43.717a.932.932,0,0,0,.949-.949v-.949h1.518A2.2,2.2,0,0,1,48.4,19.356V40.264a2.2,2.2,0,0,1-2.214,2.214H30.812A2.2,2.2,0,0,1,28.6,40.264V19.356a2.2,2.2,0,0,1,2.214-2.214H32.33v.949A.965.965,0,0,0,32.615,18.755Z" fill="#fff"/>
    <path id="Path_24358" data-name="Path 24358" d="M47.227,51.5H52.92a.949.949,0,1,0,0-1.9H47.227a.949.949,0,1,0,0,1.9Zm0,7.117H52.92a.949.949,0,0,0,0-1.9H47.227a.949.949,0,1,0,0,1.9Zm0,7.117H52.92a.949.949,0,1,0,0-1.9H47.227a.949.949,0,1,0,0,1.9Zm-6.516-2.467A.949.949,0,1,0,39.193,64.4l1.866,2.5a.96.96,0,0,0,.791.38h.032a1.022,1.022,0,0,0,.791-.443l2.5-3.764A.956.956,0,1,0,43.59,62l-1.771,2.689Z" transform="translate(-8.413 -26.733)" fill="#fff"/>
  </g>
</svg>
