<svg xmlns="http://www.w3.org/2000/svg" width="43" height="19" viewBox="0 0 43 19">
  <g id="Group_10648" data-name="Group 10648" transform="translate(-0.478 0.228)">
    <rect id="Rectangle_6146" data-name="Rectangle 6146" width="43" height="19" rx="3" transform="translate(0.477 -0.228)" fill="#fff"/>
    <g id="Group_10647" data-name="Group 10647" transform="translate(4.775 2.497)">
      <rect id="Rectangle_6147" data-name="Rectangle 6147" width="9" height="9" rx="2" transform="translate(-0.298 -0.724)" fill="#1cab4e"/>
      <path id="Path_10028" data-name="Path 10028" d="M-1771.66,4625.939a2.6,2.6,0,0,0-2.75,2.407,2.354,2.354,0,0,0,1.3,2.042s.04.323-.386.713c0,0,.289.1.985-.39l.693.037c.053,0,.107,0,.161,0a2.594,2.594,0,0,0,2.75-2.4A2.6,2.6,0,0,0-1771.66,4625.939Zm-1.292,1.63a.311.311,0,0,1,.3-.318.311.311,0,0,1,.3.318.312.312,0,0,1-.3.319A.312.312,0,0,1-1772.952,4627.569Zm2.042,1.62a.935.935,0,0,1-.761.25.93.93,0,0,1-.75-.28.493.493,0,0,1-.105-.354v-.069c0-.126.1-.134.219-.114l.072.013c.12.021.216.063.214.19v.076c0,.055-.078.224.357.232s.365-.163.366-.218l0-.076c0-.126.1-.167.22-.182l.072-.01c.12-.017.217,0,.214.121v.07a.5.5,0,0,1-.119.35Zm.239-1.3a.311.311,0,0,1-.3-.319.311.311,0,0,1,.3-.318.311.311,0,0,1,.3.318A.312.312,0,0,1-1770.671,4627.889Z" transform="translate(1775.808 -4624.664)" fill="#fff"/>
      <path id="Path_24373" data-name="Path 24373" d="M2.816-22.13l1.343-4.455H5.517L3.454-20.661H2.181L.126-26.585H1.481Zm3.659,1.469v-5.924H8.549a2.724,2.724,0,0,1,1.636.413,1.412,1.412,0,0,1,.557,1.21,1.338,1.338,0,0,1-.224.767,1.292,1.292,0,0,1-.622.486,1.251,1.251,0,0,1,.718.46,1.359,1.359,0,0,1,.262.846,1.563,1.563,0,0,1-.545,1.294,2.454,2.454,0,0,1-1.554.448ZM7.7-23.24v1.6H8.741a1.009,1.009,0,0,0,.673-.205.7.7,0,0,0,.242-.568.744.744,0,0,0-.842-.826Zm0-.863h.9q.924-.016.924-.736a.681.681,0,0,0-.234-.58,1.23,1.23,0,0,0-.738-.177H7.7Zm9.363.614a3.576,3.576,0,0,1-.309,1.534,2.329,2.329,0,0,1-.885,1.017,2.448,2.448,0,0,1-1.32.358,2.464,2.464,0,0,1-1.314-.354,2.351,2.351,0,0,1-.9-1.011,3.474,3.474,0,0,1-.321-1.511v-.293a3.557,3.557,0,0,1,.315-1.54,2.348,2.348,0,0,1,.891-1.021,2.451,2.451,0,0,1,1.316-.356,2.451,2.451,0,0,1,1.316.356,2.348,2.348,0,0,1,.891,1.021,3.547,3.547,0,0,1,.315,1.536Zm-1.237-.269a2.493,2.493,0,0,0-.334-1.416,1.087,1.087,0,0,0-.952-.484,1.088,1.088,0,0,0-.948.478,2.464,2.464,0,0,0-.338,1.4v.289a2.524,2.524,0,0,0,.334,1.408,1.084,1.084,0,0,0,.96.5,1.075,1.075,0,0,0,.944-.482,2.509,2.509,0,0,0,.334-1.406ZM22.458-25.6H20.643v4.935H19.423V-25.6h-1.79v-.989h4.825Z" transform="translate(11.578 27.644)" fill="#1cab4e"/>
      <path id="Path_24374" data-name="Path 24374" d="M3.644-9.673H3.258v-1.348H1.787v1.348H1.4V-12.59h.385v1.254h1.47V-12.59h.387Zm1.524.04a.947.947,0,0,1-.717-.289,1.074,1.074,0,0,1-.276-.774v-.068a1.3,1.3,0,0,1,.123-.576.961.961,0,0,1,.345-.4.866.866,0,0,1,.48-.143.812.812,0,0,1,.657.278,1.205,1.205,0,0,1,.234.8v.154H4.546a.77.77,0,0,0,.187.518.589.589,0,0,0,.456.2.645.645,0,0,0,.332-.08.835.835,0,0,0,.238-.212l.226.176A.91.91,0,0,1,5.168-9.633Zm-.046-1.943a.494.494,0,0,0-.377.163.793.793,0,0,0-.188.458H5.643v-.028a.706.706,0,0,0-.152-.438A.465.465,0,0,0,5.122-11.576Zm1.723,1.9H6.474V-12.75h.371Zm2.424-1.06a1.3,1.3,0,0,1-.226.8.725.725,0,0,1-.613.3.8.8,0,0,1-.621-.25V-8.84H7.438v-3h.339l.018.24a.763.763,0,0,1,.629-.28.739.739,0,0,1,.618.294,1.312,1.312,0,0,1,.227.819ZM8.9-10.775a.958.958,0,0,0-.156-.579.5.5,0,0,0-.429-.212.545.545,0,0,0-.5.3v1.036a.546.546,0,0,0,.509.3.5.5,0,0,0,.424-.211A1.045,1.045,0,0,0,8.9-10.775Zm2.566.559.5-1.624h.4l-.871,2.5q-.2.541-.643.541l-.07-.006-.138-.026v-.3l.1.008a.493.493,0,0,0,.293-.076.551.551,0,0,0,.173-.278l.082-.22-.773-2.143h.4Zm1.1-.561a1.28,1.28,0,0,1,.125-.573.934.934,0,0,1,.349-.393.949.949,0,0,1,.51-.138.914.914,0,0,1,.716.306,1.179,1.179,0,0,1,.273.815v.026a1.291,1.291,0,0,1-.121.568.92.92,0,0,1-.347.392.96.96,0,0,1-.518.14.912.912,0,0,1-.714-.306,1.173,1.173,0,0,1-.273-.811Zm.373.044a.927.927,0,0,0,.167.579.535.535,0,0,0,.448.218A.532.532,0,0,0,14-10.157a1.014,1.014,0,0,0,.166-.62A.926.926,0,0,0,14-11.355a.538.538,0,0,0-.45-.221.532.532,0,0,0-.443.218A1.006,1.006,0,0,0,12.94-10.733Zm3.4.845a.787.787,0,0,1-.635.254.674.674,0,0,1-.528-.2.871.871,0,0,1-.183-.6v-1.41h.371v1.4q0,.493.4.493a.555.555,0,0,0,.565-.316v-1.576H16.7v2.167h-.353Zm3.2-.361a.273.273,0,0,0-.113-.233,1.089,1.089,0,0,0-.395-.143,1.866,1.866,0,0,1-.447-.144.635.635,0,0,1-.244-.2.479.479,0,0,1-.079-.276.562.562,0,0,1,.225-.451.88.88,0,0,1,.576-.184.906.906,0,0,1,.6.19.6.6,0,0,1,.229.487h-.373a.335.335,0,0,0-.129-.262.484.484,0,0,0-.325-.11.507.507,0,0,0-.316.088.277.277,0,0,0-.114.23.225.225,0,0,0,.106.2,1.306,1.306,0,0,0,.384.13,2,2,0,0,1,.45.148.656.656,0,0,1,.255.207.51.51,0,0,1,.083.3.555.555,0,0,1-.232.466.975.975,0,0,1-.6.175,1.091,1.091,0,0,1-.461-.092.749.749,0,0,1-.313-.257.62.62,0,0,1-.113-.358h.371a.384.384,0,0,0,.149.3.579.579,0,0,0,.368.109.6.6,0,0,0,.338-.085A.262.262,0,0,0,19.544-10.248Zm2.191.361a.787.787,0,0,1-.635.254.674.674,0,0,1-.528-.2.871.871,0,0,1-.183-.6v-1.41h.371v1.4q0,.493.4.493a.555.555,0,0,0,.565-.316v-1.576H22.1v2.167h-.353Zm1.793-.048a.534.534,0,0,0,.347-.12.423.423,0,0,0,.164-.3h.351a.672.672,0,0,1-.128.355.844.844,0,0,1-.315.268.91.91,0,0,1-.418.1.893.893,0,0,1-.7-.3,1.177,1.177,0,0,1-.261-.808V-10.8a1.3,1.3,0,0,1,.116-.563.885.885,0,0,1,.333-.383.947.947,0,0,1,.514-.136.869.869,0,0,1,.606.218.78.78,0,0,1,.257.567h-.351a.511.511,0,0,0-.159-.346.5.5,0,0,0-.354-.135.519.519,0,0,0-.438.2.955.955,0,0,0-.155.588v.07a.936.936,0,0,0,.154.577A.521.521,0,0,0,23.528-9.936Zm2.147,0a.534.534,0,0,0,.347-.12.423.423,0,0,0,.164-.3h.351a.672.672,0,0,1-.128.355.844.844,0,0,1-.315.268.91.91,0,0,1-.418.1.893.893,0,0,1-.7-.3,1.177,1.177,0,0,1-.261-.808V-10.8a1.3,1.3,0,0,1,.116-.563.885.885,0,0,1,.334-.383.947.947,0,0,1,.514-.136.869.869,0,0,1,.606.218.78.78,0,0,1,.257.567h-.351a.511.511,0,0,0-.159-.346.5.5,0,0,0-.354-.135.519.519,0,0,0-.438.2.955.955,0,0,0-.155.588v.07a.936.936,0,0,0,.154.577A.521.521,0,0,0,25.675-9.936Zm2.177.3a.947.947,0,0,1-.717-.289,1.074,1.074,0,0,1-.276-.774v-.068a1.3,1.3,0,0,1,.123-.576.961.961,0,0,1,.345-.4.866.866,0,0,1,.48-.143.812.812,0,0,1,.657.278,1.205,1.205,0,0,1,.234.8v.154H27.23a.77.77,0,0,0,.187.518.589.589,0,0,0,.456.2.645.645,0,0,0,.333-.08.836.836,0,0,0,.238-.212l.226.176A.91.91,0,0,1,27.853-9.633Zm-.046-1.943a.494.494,0,0,0-.377.163.793.793,0,0,0-.188.458h1.086v-.028a.706.706,0,0,0-.152-.438A.465.465,0,0,0,27.807-11.576Zm2.219,1.943a.947.947,0,0,1-.717-.289,1.074,1.074,0,0,1-.276-.774v-.068a1.3,1.3,0,0,1,.123-.576.961.961,0,0,1,.345-.4.866.866,0,0,1,.48-.143.812.812,0,0,1,.657.278,1.205,1.205,0,0,1,.234.8v.154H29.4a.77.77,0,0,0,.187.518.589.589,0,0,0,.456.2.645.645,0,0,0,.333-.08.836.836,0,0,0,.238-.212l.226.176A.91.91,0,0,1,30.026-9.633Zm-.046-1.943a.494.494,0,0,0-.377.163.793.793,0,0,0-.188.458H30.5v-.028a.706.706,0,0,0-.152-.438A.465.465,0,0,0,29.98-11.576Zm1.23.8a1.27,1.27,0,0,1,.236-.8.747.747,0,0,1,.619-.3.752.752,0,0,1,.6.26v-1.13h.371v3.077H32.7l-.018-.232a.755.755,0,0,1-.619.272.74.74,0,0,1-.614-.308,1.284,1.284,0,0,1-.237-.805Zm.371.042a.961.961,0,0,0,.152.577.492.492,0,0,0,.421.208.541.541,0,0,0,.515-.316v-1a.545.545,0,0,0-.511-.306.494.494,0,0,0-.425.21A1.058,1.058,0,0,0,31.58-10.733Zm2.448.233h-.335l-.026-2.09h.389Zm-.375.638a.221.221,0,0,1,.055-.153.208.208,0,0,1,.163-.062.211.211,0,0,1,.164.062.219.219,0,0,1,.056.153.211.211,0,0,1-.056.151.215.215,0,0,1-.164.06.211.211,0,0,1-.163-.06A.213.213,0,0,1,33.653-9.862Z" transform="translate(-0.328 22.474)" fill="#1cab4e"/>
    </g>
  </g>
</svg>
