<svg id="icon_zalo" xmlns="http://www.w3.org/2000/svg" width="18.726" height="17.83" viewBox="0 0 18.726 17.83">
  <path id="Path_21" data-name="Path 21" d="M2.6,0H16.123a2.6,2.6,0,0,1,2.6,2.6V15.2a2.6,2.6,0,0,1-2.6,2.6H2.6A2.6,2.6,0,0,1,0,15.2V2.6A2.6,2.6,0,0,1,2.6,0Z" transform="translate(0.005 0.027)" fill="#fff"/>
  <path id="Path_12" data-name="Path 12" d="M1204.843,11.987c-.072-.031-.127-.069-.041-.141a1.8,1.8,0,0,1,.169-.114,4.055,4.055,0,0,0,1.367-1.288.746.746,0,0,0-.112-1.085,7.755,7.755,0,0,1-2.364-6.994,7.87,7.87,0,0,1,1.977-4.042,8.879,8.879,0,0,1,2.171-1.747c.048-.028.12-.036.129-.108-.016-.041-.047-.028-.071-.028-1.376,0-2.753-.027-4.128.009a2.479,2.479,0,0,0-2.449,2.513c.009,4.264,0,8.529,0,12.794a2.452,2.452,0,0,0,2.33,2.482c1.115.043,2.234.007,3.352.006.082,0,.163.007.245.007h5.906c1.471,0,2.943.006,4.414,0a2.471,2.471,0,0,0,2.472-2.489V9.37a.3.3,0,0,0-.017-.178c-.072.006-.1.066-.141.106a9.01,9.01,0,0,1-2.754,1.888,10.188,10.188,0,0,1-7.667.294,1.185,1.185,0,0,0-.7-.031c-.342.088-.682.188-1.022.292A6.227,6.227,0,0,1,1204.843,11.987Zm2.963-6.888c.068-.089.108-.143.149-.2l1.606-2.038a2.756,2.756,0,0,0,.409-.633.444.444,0,0,0-.286-.62,1.164,1.164,0,0,0-.383-.047q-1.093,0-2.187,0a1.135,1.135,0,0,0-.3.037.43.43,0,0,0,.008.835,1.249,1.249,0,0,0,.3.034c.443,0,.886,0,1.329,0,.047,0,.108-.031.147.039-.036.048-.073.1-.11.144l-1.9,2.408a.606.606,0,0,0-.123.665.6.6,0,0,0,.582.305c.19.011.381,0,.573,0,.661,0,1.322,0,1.982,0a.455.455,0,0,0,.5-.542c-.03-.255-.2-.394-.531-.4C1209,5.095,1208.424,5.1,1207.806,5.1Zm4.741-2.151a1.3,1.3,0,0,0-1.628-.147,1.7,1.7,0,0,0-.832,1.779,1.6,1.6,0,0,0,1.107,1.5,1.251,1.251,0,0,0,1.246-.208c.1-.078.125-.063.194.024a.5.5,0,0,0,.572.158.482.482,0,0,0,.34-.463c.005-.818.009-1.635,0-2.453a.5.5,0,0,0-.63-.47A.641.641,0,0,0,1212.547,2.947Zm2.833,1.517a1.667,1.667,0,0,0,1.892,1.688,1.7,1.7,0,0,0,1.579-1.864,1.739,1.739,0,1,0-3.472.177Zm-.358-.813c0-.64,0-1.28,0-1.921A.514.514,0,1,0,1214,1.725c0,.19,0,.381,0,.572V5.545a.514.514,0,1,0,1.027.006c0-.633,0-1.266,0-1.9Z" transform="translate(-1201.489 3.57)" fill="#fdfefe"/>
  <path id="Path_13" data-name="Path 13" d="M1207.152,14.251c-1.117,0-2.236.038-3.352-.006a2.452,2.452,0,0,1-2.33-2.482c0-4.265.01-8.529,0-12.794a2.48,2.48,0,0,1,2.449-2.513c1.375-.036,2.752-.009,4.129-.009.024,0,.056-.011.072.028-.009.073-.082.082-.129.108a8.82,8.82,0,0,0-2.17,1.745,7.869,7.869,0,0,0-1.977,4.042,7.756,7.756,0,0,0,2.364,6.994.746.746,0,0,1,.112,1.085,4.062,4.062,0,0,1-1.367,1.288,1.774,1.774,0,0,0-.169.114c-.088.072-.033.111.041.141a.409.409,0,0,0,.061.1c.469.418.915.862,1.376,1.286q.327.3.642.618C1206.987,14.082,1207.133,14.108,1207.152,14.251Z" transform="translate(-1201.47 3.563)" fill="#0180c7"/>
  <path id="Path_14" data-name="Path 14" d="M1285.848,313.644c-.021-.143-.164-.169-.248-.253q-.314-.316-.643-.618c-.462-.425-.907-.869-1.376-1.286a.4.4,0,0,1-.061-.1,6.2,6.2,0,0,0,3.063-.245c.339-.1.678-.2,1.022-.292a1.185,1.185,0,0,1,.7.031,10.181,10.181,0,0,0,7.667-.294,9.018,9.018,0,0,0,2.754-1.888c.041-.041.069-.1.141-.106.037.058.017.12.017.178q0,1.2,0,2.391a2.471,2.471,0,0,1-2.472,2.489c-1.472.008-2.943,0-4.415,0h-5.907C1286.011,313.652,1285.93,313.647,1285.848,313.644Z" transform="translate(-1280.166 -295.83)" fill="#0172b1"/>
  <path id="Path_15" data-name="Path 15" d="M1323.458,125.526c.619,0,1.2,0,1.773,0,.324,0,.5.141.532.4a.456.456,0,0,1-.5.542c-.66.008-1.322,0-1.982,0-.191,0-.382.007-.572,0a.6.6,0,0,1-.583-.305.607.607,0,0,1,.122-.665l1.9-2.408c.038-.047.074-.1.11-.144-.039-.07-.1-.038-.147-.039-.443,0-.886,0-1.329,0a1.247,1.247,0,0,1-.3-.034.43.43,0,0,1-.008-.835,1.142,1.142,0,0,1,.3-.037q1.094,0,2.187,0a1.164,1.164,0,0,1,.384.047.445.445,0,0,1,.286.62,2.8,2.8,0,0,1-.409.633q-.8,1.022-1.606,2.038C1323.565,125.383,1323.525,125.437,1323.458,125.526Z" transform="translate(-1317.141 -116.858)" fill="#0180c7"/>
  <path id="Path_16" data-name="Path 16" d="M1413.874,147.279a.631.631,0,0,1,.368-.278.5.5,0,0,1,.63.47c.011.818.007,1.635,0,2.453a.482.482,0,0,1-.34.463.5.5,0,0,1-.572-.158c-.069-.087-.1-.1-.194-.024a1.251,1.251,0,0,1-1.246.208,1.6,1.6,0,0,1-1.107-1.5,1.7,1.7,0,0,1,.832-1.779A1.3,1.3,0,0,1,1413.874,147.279Zm-1.445,1.494a.892.892,0,0,0,.171.493.671.671,0,0,0,1.072,0,1.017,1.017,0,0,0,0-1.13.623.623,0,0,0-.485-.26c-.45-.027-.764.319-.759.9Z" transform="translate(-1402.816 -140.762)" fill="#0180c7"/>
  <path id="Path_17" data-name="Path 17" d="M1541.266,149.239a1.738,1.738,0,1,1,1.891,1.688A1.668,1.668,0,0,1,1541.266,149.239Zm1.028-.1a.923.923,0,0,0,.174.572.672.672,0,0,0,1.06.008,1.013,1.013,0,0,0,0-1.145.62.62,0,0,0-.486-.258.729.729,0,0,0-.751.821Z" transform="translate(-1527.375 -141.204)" fill="#0180c7"/>
  <path id="Path_18" data-name="Path 18" d="M1508.408,115.657c0,.633,0,1.267,0,1.9a.515.515,0,1,1-1.027-.006q0-1.624,0-3.248c0-.19,0-.381,0-.572a.514.514,0,1,1,1.027.006C1508.411,114.377,1508.408,115.017,1508.408,115.657Z" transform="translate(-1494.876 -108.436)" fill="#0180c7"/>
  <path id="Path_19" data-name="Path 19" d="M1436.639,171.289c-.005-.578.309-.925.757-.9a.622.622,0,0,1,.485.26,1.013,1.013,0,0,1,0,1.13.67.67,0,0,1-1.072,0,.894.894,0,0,1-.171-.491Z" transform="translate(-1427.026 -163.277)" fill="#fdfefe"/>
  <path id="Path_20" data-name="Path 20" d="M1566.427,171.235a.73.73,0,0,1,.751-.822.619.619,0,0,1,.486.258,1.013,1.013,0,0,1,0,1.145.672.672,0,0,1-1.059-.008A.923.923,0,0,1,1566.427,171.235Z" transform="translate(-1551.508 -163.3)" fill="#fdfefe"/>
</svg>
