<svg xmlns="http://www.w3.org/2000/svg" width="17.807" height="17.807" viewBox="0 0 17.807 17.807">
  <g id="icons8_facebook_1" transform="translate(0.5 0.5)">
    <path id="Path_7124" data-name="Path 7124" d="M13.4,5a8.4,8.4,0,1,0,8.4,8.4A8.4,8.4,0,0,0,13.4,5Z" transform="translate(-5 -5)" fill="#3f51b5" stroke="#fff" stroke-width="1"/>
    <path id="Path_7125" data-name="Path 7125" d="M20.931,19.982h2.175l.341-2.209H20.93V16.565c0-.918.3-1.732,1.158-1.732h1.38V12.905a11.719,11.719,0,0,0-1.724-.1c-2.023,0-3.208,1.068-3.208,3.5v1.47H16.457v2.209h2.079v6.072a7.62,7.62,0,0,0,2.395.018Z" transform="translate(-11.39 -9.351)" fill="#fff"/>
  </g>
</svg>
