<svg xmlns="http://www.w3.org/2000/svg" width="368.462" height="241.666" viewBox="0 0 368.462 241.666">
  <g id="_4" data-name="4" transform="translate(-5753.19 -5265.023)">
    <path id="Path_11539" data-name="Path 11539" d="M282.275,100.954a92.076,92.076,0,0,0-38.212,7.927,41.852,41.852,0,0,1-26.352,2.957C155.672,98.433,86.888,128.891,86.888,176.132a47.222,47.222,0,0,0,3.79,18.432c-20.177,8.3-34.063,25.63-34.063,45.674,0,28.1,27.292,50.886,60.959,50.886,32.42,0,58.924-21.127,60.843-47.786q4.335.252,8.766.259c39.579,0,73.8-15.423,90.112-37.822a39.732,39.732,0,0,1,24.323-15.48c28.026-5.6,48.468-23.057,48.468-43.728C350.086,121.376,319.726,100.954,282.275,100.954Z" transform="translate(5716.321 5164.069)" fill="#dafffb"/>
    <line id="Line_304" data-name="Line 304" x2="76.012" transform="translate(5753.19 5449.566)" fill="none" stroke="#0e7130" stroke-miterlimit="10" stroke-width="1.459"/>
    <line id="Line_305" data-name="Line 305" x1="57.859" transform="translate(6060.857 5435.77)" fill="none" stroke="#0e7130" stroke-miterlimit="10" stroke-width="1.654"/>
    <path id="Path_11540" data-name="Path 11540" d="M405.11,148.389c0-8.376-3.61-17.031-9.365-20.081a23.1,23.1,0,0,1-9.986-9.726c-3.922-7.7-8.915-12.319-14.356-12.319-9.786,0-18.13,14.921-21.38,35.885a24.384,24.384,0,0,1-7.451,14.288c-5.711,5.236-9.417,13.65-9.417,23.145,0,13.992,8.319,26.353,19.65,28.449a22.138,22.138,0,0,1,10.673,5.51,11.87,11.87,0,0,0,7.925,3.434c10.115,0,18.689-15.941,21.69-38.021a24.761,24.761,0,0,1,6.219-13.372C402.825,161.725,405.11,155.461,405.11,148.389Z" transform="translate(5672.896 5163.236)" fill="#44c471"/>
    <line id="Line_306" data-name="Line 306" y2="112.759" transform="translate(6042.642 5303.416)" fill="none" stroke="#0e7130" stroke-miterlimit="10" stroke-width="1.654"/>
    <path id="Path_11541" data-name="Path 11541" d="M352.813,196.952l20.019,25.63,11.3-12.815" transform="translate(5669.811 5148.995)" fill="none" stroke="#0e7130" stroke-miterlimit="10" stroke-width="1.654"/>
    <path id="Path_11542" data-name="Path 11542" d="M393.514,159.119,375.3,179.493l-6.777-5.227" transform="translate(5667.343 5154.936)" fill="none" stroke="#0e7130" stroke-miterlimit="10" stroke-width="1.654"/>
    <path id="Path_11543" data-name="Path 11543" d="M453.211,200.427a7.5,7.5,0,0,0-3.508-.823,7.859,7.859,0,0,1-8-7.3c-.913-16.5-7.07-30.424-15.282-30.424-6.006,0-11.21,7.726-13.75,19a7.71,7.71,0,0,1-8.755,5.9,8.808,8.808,0,0,0-6.632,1.182c-9.512,6.659.4,33.113,17,48.54a7.739,7.739,0,0,1,2.437,6.928c-1.507,8.942-.083,16.007,4.453,18.374,7.542,3.937,20.827-6.611,29.672-23.559S460.753,204.363,453.211,200.427Z" transform="translate(5663.409 5154.501)" fill="#04ae3f"/>
    <line id="Line_307" data-name="Line 307" y2="81.688" transform="translate(6089.85 5353.556)" fill="none" stroke="#0e7130" stroke-miterlimit="10" stroke-width="1.654"/>
    <line id="Line_308" data-name="Line 308" x1="18.166" y2="29.504" transform="translate(6089.85 5375.858)" fill="none" stroke="#0e7130" stroke-miterlimit="10" stroke-width="1.654"/>
    <line id="Line_309" data-name="Line 309" x2="19.868" y2="30.201" transform="translate(6069.982 5355.415)" fill="none" stroke="#0e7130" stroke-miterlimit="10" stroke-width="1.654"/>
    <path id="Path_11544" data-name="Path 11544" d="M96.259,191.867c0-7.951,3.428-16.167,8.89-19.062a21.917,21.917,0,0,0,9.478-9.233c3.723-7.31,8.463-11.694,13.628-11.694,9.289,0,17.209,14.164,20.294,34.064a23.144,23.144,0,0,0,7.073,13.562c5.422,4.97,8.939,12.958,8.939,21.971,0,13.281-7.9,25.014-18.652,27.006a21.006,21.006,0,0,0-10.13,5.23,11.272,11.272,0,0,1-7.523,3.26c-9.6,0-17.741-15.132-20.59-36.092a23.507,23.507,0,0,0-5.9-12.693C98.428,204.526,96.259,198.581,96.259,191.867Z" transform="translate(5710.096 5156.073)" fill="#2ae16a"/>
    <line id="Line_310" data-name="Line 310" y2="107.036" transform="translate(5839.926 5340.147)" fill="none" stroke="#0e7130" stroke-miterlimit="10" stroke-width="1.57"/>
    <path id="Path_11545" data-name="Path 11545" d="M153.088,237.966l-19,24.329L123.362,250.13" transform="translate(5705.841 5142.555)" fill="none" stroke="#0e7130" stroke-miterlimit="10" stroke-width="1.57"/>
    <path id="Path_11546" data-name="Path 11546" d="M115.571,202.053l17.291,19.341,6.433-4.962" transform="translate(5707.063 5148.195)" fill="none" stroke="#0e7130" stroke-miterlimit="10" stroke-width="1.57"/>
    <path id="Path_11547" data-name="Path 11547" d="M89.3,229.565a6.609,6.609,0,0,0-3.1-.725,6.933,6.933,0,0,1-7.053-6.437c-.806-14.556-6.237-26.839-13.481-26.839-5.3,0-9.889,6.815-12.13,16.757a6.8,6.8,0,0,1-7.724,5.2,7.769,7.769,0,0,0-5.849,1.043c-8.391,5.875.35,29.211,15,42.82a6.827,6.827,0,0,1,2.15,6.112c-1.329,7.888-.072,14.121,3.928,16.209,6.654,3.472,18.373-5.833,26.175-20.783S95.958,233.038,89.3,229.565Z" transform="translate(5719.448 5149.212)" fill="#1cab4e"/>
    <line id="Line_311" data-name="Line 311" y2="72.061" transform="translate(5785.137 5377.568)" fill="none" stroke="#0e7130" stroke-miterlimit="10" stroke-width="1.459"/>
    <line id="Line_312" data-name="Line 312" x1="16.025" y2="26.027" transform="translate(5785.137 5397.241)" fill="none" stroke="#0e7130" stroke-miterlimit="10" stroke-width="1.459"/>
    <line id="Line_313" data-name="Line 313" x2="17.527" y2="26.642" transform="translate(5767.61 5379.207)" fill="none" stroke="#0e7130" stroke-miterlimit="10" stroke-width="1.459"/>
    <g id="Group_2170" data-name="Group 2170" transform="translate(5960.219 5360.309)">
      <rect id="Rectangle_2370" data-name="Rectangle 2370" width="109.676" height="127.621" rx="4.297" transform="translate(0 0)" fill="#e3e1ff"/>
      <rect id="Rectangle_2371" data-name="Rectangle 2371" width="88.254" height="100.207" transform="translate(10.568 16.241)" fill="#fff"/>
      <rect id="Rectangle_2372" data-name="Rectangle 2372" width="6.281" height="4.648" rx="1.118" transform="translate(10.76 5.729)" fill="#b4b7ff"/>
      <rect id="Rectangle_2373" data-name="Rectangle 2373" width="6.281" height="4.648" rx="1.118" transform="translate(19.868 5.729)" fill="#b4b7ff"/>
      <rect id="Rectangle_2374" data-name="Rectangle 2374" width="6.281" height="4.648" rx="1.118" transform="translate(28.976 5.729)" fill="#b4b7ff"/>
      <rect id="Rectangle_2375" data-name="Rectangle 2375" width="57.158" height="2.324" transform="translate(41.663 6.659)" fill="#b4b7ff"/>
      <g id="Rectangle_2376" data-name="Rectangle 2376" transform="translate(88.242 69.755) rotate(90)" fill="none" stroke="#b4b7ff" stroke-miterlimit="10" stroke-width="0.883">
        <rect width="33.333" height="67.095" stroke="none"/>
        <rect x="0.442" y="0.442" width="32.45" height="66.212" fill="none"/>
      </g>
      <rect id="Rectangle_2377" data-name="Rectangle 2377" width="49.298" height="5.385" transform="translate(38.034 23.223)" fill="#b4b7ff"/>
      <rect id="Rectangle_2378" data-name="Rectangle 2378" width="49.298" height="5.385" transform="translate(38.034 32.884)" fill="#b4b7ff"/>
      <rect id="Rectangle_2379" data-name="Rectangle 2379" width="49.298" height="5.385" transform="translate(38.034 42.545)" fill="#b4b7ff"/>
      <rect id="Rectangle_2380" data-name="Rectangle 2380" width="49.298" height="5.385" transform="translate(38.034 52.207)" fill="#b4b7ff"/>
      <path id="Path_11548" data-name="Path 11548" d="M310.824,246.923h-3.181a2.692,2.692,0,0,1-2.692-2.692h0a2.692,2.692,0,0,1,2.692-2.692h3.181a2.692,2.692,0,0,1,2.692,2.692h0A2.692,2.692,0,0,1,310.824,246.923Z" transform="translate(-282.894 -218.315)" fill="#b4b7ff"/>
      <path id="Path_11549" data-name="Path 11549" d="M310.824,258.384h-3.181a2.692,2.692,0,0,1-2.692-2.692h0A2.692,2.692,0,0,1,307.643,253h3.181a2.692,2.692,0,0,1,2.692,2.692h0A2.692,2.692,0,0,1,310.824,258.384Z" transform="translate(-282.894 -220.115)" fill="#b4b7ff"/>
      <path id="Path_11550" data-name="Path 11550" d="M310.824,269.845h-3.181a2.692,2.692,0,0,1-2.692-2.692h0a2.692,2.692,0,0,1,2.692-2.693h3.181a2.692,2.692,0,0,1,2.692,2.693h0A2.692,2.692,0,0,1,310.824,269.845Z" transform="translate(-282.894 -221.915)" fill="#b4b7ff"/>
      <path id="Path_11551" data-name="Path 11551" d="M310.824,281.306h-3.181a2.692,2.692,0,0,1-2.692-2.692h0a2.692,2.692,0,0,1,2.692-2.692h3.181a2.692,2.692,0,0,1,2.692,2.692h0A2.692,2.692,0,0,1,310.824,281.306Z" transform="translate(-282.894 -223.714)" fill="#b4b7ff"/>
    </g>
    <g id="Group_2171" data-name="Group 2171" transform="translate(5796.134 5398.437)">
      <path id="Path_11552" data-name="Path 11552" d="M193.81,330.141v-67.3a3.622,3.622,0,0,0-3.622-3.622H87.756a3.622,3.622,0,0,0-3.622,3.622v67.3a5.274,5.274,0,0,0,5.274,5.274h99.129A5.274,5.274,0,0,0,193.81,330.141Z" transform="translate(-84.134 -259.22)" fill="#ffe2e1"/>
      <rect id="Rectangle_2381" data-name="Rectangle 2381" width="88.254" height="52.287" transform="translate(10.567 16.241)" fill="#fff"/>
      <rect id="Rectangle_2382" data-name="Rectangle 2382" width="6.281" height="4.648" rx="1.118" transform="translate(10.76 5.729)" fill="#ffb4bb"/>
      <rect id="Rectangle_2383" data-name="Rectangle 2383" width="6.281" height="4.648" rx="1.118" transform="translate(19.868 5.729)" fill="#ffb4bb"/>
      <rect id="Rectangle_2384" data-name="Rectangle 2384" width="6.281" height="4.648" rx="1.118" transform="translate(28.975 5.729)" fill="#ffb4bb"/>
      <rect id="Rectangle_2385" data-name="Rectangle 2385" width="57.158" height="2.324" transform="translate(41.663 6.659)" fill="#ffb4bb"/>
      <rect id="Rectangle_2386" data-name="Rectangle 2386" width="49.298" height="5.385" transform="translate(38.034 23.222)" fill="#ffb4bb"/>
      <rect id="Rectangle_2387" data-name="Rectangle 2387" width="49.298" height="5.385" transform="translate(38.034 32.884)" fill="#ffb4bb"/>
      <rect id="Rectangle_2388" data-name="Rectangle 2388" width="49.298" height="5.385" transform="translate(38.034 42.545)" fill="#ffb4bb"/>
      <rect id="Rectangle_2389" data-name="Rectangle 2389" width="49.298" height="5.385" transform="translate(38.034 52.206)" fill="#ffb4bb"/>
      <path id="Path_11553" data-name="Path 11553" d="M116.173,292.153h-3.181a2.692,2.692,0,0,1-2.692-2.692h0a2.692,2.692,0,0,1,2.692-2.693h3.181a2.692,2.692,0,0,1,2.692,2.693h0A2.692,2.692,0,0,1,116.173,292.153Z" transform="translate(-88.243 -263.546)" fill="#ffb4bb"/>
      <path id="Path_11554" data-name="Path 11554" d="M116.173,303.614h-3.181a2.692,2.692,0,0,1-2.692-2.692h0a2.692,2.692,0,0,1,2.692-2.693h3.181a2.692,2.692,0,0,1,2.692,2.693h0A2.692,2.692,0,0,1,116.173,303.614Z" transform="translate(-88.243 -265.345)" fill="#ffb4bb"/>
      <path id="Path_11555" data-name="Path 11555" d="M116.173,315.075h-3.181a2.692,2.692,0,0,1-2.692-2.693h0a2.692,2.692,0,0,1,2.692-2.692h3.181a2.692,2.692,0,0,1,2.692,2.692h0A2.692,2.692,0,0,1,116.173,315.075Z" transform="translate(-88.243 -267.145)" fill="#ffb4bb"/>
      <path id="Path_11556" data-name="Path 11556" d="M116.173,326.537h-3.181a2.693,2.693,0,0,1-2.692-2.693h0a2.693,2.693,0,0,1,2.692-2.693h3.181a2.693,2.693,0,0,1,2.692,2.693h0A2.693,2.693,0,0,1,116.173,326.537Z" transform="translate(-88.243 -268.945)" fill="#ffb4bb"/>
    </g>
    <rect id="Rectangle_2390" data-name="Rectangle 2390" width="115.336" height="184.456" rx="10.186" transform="translate(5885.417 5303.474)" fill="#189e47"/>
    <rect id="Rectangle_2391" data-name="Rectangle 2391" width="118.899" height="184.456" rx="10.385" transform="translate(5875.674 5303.474)" fill="#66d18b"/>
    <rect id="Rectangle_2392" data-name="Rectangle 2392" width="101.258" height="166.132" rx="7.167" transform="translate(5884.358 5312.839)" fill="#a3a3ff"/>
    <path id="Rectangle_2393" data-name="Rectangle 2393" d="M0,0H44.848a0,0,0,0,1,0,0V2.568a6.39,6.39,0,0,1-6.39,6.39H6.39A6.39,6.39,0,0,1,0,2.568V0A0,0,0,0,1,0,0Z" transform="translate(5912.043 5310.396)" fill="#8787d5"/>
    <path id="Path_11557" data-name="Path 11557" d="M167.409,353.312V344.2h-3.943a17.6,17.6,0,0,0-1.8-4.334l2.791-2.791-6.439-6.44-2.792,2.792a17.578,17.578,0,0,0-4.333-1.8v-3.944h-9.107v3.944a17.609,17.609,0,0,0-4.333,1.8l-2.792-2.792-6.439,6.44,2.791,2.791a17.6,17.6,0,0,0-1.8,4.334h-3.943v9.108h3.943a17.611,17.611,0,0,0,1.8,4.333l-2.791,2.791,6.439,6.44,2.792-2.791a17.606,17.606,0,0,0,4.333,1.8v3.944h9.107v-3.944a17.606,17.606,0,0,0,4.333-1.8l2.792,2.791,6.439-6.44-2.791-2.791a17.611,17.611,0,0,0,1.8-4.333Zm-21.069,5.783a10.337,10.337,0,1,1,10.337-10.337A10.337,10.337,0,0,1,146.34,359.095Z" transform="translate(5705.541 5128.466)" fill="#39de72"/>
    <path id="Path_11558" data-name="Path 11558" d="M128.947,359.518V352.73h-2.939a13.1,13.1,0,0,0-1.34-3.229l2.08-2.08-4.8-4.8-2.08,2.08a13.132,13.132,0,0,0-3.229-1.341v-2.939H109.85v2.939a13.132,13.132,0,0,0-3.229,1.341l-2.08-2.08-4.8,4.8,2.08,2.08a13.1,13.1,0,0,0-1.34,3.229H97.541v6.788h2.939a13.1,13.1,0,0,0,1.34,3.229l-2.08,2.08,4.8,4.8,2.08-2.08a13.132,13.132,0,0,0,3.229,1.34v2.939h6.788v-2.939a13.1,13.1,0,0,0,3.229-1.34l2.08,2.08,4.8-4.8-2.08-2.08a13.1,13.1,0,0,0,1.34-3.229Zm-15.7,4.31a7.7,7.7,0,1,1,7.7-7.7A7.7,7.7,0,0,1,113.244,363.828Z" transform="translate(5709.895 5126.466)" fill="#96dbbf"/>
    <path id="Path_11559" data-name="Path 11559" d="M388.979,387.113H180.69a1.406,1.406,0,0,1-1.405-1.406h0a1.406,1.406,0,0,1,1.405-1.405H388.979a1.405,1.405,0,0,1,1.405,1.405h0A1.406,1.406,0,0,1,388.979,387.113Z" transform="translate(5697.06 5119.576)" fill="#c8e6eb"/>
    <g id="Rectangle_2394" data-name="Rectangle 2394" transform="translate(5888.859 5442.089)" fill="none" stroke="#fff" stroke-miterlimit="10" stroke-width="0.827">
      <path d="M4.34,0H88.189a4.341,4.341,0,0,1,4.341,4.341V21.866a4.34,4.34,0,0,1-4.34,4.34H4.34A4.34,4.34,0,0,1,0,21.866V4.34A4.34,4.34,0,0,1,4.34,0Z" stroke="none"/>
      <rect x="0.413" y="0.413" width="91.703" height="25.38" rx="3.927" fill="none"/>
    </g>
    <g id="Group_2172" data-name="Group 2172" transform="translate(5948.679 5460.556)">
      <rect id="Rectangle_2395" data-name="Rectangle 2395" width="57.732" height="37.022" transform="translate(0 0)" fill="#c8e6eb"/>
      <path id="Path_11560" data-name="Path 11560" d="M293.96,354.869,265.094,373.38h57.732Z" transform="translate(-265.094 -336.358)" fill="#b4d7dc"/>
      <path id="Path_11561" data-name="Path 11561" d="M322.825,332.909H265.094l28.866,26.213Z" transform="translate(-265.094 -332.909)" fill="#a5c8cd"/>
    </g>
    <path id="Path_11562" data-name="Path 11562" d="M289.2,304.415a1.194,1.194,0,0,1,1.633-1.732c12.683,9.7,23.9,12.729,32.127-1.219a29.23,29.23,0,0,0,2.268-4.723,4.177,4.177,0,1,1,7.9,2.677C328.183,311.509,311.151,328.321,289.2,304.415Z" transform="translate(5679.851 5133.811)" fill="#fa968c"/>
    <rect id="Rectangle_2396" data-name="Rectangle 2396" width="92.529" height="26.207" rx="4.34" transform="translate(5847.16 5354.815)" opacity="0.15"/>
    <rect id="Rectangle_2397" data-name="Rectangle 2397" width="92.529" height="26.207" rx="4.34" transform="translate(5847.16 5353.421)" fill="#fff"/>
    <g id="Rectangle_2398" data-name="Rectangle 2398" transform="translate(5888.859 5329.185)" fill="none" stroke="#fff" stroke-miterlimit="10" stroke-width="0.827">
      <path d="M4.34,0H88.189a4.341,4.341,0,0,1,4.341,4.341V21.866a4.34,4.34,0,0,1-4.34,4.34H4.34A4.34,4.34,0,0,1,0,21.866V4.34A4.34,4.34,0,0,1,4.34,0Z" stroke="none"/>
      <rect x="0.413" y="0.413" width="91.703" height="25.38" rx="3.927" fill="none"/>
    </g>
    <g id="Rectangle_2399" data-name="Rectangle 2399" transform="translate(5888.859 5366.82)" fill="none" stroke="#fff" stroke-miterlimit="10" stroke-width="0.827">
      <path d="M4.34,0H88.189a4.341,4.341,0,0,1,4.341,4.341V21.866a4.34,4.34,0,0,1-4.34,4.34H4.34A4.34,4.34,0,0,1,0,21.866V4.34A4.34,4.34,0,0,1,4.34,0Z" stroke="none"/>
      <rect x="0.413" y="0.413" width="91.703" height="25.38" rx="3.927" fill="none"/>
    </g>
    <g id="Rectangle_2400" data-name="Rectangle 2400" transform="translate(5888.859 5405.152)" fill="none" stroke="#fff" stroke-miterlimit="10" stroke-width="0.827">
      <rect width="92.529" height="26.207" rx="4.34" stroke="none"/>
      <rect x="0.413" y="0.413" width="91.703" height="25.38" rx="3.927" fill="none"/>
    </g>
    <rect id="Rectangle_2401" data-name="Rectangle 2401" width="14.36" height="16.459" rx="1.76" transform="translate(5853.259 5358.295)" fill="#73c8f0"/>
    <rect id="Rectangle_2402" data-name="Rectangle 2402" width="37.703" height="2.014" transform="translate(5873.839 5358.295)" fill="#73c8f0"/>
    <rect id="Rectangle_2403" data-name="Rectangle 2403" width="57.999" height="2.014" transform="translate(5873.839 5365.224)" fill="#73c8f0"/>
    <rect id="Rectangle_2404" data-name="Rectangle 2404" width="57.999" height="2.014" transform="translate(5873.839 5372.15)" fill="#73c8f0"/>
    <rect id="Rectangle_2405" data-name="Rectangle 2405" width="92.529" height="26.207" rx="4.34" transform="translate(5900.511 5439.25)" opacity="0.15"/>
    <rect id="Rectangle_2406" data-name="Rectangle 2406" width="92.529" height="26.207" rx="4.34" transform="translate(5900.511 5437.856)" fill="#fff"/>
    <rect id="Rectangle_2407" data-name="Rectangle 2407" width="14.36" height="16.459" rx="1.76" transform="translate(5906.609 5440.64)" fill="#96dbbf"/>
    <rect id="Rectangle_2408" data-name="Rectangle 2408" width="37.703" height="2.014" transform="translate(5938.137 5442.73)" fill="#96dbbf"/>
    <rect id="Rectangle_2409" data-name="Rectangle 2409" width="57.999" height="2.014" transform="translate(5927.989 5449.658)" fill="#96dbbf"/>
    <rect id="Rectangle_2410" data-name="Rectangle 2410" width="57.999" height="2.014" transform="translate(5927.989 5456.586)" fill="#96dbbf"/>
    <g id="Group_2174" data-name="Group 2174" transform="translate(5852.663 5369.47)">
      <path id="Path_11563" data-name="Path 11563" d="M181.8,336.773c.146,2.726,1.809,17.772,2.967,27.462.586,4.9.668,8.433,1.12,8.3,1.168-.336,4.812-32.123,4.593-36.228s-2.34-7.329-4.737-7.2S181.584,332.668,181.8,336.773Z" transform="translate(-155.997 -241.227)" fill="#fa968c"/>
      <path id="Path_11564" data-name="Path 11564" d="M186.919,357.747c-.419.021-2.848.315-3.3.406-1.454-9.735-3.178-26.036-3.025-28.9q.025-.463.081-.91a34.807,34.807,0,0,0-.389-12.232,201.923,201.923,0,0,1-3.926-21.712c-.352-5.361,2.741-9.929,6.906-10.2s7.6,3.425,8.261,8.757C193.139,305.827,186.943,357.534,186.919,357.747Z" transform="translate(-155.141 -234.174)" fill="#0073aa"/>
      <path id="Path_11565" data-name="Path 11565" d="M190.958,316.461l.021.018c.732-9.993,1.108-19.075.552-23.521-.665-5.332-4.1-9.03-8.261-8.757s-7.257,4.84-6.906,10.2c.043.651.171,1.722.369,3.1a19.492,19.492,0,0,1,11.83,14.827A6.988,6.988,0,0,0,190.958,316.461Z" transform="translate(-155.141 -234.174)" fill="#195fa0"/>
      <path id="Path_11566" data-name="Path 11566" d="M184.8,371.49s.249,7-.325,8.333-.714,2.842,1.114,2.829c1.793-.013,6.1-.016,6.718-.035,1.152-.035,2.172-.169,2.149-.931s-5.347-1-6.364-1.768-.267-8.055-.267-8.055Z" transform="translate(-156.358 -247.883)" fill="#fa968c"/>
      <path id="Path_11567" data-name="Path 11567" d="M191.791,382.481a9.433,9.433,0,0,1-3.214.577,9.571,9.571,0,0,1-4.308-1.042c-.373,1.169-.266,2.3,1.317,2.288,1.793-.013,6.1-.016,6.718-.035,1.152-.035,2.172-.169,2.15-.931C194.441,382.97,193.192,382.723,191.791,382.481Z" transform="translate(-156.358 -249.536)" fill="#a03c19"/>
      <path id="Path_11568" data-name="Path 11568" d="M192.876,337.917c.146,2.725,1.809,17.771,2.967,27.461.585,4.9.668,8.434,1.12,8.3,1.168-.336,4.812-32.123,4.593-36.228s-2.34-7.328-4.737-7.2S192.656,333.812,192.876,337.917Z" transform="translate(-157.735 -241.407)" fill="#fa968c"/>
      <path id="Path_11569" data-name="Path 11569" d="M197.991,358.891c-.419.02-2.848.315-3.3.406-1.454-9.735-3.178-26.037-3.025-28.9q.025-.463.081-.909a34.808,34.808,0,0,0-.389-12.232,201.966,201.966,0,0,1-3.926-21.712c-.352-5.361,2.74-9.929,6.906-10.2s7.6,3.425,8.261,8.757C204.211,306.97,198.015,358.678,197.991,358.891Z" transform="translate(-156.88 -234.354)" fill="#0091c8"/>
      <path id="Path_11570" data-name="Path 11570" d="M195.863,372.633s.25,7-.325,8.333-.789,2.909,1.114,2.829c1.791-.075,5.266-.191,5.884-.256,1.546-.164,3.333-.108,3.31-.872s-5.674-.837-6.692-1.607-.267-8.054-.267-8.054Z" transform="translate(-158.093 -248.062)" fill="#fa968c"/>
      <path id="Path_11571" data-name="Path 11571" d="M202.37,383.458a9.443,9.443,0,0,1-3.2.572,9.552,9.552,0,0,1-3.849-.817c-.371,1.168-.295,2.311,1.334,2.242,1.791-.075,5.266-.191,5.884-.256,1.546-.164,3.333-.108,3.31-.872C205.834,383.905,204.093,383.694,202.37,383.458Z" transform="translate(-158.093 -249.724)" fill="#cd5014"/>
      <path id="Path_11572" data-name="Path 11572" d="M192.97,241.983c-1.242,0-2.585-.621-4.437-2.238a5.615,5.615,0,0,1-1.849-3.641v-6.048H196a17.223,17.223,0,0,1,.02,6.4C195.508,238.845,193.947,241.984,192.97,241.983Z" transform="translate(-156.766 -225.674)" fill="#fab9af"/>
      <path id="Path_11573" data-name="Path 11573" d="M155.388,242.161a1.121,1.121,0,0,1,2.2-.369l0,.015a84.991,84.991,0,0,0,3.283,10.482c2.722,6.922,5.1,7.912,6.021,8.524a4.141,4.141,0,0,0,.695.166c2.643.608,7.256-5.156,8.061-9.62a13.844,13.844,0,0,1,.511-1.608,3.756,3.756,0,0,1,4.783-2.311C192.828,251.582,159.6,292.846,155.388,242.161Z" transform="translate(-151.851 -227.384)" fill="#fab9af"/>
      <path id="Path_11574" data-name="Path 11574" d="M178.838,286.232c3.4,3.906,23.053,5.537,23.053,5.537,1.45-1.684-5.307-20.895-5.307-20.895s3.256-13.866,3.11-18.872a3.817,3.817,0,0,0-3.819-3.706H183.4a3.686,3.686,0,0,0-3.68,3.382c-.327,3.964,4.851,18.762,4.851,18.762S175.9,282.856,178.838,286.232Z" transform="translate(-155.438 -228.538)" fill="#fab9af"/>
      <path id="Path_11575" data-name="Path 11575" d="M196.282,270.874s3.241-14.27,3.1-19.194a3.487,3.487,0,0,0-3.492-3.385h-1.849a4.968,4.968,0,0,1-9.03,0h-1.736c1.887,4.04,1.208,9.368-2.037,12.478,1.378,4.873,3.037,9.666,3.037,9.666s-9.165,13.843-7.829,15.9c2.826,4.342,25.142,5.433,25.142,5.433C203.04,289.651,196.282,270.874,196.282,270.874Z" transform="translate(-155.137 -228.538)" fill="#ff8c46"/>
      <g id="Group_2173" data-name="Group 2173" transform="translate(32.367 13.833)">
        <path id="Path_11576" data-name="Path 11576" d="M189.589,248.051l5.656-.594-1.79-6.19-3.659.453Z" transform="translate(-189.589 -241.267)" fill="#fab9af"/>
      </g>
      <path id="Path_11577" data-name="Path 11577" d="M189.81,241.72l3.659-.453.558,1.932c-.819.924-1.871,2.918-3.2,2.918a2.115,2.115,0,0,1-1.153-.339Z" transform="translate(-157.235 -227.434)" fill="#fa968c"/>
      <path id="Path_11578" data-name="Path 11578" d="M187.958,226.331l3.137-.2a5.134,5.134,0,0,0,2.488-.829,2.492,2.492,0,0,1,3.3.4c.887,1.055,1.334,2.515-.647,4.02-.985.748-2.537.088-3.519.48-.062,0-.118-.005-.182,0l-2.784.178a1.779,1.779,0,0,0-1.592,1.893,3.534,3.534,0,0,1-.414,1.351l-1.3-1.606-1.219-.988a1.217,1.217,0,0,1-.449-.868l-.013-.2A3.419,3.419,0,0,1,187.958,226.331Z" transform="translate(-156.463 -224.858)" fill="#be1ec8"/>
      <path id="Path_11579" data-name="Path 11579" d="M229.778,235.622s-1.525,2.9-.793,3.664,1.363,1.135,2.508.11a11.13,11.13,0,0,0,2.644-4.274,8.531,8.531,0,0,0-.007-4.02c-.723-.906-1.228,1.527-1.53,2.693s-.759,2.453-1.28,2.15.226-2.494-.255-3.04S229.778,235.622,229.778,235.622Z" transform="translate(-163.377 -225.807)" fill="#fab9af"/>
      <path id="Path_11580" data-name="Path 11580" d="M155.72,235.675s1.445,2.945.693,3.684-1.393,1.1-2.51.042a11.13,11.13,0,0,1-2.526-4.346,8.54,8.54,0,0,1,.116-4.018c.748-.886,1.186,1.56,1.457,2.735s.691,2.473,1.22,2.183-.158-2.5.337-3.031S155.72,235.675,155.72,235.675Z" transform="translate(-151.193 -225.798)" fill="#fab9af"/>
      <path id="Path_11581" data-name="Path 11581" d="M208.506,258.38c3.3,3.77,5.822,1.787,8.694-2.364,1.211-2.069,2.719-3.807,6.757-15.181l.005-.015a1.125,1.125,0,0,1,2.176.5c-3.969,34.628-22.765,29.179-28.374,13.666a12.009,12.009,0,0,1-.8-4.051,3.908,3.908,0,0,1,7.815-.162C204.805,252.244,206.229,255.863,208.506,258.38Z" transform="translate(-158.379 -227.247)" fill="#fab9af"/>
      <path id="Path_11582" data-name="Path 11582" d="M199.792,250.447a4.292,4.292,0,0,1-1.587-3.707c.174-2.99-1.617-5.647-3.915-7.76a6.789,6.789,0,0,1-2.1-5.776l.319-2.778h-9.394a7.239,7.239,0,0,1-2.934,5.862,14.37,14.37,0,0,0-4.892,6.441c-2.563,6.609-.07,13.771,5.558,16.376-1.483,6.25,1.284,12.552,6.766,14.678,6.061,2.351,13.127-1.294,15.782-8.141C205.633,259.86,204,253.653,199.792,250.447Z" transform="translate(-154.818 -225.732)" fill="#be1ec8"/>
    </g>
    <path id="Path_11583" data-name="Path 11583" d="M339.229,365.429a2.6,2.6,0,0,1-2.112-3.636,102.074,102.074,0,0,0,5.875-16.976,10.384,10.384,0,0,0-8.1-12.244c-5.545-1.036-7.346,2.917-8.416,8.642-.833,4.456-3.062,21.46-1.4,29.271-.006.088,1.282,6.353,7.572,6.353,4.248,0,40.887-1.324,40.941-4.619C373.631,369.621,350.921,366.618,339.229,365.429Z" transform="translate(5674.261 5127.725)" fill="#415050"/>
    <path id="Path_11584" data-name="Path 11584" d="M338.659,358.985a94.45,94.45,0,0,0,4.689-14.168,10.384,10.384,0,0,0-8.1-12.244c-5.545-1.036-7.346,2.917-8.416,8.642-.027.143-.056.3-.085.47C336.49,347.553,337.719,357.636,338.659,358.985Z" transform="translate(5673.904 5127.725)" fill="#3c4646"/>
    <path id="Path_11585" data-name="Path 11585" d="M415.329,381.63a21.334,21.334,0,0,0-7.1-2.961.454.454,0,0,0-.349.06,9.03,9.03,0,0,0-.835.609.443.443,0,0,1-.211.1,34.573,34.573,0,0,1-11.4-.475.445.445,0,0,0-.448.685l2.32,3.479a.443.443,0,0,0,.365.2c1.28.015,7.5.1,11.177.269,2.945.139,5.5.113,7.631.013a.45.45,0,0,0,.3-.767A9.925,9.925,0,0,0,415.329,381.63Z" transform="translate(5663.199 5120.462)" fill="#fab9af"/>
    <path id="Path_11586" data-name="Path 11586" d="M416.986,379.815l-3.572-1.92c-1.559-.8-3.828,1.049-4.158,1.33.079,0,.158-.013.237-.013a9.893,9.893,0,0,1,7.84,3.975,1.077,1.077,0,0,0,.8.432c3.253.148,5.608.193,6.876.206a.731.731,0,0,0,.455-1.312C423.575,381.151,418.217,380.561,416.986,379.815Z" transform="translate(5660.947 5120.614)" fill="#415050"/>
    <path id="Path_11587" data-name="Path 11587" d="M358.446,365.363a3.62,3.62,0,0,1-3.262-3.943c.73-7.893.6-16.553.1-19.487a10.384,10.384,0,0,0-11.828-8.7c-5.562.938-5.89,5.27-4.92,11.013.749,4.441,4.032,21.727,8.054,28.908.021.041.046.082.068.123,1.16,2.032,2.379,3.22,3.616,3.011l.008,0c1.009.4,40.042-.094,40.042-.094s.11-2.954.277-4.006C382.991,368.9,366.754,366.152,358.446,365.363Z" transform="translate(5672.119 5127.617)" fill="#55696e"/>
    <path id="Path_11588" data-name="Path 11588" d="M325.542,304c1.015-1.351,4.96-6.623,5.6-7.975l.032-.068c.051-.108.108-.214.169-.32a4.167,4.167,0,1,1,7.191,4.211,52.113,52.113,0,0,1-3.318,4.971c-.8,1.05-1.648,2.065-2.519,3.064C332.113,307.2,325.534,304.011,325.542,304Z" transform="translate(5674.093 5133.822)" fill="#50d1dd"/>
    <path id="Path_11589" data-name="Path 11589" d="M344.789,315.526l2.6.509a4.924,4.924,0,0,0,5.869-4.83c0-5.12.059-9.778.109-12.89a4.064,4.064,0,0,0-3.884-4.126l-13.266-.6a3.924,3.924,0,0,0-4.077,3.421c-.357,2.786-.527,7.009-.869,11.626a4.917,4.917,0,0,0,3.913,5.2C338.366,314.471,341.6,314.9,344.789,315.526Z" transform="translate(5673.196 5133.821)" fill="#fab9af"/>
    <path id="Path_11590" data-name="Path 11590" d="M335.313,293.583l2.155.1a5.291,5.291,0,0,0,9.607.433l1.967.089a3.713,3.713,0,0,1,3.552,3.769c-.086,5.245-.2,15.355-.013,24.509.171,8.285,2.969,15.349,1.324,17.531,0,0-22.115,1.311-27.584-4.558,1.067-5.469,1.706-12.513,2.641-19.778.931-7.229,1.877-14.606,2.413-18.787A3.792,3.792,0,0,1,335.313,293.583Z" transform="translate(5673.971 5133.822)" fill="#25bbcc"/>
    <path id="Rectangle_2411" data-name="Rectangle 2411" d="M3.771,0h0a0,0,0,0,1,0,0V8.713a0,0,0,0,1,0,0H0a0,0,0,0,1,0,0V3.771A3.771,3.771,0,0,1,3.771,0Z" transform="matrix(-0.993, -0.12, 0.12, -0.993, 6019.204, 5424.162)" fill="#00558c"/>
    <g id="Group_2175" data-name="Group 2175" transform="translate(6011.605 5421.411)">
      <path id="Path_11591" data-name="Path 11591" d="M342.876,294.163l4.967-1.056-3.718-6.634-4.383,1.881,1.168,4.589A1.67,1.67,0,0,0,342.876,294.163Z" transform="translate(-339.742 -286.473)" fill="#fab9af"/>
    </g>
    <path id="Path_11592" data-name="Path 11592" d="M339.742,288.354l4.383-1.881,1.494,2.665c-.685,1.442-1.518,3.041-3.172,3.521a2.983,2.983,0,0,1-1.624-.038Z" transform="translate(5671.863 5134.938)" fill="#fa968c"/>
    <path id="Path_11593" data-name="Path 11593" d="M339.524,289.854h0a5.783,5.783,0,0,0,6.437-5.043l.776-6.394-9.845-1.2a50.324,50.324,0,0,0-.3,8.448C336.825,288.262,337.908,289.658,339.524,289.854Z" transform="translate(5672.371 5136.391)" fill="#fab9af"/>
    <rect id="Rectangle_2412" data-name="Rectangle 2412" width="1.864" height="0.845" transform="translate(6019.233 5418.162) rotate(-173.08)" fill="#00558c"/>
    <path id="Path_11594" data-name="Path 11594" d="M345.91,284.157c-.151,1.248.324,2.332,1.06,2.421s1.747-1.447,1.9-2.695a1.472,1.472,0,0,0-1.35-1.823C346.781,281.97,346.062,282.91,345.91,284.157Z" transform="translate(5670.899 5135.632)" fill="#fab9af"/>
    <path id="Path_11595" data-name="Path 11595" d="M335.761,279.156a5.58,5.58,0,0,1,.156-2.468s.308-2.86,1.493-3.267c1.08-.371,2.74.474,3.818.851a20.231,20.231,0,0,0,3.323.4,3.641,3.641,0,0,1,3.178,4.053l-.094.775-1.818,1.307-.651,1.446-.13-.015a1.2,1.2,0,0,1-1.057-1.263,1.9,1.9,0,0,0-1.578-2.111l-2.95-.357c-1.795-.218-2.845.632-3.008,1.975l-.046,1.147Z" transform="translate(5672.5 5137.002)" fill="#00558c"/>
    <path id="Path_11596" data-name="Path 11596" d="M350.189,299.327c-2.531,16-19.086,33.926-47.632,32.305a1.2,1.2,0,0,1-.089-2.379c19.328-2.6,35.666-12.085,39.483-31.112a4.162,4.162,0,1,1,8.238,1.185Z" transform="translate(5677.879 5133.675)" fill="#fab9af"/>
    <g id="Group_2176" data-name="Group 2176" transform="translate(6016.986 5428.062)">
      <path id="Path_11597" data-name="Path 11597" d="M346.133,305.64a42.834,42.834,0,0,0,2.555-6.863s.18-.6.228-.8a6.609,6.609,0,0,1,1.295-2.648s1.813-1.957,5.289-.314c2.776,1.313,2.052,4.63,2.052,4.63-.089.462.264,4.007-4.131,10.609C353.42,310.259,345.866,306.227,346.133,305.64Z" transform="translate(-346.126 -294.363)" fill="#50d1dd"/>
    </g>
    <path id="Path_11598" data-name="Path 11598" d="M297.953,334.8s3.49-.153,3.89.9.475,1.828-1.03,2.467a11.863,11.863,0,0,1-5.317.609,9.1,9.1,0,0,1-3.871-1.829c-.545-1.108,2.028-.491,3.289-.254s2.708.381,2.651-.259-2.506-.912-2.814-1.623S297.953,334.8,297.953,334.8Z" transform="translate(5679.431 5127.398)" fill="#fab9af"/>
    <path id="Path_11599" data-name="Path 11599" d="M285.474,307.186s3.476-.35,3.721-1.446.208-1.877-1.374-2.294a11.847,11.847,0,0,0-5.35.161,9.983,9.983,0,0,0-3.189,1.939h3.555c1.457,0,1.989-.448,2.019.081.035.641-2.349,1.263-2.552,2.011S285.474,307.186,285.474,307.186Z" transform="translate(5681.356 5132.31)" fill="#fa968c"/>
  </g>
</svg>
