<svg xmlns="http://www.w3.org/2000/svg" xmlns:xlink="http://www.w3.org/1999/xlink" width="1920" height="1080" viewBox="0 0 1920 1080">
  <defs>
    <linearGradient id="linear-gradient" x1="0.5" x2="0.5" y2="0.889" gradientUnits="objectBoundingBox">
      <stop offset="0" stop-color="#20232d"/>
      <stop offset="1" stop-color="#151720"/>
    </linearGradient>
    <clipPath id="clip-header_background">
      <rect width="1920" height="1080"/>
    </clipPath>
  </defs>
  <g id="header_background" clip-path="url(#clip-header_background)">
    <rect width="1920" height="1080" fill="#fff"/>
    <rect id="Rectangle_1283" data-name="Rectangle 1283" width="1921" height="1080" transform="translate(-1)" fill="#151720"/>
    <path id="Mask" d="M-1920,0V1095S-364.391,917.363-278.749,908.094s196.7-9.269,210.967-201.191L0,190.6V0Z" transform="translate(1919 -20)" fill="url(#linear-gradient)"/>
    <g id="trianglify_1_" data-name="trianglify (1)" transform="translate(9 -488)" opacity="0.8">
      <path id="Shape" d="M0,170.507,143,200,136.542,0Z" transform="translate(1272 700)" fill="#282c39" stroke="#282c39" stroke-miterlimit="10" stroke-width="1.51"/>
      <path id="Shape-2" data-name="Shape" d="M251,224.093,0,0,114.426,394Z" transform="translate(1158 475)" fill="#282c39" stroke="#282c39" stroke-miterlimit="10" stroke-width="1.51"/>
      <path id="Shape-3" data-name="Shape" d="M6.423,200,356,11.06,0,0Z" transform="translate(1406 700)" fill="#252934" stroke="#252934" stroke-miterlimit="10" stroke-width="1.51"/>
      <path id="Shape-4" data-name="Shape" d="M251,475,109.813,0,0,250.822Z" transform="translate(1158 224)" fill="#262a37" stroke="#262a37" stroke-miterlimit="10" stroke-width="1.51"/>
      <path id="Shape-5" data-name="Shape" d="M0,621,308,431.2,133.313,0Z" transform="translate(1279 901)" fill="#1f222b" stroke="#1f222b" stroke-miterlimit="10" stroke-width="1.51"/>
      <path id="Shape-6" data-name="Shape" d="M248.359,0,0,394H362Z" transform="translate(908 475)" fill="#292d3a" stroke="#292d3a" stroke-miterlimit="10" stroke-width="1.51"/>
      <path id="Shape-7" data-name="Shape" d="M0,189l422-51.629L351.052,0Z" transform="translate(1412 712)" fill="#232731" stroke="#232731" stroke-miterlimit="10" stroke-width="1.51"/>
      <path id="Shape-8" data-name="Shape" d="M210,0,0,131.224,19.258,390Z" transform="translate(1744 321)" fill="#1e2029" stroke="#1e2029" stroke-miterlimit="10" stroke-width="1.51"/>
      <path id="Shape-9" data-name="Shape" d="M356,259,336.732,0,0,247.979Z" transform="translate(1406 452)" fill="#222530" stroke="#222530" stroke-miterlimit="10" stroke-width="1.51"/>
      <path id="Shape-10" data-name="Shape" d="M248,0,14.642,5.51,0,394Z" transform="translate(908 475)" fill="#272b37" stroke="#272b37" stroke-miterlimit="10" stroke-width="1.51"/>
      <path id="Shape-11" data-name="Shape" d="M343,0,0,257l233.864-5.527Z" transform="translate(922 224)" fill="#262936" stroke="#262936" stroke-miterlimit="10" stroke-width="1.51"/>
      <path id="Shape-12" data-name="Shape" d="M0,51.479,377.773,353,422,0Z" transform="translate(1412 849)" fill="#20232c" stroke="#20232c" stroke-miterlimit="10" stroke-width="1.51"/>
      <path id="Shape-13" data-name="Shape" d="M9.226,650,143,29.462,0,0Z" transform="translate(1272 870)" fill="#242732" stroke="#242732" stroke-miterlimit="10" stroke-width="1.51"/>
      <path id="Shape-14" data-name="Shape" d="M479,226.934,0,0,140.937,475Z" transform="translate(1267 224)" fill="#242631" stroke="#242631" stroke-miterlimit="10" stroke-width="1.51"/>
      <path id="Shape-15" data-name="Shape" d="M175.171,429,378,300.667,0,0Z" transform="translate(1412 901)" fill="#1f212a" stroke="#1f212a" stroke-miterlimit="10" stroke-width="1.51"/>
      <path id="Shape-16" data-name="Shape" d="M0,0,372,650,362.815,0Z" transform="translate(908 870)" fill="#252934" stroke="#252934" stroke-miterlimit="10" stroke-width="1.51"/>
      <path id="Shape-17" data-name="Shape" d="M192.927,0,0,528.47,565,650Z" transform="translate(714 870)" fill="#20232d" stroke="#20232d" stroke-miterlimit="10" stroke-width="1.51"/>
      <path id="Shape-18" data-name="Shape" d="M0,0,77.28,489,322,320.475Z" transform="translate(585 550)" fill="#272a37" stroke="#272a37" stroke-miterlimit="10" stroke-width="1.51"/>
      <path id="Shape-19" data-name="Shape" d="M502,0,0,36.846,158.139,257Z" transform="translate(764 224)" fill="#242834" stroke="#242834" stroke-miterlimit="10" stroke-width="1.51"/>
      <path id="Shape-20" data-name="Shape" d="M337,0,0,68.972,322.268,389Z" transform="translate(585 481)" fill="#252935" stroke="#252935" stroke-miterlimit="10" stroke-width="1.51"/>
      <path id="Shape-21" data-name="Shape" d="M454.19,0,0,229l502-36.64Z" transform="translate(764 32)" fill="#272a36" stroke="#272a36" stroke-miterlimit="10" stroke-width="1.51"/>
      <path id="Shape-22" data-name="Shape" d="M178.628,0,0,289l337-69.029Z" transform="translate(585 262)" fill="#242732" stroke="#242732" stroke-miterlimit="10" stroke-width="1.51"/>
      <path id="Shape-23" data-name="Shape" d="M0,353,347,217.867,44.063,0Z" transform="translate(1790 849)" fill="#1f222a" stroke="#1f222a" stroke-miterlimit="10" stroke-width="1.51"/>
      <path id="Shape-24" data-name="Shape" d="M330.476,275,347,0,0,135.2Z" transform="translate(1790 1067)" fill="#1f2229" stroke="#1f2229" stroke-miterlimit="10" stroke-width="1.51"/>
      <path id="Shape-25" data-name="Shape" d="M0,168.016,51.368,527,244,0Z" transform="translate(662 870)" fill="#22252f" stroke="#22252f" stroke-miterlimit="10" stroke-width="1.51"/>
      <path id="Shape-26" data-name="Shape" d="M0,379l103-20.189L51.036,0Z" transform="translate(612 1039)" fill="#1d2029" stroke="#1d2029" stroke-miterlimit="10" stroke-width="1.51"/>
      <path id="Shape-27" data-name="Shape" d="M284.108,409,331,140.018,0,0Z" transform="translate(1790 1201)" fill="#1d2025" stroke="#1d2025" stroke-miterlimit="10" stroke-width="1.51"/>
      <path id="Shape-28" data-name="Shape" d="M0,0,273.375,584,324,204.767Z" transform="translate(341 833)" fill="#21242e" stroke="#21242e" stroke-miterlimit="10" stroke-width="1.51"/>
      <path id="Shape-29" data-name="Shape" d="M0,116.182,259.953,284,507,0Z" transform="translate(80 550)" fill="#282c38" stroke="#282c38" stroke-miterlimit="10" stroke-width="1.51"/>
      <path id="Shape-30" data-name="Shape" d="M246.682,0,0,283.638,324,489Z" transform="translate(341 550)" fill="#272a37" stroke="#272a37" stroke-miterlimit="10" stroke-width="1.51"/>
      <path id="Shape-31" data-name="Shape" d="M355,52.544,0,0,176.58,342Z" transform="translate(408 209)" fill="#222530" stroke="#222530" stroke-miterlimit="10" stroke-width="1.51"/>
      <path id="Shape-32" data-name="Shape" d="M27.591,0,0,208.616,355,261Z" transform="translate(408)" fill="#242732" stroke="#242732" stroke-miterlimit="10" stroke-width="1.51"/>
      <path id="Shape-33" data-name="Shape" d="M0,0,502.649,189,612,57.8Z" transform="translate(0 1361)" fill="#22252e" stroke="#22252e" stroke-miterlimit="10" stroke-width="1.51"/>
      <path id="Shape-34" data-name="Shape" d="M109.687,20.267,0,152,212,0Z" transform="translate(503 1398)" fill="#20222b" stroke="#20222b" stroke-miterlimit="10" stroke-width="1.51"/>
      <path id="Shape-35" data-name="Shape" d="M150.64,0,0,94.949,327,342Z" transform="translate(258 209)" fill="#242733" stroke="#242733" stroke-miterlimit="10" stroke-width="1.51"/>
      <path id="Shape-36" data-name="Shape" d="M178.833,0,0,362,507,246.234Z" transform="translate(80 304)" fill="#272a37" stroke="#272a37" stroke-miterlimit="10" stroke-width="1.51"/>
      <path id="Shape-37" data-name="Shape" d="M339.081,0,0,526.151,612,584Z" transform="translate(0 833)" fill="#22252f" stroke="#22252f" stroke-miterlimit="10" stroke-width="1.51"/>
      <path id="Shape-38" data-name="Shape" d="M79.691,0,0,693,338,167.054Z" transform="translate(0 666)" fill="#2a2d39" stroke="#2a2d39" stroke-miterlimit="10" stroke-width="1.51"/>
    </g>
  </g>
</svg>
