<svg xmlns="http://www.w3.org/2000/svg" xmlns:xlink="http://www.w3.org/1999/xlink" width="128" height="128" viewBox="0 0 128 128">
  <defs>
    <linearGradient id="linear-gradient" x1="0.5" x2="0.5" y2="1" gradientUnits="objectBoundingBox">
      <stop offset="0" stop-color="#22c85c"/>
      <stop offset="1" stop-color="#10953f"/>
    </linearGradient>
  </defs>
  <g id="vi_pro" transform="translate(-3086 5129)">
    <g id="vbot_vnPro" transform="translate(3086 -5129)">
      <g id="Group_2926" data-name="Group 2926">
        <g id="Group_2913" data-name="Group 2913">
          <rect id="Rectangle_3236" data-name="Rectangle 3236" width="128" height="128" rx="64" fill="url(#linear-gradient)"/>
          <path id="Subtraction_27" data-name="Subtraction 27" d="M12.718,63.5a3.5,3.5,0,0,1-.96-.1,18.732,18.732,0,0,0,3.1-3.394,11.776,11.776,0,0,0,1.453-2.785,8.552,8.552,0,0,0,.3-1.073,6.7,6.7,0,0,0,.121-.812,3.651,3.651,0,0,0,0-.693A35.25,35.25,0,0,1,9.881,50.01a30.79,30.79,0,0,1-5.282-5.9,26.869,26.869,0,0,1-3.4-6.906A24.946,24.946,0,0,1,.721,23.6,25.55,25.55,0,0,1,1.6,20.765,26.476,26.476,0,0,1,2.79,18.05a28.428,28.428,0,0,1,3.273-5.02A31.738,31.738,0,0,1,10.4,8.656a35.186,35.186,0,0,1,5.254-3.609,38.239,38.239,0,0,1,6.03-2.725c1.063-.374,2.16-.709,3.262-.994S27.2.8,28.346.6C29.505.4,30.691.252,31.871.153,33.069.051,34.29,0,35.5,0s2.433.051,3.63.153c1.18.1,2.366.25,3.525.448,1.144.195,2.289.44,3.4.728s2.2.62,3.262.994a38.242,38.242,0,0,1,6.031,2.725,35.186,35.186,0,0,1,5.254,3.609,31.738,31.738,0,0,1,4.335,4.374,28.427,28.427,0,0,1,3.273,5.02,26.476,26.476,0,0,1,1.194,2.715,25.551,25.551,0,0,1,.875,2.832,24.937,24.937,0,0,1,0,11.912,25.548,25.548,0,0,1-.875,2.832,26.476,26.476,0,0,1-1.194,2.715,28.427,28.427,0,0,1-3.273,5.02,31.738,31.738,0,0,1-4.335,4.374,35.186,35.186,0,0,1-5.254,3.609,38.244,38.244,0,0,1-6.031,2.725c-1.063.374-2.161.709-3.262.994s-2.259.533-3.4.728-2.345.348-3.525.448c-1.2.1-2.419.153-3.63.153-.68,0-1.38-.017-2.081-.05L24.475,58.6A35.9,35.9,0,0,1,16.8,62.658a16.132,16.132,0,0,1-2.465.68A9.058,9.058,0,0,1,12.718,63.5ZM26.067,32.849a1.983,1.983,0,0,0-1.229.321,1.159,1.159,0,0,0-.36.464,1.913,1.913,0,0,0-.141.723l-.014.841a5.9,5.9,0,0,0,1.354,4.351c1.783,2.185,5.041,3.337,9.686,3.423.186,0,.372.005.551.005,4.351,0,7.47-1.033,9.27-3.069a5.964,5.964,0,0,0,1.534-4.3l.014-.841a1.981,1.981,0,0,0-.086-.664,1.18,1.18,0,0,0-.274-.46,1.96,1.96,0,0,0-1.454-.446,7.39,7.39,0,0,0-.954.071l-.933.118A4.7,4.7,0,0,0,41.038,34a1.86,1.86,0,0,0-.857,1.625l-.018.931a2.367,2.367,0,0,0,.019.268,2.773,2.773,0,0,1,.009.68,1.372,1.372,0,0,1-.348.752,1.919,1.919,0,0,1-.49.38,3.592,3.592,0,0,1-.787.312,7.328,7.328,0,0,1-1.149.211,14.534,14.534,0,0,1-1.578.078c-.13,0-.265,0-.4,0a16.392,16.392,0,0,1-1.742-.115,8.073,8.073,0,0,1-1.254-.249,3.82,3.82,0,0,1-.843-.349,1.956,1.956,0,0,1-.51-.415,1.365,1.365,0,0,1-.324-.772,2.755,2.755,0,0,1,.039-.686,2.4,2.4,0,0,0,.03-.262l.018-.935a1.847,1.847,0,0,0-.788-1.652,4.678,4.678,0,0,0-1.966-.685l-.93-.158a6.9,6.9,0,0,0-1.1-.1ZM48.269,16.1a3.918,3.918,0,1,0,3.913,3.918A3.92,3.92,0,0,0,48.269,16.1Zm-25.534,0a3.918,3.918,0,1,0,3.913,3.918A3.92,3.92,0,0,0,22.735,16.1Z" transform="translate(28.571 32)" fill="#fff"/>
        </g>
      </g>
    </g>
  </g>
</svg>
