<svg xmlns="http://www.w3.org/2000/svg" width="309.922" height="309.922" viewBox="0 0 309.922 309.922">
  <g id="qrcode" transform="translate(-281 -6320)">
    <g id="icons8_qr_code_1" transform="translate(275 6314)">
      <path id="Path_14565" data-name="Path 14565" d="M298.042,6H23.88A17.9,17.9,0,0,0,6,23.88V298.042a17.9,17.9,0,0,0,17.88,17.88H298.042a17.9,17.9,0,0,0,17.88-17.88V23.88A17.9,17.9,0,0,0,298.042,6ZM304,298.042a5.966,5.966,0,0,1-5.96,5.96H23.88a5.966,5.966,0,0,1-5.96-5.96V23.88a5.966,5.966,0,0,1,5.96-5.96H298.042A5.966,5.966,0,0,1,304,23.88Z" fill="#323643"/>
      <path id="Path_14566" data-name="Path 14566" d="M131.2,226.561a5.958,5.958,0,0,0-5.96,5.96v11.92a5.96,5.96,0,0,0,11.92,0v-11.92A5.958,5.958,0,0,0,131.2,226.561Zm-29.8,0a5.958,5.958,0,0,0-5.96,5.96v11.92a5.96,5.96,0,0,0,11.92,0v-11.92A5.958,5.958,0,0,0,101.4,226.561Zm59.6,0a5.958,5.958,0,0,0-5.96,5.96v11.92a5.96,5.96,0,0,0,11.92,0v-11.92A5.958,5.958,0,0,0,161,226.561Zm29.8,0a5.958,5.958,0,0,0-5.96,5.96v11.92a5.96,5.96,0,0,0,11.92,0v-11.92A5.958,5.958,0,0,0,190.8,226.561Zm53.64-47.68a5.958,5.958,0,0,0-5.96,5.96v11.92a5.96,5.96,0,1,0,11.92,0v-11.92A5.958,5.958,0,0,0,244.441,178.881ZM101.4,83.52a5.958,5.958,0,0,0,5.96-5.96V65.64a5.96,5.96,0,0,0-11.92,0V77.56A5.958,5.958,0,0,0,101.4,83.52ZM17.96,107.361H29.88a5.96,5.96,0,1,0,0-11.92H17.96a5.96,5.96,0,0,0,0,11.92Zm0,29.8H29.88a5.96,5.96,0,1,0,0-11.92H17.96a5.96,5.96,0,0,0,0,11.92ZM149.081,23.92H161A5.96,5.96,0,0,0,161,12h-11.92a5.96,5.96,0,1,0,0,11.92ZM17.96,166.961H29.88a5.96,5.96,0,1,0,0-11.92H17.96a5.96,5.96,0,0,0,0,11.92Zm59.6-11.92H53.72a5.96,5.96,0,0,0,0,11.92H77.56a5.96,5.96,0,0,0,0-11.92Z" transform="translate(29.76 29.76)" fill="#323643"/>
      <path id="Path_14567" data-name="Path 14567" d="M214.681,95.441h-35.76a5.96,5.96,0,0,0,0,11.92h29.8V131.2h-17.88a5.958,5.958,0,0,0-5.96,5.96v17.88h-29.8a5.958,5.958,0,0,0-5.96,5.96v17.88H137.2v-35.76h17.88a5.958,5.958,0,0,0,5.96-5.96v-23.84a5.958,5.958,0,0,0-5.96-5.96h-23.84a5.958,5.958,0,0,0-5.96,5.96V131.2H77.6v-23.84h29.8a5.958,5.958,0,0,0,5.96-5.96V83.52h17.88a5.958,5.958,0,0,0,5.96-5.96V41.8a5.958,5.958,0,0,0-5.96-5.96h-29.8V17.96A5.958,5.958,0,0,0,95.48,12H71.64a5.958,5.958,0,0,0-5.96,5.96V41.8a5.958,5.958,0,0,0,5.96,5.96H89.52V65.64a5.96,5.96,0,1,0,11.92,0V47.76h23.84V71.6H107.4a5.958,5.958,0,0,0-5.96,5.96v17.88H71.64a5.958,5.958,0,0,0-5.96,5.96v29.8H53.76v-17.88a5.958,5.958,0,0,0-5.96-5.96H23.96a5.958,5.958,0,0,0-5.96,5.96v23.84a5.958,5.958,0,0,0,5.96,5.96H65.68V161a5.958,5.958,0,0,0,5.96,5.96h29.8v11.92H83.56a5.958,5.958,0,0,0-5.96,5.96v23.84a5.958,5.958,0,0,0,5.96,5.96H107.4a5.958,5.958,0,0,0,5.96-5.96V161a5.958,5.958,0,0,0-5.96-5.96H77.6v-11.92h47.68v65.56a5.958,5.958,0,0,0,5.96,5.96h23.84a5.958,5.958,0,0,0,5.96-5.96V190.8h23.84v53.64a5.958,5.958,0,0,0,5.96,5.96h23.84a5.958,5.958,0,0,0,5.96-5.96V220.6a5.958,5.958,0,0,0-5.96-5.96H196.8v-29.8a5.958,5.958,0,0,0-5.96-5.96h-29.8v-11.92h53.64a5.958,5.958,0,0,0,5.96-5.96V101.4A5.958,5.958,0,0,0,214.681,95.441Zm-77.48,23.84h11.92V131.2H137.2ZM89.52,35.84H77.6V23.92H89.52ZM41.84,131.2H29.92v-11.92H41.84Zm59.6,65.56v5.96H89.52V190.8h11.92Zm47.68,5.96H137.2V190.8h11.92Zm47.68,23.84h11.92v11.92H196.8Zm11.92-77.48v5.96H196.8v-11.92h11.92Z" transform="translate(59.52 29.76)" fill="#323643"/>
      <path id="Path_14568" data-name="Path 14568" d="M23.92,83.52H71.6A11.932,11.932,0,0,0,83.52,71.6V23.92A11.932,11.932,0,0,0,71.6,12H23.92A11.932,11.932,0,0,0,12,23.92V71.6A11.932,11.932,0,0,0,23.92,83.52Zm0-59.6H71.6l.006,47.68H23.92ZM71.6,178.881H23.92A11.932,11.932,0,0,0,12,190.8v47.68A11.932,11.932,0,0,0,23.92,250.4H71.6a11.932,11.932,0,0,0,11.92-11.92V190.8A11.932,11.932,0,0,0,71.6,178.881Zm-47.68,59.6V190.8H71.6l.006,47.68Z" transform="translate(29.76 29.76)" fill="#323643"/>
      <path id="Path_14569" data-name="Path 14569" d="M33.88,182.881H21.96a5.958,5.958,0,0,0-5.96,5.96v11.92a5.958,5.958,0,0,0,5.96,5.96H33.88a5.958,5.958,0,0,0,5.96-5.96v-11.92A5.958,5.958,0,0,0,33.88,182.881ZM33.88,16H21.96A5.958,5.958,0,0,0,16,21.96V33.88a5.958,5.958,0,0,0,5.96,5.96H33.88a5.958,5.958,0,0,0,5.96-5.96V21.96A5.958,5.958,0,0,0,33.88,16Zm166.881,0h-11.92a5.958,5.958,0,0,0-5.96,5.96V33.88a5.958,5.958,0,0,0,5.96,5.96h11.92a5.958,5.958,0,0,0,5.96-5.96V21.96A5.958,5.958,0,0,0,200.761,16Z" transform="translate(49.6 49.6)" fill="#323643"/>
      <path id="Path_14570" data-name="Path 14570" d="M99.6,12H51.92A11.932,11.932,0,0,0,40,23.92V71.6A11.932,11.932,0,0,0,51.92,83.52H99.6A11.932,11.932,0,0,0,111.52,71.6V23.92A11.932,11.932,0,0,0,99.6,12ZM51.92,71.6V23.92H99.6l.006,47.68Z" transform="translate(168.641 29.76)" fill="#323643"/>
    </g>
    <rect id="Rectangle_3459" data-name="Rectangle 3459" width="78" height="78" rx="10" transform="translate(397 6436)" fill="#f5f7fa"/>
    <g id="Group_2712" data-name="Group 2712" transform="translate(-3.355 -38.355)">
      <rect id="Rectangle_3458" data-name="Rectangle 3458" width="46" height="46" rx="10" transform="translate(416.355 6490.355)" fill="#1cab4e"/>
      <path id="Path_10028" data-name="Path 10028" d="M-1758.782,4625.939c-8.631,0-15.628,5.807-15.628,12.975,0,4.646,2.943,8.725,7.368,11.013,0,0,.229,1.741-2.192,3.846,0,0,1.644.531,5.6-2.105l3.937.2c.3.011.608.018.917.018,8.632,0,15.629-5.805,15.629-12.971S-1750.149,4625.939-1758.782,4625.939Zm-7.342,8.786a1.72,1.72,0,0,1,1.722-1.718,1.72,1.72,0,0,1,1.723,1.718,1.722,1.722,0,0,1-1.723,1.721A1.722,1.722,0,0,1-1766.124,4634.726Zm11.6,8.734c-.824.93-2.281,1.385-4.323,1.344s-3.479-.542-4.264-1.5a2.594,2.594,0,0,1-.6-1.911l.007-.37c.015-.679.569-.725,1.246-.616l.41.071c.679.112,1.226.345,1.213,1.024l-.008.412c-.009.3-.441,1.206,2.026,1.25s2.074-.876,2.08-1.176l.009-.406c.015-.684.572-.9,1.254-.983l.411-.051c.683-.091,1.233-.023,1.219.656l-.007.371a2.619,2.619,0,0,1-.677,1.887Zm1.358-7.012a1.721,1.721,0,0,1-1.722-1.721,1.72,1.72,0,0,1,1.722-1.718,1.72,1.72,0,0,1,1.722,1.718,1.721,1.721,0,0,1-1.722,1.72Z" transform="translate(2197.942 1873.198)" fill="#fff"/>
    </g>
  </g>
</svg>
