<svg xmlns="http://www.w3.org/2000/svg" width="17.679" height="20.093" viewBox="0 0 17.679 20.093">
  <path id="shopee" d="M27.787,79.367q-.078,0-.155,0c-1.839.091-3.695,2.046-3.769,5.617H19.6a.594.594,0,0,0-.6.6l.8,12.037a2.621,2.621,0,0,0,2.286,1.839H33.663a2.518,2.518,0,0,0,2.286-2.345l.729-11.532a.614.614,0,0,0-.613-.6H31.8C31.334,80.845,29.4,79.386,27.787,79.367Zm.015.995c1.166.02,2.593,1.23,2.995,4.624H24.865c.066-2.916,1.491-4.556,2.825-4.623q.056,0,.112,0Zm.055,6.649a3.013,3.013,0,0,1,2.327.908c.423.48-.282,1.193-.7.7a2.416,2.416,0,0,0-3.372.149c-1.011,1.334.505,2.046,1.566,2.369,1.458.439,3.074,1.251,3.339,2.916a2.6,2.6,0,0,1-2.121,2.85,4.8,4.8,0,0,1-4.134-1.234c-.439-.472.265-1.176.7-.7a3.809,3.809,0,0,0,2.759,1,1.625,1.625,0,0,0,1.6-2.353c-.944-1.7-3.289-1.218-4.49-2.552a2.4,2.4,0,0,1,.63-3.521,3.613,3.613,0,0,1,1.9-.536Z" transform="translate(-19 -79.367)" fill="#fff"/>
</svg>
