<svg xmlns="http://www.w3.org/2000/svg" width="240" height="240" viewBox="0 0 240 240">
  <g id="bank" transform="translate(-13079 -8152)">
    <rect id="Rectangle_3921" data-name="Rectangle 3921" width="240" height="240" transform="translate(13079 8152)" fill="none"/>
    <g id="Group_3055" data-name="Group 3055" transform="translate(-306 -3)">
      <rect id="Rectangle_3916" data-name="Rectangle 3916" width="202" height="20" rx="10" transform="translate(13404 8322)" fill="#1492e6"/>
      <rect id="Rectangle_3915" data-name="Rectangle 3915" width="238" height="20" rx="10" transform="translate(13386 8355)" fill="#1492e6"/>
      <g id="Group_3054" data-name="Group 3054" transform="translate(13421 8250)">
        <rect id="Rectangle_3917" data-name="Rectangle 3917" width="90" height="20" rx="10" transform="translate(20) rotate(90)" fill="#1492e6"/>
        <rect id="Rectangle_3917-2" data-name="Rectangle 3917" width="90" height="20" rx="10" transform="translate(57) rotate(90)" fill="#1492e6"/>
        <rect id="Rectangle_3917-3" data-name="Rectangle 3917" width="90" height="20" rx="10" transform="translate(94) rotate(90)" fill="#1492e6"/>
        <rect id="Rectangle_3917-4" data-name="Rectangle 3917" width="90" height="20" rx="10" transform="translate(131) rotate(90)" fill="#1492e6"/>
        <rect id="Rectangle_3917-5" data-name="Rectangle 3917" width="90" height="20" rx="10" transform="translate(168) rotate(90)" fill="#1492e6"/>
      </g>
      <g id="Group_3053" data-name="Group 3053" transform="translate(13405 8175)">
        <path id="Path_12309" data-name="Path 12309" d="M190.364,39.364A13.636,13.636,0,1,0,204,53,13.636,13.636,0,0,0,190.364,39.364Zm-172.727,0A13.636,13.636,0,1,0,31.273,53,13.636,13.636,0,0,0,17.636,39.364ZM104,3a9.091,9.091,0,1,0,9.091,9.091A9.091,9.091,0,0,0,104,3Z" transform="translate(-4 -3)" fill="#1492e6"/>
        <path id="Path_12310" data-name="Path 12310" d="M99.372,3.057,96.354,11.63,93.336,3.057,4.945,39.866,9.99,66.175H182.718l5.045-26.309ZM96.354,47.993a9.091,9.091,0,1,1,9.091-9.091A9.094,9.094,0,0,1,96.354,47.993Z" transform="translate(3.646 -2.539)" fill="#1492e6"/>
      </g>
    </g>
  </g>
</svg>
