<svg xmlns="http://www.w3.org/2000/svg" width="240" height="240" viewBox="0 0 240 240">
  <g id="momo" transform="translate(-12399 -8155)">
    <rect id="Rectangle_3919" data-name="Rectangle 3919" width="240" height="240" transform="translate(12399 8155)" fill="none"/>
    <g id="Group_3045" data-name="Group 3045" transform="translate(11756.886 7925.412)">
      <rect id="Rectangle_3910" data-name="Rectangle 3910" width="200" height="200" rx="25" transform="translate(662.114 249.588)" fill="#ae2070"/>
      <g id="Group_3044" data-name="Group 3044" transform="translate(701.275 288.843)">
        <g id="Group_3042" data-name="Group 3042" transform="translate(0 0)">
          <path id="Path_12293" data-name="Path 12293" d="M849.68,362.148a26.838,26.838,0,1,1,26.838-26.839A26.869,26.869,0,0,1,849.68,362.148Zm0-38.343a11.5,11.5,0,1,0,11.5,11.5A11.517,11.517,0,0,0,849.68,323.8Z" transform="translate(-754.851 -308.471)" fill="#fff"/>
          <path id="Path_12294" data-name="Path 12294" d="M760.151,361.794H744.817V329.382a4.314,4.314,0,0,0-8.628,0v32.412H720.856V329.382a19.647,19.647,0,1,1,39.295,0Z" transform="translate(-720.856 -308.892)" fill="#fff"/>
          <path id="Path_12295" data-name="Path 12295" d="M796.092,361.794H780.759V329.382a4.314,4.314,0,1,0-8.627,0v32.412H756.8V329.382a19.647,19.647,0,1,1,39.294,0Z" transform="translate(-732.837 -308.892)" fill="#fff"/>
        </g>
        <g id="Group_3043" data-name="Group 3043" transform="translate(0.01 60.921)">
          <path id="Path_12296" data-name="Path 12296" d="M849.694,453.53a26.838,26.838,0,1,1,26.839-26.839A26.869,26.869,0,0,1,849.694,453.53Zm0-38.343a11.505,11.505,0,1,0,11.505,11.5A11.518,11.518,0,0,0,849.694,415.186Z" transform="translate(-754.866 -399.853)" fill="#fff"/>
          <path id="Path_12297" data-name="Path 12297" d="M760.165,453.176H744.832V420.764a4.314,4.314,0,1,0-8.627,0v32.412H720.871V420.764a19.647,19.647,0,1,1,39.294,0Z" transform="translate(-720.871 -400.274)" fill="#fff"/>
          <path id="Path_12298" data-name="Path 12298" d="M796.107,453.176H780.773V420.764a4.314,4.314,0,1,0-8.628,0v32.412H756.812V420.764a19.647,19.647,0,0,1,39.295,0Z" transform="translate(-732.851 -400.274)" fill="#fff"/>
        </g>
      </g>
    </g>
  </g>
</svg>
