<svg xmlns="http://www.w3.org/2000/svg" width="225" height="198.301" viewBox="0 0 225 198.301">
  <g id="payfail" transform="translate(-861 -344.799)">
    <g id="icons8_bill_2" transform="translate(861 344.799)">
      <path id="Path_12328" data-name="Path 12328" d="M69.626,4,54.057,19.726,53.9,161.257h86.491a23.557,23.557,0,0,0,23.588-23.589V4L148.254,19.726,132.528,4,116.8,19.726,101.077,4,85.351,19.726Z" transform="translate(29.446 0.875)" fill="#fff"/>
      <path id="Path_12329" data-name="Path 12329" d="M101.077,24H53.9V149.806h78.628V55.451A31.544,31.544,0,0,0,101.077,24Z" transform="translate(29.446 12.326)" fill="#71c2ff"/>
      <path id="Path_12330" data-name="Path 12330" d="M73.9,144.08V49.726A15.772,15.772,0,0,1,89.626,34h0a15.772,15.772,0,0,1,15.726,15.726l.157,70.923A23.49,23.49,0,0,0,128.94,144.08H73.9Z" transform="translate(40.897 18.052)" fill="#fff"/>
      <path id="Path_12331" data-name="Path 12331" d="M3.9,175.531V49.726A15.772,15.772,0,0,1,19.626,34h110.08A15.772,15.772,0,0,0,113.98,49.726v110.08L98.254,175.531,82.528,159.806,66.8,175.531,51.077,159.806,35.351,175.531,19.783,159.806,4.057,175.531Z" transform="translate(0.818 18.052)" fill="#fff"/>
      <path id="Path_12332" data-name="Path 12332" d="M94.189,136.161a4.526,4.526,0,0,1-3.3-1.415L78.463,122.323,66.04,134.746a4.56,4.56,0,0,1-6.6,0L47.012,122.323,34.588,134.746a4.526,4.526,0,0,1-3.3,1.415h0a4.283,4.283,0,0,1-3.3-1.415L12.415,119.177a4.56,4.56,0,0,1,0-6.6,4.56,4.56,0,0,1,6.6,0l12.266,12.266,12.423-12.423a4.56,4.56,0,0,1,6.6,0l12.423,12.423,12.423-12.423a4.56,4.56,0,0,1,6.6,0l15.726,15.726a4.718,4.718,0,0,1-3.3,8.02Z" transform="translate(4.883 62.14)" fill="#444b54"/>
      <path id="Path_12333" data-name="Path 12333" d="M83.678,80.435H20.618a4.718,4.718,0,0,1,0-9.435h63.06a4.718,4.718,0,0,1,0,9.435Zm0,31.451a4.671,4.671,0,0,1-3.3-8.02,4.663,4.663,0,0,1,4.246-1.258,2.235,2.235,0,0,1,.944.315,3.437,3.437,0,0,1,.786.472,2.761,2.761,0,0,1,.786.629,4.526,4.526,0,0,1,1.415,3.3,4.283,4.283,0,0,1-1.415,3.3A5.5,5.5,0,0,1,83.678,111.887Zm-42.459,0h-20.6a4.718,4.718,0,0,1,0-9.435h20.6a4.718,4.718,0,0,1,0,9.435Z" transform="translate(7.688 39.237)" fill="#71c2ff"/>
      <path id="Path_12334" data-name="Path 12334" d="M197.628,2.473a4.56,4.56,0,0,0-6.6,0L178.6,14.9,166.177,2.473a4.56,4.56,0,0,0-6.6,0L147.149,14.9,134.725,2.473a4.283,4.283,0,0,0-3.3-1.415h0a4.283,4.283,0,0,0-3.3,1.415L115.855,14.739,103.431,2.315a4.56,4.56,0,0,0-6.6,0,4.56,4.56,0,0,0,0,6.6l15.726,15.726a4.526,4.526,0,0,0,3.3,1.415h0a4.283,4.283,0,0,0,3.3-1.415l12.266-12.423,12.423,12.423a4.56,4.56,0,0,0,6.6,0l12.423-12.423L175.3,24.646a4.56,4.56,0,0,0,6.6,0l7.706-7.706v122.5a18.926,18.926,0,0,1-18.871,18.871h0A18.658,18.658,0,0,1,152.024,139.6l-.157-70.923h0a20.4,20.4,0,0,0-20.443-20.443H88.964V21.5a4.718,4.718,0,1,0-9.435,0V48.234H21.343A20.4,20.4,0,0,0,.9,68.678V194.484A4.633,4.633,0,0,0,5.618,199.2a4.633,4.633,0,0,0,4.718-4.718V68.678A10.94,10.94,0,0,1,21.343,57.67h92.781a20.044,20.044,0,0,0-3.145,11.008v110.08a4.718,4.718,0,1,0,9.435,0V68.678a11.008,11.008,0,1,1,22.016,0V79.686l.157,59.915a27.523,27.523,0,0,0,7.234,18.714h-15.1a4.718,4.718,0,0,0,0,9.435h36.012a28.389,28.389,0,0,0,28.306-28.306V5.775A4.526,4.526,0,0,0,197.628,2.473Z" transform="translate(-0.9 -0.9)" fill="#444b54"/>
    </g>
    <g id="Group_3062" data-name="Group 3062" transform="translate(14 16)">
      <circle id="Ellipse_1383" data-name="Ellipse 1383" cx="34.5" cy="34.5" r="34.5" transform="translate(1003 458)" fill="#ff3e3e"/>
      <g id="Group_3061" data-name="Group 3061" transform="translate(1025.029 479.211)">
        <line id="Line_536" data-name="Line 536" x2="37.79" transform="translate(0 0) rotate(45)" fill="none" stroke="#fff" stroke-linecap="round" stroke-width="5"/>
        <line id="Line_537" data-name="Line 537" x2="37.79" transform="translate(26.724 0.002) rotate(135)" fill="none" stroke="#fff" stroke-linecap="round" stroke-width="5"/>
      </g>
    </g>
  </g>
</svg>
