<svg xmlns="http://www.w3.org/2000/svg" width="240" height="240" viewBox="0 0 240 240">
  <g id="zalopay" transform="translate(-13697 -8145)">
    <rect id="Rectangle_3922" data-name="Rectangle 3922" width="240" height="240" transform="translate(13697 8145)" fill="none"/>
    <g id="XMLID_115_" transform="translate(13368.886 8036.7)">
      <g id="XMLID_538_" transform="translate(350.049 128.3)">
        <path id="XMLID_273_" d="M528.472,191.019a7.759,7.759,0,0,0-5.808-2.343c-3.465,0-5.954,1.659-7.565,4.978-3.367-3.953-8-5.954-13.86-5.954a22.9,22.9,0,0,0-17.765,8.15,31.085,31.085,0,0,0,0,39.727,22.828,22.828,0,0,0,17.765,8.15c5.857,0,10.493-2,13.86-5.954a7.872,7.872,0,0,0,7.565,4.978,7.76,7.76,0,0,0,5.808-2.343,7.921,7.921,0,0,0,2.294-5.71V196.778A8.157,8.157,0,0,0,528.472,191.019Zm-16.837,34.065a10.524,10.524,0,0,1-16.2,0,16.613,16.613,0,0,1,0-18.838,10.524,10.524,0,0,1,16.2,0,14.958,14.958,0,0,1,2.928,9.419A14.393,14.393,0,0,1,511.634,225.084Z" transform="translate(-414.709 -158.71)" fill="#118acb"/>
        <path id="XMLID_272_" d="M610.709,209.95a8.37,8.37,0,0,1-11.615,0,7.921,7.921,0,0,1-2.294-5.71V136.353a7.921,7.921,0,0,1,2.294-5.71,8.37,8.37,0,0,1,11.615,0,7.921,7.921,0,0,1,2.294,5.71v67.887a7.921,7.921,0,0,1-2.294,5.71Z" transform="translate(-476.4 -128.3)" fill="#118acb"/>
        <path id="XMLID_269_" d="M685.6,195.85c-5.173-5.417-11.762-8.15-19.766-8.15s-14.544,2.684-19.619,8.053-7.613,12.006-7.613,19.961,2.538,14.592,7.613,19.961,11.615,8.053,19.619,8.053,14.593-2.733,19.766-8.15c4.978-5.32,7.467-11.908,7.467-19.863C693.017,207.759,690.528,201.121,685.6,195.85Zm-11.664,29.234a10.524,10.524,0,0,1-16.2,0,16.613,16.613,0,0,1,0-18.838,10.524,10.524,0,0,1,16.2,0,16.614,16.614,0,0,1,0,18.838Z" transform="translate(-497.8 -158.71)" fill="#118acb"/>
        <path id="XMLID_268_" d="M402.76,166.619c5.71-7.369,8.541-12.3,8.541-14.885,0-5.905-3.709-8.834-11.127-8.834h-39.19c-3.075,0-5.466.732-7.125,2.2a7.583,7.583,0,0,0,0,11.323c1.708,1.464,4.051,2.2,7.125,2.2h26.891l-34.407,44.509q-3.368,4.392-3.367,7.76c0,6.491,4.295,9.712,12.836,9.712h40.41c6.442,0,9.663-2.733,9.663-8.15s-3.221-8.15-9.663-8.15H373.624l29.136-37.677Z" transform="translate(-350.1 -135.775)" fill="#118acb"/>
      </g>
      <g id="XMLID_288_" transform="translate(350 225.176)">
        <path id="XMLID_267_" d="M407.954,388H397.9v20.888h10.054a9.673,9.673,0,0,0,7.369-2.977,10.557,10.557,0,0,0,2.831-7.516,10.43,10.43,0,0,0-2.831-7.516A9.965,9.965,0,0,0,407.954,388Z" transform="translate(-374.523 -358.132)" fill="#33b44a"/>
        <path id="XMLID_266_" d="M510.649,428.3a9,9,0,0,0-7.516,3.514,15.173,15.173,0,0,0,0,17.374,9.795,9.795,0,0,0,15.032,0,15.173,15.173,0,0,0,0-17.374A9.061,9.061,0,0,0,510.649,428.3Z" transform="translate(-426.998 -378.764)" fill="#33b44a"/>
        <path id="XMLID_262_" d="M504.709,326.8H358.834A8.831,8.831,0,0,0,350,335.634V421.09a8.831,8.831,0,0,0,8.834,8.834H473.963a5.385,5.385,0,0,1-1.806-4.051,10.841,10.841,0,0,1,.83-3.953l5.417-12.055-14.983-37.579a9.2,9.2,0,0,1-.683-3.514,5.066,5.066,0,0,1,2.1-4.148,6.806,6.806,0,0,1,4.344-1.708,6.7,6.7,0,0,1,6.784,4.832l9.37,25.573,10-25.573c1.269-3.221,3.514-4.832,6.784-4.832a6.806,6.806,0,0,1,4.344,1.708,5.27,5.27,0,0,1,2.1,4.148,9.2,9.2,0,0,1-.683,3.514l-22.206,54.026a10.843,10.843,0,0,1-2.2,3.563h21.23a8.831,8.831,0,0,0,8.834-8.834V335.585A8.79,8.79,0,0,0,504.709,326.8ZM401.684,384.291c-4.588,4.2-10.4,6.3-17.374,6.3H373.377v16.154a7.525,7.525,0,0,1-2.05,5.661,7.214,7.214,0,0,1-5.32,2,7.414,7.414,0,0,1-5.32-2,7.6,7.6,0,0,1-2.05-5.661V351.349c0-5.124,2.587-7.711,7.711-7.711h17.472c7.321,0,13.324,2.2,18.106,6.54,4.783,4.392,7.174,10.054,7.174,17.033C409,374.238,406.564,379.948,401.684,384.291Zm57.15,21.815a7.136,7.136,0,0,1-2.1,5.271,7.062,7.062,0,0,1-5.368,2.147,7.283,7.283,0,0,1-6.979-4.588c-3.124,3.66-7.418,5.515-12.836,5.515a21.111,21.111,0,0,1-16.447-7.516,28.821,28.821,0,0,1,0-36.8,21.04,21.04,0,0,1,16.447-7.516c5.417,0,9.712,1.855,12.836,5.515a7.486,7.486,0,0,1,14.446,2.831Z" transform="translate(-350 -326.8)" fill="#39b54a"/>
      </g>
    </g>
  </g>
</svg>
