<?xml version="1.0" encoding="UTF-8"?>
<svg width="440px" height="440px" viewBox="0 0 440 440" version="1.1" xmlns="http://www.w3.org/2000/svg" xmlns:xlink="http://www.w3.org/1999/xlink">
    <!-- Generator: Sketch 51.3 (57544) - http://www.bohemiancoding.com/sketch -->
    <title>Branch_B</title>
    <desc>Created with Sketch.</desc>
    <defs></defs>
    <g id="Page-1" stroke="none" stroke-width="1" fill="none" fill-rule="evenodd">
        <g id="Group-5-Copy-2" fill="#0066B2">
            <path d="M101.1258,169.58275 L220.5048,81.2637501 L339.8748,169.58275 L101.1258,169.58275 Z M110.3328,325.67975 L123.6508,325.67975 L123.6508,205.02775 L110.3328,205.02775 L110.3328,325.67975 Z M144.8348,325.67975 L158.1608,325.67975 L158.1608,194.76775 L144.8348,194.76775 L144.8348,325.67975 Z M179.3348,325.67975 L192.6608,325.67975 L192.6608,205.02775 L179.3348,205.02775 L179.3348,325.67975 Z M213.8368,325.67975 L227.1628,325.67975 L227.1628,194.76775 L213.8368,194.76775 L213.8368,325.67975 Z M248.3388,325.67975 L261.6648,325.67975 L261.6648,205.02775 L248.3388,205.02775 L248.3388,325.67975 Z M282.8408,325.67975 L296.1668,325.67975 L296.1668,194.76775 L282.8408,194.76775 L282.8408,325.67975 Z M317.3488,325.67975 L330.6658,325.67975 L330.6658,205.02775 L317.3488,205.02775 L317.3488,325.67975 Z M83.3998,194.76775 C75.0358,194.76775 67.6568,189.43175 65.0378,181.48875 C62.4148,173.53775 65.1748,164.85675 71.9048,159.88975 L213.0148,55.4847501 C217.4918,52.1727501 223.5078,52.1707501 227.9848,55.4847501 L369.0988,159.89275 C375.8228,164.87175 378.5808,173.55175 375.9618,181.48975 C373.3428,189.43175 365.9638,194.76775 357.5998,194.76775 L351.8428,194.76775 L351.8428,325.67975 L355.3288,325.67975 C362.2718,325.67975 367.9208,331.32775 367.9208,338.27075 C367.9208,345.21475 362.2718,350.86275 355.3288,350.86275 L85.6708,350.86275 C78.7288,350.86275 73.0808,345.21475 73.0808,338.27075 C73.0808,331.32775 78.7288,325.67975 85.6708,325.67975 L89.1568,325.67975 L89.1568,194.76775 L83.3998,194.76775 Z M372.408,360.86495 C379.351,360.86495 385,366.51295 385,373.45695 C385,380.39995 379.351,386.04895 372.408,386.04895 L68.592,386.04895 C61.648,386.04895 56,380.39995 56,373.45695 C56,366.51295 61.648,360.86495 68.592,360.86495 L372.408,360.86495 Z" id="Combined-Shape"></path>
        </g>
    </g>
</svg>