<svg xmlns="http://www.w3.org/2000/svg" width="17.807" height="17.807" viewBox="0 0 17.807 17.807">
  <g id="Group_2124" data-name="Group 2124" transform="translate(0.5 0.5)">
    <ellipse id="Ellipse_272" data-name="Ellipse 272" cx="8.404" cy="8.404" rx="8.404" ry="8.404" transform="translate(0 0)" fill="#028fe3" stroke="#fff" stroke-width="1"/>
    <path id="Path_7129" data-name="Path 7129" d="M2.365-1.923q.837,0,.837.7a.656.656,0,0,1-.209.515.917.917,0,0,1-.627.187h-4.99a.829.829,0,0,1-.613-.239.776.776,0,0,1-.239-.568,1,1,0,0,1,.269-.657L.632-6.42H-2.7A.943.943,0,0,1-3.327-6.6a.651.651,0,0,1-.209-.523.651.651,0,0,1,.209-.523A.943.943,0,0,1-2.7-7.824H2.126a.838.838,0,0,1,.62.232.781.781,0,0,1,.232.575.992.992,0,0,1-.254.657L-1.131-1.923Z" transform="translate(8.638 12.657)" fill="#fff" stroke="#fff" stroke-width="0.5"/>
  </g>
</svg>
