<svg xmlns="http://www.w3.org/2000/svg" width="115.793" height="40" viewBox="0 0 115.793 40">
  <g id="logo_web" data-name="logo web" transform="translate(-200 -104)">
    <rect id="Rectangle_3455" data-name="Rectangle 3455" width="40" height="40" rx="10" transform="translate(200 104)" fill="#1cab4e"/>
    <path id="Path_10028" data-name="Path 10028" d="M-1761.027,4625.939c-7.391,0-13.383,4.973-13.383,11.111,0,3.979,2.52,7.471,6.309,9.431,0,0,.2,1.49-1.877,3.293,0,0,1.407.455,4.794-1.8l3.372.17c.259.01.521.016.785.016,7.392,0,13.384-4.971,13.384-11.107S-1753.634,4625.939-1761.027,4625.939Zm-6.287,7.524a1.473,1.473,0,0,1,1.475-1.471,1.473,1.473,0,0,1,1.476,1.471,1.475,1.475,0,0,1-1.476,1.474A1.475,1.475,0,0,1-1767.314,4633.463Zm9.938,7.479c-.706.8-1.953,1.186-3.7,1.15s-2.979-.464-3.651-1.285a2.221,2.221,0,0,1-.511-1.636l.006-.317c.013-.581.487-.621,1.067-.528l.351.061c.581.1,1.05.3,1.038.877l-.007.353c-.008.253-.378,1.032,1.735,1.07s1.776-.75,1.781-1.007l.007-.348c.012-.586.49-.767,1.074-.842l.352-.044c.585-.078,1.056-.02,1.044.562l-.006.318a2.243,2.243,0,0,1-.579,1.616Zm1.163-6a1.474,1.474,0,0,1-1.475-1.474,1.472,1.472,0,0,1,1.475-1.471,1.473,1.473,0,0,1,1.475,1.471,1.474,1.474,0,0,1-1.475,1.473Z" transform="translate(1980.86 -4513.939)" fill="#fff"/>
    <path id="Union_2" data-name="Union 2" d="M21.722,70.64a2.2,2.2,0,0,1-.408-.067l.06-.562.176.019a.888.888,0,0,0,.556-.144,1.327,1.327,0,0,0,.414-.515l.244-.465-.7-3.968h.708l.453,3.03,1.442-3.03h.749l-2.4,4.727a1.463,1.463,0,0,1-1.271.974Zm-6.316-.09.974-5.612.614,0-.075.453a1.537,1.537,0,0,1,1.2-.524,1.13,1.13,0,0,1,.91.431,1.9,1.9,0,0,1,.345,1.146,4.044,4.044,0,0,1-.019.465l-.011.079a3.215,3.215,0,0,1-.333,1.112,1.9,1.9,0,0,1-.641.74,1.465,1.465,0,0,1-.847.234,1.349,1.349,0,0,1-1.079-.476l-.363,1.956Zm1.468-4.541-.341,1.942a.848.848,0,0,0,.821.554,1.066,1.066,0,0,0,.86-.395,2.29,2.29,0,0,0,.466-1.2l.019-.314a1.424,1.424,0,0,0-.208-.836.731.731,0,0,0-.6-.3h-.03a1.208,1.208,0,0,0-.986.556Zm10.114,3.058a1.465,1.465,0,0,1-.871-.277,1.54,1.54,0,0,1-.534-.734,2.364,2.364,0,0,1-.12-1.023A2.766,2.766,0,0,1,25.8,65.9a2.114,2.114,0,0,1,.732-.777,1.752,1.752,0,0,1,.987-.26,1.461,1.461,0,0,1,.873.277,1.575,1.575,0,0,1,.537.743,2.3,2.3,0,0,1,.118,1.036L29.044,67a2.727,2.727,0,0,1-.352,1.069,2.066,2.066,0,0,1-.727.744,1.766,1.766,0,0,1-.921.252h-.056Zm-.382-3.225a2.036,2.036,0,0,0-.453,1.109l-.008.086a2.308,2.308,0,0,0,0,.491,1.2,1.2,0,0,0,.264.7.792.792,0,0,0,.605.274,1.079,1.079,0,0,0,.622-.167,1.4,1.4,0,0,0,.479-.537,2.265,2.265,0,0,0,.251-.8,3.575,3.575,0,0,0,.011-.581,1.247,1.247,0,0,0-.273-.715.81.81,0,0,0-.607-.277h-.027A1.1,1.1,0,0,0,26.606,65.841Zm10.507,3.225a1.581,1.581,0,0,1-1.064-.376,1.164,1.164,0,0,1-.4-.95l.678,0a.718.718,0,0,0,.217.547.83.83,0,0,0,.6.206,1.167,1.167,0,0,0,.641-.156.6.6,0,0,0,.307-.448q.056-.419-.46-.592l-.7-.206q-.891-.307-.862-1.019a1.122,1.122,0,0,1,.489-.878,1.741,1.741,0,0,1,1.088-.335,1.451,1.451,0,0,1,1,.358,1.133,1.133,0,0,1,.369.912l-.674,0a.633.633,0,0,0-.192-.495.755.755,0,0,0-.528-.2.987.987,0,0,0-.607.173.63.63,0,0,0-.273.441q-.049.352.431.513l.341.094a2.194,2.194,0,0,1,.989.468.894.894,0,0,1,.27.715,1.137,1.137,0,0,1-.247.659,1.414,1.414,0,0,1-.6.429,2,2,0,0,1-.739.138Zm12.088,0a1.447,1.447,0,0,1-.856-.264,1.48,1.48,0,0,1-.515-.715,2.387,2.387,0,0,1-.112-1.032l.019-.187a2.688,2.688,0,0,1,.341-1.045,1.97,1.97,0,0,1,.7-.717,1.749,1.749,0,0,1,.959-.241,1.37,1.37,0,0,1,1.019.427,1.477,1.477,0,0,1,.382,1.045l-.633,0a.973.973,0,0,0-.221-.643.77.77,0,0,0-.577-.26,1.08,1.08,0,0,0-.878.393,2.06,2.06,0,0,0-.437,1.132l-.011.1a3.242,3.242,0,0,0-.007.494,1.13,1.13,0,0,0,.247.693.8.8,0,0,0,.606.266,1.028,1.028,0,0,0,.656-.211,1.006,1.006,0,0,0,.382-.575l.641,0a1.445,1.445,0,0,1-.305.7,1.767,1.767,0,0,1-1.356.656Zm-3.933,0a1.447,1.447,0,0,1-.856-.264,1.479,1.479,0,0,1-.515-.715,2.382,2.382,0,0,1-.112-1.032l.019-.187a2.69,2.69,0,0,1,.341-1.045,1.972,1.972,0,0,1,.7-.717,1.749,1.749,0,0,1,.959-.241,1.37,1.37,0,0,1,1.019.427,1.477,1.477,0,0,1,.382,1.045l-.633,0a.972.972,0,0,0-.221-.643.77.77,0,0,0-.577-.26,1.081,1.081,0,0,0-.878.393,2.06,2.06,0,0,0-.436,1.132l-.011.1a3.263,3.263,0,0,0-.008.494,1.13,1.13,0,0,0,.247.693.794.794,0,0,0,.606.266,1.028,1.028,0,0,0,.656-.211,1.006,1.006,0,0,0,.382-.575l.641,0a1.445,1.445,0,0,1-.305.7,1.767,1.767,0,0,1-1.356.656Zm-4.458,0a1.01,1.01,0,0,1-.86-.416,1.59,1.59,0,0,1-.208-1.093l.435-2.618h.679l-.438,2.63a1.757,1.757,0,0,0-.007.322.671.671,0,0,0,.161.423.55.55,0,0,0,.4.165,1.216,1.216,0,0,0,1.124-.588l.509-2.953h.678l-.7,4.053h-.64l.086-.4a1.557,1.557,0,0,1-1.167.476Zm-9.893,0a1.01,1.01,0,0,1-.86-.416,1.59,1.59,0,0,1-.208-1.093l.435-2.619h.678l-.438,2.63a1.742,1.742,0,0,0-.007.322.671.671,0,0,0,.161.423.55.55,0,0,0,.4.165,1.217,1.217,0,0,0,1.124-.588l.509-2.952h.678l-.7,4.053h-.641l.086-.4a1.556,1.556,0,0,1-1.166.476Zm29.922,0a1.119,1.119,0,0,1-.9-.44,1.918,1.918,0,0,1-.36-1.141,3.647,3.647,0,0,1,.019-.528,3.153,3.153,0,0,1,.341-1.116A1.932,1.932,0,0,1,60.6,65.1a1.5,1.5,0,0,1,.858-.236,1.266,1.266,0,0,1,1.041.495l.39-2.117h.678l-1,5.754h-.617l.071-.435a1.491,1.491,0,0,1-1.145.51Zm.043-3.377a1.562,1.562,0,0,0-.464.706,2.913,2.913,0,0,0-.163.948,1.405,1.405,0,0,0,.192.831.689.689,0,0,0,.592.3,1.225,1.225,0,0,0,1.045-.591l.322-1.871a.841.841,0,0,0-.817-.569h-.034a1.025,1.025,0,0,0-.673.242Zm-3.7,3.377A1.461,1.461,0,0,1,56,68.508a1.92,1.92,0,0,1-.36-1.39l.019-.161a2.7,2.7,0,0,1,.358-1.1,2.081,2.081,0,0,1,.717-.751,1.674,1.674,0,0,1,.914-.241,1.289,1.289,0,0,1,.981.416,1.711,1.711,0,0,1,.39,1.086,3.189,3.189,0,0,1-.015.487l-.042.31H56.315a1.37,1.37,0,0,0,.182.937.861.861,0,0,0,.743.4,1.442,1.442,0,0,0,1.109-.539l.39.329a1.782,1.782,0,0,1-.657.575,1.852,1.852,0,0,1-.863.2Zm-.3-3.353a2.024,2.024,0,0,0-.5.88l1.97,0,.015-.06a1.108,1.108,0,0,0-.152-.785.713.713,0,0,0-.6-.324h-.031a.989.989,0,0,0-.7.284Zm-3.677,3.353a1.462,1.462,0,0,1-1.184-.558,1.921,1.921,0,0,1-.36-1.39l.019-.161a2.693,2.693,0,0,1,.358-1.1,2.081,2.081,0,0,1,.717-.751,1.674,1.674,0,0,1,.914-.241,1.289,1.289,0,0,1,.981.416,1.711,1.711,0,0,1,.39,1.086,3.189,3.189,0,0,1-.015.487l-.041.31H52.337a1.37,1.37,0,0,0,.182.937.861.861,0,0,0,.743.4,1.442,1.442,0,0,0,1.109-.539l.39.329a1.782,1.782,0,0,1-.657.575,1.852,1.852,0,0,1-.863.2Zm-.3-3.353a2.022,2.022,0,0,0-.5.88l1.97,0,.015-.06a1.108,1.108,0,0,0-.152-.785.713.713,0,0,0-.6-.324h-.031a.989.989,0,0,0-.7.284Zm-41.3,3.353a1.462,1.462,0,0,1-1.184-.558,1.921,1.921,0,0,1-.36-1.39l.019-.161a2.7,2.7,0,0,1,.358-1.1,2.081,2.081,0,0,1,.717-.751,1.674,1.674,0,0,1,.914-.241,1.289,1.289,0,0,1,.981.416,1.71,1.71,0,0,1,.39,1.086,3.189,3.189,0,0,1-.015.487l-.042.31H10.739a1.37,1.37,0,0,0,.182.937.861.861,0,0,0,.744.4,1.442,1.442,0,0,0,1.109-.539l.39.329a1.784,1.784,0,0,1-.657.575,1.853,1.853,0,0,1-.863.2Zm-.3-3.353a2.024,2.024,0,0,0-.5.88l1.97,0,.015-.06a1.108,1.108,0,0,0-.152-.785.713.713,0,0,0-.6-.324h-.031a.989.989,0,0,0-.7.284Zm52.582,3.222a.377.377,0,0,1-.11-.281.419.419,0,0,1,.112-.29.4.4,0,0,1,.288-.122.362.362,0,0,1,.285.1.4.4,0,0,1-.288.689h-.022a.361.361,0,0,1-.265-.1Zm-49.995.056,1-5.754h.678l-1,5.754Zm-5.907,0,.438-2.521H5.76l-.438,2.521h-.7l.948-5.454h.7l-.408,2.345H8.52l.409-2.345h.708L8.69,68.992Zm56.069-1.54.633-3.914H65.4l-.731,3.914ZM60.607,55.736V46.551H57.94v-2.7h2.667V39.913h3.641v3.941H67.11v2.7H64.248V55.6a1.993,1.993,0,0,0,.367,1.341,1.7,1.7,0,0,0,1.311.412A5.607,5.607,0,0,0,67.2,57.2v2.817a8.969,8.969,0,0,1-2.4.345q-4.2,0-4.2-4.63ZM43.593,58.081a8.75,8.75,0,0,1-2.06-6.091v-.18a9.56,9.56,0,0,1,.944-4.293,6.894,6.894,0,0,1,2.652-2.937,7.473,7.473,0,0,1,3.926-1.026,7.082,7.082,0,0,1,5.327,2.113,8.309,8.309,0,0,1,2.21,5.6l.015.854a9.645,9.645,0,0,1-.921,4.285,6.811,6.811,0,0,1-2.637,2.922,7.528,7.528,0,0,1-3.965,1.034,7.032,7.032,0,0,1-5.491-2.285Zm2.63-10.189a7.078,7.078,0,0,0-1.049,4.233,6.534,6.534,0,0,0,1.034,3.918,3.36,3.36,0,0,0,2.877,1.416,3.325,3.325,0,0,0,2.869-1.438,7.214,7.214,0,0,0,1.026-4.21,6.448,6.448,0,0,0-1.056-3.9,3.56,3.56,0,0,0-5.7-.023ZM23.208,60.066V38.25h7.477a9.125,9.125,0,0,1,5.634,1.484,5.227,5.227,0,0,1,1.933,4.42,4.711,4.711,0,0,1-.808,2.7,5.208,5.208,0,0,1-2.367,1.858,4.816,4.816,0,0,1,2.735,1.806,5.26,5.26,0,0,1,.966,3.184,5.808,5.808,0,0,1-1.97,4.72,8.57,8.57,0,0,1-5.642,1.649ZM27,57.039h4.211A4.073,4.073,0,0,0,34,56.155,3.105,3.105,0,0,0,35,53.7q0-3.4-3.476-3.476H27Zm0-9.6h3.716a4.3,4.3,0,0,0,2.764-.8,2.747,2.747,0,0,0,1-2.27,2.786,2.786,0,0,0-.921-2.338,4.649,4.649,0,0,0-2.869-.719H27ZM9.228,60.066,1.406,38.25H5.557L11.04,55.317,16.585,38.25H20.75L12.9,60.066Z" transform="translate(248.594 70.75)" fill="#1cab4e"/>
  </g>
</svg>
