<svg xmlns="http://www.w3.org/2000/svg" width="247.422" height="75.542" viewBox="0 0 247.422 75.542">
  <g id="Group_2135" data-name="Group 2135" transform="translate(3194 9903.285)">
    <path id="Path_10028" data-name="Path 10028" d="M-1732.059,4625.941c-23.388,0-42.348,15.738-42.348,35.157,0,12.592,7.976,23.644,19.965,29.845,0,0,.621,4.716-5.94,10.422,0,0,4.453,1.44,15.17-5.706l10.669.54q1.23.051,2.483.05c23.392,0,42.351-15.731,42.351-35.15S-1708.668,4625.941-1732.059,4625.941Zm-19.895,23.809a4.66,4.66,0,0,1,4.666-4.655,4.662,4.662,0,0,1,4.669,4.655,4.665,4.665,0,0,1-4.669,4.663A4.664,4.664,0,0,1-1751.954,4649.75Zm31.446,23.667c-2.234,2.517-6.181,3.752-11.715,3.641s-9.429-1.47-11.554-4.065a7.034,7.034,0,0,1-1.615-5.179l.018-1c.041-1.839,1.542-1.968,3.376-1.671l1.11.192c1.839.3,3.322.934,3.287,2.777l-.021,1.113c-.024.8-1.2,3.269,5.49,3.388s5.62-2.374,5.635-3.186l.024-1.1c.04-1.852,1.551-2.425,3.4-2.663l1.114-.138c1.85-.246,3.342-.062,3.3,1.776l-.017,1.005A7.1,7.1,0,0,1-1720.508,4673.417Zm3.679-19a4.664,4.664,0,0,1-4.667-4.663,4.661,4.661,0,0,1,4.667-4.655,4.661,4.661,0,0,1,4.667,4.655A4.665,4.665,0,0,1-1716.829,4654.413Z" transform="translate(-1419.593 -14529.227)" fill="#1cab4e"/>
    <path id="Union_4" data-name="Union 4" d="M43.636,69.111,43.029,69V67.679l.44.035a2.165,2.165,0,0,0,1.287-.334,2.416,2.416,0,0,0,.761-1.222l.36-.967-3.392-9.4H44.26l2.372,7.128,2.215-7.128h1.741L46.765,66.765q-.888,2.373-2.821,2.373Zm-14.669-.158V55.787h1.486l.079,1.055a3.347,3.347,0,0,1,2.759-1.231A3.243,3.243,0,0,1,36,56.9,5.755,5.755,0,0,1,37,60.5v.149a5.7,5.7,0,0,1-.993,3.5,3.184,3.184,0,0,1-2.69,1.327,3.49,3.49,0,0,1-2.724-1.1v4.579ZM30.593,58.3v4.543a2.394,2.394,0,0,0,2.232,1.3,2.2,2.2,0,0,0,1.859-.927,4.589,4.589,0,0,0,.689-2.756,4.2,4.2,0,0,0-.685-2.54,2.209,2.209,0,0,0-1.881-.931A2.39,2.39,0,0,0,30.593,58.3Zm103.724,5.818a5.635,5.635,0,0,1-1.041-3.532v-.123a5.571,5.571,0,0,1,1.037-3.52,3.528,3.528,0,0,1,5.361-.189V51.8H141.3V65.3h-1.494l-.079-1.02a3.311,3.311,0,0,1-2.716,1.2A3.246,3.246,0,0,1,134.317,64.119Zm1.253-6.2a4.643,4.643,0,0,0-.669,2.733,4.22,4.22,0,0,0,.669,2.532,2.157,2.157,0,0,0,1.845.913,2.371,2.371,0,0,0,2.259-1.389V58.336a2.389,2.389,0,0,0-2.241-1.345A2.166,2.166,0,0,0,135.57,57.914ZM124.934,64.2a4.714,4.714,0,0,1-1.212-3.4v-.3a5.714,5.714,0,0,1,.54-2.527,4.216,4.216,0,0,1,1.512-1.74,3.8,3.8,0,0,1,2.105-.629,3.563,3.563,0,0,1,2.883,1.222,5.287,5.287,0,0,1,1.028,3.5v.676h-6.442a3.384,3.384,0,0,0,.822,2.273,2.584,2.584,0,0,0,2,.866,2.827,2.827,0,0,0,1.459-.352,3.651,3.651,0,0,0,1.046-.931l.994.773a3.994,3.994,0,0,1-3.586,1.837A4.155,4.155,0,0,1,124.934,64.2Zm1.292-6.538a3.477,3.477,0,0,0-.826,2.008h4.764v-.123a3.1,3.1,0,0,0-.668-1.92,2.042,2.042,0,0,0-1.617-.681A2.168,2.168,0,0,0,126.227,57.664ZM115.4,64.2a4.714,4.714,0,0,1-1.212-3.4v-.3a5.714,5.714,0,0,1,.54-2.527,4.222,4.222,0,0,1,1.512-1.74,3.8,3.8,0,0,1,2.105-.629,3.561,3.561,0,0,1,2.883,1.222,5.288,5.288,0,0,1,1.029,3.5v.676h-6.443a3.384,3.384,0,0,0,.823,2.273,2.582,2.582,0,0,0,2,.866,2.825,2.825,0,0,0,1.459-.352,3.651,3.651,0,0,0,1.046-.931l.994.773a3.993,3.993,0,0,1-3.586,1.837A4.156,4.156,0,0,1,115.4,64.2Zm1.292-6.538a3.477,3.477,0,0,0-.826,2.008h4.764v-.123a3.091,3.091,0,0,0-.668-1.92,2.042,2.042,0,0,0-1.617-.681A2.168,2.168,0,0,0,116.69,57.664ZM105.9,64.176a5.161,5.161,0,0,1-1.147-3.546v-.273a5.716,5.716,0,0,1,.51-2.47,3.878,3.878,0,0,1,1.463-1.679,4.161,4.161,0,0,1,2.255-.6,3.815,3.815,0,0,1,2.659.958,3.428,3.428,0,0,1,1.13,2.487h-1.538a2.242,2.242,0,0,0-.7-1.516,2.17,2.17,0,0,0-1.551-.593,2.275,2.275,0,0,0-1.921.892,4.187,4.187,0,0,0-.681,2.579v.308a4.106,4.106,0,0,0,.677,2.531,2.285,2.285,0,0,0,1.933.888,2.346,2.346,0,0,0,1.521-.527,1.859,1.859,0,0,0,.721-1.319h1.538a2.956,2.956,0,0,1-.562,1.556,3.71,3.71,0,0,1-1.385,1.177,3.988,3.988,0,0,1-1.832.439A3.917,3.917,0,0,1,105.9,64.176Zm-9.422,0a5.161,5.161,0,0,1-1.147-3.546v-.273a5.716,5.716,0,0,1,.509-2.47,3.889,3.889,0,0,1,1.463-1.679,4.161,4.161,0,0,1,2.254-.6,3.813,3.813,0,0,1,2.659.958,3.424,3.424,0,0,1,1.13,2.487h-1.538a2.238,2.238,0,0,0-.7-1.516,2.17,2.17,0,0,0-1.551-.593,2.276,2.276,0,0,0-1.921.892,4.187,4.187,0,0,0-.681,2.579v.308a4.106,4.106,0,0,0,.677,2.531,2.287,2.287,0,0,0,1.934.888,2.345,2.345,0,0,0,1.52-.527,1.855,1.855,0,0,0,.721-1.319h1.538a2.956,2.956,0,0,1-.562,1.556,3.707,3.707,0,0,1-1.384,1.177,3.99,3.99,0,0,1-1.832.439A3.919,3.919,0,0,1,96.48,64.176Zm-9.879.413a3.822,3.822,0,0,1-.8-2.614V55.787h1.625v6.143q0,2.161,1.759,2.162A2.434,2.434,0,0,0,91.66,62.7V55.787h1.625V65.3H91.738l-.035-.94a3.452,3.452,0,0,1-2.785,1.116A2.959,2.959,0,0,1,86.6,64.589Zm-8.573.479a3.286,3.286,0,0,1-1.375-1.129,2.721,2.721,0,0,1-.5-1.569h1.626a1.683,1.683,0,0,0,.654,1.3,2.546,2.546,0,0,0,1.613.479,2.629,2.629,0,0,0,1.481-.373,1.149,1.149,0,0,0,.558-1,1.2,1.2,0,0,0-.5-1.023,4.776,4.776,0,0,0-1.732-.629,8.162,8.162,0,0,1-1.96-.633,2.787,2.787,0,0,1-1.072-.878A2.105,2.105,0,0,1,76.48,58.4a2.468,2.468,0,0,1,.989-1.977A3.861,3.861,0,0,1,80,55.611a3.978,3.978,0,0,1,2.623.835,2.654,2.654,0,0,1,1.006,2.136H81.991a1.467,1.467,0,0,0-.567-1.151A2.121,2.121,0,0,0,80,56.948a2.225,2.225,0,0,0-1.389.386,1.216,1.216,0,0,0-.5,1.011.986.986,0,0,0,.466.888,5.74,5.74,0,0,0,1.683.571,8.741,8.741,0,0,1,1.973.65,2.876,2.876,0,0,1,1.12.91,2.237,2.237,0,0,1,.365,1.3A2.435,2.435,0,0,1,82.695,64.7a4.276,4.276,0,0,1-2.646.769A4.782,4.782,0,0,1,78.027,65.068Zm-15.087-.479a3.822,3.822,0,0,1-.8-2.614V55.787h1.625v6.143q0,2.161,1.759,2.162A2.432,2.432,0,0,0,68,62.7V55.787h1.626V65.3H68.078l-.035-.94a3.452,3.452,0,0,1-2.785,1.116A2.959,2.959,0,0,1,62.941,64.589Zm-10.265-.462a5.145,5.145,0,0,1-1.2-3.559v-.114a5.629,5.629,0,0,1,.549-2.514,4.1,4.1,0,0,1,1.53-1.723,4.164,4.164,0,0,1,2.236-.607,4.007,4.007,0,0,1,3.142,1.346,5.17,5.17,0,0,1,1.2,3.577v.114a5.665,5.665,0,0,1-.532,2.492,4.035,4.035,0,0,1-1.52,1.718,4.207,4.207,0,0,1-2.272.615A4,4,0,0,1,52.675,64.128Zm1.174-6.223a4.415,4.415,0,0,0-.738,2.742,4.064,4.064,0,0,0,.734,2.54,2.487,2.487,0,0,0,3.933-.013,4.453,4.453,0,0,0,.73-2.721,4.055,4.055,0,0,0-.743-2.535,2.359,2.359,0,0,0-1.973-.971A2.336,2.336,0,0,0,53.849,57.905ZM15.863,64.2a4.71,4.71,0,0,1-1.213-3.4v-.3a5.7,5.7,0,0,1,.541-2.527A4.214,4.214,0,0,1,16.7,56.24a3.8,3.8,0,0,1,2.105-.629,3.56,3.56,0,0,1,2.883,1.222,5.288,5.288,0,0,1,1.029,3.5v.676H16.276A3.379,3.379,0,0,0,17.1,63.28a2.584,2.584,0,0,0,2,.866,2.827,2.827,0,0,0,1.459-.352,3.663,3.663,0,0,0,1.046-.931l.993.773a3.992,3.992,0,0,1-3.586,1.837A4.154,4.154,0,0,1,15.863,64.2Zm1.292-6.538a3.488,3.488,0,0,0-.826,2.008h4.764v-.123a3.091,3.091,0,0,0-.668-1.92,2.042,2.042,0,0,0-1.617-.681A2.168,2.168,0,0,0,17.154,57.664Zm127.085,7.468a.937.937,0,0,1-.241-.661.967.967,0,0,1,.241-.67.91.91,0,0,1,.716-.271.923.923,0,0,1,.721.271.958.958,0,0,1,.246.67.929.929,0,0,1-.246.661.941.941,0,0,1-.721.262A.928.928,0,0,1,144.239,65.132Zm-119.5.165V51.8h1.626V65.3Zm-14.116,0V59.382H4.173V65.3H2.486V52.5H4.173V58h6.45V52.5h1.7V65.3Zm133.55-3.627-.114-9.17h1.706l-.123,9.17ZM65.941,27.236V17.556H63.319V14.037h2.623V9.621h4.8v4.416h3.072v3.519H70.739v8.965a2.147,2.147,0,0,0,.382,1.428,1.922,1.922,0,0,0,1.462.431,7.661,7.661,0,0,0,1.411-.116V31.9a9.875,9.875,0,0,1-2.905.431Q66.041,32.332,65.941,27.236Zm-18.6,2.606a9.557,9.557,0,0,1-2.316-6.773v-.216a10.645,10.645,0,0,1,1.03-4.765,7.53,7.53,0,0,1,2.963-3.237,8.643,8.643,0,0,1,4.491-1.146,8.182,8.182,0,0,1,5.936,2.225,8.925,8.925,0,0,1,2.564,6.043L62.04,23.2a9.384,9.384,0,0,1-2.308,6.632,8.019,8.019,0,0,1-6.192,2.5A8.063,8.063,0,0,1,47.339,29.842Zm3.445-10.9a7.471,7.471,0,0,0-.963,4.248,6.717,6.717,0,0,0,.963,3.916,3.458,3.458,0,0,0,5.478.016,7.343,7.343,0,0,0,.979-4.281,6.643,6.643,0,0,0-.979-3.891,3.183,3.183,0,0,0-2.756-1.38A3.132,3.132,0,0,0,50.784,18.945ZM24.387,32V7.828h8.467q4.4,0,6.674,1.685A5.762,5.762,0,0,1,41.8,14.452a5.462,5.462,0,0,1-.913,3.129,5.272,5.272,0,0,1-2.54,1.984,5.107,5.107,0,0,1,2.93,1.877,5.541,5.541,0,0,1,1.071,3.453,6.378,6.378,0,0,1-2.225,5.278A10.009,10.009,0,0,1,33.784,32Zm4.981-4h4.267a4.115,4.115,0,0,0,2.748-.839,2.873,2.873,0,0,0,.987-2.316q0-3.32-3.436-3.37H29.368Zm0-10.044h3.686q3.769-.066,3.769-3.005a2.777,2.777,0,0,0-.955-2.365,5.02,5.02,0,0,0-3.013-.723H29.368ZM8.5,32,.116,7.828H5.645L11.09,26.006,16.568,7.828h5.545L13.7,32Z" transform="translate(-3093 -9903.5)" fill="#1cab4e" stroke="rgba(0,0,0,0)" stroke-miterlimit="10" stroke-width="1"/>
  </g>
</svg>
