<svg xmlns="http://www.w3.org/2000/svg" width="32" height="32" viewBox="0 0 32 32">
  <g id="phone" transform="translate(-200 -24)">
    <circle id="Ellipse_689" data-name="Ellipse 689" cx="16" cy="16" r="16" transform="translate(200 24)" fill="#323643" opacity="0.2"/>
    <path id="Path_13755" data-name="Path 13755" d="M22.876,17.829a1.435,1.435,0,0,0-.694-.5l-.233-.114c-.025,0-2.42-1.211-2.861-1.366a1.1,1.1,0,0,0-1.388.423l-.174.246a13.609,13.609,0,0,1-.912,1.2.59.59,0,0,1-.65.085l-.133-.054a10.023,10.023,0,0,1-3.114-1.978,12.465,12.465,0,0,1-2.243-2.808c-.123-.211-.073-.287.139-.536.114-.142.224-.259.338-.379a3.5,3.5,0,0,0,.274-.315l.041-.05a2.612,2.612,0,0,0,.461-.644,1.183,1.183,0,0,0-.054-1.054c-.069-.145-.555-1.335-.912-2.208l-.369-.868h0c-.315-.811-.663-.88-1.167-.9-.148,0-.315-.016-.5-.016A2.335,2.335,0,0,0,7.048,6.6l-.035.022A4.881,4.881,0,0,0,5.505,10.3a8.253,8.253,0,0,0,1.732,4.474l.025.035.079.114a17.17,17.17,0,0,0,7.13,6.278,11.784,11.784,0,0,0,4.281,1.2,4.073,4.073,0,0,0,.89-.1,4.315,4.315,0,0,0,3.022-2.208A3.761,3.761,0,0,0,22.876,17.829Z" transform="translate(201.497 26.008)" fill="#323643"/>
  </g>
</svg>
