<svg xmlns="http://www.w3.org/2000/svg" width="40" height="40" viewBox="0 0 40 40">
  <g id="apple" transform="translate(-1676 -24)">
    <g id="Rectangle_6014" data-name="Rectangle 6014" transform="translate(1676 24)" stroke="#000" stroke-width="0.5">
      <rect width="40" height="40" stroke="none"/>
      <rect x="0.25" y="0.25" width="39.5" height="39.5" fill="none"/>
    </g>
    <g id="Group_72" data-name="Group 72" transform="translate(1686 31)">
      <path id="Path_187" data-name="Path 187" d="M65.133,31.234l-.015-.006a5.142,5.142,0,0,1-2.278-1.842,4.9,4.9,0,0,1-.86-2.751A5.151,5.151,0,0,1,64.5,22.32l.02-.012a.2.2,0,0,0,.058-.055.192.192,0,0,0,0-.222,5.8,5.8,0,0,0-2.009-1.74,6.007,6.007,0,0,0-2.6-.685c-.131-.013-.267-.019-.4-.019a8.247,8.247,0,0,0-2.893.7,4.765,4.765,0,0,1-1.386.4,4.646,4.646,0,0,1-1.434-.406,7.128,7.128,0,0,0-2.526-.622H51.26a6.344,6.344,0,0,0-3.022.865,6.093,6.093,0,0,0-2.192,2.193c-2.095,3.521-.763,8.865,1.554,12.1,1.156,1.62,2.326,3.074,3.931,3.074h.092a4.98,4.98,0,0,0,1.824-.471,5.129,5.129,0,0,1,2.161-.5,4.823,4.823,0,0,1,2.057.48,4.473,4.473,0,0,0,1.97.458c1.806-.033,2.915-1.6,3.894-2.986A13.063,13.063,0,0,0,65.232,31.5l.007-.02a.191.191,0,0,0,0-.141A.2.2,0,0,0,65.133,31.234Z" transform="translate(-45 -13.897)" fill="#fff"/>
      <path id="Path_188" data-name="Path 188" d="M58.363,17.833c.087.007.175.01.263.01a4.907,4.907,0,0,0,1.959-.506,4.757,4.757,0,0,0,1.567-1.246,5.3,5.3,0,0,0,1.313-3.915.2.2,0,0,0-.069-.128.209.209,0,0,0-.14-.048,5.721,5.721,0,0,0-3.737,1.856,5.036,5.036,0,0,0-1.342,3.807.194.194,0,0,0,.062.117A.206.206,0,0,0,58.363,17.833Z" transform="translate(-48.286 -12)" fill="#fff"/>
    </g>
  </g>
</svg>
