<svg xmlns="http://www.w3.org/2000/svg" width="398" height="112" viewBox="0 0 398 112">
  <g id="free_call" transform="translate(-7398 383)">
    <rect id="Rectangle_6248" data-name="Rectangle 6248" width="398" height="112" transform="translate(7398 -383)" fill="#1cab4e"/>
    <g id="Group_10756" data-name="Group 10756" transform="translate(414 -16.581)">
      <path id="icons8_diamond_care_1" d="M67.416,77.933a5.731,5.731,0,0,0-3.168-3.115,5.628,5.628,0,0,0-4.435.053l-.634.264a5.7,5.7,0,0,0-2.8-2.429,5.628,5.628,0,0,0-4.435.053l-6.124,2.587a1.6,1.6,0,0,0-.845,2.059,1.625,1.625,0,0,0,1.478.95,2.65,2.65,0,0,0,.634-.106l6.124-2.587a2.64,2.64,0,0,1,2.006,0,2.377,2.377,0,0,1,1,.739l-12.407,5.28a5.74,5.74,0,0,0-3.432-5.7L26.658,69.855A17.42,17.42,0,0,0,9.025,71.915L6.966,73.5l-.158.158-.528.528A1.52,1.52,0,0,0,5.8,75.293V92.188H2.584a1.584,1.584,0,0,0,0,3.168H7.335a1.556,1.556,0,0,0,1.584-1.584V75.927L10.925,74.4a14.294,14.294,0,0,1,14.466-1.689l13.621,6.124a2.384,2.384,0,0,1,1.373,1.478,2.643,2.643,0,0,1-.053,2.006,2.6,2.6,0,0,1-1.425,1.373,2.643,2.643,0,0,1-2.006-.053l-10.559-4.7a1.595,1.595,0,0,0-1.32,2.9l10.559,4.7a5.631,5.631,0,0,0,4.435.106c.211-.053,21.012-8.922,21.012-8.922a2.64,2.64,0,0,1,2.006,0,2.69,2.69,0,0,1,1.425,1.425,2.64,2.64,0,0,1,0,2.006,2.69,2.69,0,0,1-1.425,1.425L33.258,95.144a8.944,8.944,0,0,1-7.444-.211L13.248,88.809a1.582,1.582,0,0,0-1.373,2.851l12.565,6.124A11.769,11.769,0,0,0,29.773,99a12.509,12.509,0,0,0,4.752-.95L64.3,85.483a5.824,5.824,0,0,0,3.115-7.55Z" transform="translate(7015 -382.011)" fill="#fff"/>
      <path id="Path_24511" data-name="Path 24511" d="M5.492,0H2.066V-16.419h9.411v2.853H5.492v4.234h5.57v2.841H5.492ZM21.428-12.792a5.524,5.524,0,0,1,1.157.1l-.258,3.212a3.924,3.924,0,0,0-1.011-.112,3.632,3.632,0,0,0-2.555.842,3.045,3.045,0,0,0-.915,2.358V0H14.42V-12.556h2.594l.505,2.111h.168a4.72,4.72,0,0,1,1.578-1.7A3.891,3.891,0,0,1,21.428-12.792Zm8.636,2.437a2.173,2.173,0,0,0-1.707.691,3.2,3.2,0,0,0-.708,1.96h4.807a2.855,2.855,0,0,0-.663-1.96A2.243,2.243,0,0,0,30.064-10.354ZM30.547.225a6.48,6.48,0,0,1-4.739-1.673A6.336,6.336,0,0,1,24.1-6.188a6.969,6.969,0,0,1,1.578-4.88,5.618,5.618,0,0,1,4.363-1.724,5.53,5.53,0,0,1,4.144,1.516,5.736,5.736,0,0,1,1.482,4.189v1.662h-8.1a3.3,3.3,0,0,0,.865,2.28,3.043,3.043,0,0,0,2.269.82,9.418,9.418,0,0,0,2.145-.236,10.733,10.733,0,0,0,2.111-.752v2.65a8.043,8.043,0,0,1-1.92.668A12.108,12.108,0,0,1,30.547.225ZM43.653-10.354a2.173,2.173,0,0,0-1.707.691,3.2,3.2,0,0,0-.708,1.96h4.807a2.855,2.855,0,0,0-.663-1.96A2.243,2.243,0,0,0,43.653-10.354ZM44.136.225A6.48,6.48,0,0,1,39.4-1.449a6.336,6.336,0,0,1-1.707-4.739,6.969,6.969,0,0,1,1.578-4.88,5.618,5.618,0,0,1,4.363-1.724,5.53,5.53,0,0,1,4.144,1.516,5.736,5.736,0,0,1,1.482,4.189v1.662h-8.1a3.3,3.3,0,0,0,.865,2.28,3.043,3.043,0,0,0,2.269.82,9.418,9.418,0,0,0,2.145-.236,10.733,10.733,0,0,0,2.111-.752v2.65a8.043,8.043,0,0,1-1.92.668A12.108,12.108,0,0,1,44.136.225Z" transform="translate(7028 -322)" fill="#fff"/>
    </g>
    <path id="Path_24514" data-name="Path 24514" d="M6.521,0H9.516V-19.729H6.494L1.3-16.037v2.9l5.154-3.555h.068Zm15,.328c4.7,0,7.533-3.924,7.533-10.186v-.027c0-6.262-2.83-10.172-7.533-10.172s-7.533,3.91-7.533,10.172v.027C13.986-3.6,16.8.328,21.52.328Zm0-2.557c-2.816,0-4.443-2.9-4.443-7.629v-.027c0-4.73,1.627-7.6,4.443-7.6s4.443,2.871,4.443,7.6v.027C25.963-5.127,24.322-2.229,21.52-2.229ZM37.393,4.785h2.953V-2.42h.068A4.941,4.941,0,0,0,44.953.287c3.609,0,5.975-2.885,5.975-7.465v-.014c0-4.594-2.352-7.465-6.016-7.465a4.844,4.844,0,0,0-4.5,2.748h-.068v-2.475H37.393Zm6.754-7.041c-2.229,0-3.814-1.941-3.814-4.922v-.014c0-2.994,1.572-4.936,3.814-4.936,2.311,0,3.773,1.873,3.773,4.936v.014C47.92-4.143,46.471-2.256,44.146-2.256ZM53.32,0h2.953V-8.326c0-2.242,1.354-3.8,3.391-3.8,2.078,0,3.281,1.422,3.281,3.8V0H65.9V-8.887c0-3.473-2.023-5.77-5.1-5.77a4.574,4.574,0,0,0-4.457,2.639h-.068v-7.711H53.32ZM75.646-16.01l3.131-4.307H75.906L73.514-16.01Zm-2,16.3a4.649,4.649,0,0,0,4.4-2.447h.068V0h2.967V-14.383H78.121v8.395c0,2.242-1.34,3.732-3.418,3.732-2.051,0-3.062-1.2-3.062-3.377v-8.75H68.688v9.324C68.688-1.75,70.492.287,73.65.287Zm15.395,0a9.882,9.882,0,0,0,1.5-.123V-2.119a6.177,6.177,0,0,1-.793.055c-1.244,0-1.9-.437-1.9-1.9v-8.066h2.693v-2.352H87.855v-3.746H84.834v3.746H82.77v2.352h2.064v8.244C84.834-.916,86.2.287,89.045.287Zm15.914,4.785c4.061,0,6.6-2.187,6.6-5.469V-14.383H108.6v2.447h-.068a4.915,4.915,0,0,0-4.457-2.721c-3.65,0-6.057,2.83-6.057,7.342V-7.3c0,4.484,2.379,7.314,5.988,7.314a4.935,4.935,0,0,0,4.525-2.557h.068V-.574c0,2.01-1.3,3.268-3.65,3.268-1.846,0-3.09-.629-3.486-1.545l-.055-.109H98.479l.014.123C98.93,3.363,101.268,5.072,104.959,5.072Zm-.123-7.465c-2.338,0-3.8-1.859-3.8-4.867v-.014c0-2.967,1.463-4.854,3.8-4.854,2.242,0,3.76,1.9,3.76,4.854v.014C108.6-4.293,107.092-2.393,104.836-2.393ZM120.654.287c4.115,0,6.822-2.844,6.822-7.479v-.027c0-4.607-2.734-7.437-6.836-7.437s-6.809,2.844-6.809,7.438v.027C113.832-2.57,116.525.287,120.654.287Zm.014-2.475c-2.311,0-3.814-1.818-3.814-5v-.027c0-3.145,1.518-4.963,3.787-4.963,2.311,0,3.814,1.818,3.814,4.963v.027C124.455-4.02,122.979-2.187,120.668-2.187Zm-.014,7.807a1.7,1.7,0,1,0-1.709-1.7A1.7,1.7,0,0,0,120.654,5.619ZM131.359-16.6a1.7,1.7,0,0,0,1.723-1.7A1.7,1.7,0,0,0,131.359-20a1.713,1.713,0,0,0-1.723,1.709A1.71,1.71,0,0,0,131.359-16.6ZM129.883,0h2.953V-14.383h-2.953Z" transform="translate(7520 -319.684)" fill="#fff"/>
  </g>
</svg>
